%TF.GenerationSoftware,KiCad,Pcbnew,6.0.4+dfsg-1+b1*%
%TF.CreationDate,2022-07-06T22:38:45+03:00*%
%TF.ProjectId,dexx_video_adapter,64657878-5f76-4696-9465-6f5f61646170,rev?*%
%TF.SameCoordinates,Original*%
%TF.FileFunction,Copper,L1,Top*%
%TF.FilePolarity,Positive*%
%FSLAX46Y46*%
G04 Gerber Fmt 4.6, Leading zero omitted, Abs format (unit mm)*
G04 Created by KiCad (PCBNEW 6.0.4+dfsg-1+b1) date 2022-07-06 22:38:45*
%MOMM*%
%LPD*%
G01*
G04 APERTURE LIST*
%TA.AperFunction,ComponentPad*%
%ADD10C,2.550000*%
%TD*%
%TA.AperFunction,ComponentPad*%
%ADD11C,3.000000*%
%TD*%
%TA.AperFunction,ComponentPad*%
%ADD12C,1.600000*%
%TD*%
%TA.AperFunction,ComponentPad*%
%ADD13C,4.500000*%
%TD*%
%TA.AperFunction,ComponentPad*%
%ADD14C,2.200000*%
%TD*%
%TA.AperFunction,ComponentPad*%
%ADD15R,1.700000X3.500000*%
%TD*%
%TA.AperFunction,ViaPad*%
%ADD16C,0.800000*%
%TD*%
%TA.AperFunction,Conductor*%
%ADD17C,0.500000*%
%TD*%
%TA.AperFunction,Conductor*%
%ADD18C,0.350000*%
%TD*%
G04 APERTURE END LIST*
D10*
%TO.P,J3,1,In*%
%TO.N,/AV_G*%
X51180000Y-39400000D03*
D11*
%TO.P,J3,2,Ext*%
%TO.N,GND*%
X46030000Y-41000000D03*
X56330000Y-41000000D03*
%TD*%
D10*
%TO.P,J4,1,In*%
%TO.N,/AV_B*%
X51180000Y-24400000D03*
D11*
%TO.P,J4,2,Ext*%
%TO.N,GND*%
X46030000Y-26000000D03*
X56330000Y-26000000D03*
%TD*%
D12*
%TO.P,J6,1*%
%TO.N,/AV_R*%
X39240000Y-51690000D03*
%TO.P,J6,2*%
%TO.N,/AV_G*%
X39240000Y-49400000D03*
%TO.P,J6,3*%
%TO.N,/AV_B*%
X39240000Y-47110000D03*
%TO.P,J6,4*%
%TO.N,/AV_S*%
X39240000Y-44820000D03*
%TO.P,J6,5*%
%TO.N,GND*%
X39240000Y-42530000D03*
%TO.P,J6,6*%
X36700000Y-52830000D03*
%TO.P,J6,7*%
X36700000Y-50540000D03*
%TO.P,J6,8*%
X36700000Y-48250000D03*
%TO.P,J6,9*%
%TO.N,unconnected-(J6-Pad9)*%
X36700000Y-45960000D03*
D13*
%TO.P,J6,10*%
%TO.N,GND*%
X36700000Y-34870000D03*
D12*
X36700000Y-43670000D03*
D13*
X36700000Y-59870000D03*
D12*
%TO.P,J6,11*%
%TO.N,unconnected-(J6-Pad11)*%
X34160000Y-51690000D03*
%TO.P,J6,12*%
%TO.N,unconnected-(J6-Pad12)*%
X34160000Y-49400000D03*
%TO.P,J6,13*%
%TO.N,/AV_HS*%
X34160000Y-47110000D03*
%TO.P,J6,14*%
%TO.N,/AV_VS*%
X34160000Y-44820000D03*
%TO.P,J6,15*%
%TO.N,unconnected-(J6-Pad15)*%
X34160000Y-42530000D03*
%TD*%
D10*
%TO.P,J2,1,In*%
%TO.N,/AV_R*%
X51180000Y-54400000D03*
D11*
%TO.P,J2,2,Ext*%
%TO.N,GND*%
X46030000Y-56000000D03*
X56330000Y-56000000D03*
%TD*%
D14*
%TO.P,J1,1,P1*%
%TO.N,/AV_AR*%
X63170000Y-21910000D03*
%TO.P,J1,2,P2*%
X68250000Y-23815000D03*
%TO.P,J1,3,P3*%
%TO.N,/AV_AL*%
X63170000Y-25720000D03*
%TO.P,J1,4,P4*%
%TO.N,GND*%
X68250000Y-27625000D03*
%TO.P,J1,5,P5*%
X63170000Y-29530000D03*
%TO.P,J1,6,P6*%
%TO.N,/AV_AL*%
X68250000Y-31435000D03*
%TO.P,J1,7,P7*%
%TO.N,/AV_B*%
X63170000Y-33340000D03*
%TO.P,J1,8,P8*%
%TO.N,unconnected-(J1-Pad8)*%
X68250000Y-35245000D03*
%TO.P,J1,9,P9*%
%TO.N,GND*%
X63170000Y-37150000D03*
%TO.P,J1,10,P10*%
%TO.N,/AV_VS*%
X68250000Y-39055000D03*
%TO.P,J1,11,P11*%
%TO.N,/AV_G*%
X63170000Y-40960000D03*
%TO.P,J1,12,P12*%
%TO.N,/AV_HS*%
X68250000Y-42865000D03*
%TO.P,J1,13,P13*%
%TO.N,GND*%
X63170000Y-44770000D03*
%TO.P,J1,14,P14*%
X68250000Y-46675000D03*
%TO.P,J1,15,P15*%
%TO.N,/AV_R*%
X63170000Y-48580000D03*
%TO.P,J1,16,P16*%
%TO.N,unconnected-(J1-Pad16)*%
X68250000Y-50485000D03*
%TO.P,J1,17,P17*%
%TO.N,GND*%
X63170000Y-52390000D03*
%TO.P,J1,18,P18*%
X68250000Y-54295000D03*
%TO.P,J1,19,P19*%
%TO.N,unconnected-(J1-Pad19)*%
X63170000Y-56200000D03*
%TO.P,J1,20,P20*%
%TO.N,/AV_S*%
X68250000Y-58105000D03*
%TO.P,J1,21,P21*%
%TO.N,GND*%
X63170000Y-60010000D03*
%TD*%
D15*
%TO.P,J5,R*%
%TO.N,/AV_AR*%
X34440000Y-21960000D03*
%TO.P,J5,S*%
%TO.N,GND*%
X26540000Y-23960000D03*
%TO.P,J5,T*%
%TO.N,/AV_AL*%
X28940000Y-21960000D03*
%TD*%
D16*
%TO.N,GND*%
X65835000Y-46000000D03*
X63295000Y-63780000D03*
X30275000Y-46000000D03*
X58215000Y-51080000D03*
X32815000Y-58700000D03*
X45515000Y-23140000D03*
X30275000Y-40920000D03*
X32815000Y-63780000D03*
X70915000Y-25680000D03*
X55675000Y-23140000D03*
X42975000Y-25680000D03*
X60755000Y-30760000D03*
X27735000Y-46000000D03*
X48055000Y-23140000D03*
X70915000Y-56160000D03*
X45515000Y-63780000D03*
X58215000Y-58700000D03*
X50595000Y-30760000D03*
X50595000Y-58700000D03*
X40435000Y-33300000D03*
X45515000Y-33300000D03*
X27735000Y-33300000D03*
X70915000Y-43460000D03*
X65835000Y-33300000D03*
X32815000Y-53620000D03*
X35355000Y-30760000D03*
X30275000Y-38380000D03*
X37895000Y-63780000D03*
X48055000Y-48540000D03*
X70915000Y-58700000D03*
X27735000Y-53620000D03*
X70915000Y-20600000D03*
X70915000Y-40920000D03*
X60755000Y-51080000D03*
X68375000Y-18060000D03*
X53135000Y-56160000D03*
X60755000Y-53620000D03*
X65835000Y-51080000D03*
X30275000Y-28220000D03*
X63295000Y-18060000D03*
X53135000Y-48540000D03*
X30275000Y-43460000D03*
X53135000Y-43460000D03*
X68375000Y-63780000D03*
X40435000Y-61240000D03*
X30275000Y-18060000D03*
X30275000Y-56160000D03*
X35355000Y-18060000D03*
X50595000Y-33300000D03*
X37895000Y-28220000D03*
X27735000Y-61240000D03*
X30275000Y-33300000D03*
X68375000Y-20600000D03*
X48055000Y-58700000D03*
X65835000Y-63780000D03*
X58215000Y-23140000D03*
X30275000Y-53620000D03*
X32815000Y-28220000D03*
X32815000Y-30760000D03*
X35355000Y-28220000D03*
X70915000Y-51080000D03*
X70915000Y-61240000D03*
X65835000Y-56160000D03*
X42975000Y-30760000D03*
X48055000Y-53620000D03*
X35355000Y-63780000D03*
X27735000Y-48540000D03*
X40435000Y-30760000D03*
X32815000Y-61240000D03*
X42975000Y-28220000D03*
X70915000Y-46000000D03*
X55675000Y-63780000D03*
X50595000Y-63780000D03*
X42975000Y-46000000D03*
X70915000Y-18060000D03*
X55675000Y-58700000D03*
X53135000Y-58700000D03*
X32815000Y-18060000D03*
X27735000Y-58700000D03*
X60755000Y-56160000D03*
X58215000Y-53620000D03*
X58215000Y-43460000D03*
X65835000Y-40920000D03*
X30275000Y-58700000D03*
X70915000Y-63780000D03*
X32815000Y-33300000D03*
X60755000Y-28220000D03*
X42975000Y-63780000D03*
X27735000Y-51080000D03*
X65835000Y-35840000D03*
X53135000Y-63780000D03*
X70915000Y-30760000D03*
X65835000Y-20600000D03*
X55675000Y-33300000D03*
X53135000Y-33300000D03*
X60755000Y-63780000D03*
X27735000Y-63780000D03*
X60755000Y-25680000D03*
X27735000Y-30760000D03*
X48055000Y-33300000D03*
X40435000Y-28220000D03*
X30275000Y-35840000D03*
X35355000Y-56160000D03*
X65835000Y-25680000D03*
X30275000Y-48540000D03*
X70915000Y-33300000D03*
X40435000Y-53620000D03*
X27735000Y-40920000D03*
X27735000Y-18060000D03*
X32815000Y-38380000D03*
X50595000Y-28220000D03*
X60755000Y-40920000D03*
X37895000Y-18060000D03*
X48055000Y-30760000D03*
X45515000Y-58700000D03*
X48055000Y-38380000D03*
X30275000Y-30760000D03*
X70915000Y-38380000D03*
X42975000Y-35840000D03*
X65835000Y-48540000D03*
X58215000Y-28220000D03*
X53135000Y-30760000D03*
X30275000Y-63780000D03*
X50595000Y-51080000D03*
X37895000Y-23140000D03*
X40435000Y-63780000D03*
X27735000Y-35840000D03*
X30275000Y-51080000D03*
X27735000Y-38380000D03*
X65835000Y-53620000D03*
X48055000Y-63780000D03*
X27735000Y-43460000D03*
X65835000Y-18060000D03*
X70915000Y-48540000D03*
X50595000Y-48540000D03*
X68375000Y-61240000D03*
X60755000Y-58700000D03*
X70915000Y-28220000D03*
X37895000Y-30760000D03*
X27735000Y-28220000D03*
X58215000Y-63780000D03*
X70915000Y-35840000D03*
X30275000Y-25680000D03*
X70915000Y-23140000D03*
X32815000Y-56160000D03*
X70915000Y-53620000D03*
X40435000Y-20600000D03*
X42975000Y-53620000D03*
X30275000Y-61240000D03*
X55675000Y-43460000D03*
X42975000Y-56160000D03*
X32815000Y-35840000D03*
X27735000Y-56160000D03*
%TD*%
D17*
%TO.N,/AV_AR*%
X39900000Y-18680000D02*
X59940000Y-18680000D01*
X36620000Y-21960000D02*
X39900000Y-18680000D01*
X63170000Y-21910000D02*
X66345000Y-21910000D01*
X66345000Y-21910000D02*
X68250000Y-23815000D01*
X59940000Y-18680000D02*
X63170000Y-21910000D01*
X34440000Y-21960000D02*
X36620000Y-21960000D01*
%TO.N,/AV_R*%
X48470000Y-51690000D02*
X51180000Y-54400000D01*
X57000000Y-48580000D02*
X51180000Y-54400000D01*
X39240000Y-51690000D02*
X48470000Y-51690000D01*
X63170000Y-48580000D02*
X57000000Y-48580000D01*
D18*
%TO.N,/AV_S*%
X39240000Y-44820000D02*
X37980000Y-46080000D01*
X64635000Y-61720000D02*
X68250000Y-58105000D01*
X37980000Y-46080000D02*
X37980000Y-54400000D01*
X37980000Y-54400000D02*
X45300000Y-61720000D01*
X45300000Y-61720000D02*
X64635000Y-61720000D01*
D17*
%TO.N,/AV_G*%
X52350000Y-38230000D02*
X51180000Y-39400000D01*
X42640000Y-49400000D02*
X51180000Y-40860000D01*
X39240000Y-49400000D02*
X42640000Y-49400000D01*
X63170000Y-40960000D02*
X60440000Y-38230000D01*
X60440000Y-38230000D02*
X52350000Y-38230000D01*
X51180000Y-40860000D02*
X51180000Y-39400000D01*
%TO.N,/AV_B*%
X39240000Y-47110000D02*
X39980000Y-47110000D01*
X39980000Y-47110000D02*
X41490000Y-45600000D01*
X51180000Y-25290000D02*
X51180000Y-24400000D01*
X41490000Y-34980000D02*
X51180000Y-25290000D01*
X59210000Y-33340000D02*
X63170000Y-33340000D01*
X51180000Y-24400000D02*
X51180000Y-25310000D01*
X51180000Y-25310000D02*
X59210000Y-33340000D01*
X41490000Y-45600000D02*
X41490000Y-34980000D01*
%TO.N,/AV_AL*%
X65680000Y-28865000D02*
X65680000Y-28230000D01*
X58430000Y-20980000D02*
X63170000Y-25720000D01*
X33030000Y-25670000D02*
X38700000Y-25670000D01*
X68250000Y-31435000D02*
X65680000Y-28865000D01*
X38700000Y-25670000D02*
X43390000Y-20980000D01*
X65680000Y-28230000D02*
X63170000Y-25720000D01*
X28940000Y-21960000D02*
X29320000Y-21960000D01*
X43390000Y-20980000D02*
X58430000Y-20980000D01*
X29320000Y-21960000D02*
X33030000Y-25670000D01*
%TD*%
%TA.AperFunction,Conductor*%
%TO.N,GND*%
G36*
X71643621Y-16528502D02*
G01*
X71690114Y-16582158D01*
X71701500Y-16634500D01*
X71701500Y-64765500D01*
X71681498Y-64833621D01*
X71627842Y-64880114D01*
X71575500Y-64891500D01*
X25944500Y-64891500D01*
X25876379Y-64871498D01*
X25829886Y-64817842D01*
X25818500Y-64765500D01*
X25818500Y-61991982D01*
X34943142Y-61991982D01*
X34950668Y-62002415D01*
X35096463Y-62119848D01*
X35102648Y-62124244D01*
X35378363Y-62296195D01*
X35385034Y-62299817D01*
X35679414Y-62437402D01*
X35686468Y-62440195D01*
X35995257Y-62541420D01*
X36002570Y-62543339D01*
X36321298Y-62606738D01*
X36328789Y-62607764D01*
X36652823Y-62632413D01*
X36660386Y-62632531D01*
X36985021Y-62618074D01*
X36992562Y-62617282D01*
X37313115Y-62563926D01*
X37320479Y-62562240D01*
X37632315Y-62470757D01*
X37639424Y-62468198D01*
X37938003Y-62339919D01*
X37944770Y-62336515D01*
X38225764Y-62173301D01*
X38232071Y-62169111D01*
X38450005Y-62004588D01*
X38458461Y-61993197D01*
X38451743Y-61980953D01*
X36712812Y-60242022D01*
X36698868Y-60234408D01*
X36697035Y-60234539D01*
X36690420Y-60238790D01*
X34950257Y-61978953D01*
X34943142Y-61991982D01*
X25818500Y-61991982D01*
X25818500Y-59844858D01*
X33937299Y-59844858D01*
X33953456Y-60169410D01*
X33954287Y-60176939D01*
X34009318Y-60497198D01*
X34011051Y-60504585D01*
X34104156Y-60815909D01*
X34106759Y-60823022D01*
X34236595Y-61120913D01*
X34240037Y-61127669D01*
X34404720Y-61407803D01*
X34408943Y-61414088D01*
X34565792Y-61619608D01*
X34577316Y-61628069D01*
X34589382Y-61621408D01*
X36327978Y-59882812D01*
X36334356Y-59871132D01*
X37064408Y-59871132D01*
X37064539Y-59872965D01*
X37068790Y-59879580D01*
X38808825Y-61619615D01*
X38821948Y-61626781D01*
X38832250Y-61619391D01*
X38941429Y-61485285D01*
X38945842Y-61479144D01*
X39119248Y-61204312D01*
X39122895Y-61197677D01*
X39262025Y-60904011D01*
X39264850Y-60896984D01*
X39367696Y-60588715D01*
X39369650Y-60581424D01*
X39434716Y-60263033D01*
X39435784Y-60255529D01*
X39462253Y-59930100D01*
X39462458Y-59925625D01*
X39463018Y-59872221D01*
X39462908Y-59867789D01*
X39443257Y-59541835D01*
X39442349Y-59534333D01*
X39383967Y-59214663D01*
X39382154Y-59207284D01*
X39285797Y-58896966D01*
X39283116Y-58889869D01*
X39150172Y-58593363D01*
X39146655Y-58586636D01*
X38979054Y-58308252D01*
X38974757Y-58301999D01*
X38833617Y-58121022D01*
X38821823Y-58112551D01*
X38810113Y-58119097D01*
X37072022Y-59857188D01*
X37064408Y-59871132D01*
X36334356Y-59871132D01*
X36335592Y-59868868D01*
X36335461Y-59867035D01*
X36331210Y-59860420D01*
X34590864Y-58120074D01*
X34577929Y-58113011D01*
X34567367Y-58120671D01*
X34441785Y-58278268D01*
X34437428Y-58284467D01*
X34266913Y-58561094D01*
X34263333Y-58567770D01*
X34127287Y-58862878D01*
X34124537Y-58869929D01*
X34024927Y-59179251D01*
X34023044Y-59186584D01*
X33961316Y-59505632D01*
X33960329Y-59513132D01*
X33937378Y-59837277D01*
X33937299Y-59844858D01*
X25818500Y-59844858D01*
X25818500Y-57747773D01*
X34942267Y-57747773D01*
X34948871Y-57759661D01*
X36687188Y-59497978D01*
X36701132Y-59505592D01*
X36702965Y-59505461D01*
X36709580Y-59501210D01*
X38450162Y-57760628D01*
X38457174Y-57747787D01*
X38449379Y-57737098D01*
X38279886Y-57603481D01*
X38273663Y-57599156D01*
X37996140Y-57430088D01*
X37989465Y-57426553D01*
X37693637Y-57292049D01*
X37686567Y-57289335D01*
X37376740Y-57191350D01*
X37369389Y-57189503D01*
X37050024Y-57129446D01*
X37042515Y-57128498D01*
X36718251Y-57107245D01*
X36710686Y-57107205D01*
X36386207Y-57125062D01*
X36378693Y-57125931D01*
X36058713Y-57182641D01*
X36051357Y-57184406D01*
X35740503Y-57279147D01*
X35733409Y-57281786D01*
X35436207Y-57413178D01*
X35429470Y-57416655D01*
X35150196Y-57582805D01*
X35143945Y-57587053D01*
X34950733Y-57736115D01*
X34942267Y-57747773D01*
X25818500Y-57747773D01*
X25818500Y-51690000D01*
X32846502Y-51690000D01*
X32866457Y-51918087D01*
X32867881Y-51923400D01*
X32867881Y-51923402D01*
X32914688Y-52098085D01*
X32925716Y-52139243D01*
X32928039Y-52144224D01*
X32928039Y-52144225D01*
X33020151Y-52341762D01*
X33020154Y-52341767D01*
X33022477Y-52346749D01*
X33054838Y-52392965D01*
X33127674Y-52496985D01*
X33153802Y-52534300D01*
X33315700Y-52696198D01*
X33320208Y-52699355D01*
X33320211Y-52699357D01*
X33379548Y-52740905D01*
X33503251Y-52827523D01*
X33508233Y-52829846D01*
X33508238Y-52829849D01*
X33643687Y-52893009D01*
X33710757Y-52924284D01*
X33716065Y-52925706D01*
X33716067Y-52925707D01*
X33926598Y-52982119D01*
X33926600Y-52982119D01*
X33931913Y-52983543D01*
X34160000Y-53003498D01*
X34388087Y-52983543D01*
X34393400Y-52982119D01*
X34393402Y-52982119D01*
X34603933Y-52925707D01*
X34603935Y-52925706D01*
X34609243Y-52924284D01*
X34676313Y-52893009D01*
X34811762Y-52829849D01*
X34811767Y-52829846D01*
X34816749Y-52827523D01*
X34940452Y-52740905D01*
X34999789Y-52699357D01*
X34999792Y-52699355D01*
X35004300Y-52696198D01*
X35166198Y-52534300D01*
X35178597Y-52516592D01*
X35234053Y-52472264D01*
X35304672Y-52464954D01*
X35368033Y-52496985D01*
X35404018Y-52558186D01*
X35405582Y-52601881D01*
X35406951Y-52602001D01*
X35387483Y-52824525D01*
X35387483Y-52835475D01*
X35406472Y-53052519D01*
X35408375Y-53063312D01*
X35464764Y-53273761D01*
X35468510Y-53284053D01*
X35560586Y-53481511D01*
X35566069Y-53491006D01*
X35602509Y-53543048D01*
X35612988Y-53551424D01*
X35626434Y-53544356D01*
X36327978Y-52842812D01*
X36335592Y-52828868D01*
X36335461Y-52827035D01*
X36331210Y-52820420D01*
X35625713Y-52114923D01*
X35611769Y-52107309D01*
X35583665Y-52109319D01*
X35576630Y-52112071D01*
X35507024Y-52098085D01*
X35456030Y-52048688D01*
X35439837Y-51979563D01*
X35443937Y-51953939D01*
X35452118Y-51923409D01*
X35452120Y-51923398D01*
X35453543Y-51918087D01*
X35473498Y-51690000D01*
X35453543Y-51461913D01*
X35451736Y-51455167D01*
X35441016Y-51415162D01*
X35442706Y-51344186D01*
X35482500Y-51285390D01*
X35547764Y-51257442D01*
X35577773Y-51262488D01*
X35578118Y-51259157D01*
X35610854Y-51262545D01*
X35626434Y-51254356D01*
X36327978Y-50552812D01*
X36335592Y-50538868D01*
X36335461Y-50537035D01*
X36331210Y-50530420D01*
X35625713Y-49824923D01*
X35611769Y-49817309D01*
X35583665Y-49819319D01*
X35576630Y-49822071D01*
X35507024Y-49808085D01*
X35456030Y-49758688D01*
X35439837Y-49689563D01*
X35443937Y-49663939D01*
X35452118Y-49633409D01*
X35452120Y-49633398D01*
X35453543Y-49628087D01*
X35473498Y-49400000D01*
X35453543Y-49171913D01*
X35441016Y-49125162D01*
X35442706Y-49054186D01*
X35482500Y-48995390D01*
X35547764Y-48967442D01*
X35577773Y-48972488D01*
X35578118Y-48969157D01*
X35610854Y-48972545D01*
X35626434Y-48964356D01*
X36327978Y-48262812D01*
X36335592Y-48248868D01*
X36335461Y-48247035D01*
X36331210Y-48240420D01*
X35625713Y-47534923D01*
X35611769Y-47527309D01*
X35583665Y-47529319D01*
X35576630Y-47532071D01*
X35507024Y-47518085D01*
X35456030Y-47468688D01*
X35439837Y-47399563D01*
X35443937Y-47373939D01*
X35452118Y-47343409D01*
X35452120Y-47343398D01*
X35453543Y-47338087D01*
X35473498Y-47110000D01*
X35453543Y-46881913D01*
X35452475Y-46877928D01*
X35460297Y-46807792D01*
X35505064Y-46752687D01*
X35572515Y-46730533D01*
X35641236Y-46748364D01*
X35679727Y-46784199D01*
X35693802Y-46804300D01*
X35855700Y-46966198D01*
X35860208Y-46969355D01*
X35860211Y-46969357D01*
X35927326Y-47016351D01*
X35971654Y-47071808D01*
X35980385Y-47132536D01*
X35977454Y-47160853D01*
X35985644Y-47176434D01*
X36970115Y-48160905D01*
X37004141Y-48223217D01*
X36999076Y-48294032D01*
X36970115Y-48339095D01*
X35984923Y-49324287D01*
X35977309Y-49338231D01*
X35978471Y-49354487D01*
X35989734Y-49383279D01*
X35978837Y-49437498D01*
X35977455Y-49450854D01*
X35985644Y-49466434D01*
X36970115Y-50450905D01*
X37004141Y-50513217D01*
X36999076Y-50584032D01*
X36970115Y-50629095D01*
X35984923Y-51614287D01*
X35977309Y-51628231D01*
X35978471Y-51644487D01*
X35989734Y-51673279D01*
X35978837Y-51727498D01*
X35977455Y-51740854D01*
X35985644Y-51756434D01*
X36970115Y-52740905D01*
X37004141Y-52803217D01*
X36999076Y-52874032D01*
X36970115Y-52919095D01*
X35984923Y-53904287D01*
X35978493Y-53916062D01*
X35987789Y-53928077D01*
X36038994Y-53963931D01*
X36048489Y-53969414D01*
X36245947Y-54061490D01*
X36256239Y-54065236D01*
X36466688Y-54121625D01*
X36477481Y-54123528D01*
X36694525Y-54142517D01*
X36705475Y-54142517D01*
X36922519Y-54123528D01*
X36933312Y-54121625D01*
X37137889Y-54066809D01*
X37208865Y-54068499D01*
X37267661Y-54108293D01*
X37295609Y-54173557D01*
X37296500Y-54188516D01*
X37296500Y-54371955D01*
X37296208Y-54380524D01*
X37293232Y-54424186D01*
X37292424Y-54436034D01*
X37293729Y-54443511D01*
X37293729Y-54443514D01*
X37303002Y-54496647D01*
X37303965Y-54503171D01*
X37311355Y-54564235D01*
X37314042Y-54571345D01*
X37315246Y-54576248D01*
X37318114Y-54586734D01*
X37319561Y-54591526D01*
X37320866Y-54599004D01*
X37323918Y-54605956D01*
X37323918Y-54605957D01*
X37345595Y-54655341D01*
X37348086Y-54661446D01*
X37367145Y-54711882D01*
X37369831Y-54718989D01*
X37374131Y-54725246D01*
X37376467Y-54729714D01*
X37381725Y-54739160D01*
X37384307Y-54743526D01*
X37387362Y-54750485D01*
X37424823Y-54799304D01*
X37428686Y-54804623D01*
X37455283Y-54843321D01*
X37463534Y-54855326D01*
X37469203Y-54860377D01*
X37508324Y-54895233D01*
X37513599Y-54900214D01*
X44796837Y-62183451D01*
X44802691Y-62189716D01*
X44839290Y-62231670D01*
X44845504Y-62236037D01*
X44889629Y-62267049D01*
X44894925Y-62270982D01*
X44943328Y-62308935D01*
X44950249Y-62312060D01*
X44954564Y-62314673D01*
X44963976Y-62320042D01*
X44968424Y-62322427D01*
X44974639Y-62326795D01*
X44999570Y-62336515D01*
X45031952Y-62349140D01*
X45038034Y-62351697D01*
X45038515Y-62351914D01*
X45094104Y-62377014D01*
X45101576Y-62378399D01*
X45106427Y-62379919D01*
X45116765Y-62382864D01*
X45121696Y-62384130D01*
X45128772Y-62386889D01*
X45136301Y-62387880D01*
X45136304Y-62387881D01*
X45189766Y-62394919D01*
X45196281Y-62395951D01*
X45238141Y-62403709D01*
X45256767Y-62407161D01*
X45264347Y-62406724D01*
X45264348Y-62406724D01*
X45316642Y-62403709D01*
X45323894Y-62403500D01*
X64606955Y-62403500D01*
X64615524Y-62403792D01*
X64663458Y-62407060D01*
X64663462Y-62407060D01*
X64671034Y-62407576D01*
X64678511Y-62406271D01*
X64678514Y-62406271D01*
X64731647Y-62396998D01*
X64738171Y-62396035D01*
X64791691Y-62389558D01*
X64799235Y-62388645D01*
X64806345Y-62385958D01*
X64811248Y-62384754D01*
X64821734Y-62381886D01*
X64826526Y-62380439D01*
X64834004Y-62379134D01*
X64840957Y-62376082D01*
X64890341Y-62354405D01*
X64896446Y-62351914D01*
X64946882Y-62332855D01*
X64946885Y-62332853D01*
X64953989Y-62330169D01*
X64960246Y-62325869D01*
X64964714Y-62323533D01*
X64974160Y-62318275D01*
X64978526Y-62315693D01*
X64985485Y-62312638D01*
X65034304Y-62275177D01*
X65039623Y-62271314D01*
X65084065Y-62240769D01*
X65090326Y-62236466D01*
X65130233Y-62191676D01*
X65135213Y-62186402D01*
X67645630Y-59675985D01*
X67707942Y-59641959D01*
X67764138Y-59642561D01*
X67824708Y-59657102D01*
X67992784Y-59697454D01*
X67992790Y-59697455D01*
X67997597Y-59698609D01*
X68250000Y-59718474D01*
X68502403Y-59698609D01*
X68507210Y-59697455D01*
X68507216Y-59697454D01*
X68663968Y-59659821D01*
X68748591Y-59639505D01*
X68753164Y-59637611D01*
X68977928Y-59544511D01*
X68977932Y-59544509D01*
X68982502Y-59542616D01*
X69198376Y-59410328D01*
X69390898Y-59245898D01*
X69555328Y-59053376D01*
X69687616Y-58837502D01*
X69745831Y-58696960D01*
X69782611Y-58608164D01*
X69782612Y-58608162D01*
X69784505Y-58603591D01*
X69815421Y-58474817D01*
X69842454Y-58362216D01*
X69842455Y-58362210D01*
X69843609Y-58357403D01*
X69863474Y-58105000D01*
X69843609Y-57852597D01*
X69834217Y-57813474D01*
X69791376Y-57635030D01*
X69784505Y-57606409D01*
X69776649Y-57587442D01*
X69689511Y-57377072D01*
X69689509Y-57377068D01*
X69687616Y-57372498D01*
X69555328Y-57156624D01*
X69390898Y-56964102D01*
X69198376Y-56799672D01*
X68982502Y-56667384D01*
X68977932Y-56665491D01*
X68977928Y-56665489D01*
X68753164Y-56572389D01*
X68753162Y-56572388D01*
X68748591Y-56570495D01*
X68663968Y-56550179D01*
X68507216Y-56512546D01*
X68507210Y-56512545D01*
X68502403Y-56511391D01*
X68250000Y-56491526D01*
X67997597Y-56511391D01*
X67992790Y-56512545D01*
X67992784Y-56512546D01*
X67836032Y-56550179D01*
X67751409Y-56570495D01*
X67746838Y-56572388D01*
X67746836Y-56572389D01*
X67522072Y-56665489D01*
X67522068Y-56665491D01*
X67517498Y-56667384D01*
X67301624Y-56799672D01*
X67109102Y-56964102D01*
X66944672Y-57156624D01*
X66812384Y-57372498D01*
X66810491Y-57377068D01*
X66810489Y-57377072D01*
X66723351Y-57587442D01*
X66715495Y-57606409D01*
X66708624Y-57635030D01*
X66665784Y-57813474D01*
X66656391Y-57852597D01*
X66636526Y-58105000D01*
X66656391Y-58357403D01*
X66657545Y-58362210D01*
X66657546Y-58362216D01*
X66684579Y-58474817D01*
X66711425Y-58586636D01*
X66712439Y-58590861D01*
X66708892Y-58661769D01*
X66679015Y-58709370D01*
X64964358Y-60424027D01*
X64902046Y-60458053D01*
X64831231Y-60452988D01*
X64774395Y-60410441D01*
X64749584Y-60343921D01*
X64752744Y-60305518D01*
X64761959Y-60267137D01*
X64763502Y-60257390D01*
X64782584Y-60014930D01*
X64782584Y-60005070D01*
X64763502Y-59762610D01*
X64761959Y-59752863D01*
X64705183Y-59516376D01*
X64702134Y-59506991D01*
X64609064Y-59282300D01*
X64604583Y-59273506D01*
X64485287Y-59078833D01*
X64474830Y-59069373D01*
X64466054Y-59073156D01*
X63259095Y-60280115D01*
X63196783Y-60314141D01*
X63125968Y-60309076D01*
X63080905Y-60280115D01*
X61876990Y-59076200D01*
X61864610Y-59069440D01*
X61856960Y-59075167D01*
X61735417Y-59273506D01*
X61730936Y-59282300D01*
X61637866Y-59506991D01*
X61634817Y-59516376D01*
X61578041Y-59752863D01*
X61576498Y-59762610D01*
X61557416Y-60005070D01*
X61557416Y-60014930D01*
X61576498Y-60257390D01*
X61578041Y-60267137D01*
X61634817Y-60503624D01*
X61637866Y-60513009D01*
X61730936Y-60737700D01*
X61735417Y-60746494D01*
X61795576Y-60844665D01*
X61814114Y-60913199D01*
X61792657Y-60980876D01*
X61738018Y-61026209D01*
X61688143Y-61036500D01*
X45635305Y-61036500D01*
X45567184Y-61016498D01*
X45546210Y-60999595D01*
X43251785Y-58705170D01*
X62229373Y-58705170D01*
X62233156Y-58713946D01*
X63157188Y-59637978D01*
X63171132Y-59645592D01*
X63172965Y-59645461D01*
X63179580Y-59641210D01*
X64103800Y-58716990D01*
X64110560Y-58704610D01*
X64104833Y-58696960D01*
X63906494Y-58575417D01*
X63897700Y-58570936D01*
X63673009Y-58477866D01*
X63663624Y-58474817D01*
X63427137Y-58418041D01*
X63417390Y-58416498D01*
X63174930Y-58397416D01*
X63165070Y-58397416D01*
X62922610Y-58416498D01*
X62912863Y-58418041D01*
X62676376Y-58474817D01*
X62666991Y-58477866D01*
X62442300Y-58570936D01*
X62433506Y-58575417D01*
X62238833Y-58694713D01*
X62229373Y-58705170D01*
X43251785Y-58705170D01*
X42136269Y-57589654D01*
X44805618Y-57589654D01*
X44812673Y-57599627D01*
X44843679Y-57625551D01*
X44850598Y-57630579D01*
X45075272Y-57771515D01*
X45082807Y-57775556D01*
X45324520Y-57884694D01*
X45332551Y-57887680D01*
X45586832Y-57963002D01*
X45595184Y-57964869D01*
X45857340Y-58004984D01*
X45865874Y-58005700D01*
X46131045Y-58009867D01*
X46139596Y-58009418D01*
X46402883Y-57977557D01*
X46411284Y-57975955D01*
X46667824Y-57908653D01*
X46675926Y-57905926D01*
X46920949Y-57804434D01*
X46928617Y-57800628D01*
X47157598Y-57666822D01*
X47164679Y-57662009D01*
X47244655Y-57599301D01*
X47251545Y-57589654D01*
X55105618Y-57589654D01*
X55112673Y-57599627D01*
X55143679Y-57625551D01*
X55150598Y-57630579D01*
X55375272Y-57771515D01*
X55382807Y-57775556D01*
X55624520Y-57884694D01*
X55632551Y-57887680D01*
X55886832Y-57963002D01*
X55895184Y-57964869D01*
X56157340Y-58004984D01*
X56165874Y-58005700D01*
X56431045Y-58009867D01*
X56439596Y-58009418D01*
X56702883Y-57977557D01*
X56711284Y-57975955D01*
X56967824Y-57908653D01*
X56975926Y-57905926D01*
X57220949Y-57804434D01*
X57228617Y-57800628D01*
X57457598Y-57666822D01*
X57464679Y-57662009D01*
X57544655Y-57599301D01*
X57553125Y-57587442D01*
X57546608Y-57575818D01*
X56342812Y-56372022D01*
X56328868Y-56364408D01*
X56327035Y-56364539D01*
X56320420Y-56368790D01*
X55112910Y-57576300D01*
X55105618Y-57589654D01*
X47251545Y-57589654D01*
X47253125Y-57587442D01*
X47246608Y-57575818D01*
X46042812Y-56372022D01*
X46028868Y-56364408D01*
X46027035Y-56364539D01*
X46020420Y-56368790D01*
X44812910Y-57576300D01*
X44805618Y-57589654D01*
X42136269Y-57589654D01*
X40529819Y-55983204D01*
X44017665Y-55983204D01*
X44032932Y-56247969D01*
X44034005Y-56256470D01*
X44085065Y-56516722D01*
X44087276Y-56524974D01*
X44173184Y-56775894D01*
X44176499Y-56783779D01*
X44295664Y-57020713D01*
X44300020Y-57028079D01*
X44429347Y-57216250D01*
X44439601Y-57224594D01*
X44453342Y-57217448D01*
X45657978Y-56012812D01*
X45664356Y-56001132D01*
X46394408Y-56001132D01*
X46394539Y-56002965D01*
X46398790Y-56009580D01*
X47605730Y-57216520D01*
X47617939Y-57223187D01*
X47629439Y-57214497D01*
X47726831Y-57081913D01*
X47731418Y-57074685D01*
X47857962Y-56841621D01*
X47861530Y-56833827D01*
X47955271Y-56585750D01*
X47957748Y-56577544D01*
X48016954Y-56319038D01*
X48018294Y-56310577D01*
X48042031Y-56044616D01*
X48042277Y-56039677D01*
X48042666Y-56002485D01*
X48042523Y-55997519D01*
X48024362Y-55731123D01*
X48023201Y-55722649D01*
X47969419Y-55462944D01*
X47967120Y-55454709D01*
X47878588Y-55204705D01*
X47875191Y-55196854D01*
X47753550Y-54961178D01*
X47749122Y-54953866D01*
X47630031Y-54784417D01*
X47619509Y-54776037D01*
X47606121Y-54783089D01*
X46402022Y-55987188D01*
X46394408Y-56001132D01*
X45664356Y-56001132D01*
X45665592Y-55998868D01*
X45665461Y-55997035D01*
X45661210Y-55990420D01*
X44453814Y-54783024D01*
X44441804Y-54776466D01*
X44430064Y-54785434D01*
X44321935Y-54935911D01*
X44317418Y-54943196D01*
X44193325Y-55177567D01*
X44189839Y-55185395D01*
X44098700Y-55434446D01*
X44096311Y-55442670D01*
X44039812Y-55701795D01*
X44038563Y-55710250D01*
X44017754Y-55974653D01*
X44017665Y-55983204D01*
X40529819Y-55983204D01*
X38959115Y-54412500D01*
X44806584Y-54412500D01*
X44812980Y-54423770D01*
X46017188Y-55627978D01*
X46031132Y-55635592D01*
X46032965Y-55635461D01*
X46039580Y-55631210D01*
X47246604Y-54424186D01*
X47253795Y-54411017D01*
X47246473Y-54400780D01*
X47199233Y-54362115D01*
X47192261Y-54357160D01*
X46966122Y-54218582D01*
X46958552Y-54214624D01*
X46715704Y-54108022D01*
X46707644Y-54105120D01*
X46452592Y-54032467D01*
X46444214Y-54030685D01*
X46181656Y-53993318D01*
X46173111Y-53992691D01*
X45907908Y-53991302D01*
X45899374Y-53991839D01*
X45636433Y-54026456D01*
X45628035Y-54028149D01*
X45372238Y-54098127D01*
X45364143Y-54100946D01*
X45120199Y-54204997D01*
X45112577Y-54208881D01*
X44885013Y-54345075D01*
X44877981Y-54349962D01*
X44815053Y-54400377D01*
X44806584Y-54412500D01*
X38959115Y-54412500D01*
X38700405Y-54153790D01*
X38666379Y-54091478D01*
X38663500Y-54064695D01*
X38663500Y-53054392D01*
X38683502Y-52986271D01*
X38737158Y-52939778D01*
X38807432Y-52929674D01*
X38822102Y-52932683D01*
X39011913Y-52983543D01*
X39240000Y-53003498D01*
X39468087Y-52983543D01*
X39473400Y-52982119D01*
X39473402Y-52982119D01*
X39683933Y-52925707D01*
X39683935Y-52925706D01*
X39689243Y-52924284D01*
X39756313Y-52893009D01*
X39891762Y-52829849D01*
X39891767Y-52829846D01*
X39896749Y-52827523D01*
X40020452Y-52740905D01*
X40079789Y-52699357D01*
X40079792Y-52699355D01*
X40084300Y-52696198D01*
X40246198Y-52534300D01*
X40268655Y-52502229D01*
X40324110Y-52457901D01*
X40371867Y-52448500D01*
X48103629Y-52448500D01*
X48171750Y-52468502D01*
X48192724Y-52485405D01*
X49444578Y-53737259D01*
X49478604Y-53799571D01*
X49477606Y-53857369D01*
X49424815Y-54065236D01*
X49418670Y-54089430D01*
X49392112Y-54353183D01*
X49392336Y-54357850D01*
X49392336Y-54357855D01*
X49396451Y-54443514D01*
X49404830Y-54617963D01*
X49423512Y-54711882D01*
X49452045Y-54855326D01*
X49456546Y-54877956D01*
X49458125Y-54882354D01*
X49458127Y-54882361D01*
X49520432Y-55055894D01*
X49546123Y-55127449D01*
X49671594Y-55360961D01*
X49830201Y-55573362D01*
X49833510Y-55576642D01*
X49833515Y-55576648D01*
X50015145Y-55756699D01*
X50018462Y-55759987D01*
X50022224Y-55762745D01*
X50022227Y-55762748D01*
X50228465Y-55913968D01*
X50232239Y-55916735D01*
X50236382Y-55918915D01*
X50236384Y-55918916D01*
X50462687Y-56037980D01*
X50462692Y-56037982D01*
X50466837Y-56040163D01*
X50471260Y-56041708D01*
X50471261Y-56041708D01*
X50615998Y-56092252D01*
X50717102Y-56127559D01*
X50721695Y-56128431D01*
X50972947Y-56176133D01*
X50972950Y-56176133D01*
X50977536Y-56177004D01*
X51103411Y-56181950D01*
X51237750Y-56187228D01*
X51237755Y-56187228D01*
X51242418Y-56187411D01*
X51345397Y-56176133D01*
X51501275Y-56159062D01*
X51501280Y-56159061D01*
X51505928Y-56158552D01*
X51629506Y-56126017D01*
X51757756Y-56092252D01*
X51757759Y-56092251D01*
X51762279Y-56091061D01*
X51870383Y-56044616D01*
X52001544Y-55988265D01*
X52001546Y-55988264D01*
X52005838Y-55986420D01*
X52011035Y-55983204D01*
X54317665Y-55983204D01*
X54332932Y-56247969D01*
X54334005Y-56256470D01*
X54385065Y-56516722D01*
X54387276Y-56524974D01*
X54473184Y-56775894D01*
X54476499Y-56783779D01*
X54595664Y-57020713D01*
X54600020Y-57028079D01*
X54729347Y-57216250D01*
X54739601Y-57224594D01*
X54753342Y-57217448D01*
X55957978Y-56012812D01*
X55964356Y-56001132D01*
X56694408Y-56001132D01*
X56694539Y-56002965D01*
X56698790Y-56009580D01*
X57905730Y-57216520D01*
X57917939Y-57223187D01*
X57929439Y-57214497D01*
X58026831Y-57081913D01*
X58031418Y-57074685D01*
X58157962Y-56841621D01*
X58161530Y-56833827D01*
X58255271Y-56585750D01*
X58257748Y-56577544D01*
X58316954Y-56319038D01*
X58318294Y-56310577D01*
X58328163Y-56200000D01*
X61556526Y-56200000D01*
X61576391Y-56452403D01*
X61577545Y-56457210D01*
X61577546Y-56457216D01*
X61615179Y-56613968D01*
X61635495Y-56698591D01*
X61637388Y-56703162D01*
X61637389Y-56703164D01*
X61691512Y-56833827D01*
X61732384Y-56932502D01*
X61864672Y-57148376D01*
X62029102Y-57340898D01*
X62221624Y-57505328D01*
X62437498Y-57637616D01*
X62442068Y-57639509D01*
X62442072Y-57639511D01*
X62666836Y-57732611D01*
X62671409Y-57734505D01*
X62726675Y-57747773D01*
X62912784Y-57792454D01*
X62912790Y-57792455D01*
X62917597Y-57793609D01*
X63170000Y-57813474D01*
X63422403Y-57793609D01*
X63427210Y-57792455D01*
X63427216Y-57792454D01*
X63613325Y-57747773D01*
X63668591Y-57734505D01*
X63673164Y-57732611D01*
X63897928Y-57639511D01*
X63897932Y-57639509D01*
X63902502Y-57637616D01*
X64118376Y-57505328D01*
X64310898Y-57340898D01*
X64475328Y-57148376D01*
X64607616Y-56932502D01*
X64648489Y-56833827D01*
X64702611Y-56703164D01*
X64702612Y-56703162D01*
X64704505Y-56698591D01*
X64724821Y-56613968D01*
X64762454Y-56457216D01*
X64762455Y-56457210D01*
X64763609Y-56452403D01*
X64783474Y-56200000D01*
X64763609Y-55947597D01*
X64756724Y-55918916D01*
X64712345Y-55734064D01*
X64704505Y-55701409D01*
X64702611Y-55696836D01*
X64662662Y-55600390D01*
X67309440Y-55600390D01*
X67315167Y-55608040D01*
X67513506Y-55729583D01*
X67522300Y-55734064D01*
X67746991Y-55827134D01*
X67756376Y-55830183D01*
X67992863Y-55886959D01*
X68002610Y-55888502D01*
X68245070Y-55907584D01*
X68254930Y-55907584D01*
X68497390Y-55888502D01*
X68507137Y-55886959D01*
X68743624Y-55830183D01*
X68753009Y-55827134D01*
X68977700Y-55734064D01*
X68986494Y-55729583D01*
X69181167Y-55610287D01*
X69190627Y-55599830D01*
X69186844Y-55591054D01*
X68262812Y-54667022D01*
X68248868Y-54659408D01*
X68247035Y-54659539D01*
X68240420Y-54663790D01*
X67316200Y-55588010D01*
X67309440Y-55600390D01*
X64662662Y-55600390D01*
X64609511Y-55472072D01*
X64609509Y-55472068D01*
X64607616Y-55467498D01*
X64475328Y-55251624D01*
X64310898Y-55059102D01*
X64118376Y-54894672D01*
X63902502Y-54762384D01*
X63897932Y-54760491D01*
X63897928Y-54760489D01*
X63673164Y-54667389D01*
X63673162Y-54667388D01*
X63668591Y-54665495D01*
X63583968Y-54645179D01*
X63427216Y-54607546D01*
X63427210Y-54607545D01*
X63422403Y-54606391D01*
X63170000Y-54586526D01*
X62917597Y-54606391D01*
X62912790Y-54607545D01*
X62912784Y-54607546D01*
X62756032Y-54645179D01*
X62671409Y-54665495D01*
X62666838Y-54667388D01*
X62666836Y-54667389D01*
X62442072Y-54760489D01*
X62442068Y-54760491D01*
X62437498Y-54762384D01*
X62221624Y-54894672D01*
X62029102Y-55059102D01*
X61864672Y-55251624D01*
X61732384Y-55467498D01*
X61730491Y-55472068D01*
X61730489Y-55472072D01*
X61637389Y-55696836D01*
X61635495Y-55701409D01*
X61627655Y-55734064D01*
X61583277Y-55918916D01*
X61576391Y-55947597D01*
X61556526Y-56200000D01*
X58328163Y-56200000D01*
X58342031Y-56044616D01*
X58342277Y-56039677D01*
X58342666Y-56002485D01*
X58342523Y-55997519D01*
X58324362Y-55731123D01*
X58323201Y-55722649D01*
X58269419Y-55462944D01*
X58267120Y-55454709D01*
X58178588Y-55204705D01*
X58175191Y-55196854D01*
X58053550Y-54961178D01*
X58049122Y-54953866D01*
X57930031Y-54784417D01*
X57919509Y-54776037D01*
X57906121Y-54783089D01*
X56702022Y-55987188D01*
X56694408Y-56001132D01*
X55964356Y-56001132D01*
X55965592Y-55998868D01*
X55965461Y-55997035D01*
X55961210Y-55990420D01*
X54753814Y-54783024D01*
X54741804Y-54776466D01*
X54730064Y-54785434D01*
X54621935Y-54935911D01*
X54617418Y-54943196D01*
X54493325Y-55177567D01*
X54489839Y-55185395D01*
X54398700Y-55434446D01*
X54396311Y-55442670D01*
X54339812Y-55701795D01*
X54338563Y-55710250D01*
X54317754Y-55974653D01*
X54317665Y-55983204D01*
X52011035Y-55983204D01*
X52105458Y-55924773D01*
X52227282Y-55849387D01*
X52227286Y-55849384D01*
X52231255Y-55846928D01*
X52433577Y-55675649D01*
X52490898Y-55610287D01*
X52605278Y-55479862D01*
X52605281Y-55479857D01*
X52608360Y-55476347D01*
X52751765Y-55253399D01*
X52860641Y-55011703D01*
X52893647Y-54894672D01*
X52931326Y-54761074D01*
X52931327Y-54761071D01*
X52932596Y-54756570D01*
X52950824Y-54613291D01*
X52965652Y-54496733D01*
X52965652Y-54496729D01*
X52966050Y-54493603D01*
X52968174Y-54412500D01*
X55106584Y-54412500D01*
X55112980Y-54423770D01*
X56317188Y-55627978D01*
X56331132Y-55635592D01*
X56332965Y-55635461D01*
X56339580Y-55631210D01*
X57546604Y-54424186D01*
X57553795Y-54411017D01*
X57546473Y-54400780D01*
X57499233Y-54362115D01*
X57492261Y-54357160D01*
X57398870Y-54299930D01*
X66637416Y-54299930D01*
X66656498Y-54542390D01*
X66658041Y-54552137D01*
X66714817Y-54788624D01*
X66717866Y-54798009D01*
X66810936Y-55022700D01*
X66815417Y-55031494D01*
X66934713Y-55226167D01*
X66945170Y-55235627D01*
X66953946Y-55231844D01*
X67877978Y-54307812D01*
X67884356Y-54296132D01*
X68614408Y-54296132D01*
X68614539Y-54297965D01*
X68618790Y-54304580D01*
X69543010Y-55228800D01*
X69555390Y-55235560D01*
X69563040Y-55229833D01*
X69684583Y-55031494D01*
X69689064Y-55022700D01*
X69782134Y-54798009D01*
X69785183Y-54788624D01*
X69841959Y-54552137D01*
X69843502Y-54542390D01*
X69862584Y-54299930D01*
X69862584Y-54290070D01*
X69843502Y-54047610D01*
X69841959Y-54037863D01*
X69785183Y-53801376D01*
X69782134Y-53791991D01*
X69689064Y-53567300D01*
X69684583Y-53558506D01*
X69565287Y-53363833D01*
X69554830Y-53354373D01*
X69546054Y-53358156D01*
X68622022Y-54282188D01*
X68614408Y-54296132D01*
X67884356Y-54296132D01*
X67885592Y-54293868D01*
X67885461Y-54292035D01*
X67881210Y-54285420D01*
X66956990Y-53361200D01*
X66944610Y-53354440D01*
X66936960Y-53360167D01*
X66815417Y-53558506D01*
X66810936Y-53567300D01*
X66717866Y-53791991D01*
X66714817Y-53801376D01*
X66658041Y-54037863D01*
X66656498Y-54047610D01*
X66637416Y-54290070D01*
X66637416Y-54299930D01*
X57398870Y-54299930D01*
X57266122Y-54218582D01*
X57258552Y-54214624D01*
X57015704Y-54108022D01*
X57007644Y-54105120D01*
X56752592Y-54032467D01*
X56744214Y-54030685D01*
X56481656Y-53993318D01*
X56473111Y-53992691D01*
X56207908Y-53991302D01*
X56199374Y-53991839D01*
X55936433Y-54026456D01*
X55928035Y-54028149D01*
X55672238Y-54098127D01*
X55664143Y-54100946D01*
X55420199Y-54204997D01*
X55412577Y-54208881D01*
X55185013Y-54345075D01*
X55177981Y-54349962D01*
X55115053Y-54400377D01*
X55106584Y-54412500D01*
X52968174Y-54412500D01*
X52968501Y-54400000D01*
X52965369Y-54357855D01*
X52949202Y-54140295D01*
X52949201Y-54140291D01*
X52948856Y-54135643D01*
X52890352Y-53877093D01*
X52888661Y-53872744D01*
X52888658Y-53872735D01*
X52888016Y-53871085D01*
X52887963Y-53870462D01*
X52887291Y-53868265D01*
X52887763Y-53868121D01*
X52881970Y-53800346D01*
X52916355Y-53736326D01*
X52957291Y-53695390D01*
X62229440Y-53695390D01*
X62235167Y-53703040D01*
X62433506Y-53824583D01*
X62442300Y-53829064D01*
X62666991Y-53922134D01*
X62676376Y-53925183D01*
X62912863Y-53981959D01*
X62922610Y-53983502D01*
X63165070Y-54002584D01*
X63174930Y-54002584D01*
X63417390Y-53983502D01*
X63427137Y-53981959D01*
X63663624Y-53925183D01*
X63673009Y-53922134D01*
X63897700Y-53829064D01*
X63906494Y-53824583D01*
X64101167Y-53705287D01*
X64110627Y-53694830D01*
X64106844Y-53686054D01*
X63182812Y-52762022D01*
X63168868Y-52754408D01*
X63167035Y-52754539D01*
X63160420Y-52758790D01*
X62236200Y-53683010D01*
X62229440Y-53695390D01*
X52957291Y-53695390D01*
X54257751Y-52394930D01*
X61557416Y-52394930D01*
X61576498Y-52637390D01*
X61578041Y-52647137D01*
X61634817Y-52883624D01*
X61637866Y-52893009D01*
X61730936Y-53117700D01*
X61735417Y-53126494D01*
X61854713Y-53321167D01*
X61865170Y-53330627D01*
X61873946Y-53326844D01*
X62797978Y-52402812D01*
X62804356Y-52391132D01*
X63534408Y-52391132D01*
X63534539Y-52392965D01*
X63538790Y-52399580D01*
X64463010Y-53323800D01*
X64475390Y-53330560D01*
X64483040Y-53324833D01*
X64604583Y-53126494D01*
X64609064Y-53117700D01*
X64661889Y-52990170D01*
X67309373Y-52990170D01*
X67313156Y-52998946D01*
X68237188Y-53922978D01*
X68251132Y-53930592D01*
X68252965Y-53930461D01*
X68259580Y-53926210D01*
X69183800Y-53001990D01*
X69190560Y-52989610D01*
X69184833Y-52981960D01*
X68986494Y-52860417D01*
X68977700Y-52855936D01*
X68753009Y-52762866D01*
X68743624Y-52759817D01*
X68507137Y-52703041D01*
X68497390Y-52701498D01*
X68254930Y-52682416D01*
X68245070Y-52682416D01*
X68002610Y-52701498D01*
X67992863Y-52703041D01*
X67756376Y-52759817D01*
X67746991Y-52762866D01*
X67522300Y-52855936D01*
X67513506Y-52860417D01*
X67318833Y-52979713D01*
X67309373Y-52990170D01*
X64661889Y-52990170D01*
X64702134Y-52893009D01*
X64705183Y-52883624D01*
X64761959Y-52647137D01*
X64763502Y-52637390D01*
X64782584Y-52394930D01*
X64782584Y-52385070D01*
X64763502Y-52142610D01*
X64761959Y-52132863D01*
X64705183Y-51896376D01*
X64702134Y-51886991D01*
X64609064Y-51662300D01*
X64604583Y-51653506D01*
X64485287Y-51458833D01*
X64474830Y-51449373D01*
X64466054Y-51453156D01*
X63542022Y-52377188D01*
X63534408Y-52391132D01*
X62804356Y-52391132D01*
X62805592Y-52388868D01*
X62805461Y-52387035D01*
X62801210Y-52380420D01*
X61876990Y-51456200D01*
X61864610Y-51449440D01*
X61856960Y-51455167D01*
X61735417Y-51653506D01*
X61730936Y-51662300D01*
X61637866Y-51886991D01*
X61634817Y-51896376D01*
X61578041Y-52132863D01*
X61576498Y-52142610D01*
X61557416Y-52385070D01*
X61557416Y-52394930D01*
X54257751Y-52394930D01*
X55567511Y-51085170D01*
X62229373Y-51085170D01*
X62233156Y-51093946D01*
X63157188Y-52017978D01*
X63171132Y-52025592D01*
X63172965Y-52025461D01*
X63179580Y-52021210D01*
X64103800Y-51096990D01*
X64110560Y-51084610D01*
X64104833Y-51076960D01*
X63906494Y-50955417D01*
X63897700Y-50950936D01*
X63673009Y-50857866D01*
X63663624Y-50854817D01*
X63427137Y-50798041D01*
X63417390Y-50796498D01*
X63174930Y-50777416D01*
X63165070Y-50777416D01*
X62922610Y-50796498D01*
X62912863Y-50798041D01*
X62676376Y-50854817D01*
X62666991Y-50857866D01*
X62442300Y-50950936D01*
X62433506Y-50955417D01*
X62238833Y-51074713D01*
X62229373Y-51085170D01*
X55567511Y-51085170D01*
X56167681Y-50485000D01*
X66636526Y-50485000D01*
X66656391Y-50737403D01*
X66657545Y-50742210D01*
X66657546Y-50742216D01*
X66684579Y-50854817D01*
X66715495Y-50983591D01*
X66717388Y-50988162D01*
X66717389Y-50988164D01*
X66805586Y-51201089D01*
X66812384Y-51217502D01*
X66944672Y-51433376D01*
X67109102Y-51625898D01*
X67301624Y-51790328D01*
X67517498Y-51922616D01*
X67522068Y-51924509D01*
X67522072Y-51924511D01*
X67593118Y-51953939D01*
X67751409Y-52019505D01*
X67836032Y-52039821D01*
X67992784Y-52077454D01*
X67992790Y-52077455D01*
X67997597Y-52078609D01*
X68250000Y-52098474D01*
X68502403Y-52078609D01*
X68507210Y-52077455D01*
X68507216Y-52077454D01*
X68663968Y-52039821D01*
X68748591Y-52019505D01*
X68906882Y-51953939D01*
X68977928Y-51924511D01*
X68977932Y-51924509D01*
X68982502Y-51922616D01*
X69198376Y-51790328D01*
X69390898Y-51625898D01*
X69555328Y-51433376D01*
X69687616Y-51217502D01*
X69694415Y-51201089D01*
X69782611Y-50988164D01*
X69782612Y-50988162D01*
X69784505Y-50983591D01*
X69815421Y-50854817D01*
X69842454Y-50742216D01*
X69842455Y-50742210D01*
X69843609Y-50737403D01*
X69863474Y-50485000D01*
X69843609Y-50232597D01*
X69838720Y-50212230D01*
X69800195Y-50051762D01*
X69784505Y-49986409D01*
X69759970Y-49927175D01*
X69689511Y-49757072D01*
X69689509Y-49757068D01*
X69687616Y-49752498D01*
X69555328Y-49536624D01*
X69390898Y-49344102D01*
X69198376Y-49179672D01*
X68982502Y-49047384D01*
X68977932Y-49045491D01*
X68977928Y-49045489D01*
X68753164Y-48952389D01*
X68753162Y-48952388D01*
X68748591Y-48950495D01*
X68663968Y-48930179D01*
X68507216Y-48892546D01*
X68507210Y-48892545D01*
X68502403Y-48891391D01*
X68250000Y-48871526D01*
X67997597Y-48891391D01*
X67992790Y-48892545D01*
X67992784Y-48892546D01*
X67836032Y-48930179D01*
X67751409Y-48950495D01*
X67746838Y-48952388D01*
X67746836Y-48952389D01*
X67522072Y-49045489D01*
X67522068Y-49045491D01*
X67517498Y-49047384D01*
X67301624Y-49179672D01*
X67109102Y-49344102D01*
X66944672Y-49536624D01*
X66812384Y-49752498D01*
X66810491Y-49757068D01*
X66810489Y-49757072D01*
X66740030Y-49927175D01*
X66715495Y-49986409D01*
X66699805Y-50051762D01*
X66661281Y-50212230D01*
X66656391Y-50232597D01*
X66636526Y-50485000D01*
X56167681Y-50485000D01*
X57277276Y-49375405D01*
X57339588Y-49341379D01*
X57366371Y-49338500D01*
X61677752Y-49338500D01*
X61745873Y-49358502D01*
X61785185Y-49398665D01*
X61864672Y-49528376D01*
X62029102Y-49720898D01*
X62221624Y-49885328D01*
X62437498Y-50017616D01*
X62442068Y-50019509D01*
X62442072Y-50019511D01*
X62628199Y-50096607D01*
X62671409Y-50114505D01*
X62756032Y-50134821D01*
X62912784Y-50172454D01*
X62912790Y-50172455D01*
X62917597Y-50173609D01*
X63170000Y-50193474D01*
X63422403Y-50173609D01*
X63427210Y-50172455D01*
X63427216Y-50172454D01*
X63583968Y-50134821D01*
X63668591Y-50114505D01*
X63711801Y-50096607D01*
X63897928Y-50019511D01*
X63897932Y-50019509D01*
X63902502Y-50017616D01*
X64118376Y-49885328D01*
X64310898Y-49720898D01*
X64475328Y-49528376D01*
X64607616Y-49312502D01*
X64663706Y-49177090D01*
X64702611Y-49083164D01*
X64702612Y-49083162D01*
X64704505Y-49078591D01*
X64749170Y-48892546D01*
X64762454Y-48837216D01*
X64762455Y-48837210D01*
X64763609Y-48832403D01*
X64783474Y-48580000D01*
X64763609Y-48327597D01*
X64757646Y-48302756D01*
X64705660Y-48086221D01*
X64704505Y-48081409D01*
X64691654Y-48050383D01*
X64662662Y-47980390D01*
X67309440Y-47980390D01*
X67315167Y-47988040D01*
X67513506Y-48109583D01*
X67522300Y-48114064D01*
X67746991Y-48207134D01*
X67756376Y-48210183D01*
X67992863Y-48266959D01*
X68002610Y-48268502D01*
X68245070Y-48287584D01*
X68254930Y-48287584D01*
X68497390Y-48268502D01*
X68507137Y-48266959D01*
X68743624Y-48210183D01*
X68753009Y-48207134D01*
X68977700Y-48114064D01*
X68986494Y-48109583D01*
X69181167Y-47990287D01*
X69190627Y-47979830D01*
X69186844Y-47971054D01*
X68262812Y-47047022D01*
X68248868Y-47039408D01*
X68247035Y-47039539D01*
X68240420Y-47043790D01*
X67316200Y-47968010D01*
X67309440Y-47980390D01*
X64662662Y-47980390D01*
X64609511Y-47852072D01*
X64609509Y-47852068D01*
X64607616Y-47847498D01*
X64475328Y-47631624D01*
X64310898Y-47439102D01*
X64118376Y-47274672D01*
X63902502Y-47142384D01*
X63897932Y-47140491D01*
X63897928Y-47140489D01*
X63673164Y-47047389D01*
X63673162Y-47047388D01*
X63668591Y-47045495D01*
X63583968Y-47025179D01*
X63427216Y-46987546D01*
X63427210Y-46987545D01*
X63422403Y-46986391D01*
X63170000Y-46966526D01*
X62917597Y-46986391D01*
X62912790Y-46987545D01*
X62912784Y-46987546D01*
X62756032Y-47025179D01*
X62671409Y-47045495D01*
X62666838Y-47047388D01*
X62666836Y-47047389D01*
X62442072Y-47140489D01*
X62442068Y-47140491D01*
X62437498Y-47142384D01*
X62221624Y-47274672D01*
X62029102Y-47439102D01*
X61864672Y-47631624D01*
X61819570Y-47705224D01*
X61785185Y-47761335D01*
X61732537Y-47808966D01*
X61677752Y-47821500D01*
X57067070Y-47821500D01*
X57048120Y-47820067D01*
X57033885Y-47817901D01*
X57033881Y-47817901D01*
X57026651Y-47816801D01*
X57019359Y-47817394D01*
X57019356Y-47817394D01*
X56973982Y-47821085D01*
X56963767Y-47821500D01*
X56955707Y-47821500D01*
X56952073Y-47821924D01*
X56952067Y-47821924D01*
X56939042Y-47823443D01*
X56927480Y-47824791D01*
X56923132Y-47825221D01*
X56850364Y-47831140D01*
X56843403Y-47833395D01*
X56837463Y-47834582D01*
X56831588Y-47835971D01*
X56824319Y-47836818D01*
X56755670Y-47861736D01*
X56751542Y-47863153D01*
X56689064Y-47883393D01*
X56689062Y-47883394D01*
X56682101Y-47885649D01*
X56675846Y-47889445D01*
X56670372Y-47891951D01*
X56664942Y-47894670D01*
X56658063Y-47897167D01*
X56651943Y-47901180D01*
X56651942Y-47901180D01*
X56597024Y-47937186D01*
X56593320Y-47939523D01*
X56530893Y-47977405D01*
X56522516Y-47984803D01*
X56522492Y-47984776D01*
X56519500Y-47987429D01*
X56516267Y-47990132D01*
X56510148Y-47994144D01*
X56505116Y-47999456D01*
X56456872Y-48050383D01*
X56454494Y-48052825D01*
X51840384Y-52666935D01*
X51778072Y-52700961D01*
X51712877Y-52697842D01*
X51597517Y-52660915D01*
X51453066Y-52637390D01*
X51340490Y-52619056D01*
X51340489Y-52619056D01*
X51335878Y-52618305D01*
X51203347Y-52616570D01*
X51075492Y-52614896D01*
X51075489Y-52614896D01*
X51070815Y-52614835D01*
X50808150Y-52650582D01*
X50643682Y-52698520D01*
X50572687Y-52698380D01*
X50519330Y-52666649D01*
X49053770Y-51201089D01*
X49041384Y-51186677D01*
X49032851Y-51175082D01*
X49032846Y-51175077D01*
X49028508Y-51169182D01*
X49022930Y-51164443D01*
X49022927Y-51164440D01*
X48988232Y-51134965D01*
X48980716Y-51128035D01*
X48975021Y-51122340D01*
X48968880Y-51117482D01*
X48952749Y-51104719D01*
X48949345Y-51101928D01*
X48899297Y-51059409D01*
X48899295Y-51059408D01*
X48893715Y-51054667D01*
X48887199Y-51051339D01*
X48882150Y-51047972D01*
X48877021Y-51044805D01*
X48871284Y-51040266D01*
X48805125Y-51009345D01*
X48801225Y-51007439D01*
X48736192Y-50974231D01*
X48729084Y-50972492D01*
X48723441Y-50970393D01*
X48717678Y-50968476D01*
X48711050Y-50965378D01*
X48639583Y-50950513D01*
X48635299Y-50949543D01*
X48564390Y-50932192D01*
X48558788Y-50931844D01*
X48558785Y-50931844D01*
X48553236Y-50931500D01*
X48553238Y-50931464D01*
X48549245Y-50931225D01*
X48545053Y-50930851D01*
X48537885Y-50929360D01*
X48471675Y-50931151D01*
X48460479Y-50931454D01*
X48457072Y-50931500D01*
X40371867Y-50931500D01*
X40303746Y-50911498D01*
X40268655Y-50877772D01*
X40246198Y-50845700D01*
X40084300Y-50683802D01*
X40079792Y-50680645D01*
X40079789Y-50680643D01*
X40033474Y-50648213D01*
X39989146Y-50592756D01*
X39981837Y-50522136D01*
X40013868Y-50458776D01*
X40033474Y-50441787D01*
X40079789Y-50409357D01*
X40079792Y-50409355D01*
X40084300Y-50406198D01*
X40246198Y-50244300D01*
X40268655Y-50212229D01*
X40324110Y-50167901D01*
X40371867Y-50158500D01*
X42572930Y-50158500D01*
X42591880Y-50159933D01*
X42606115Y-50162099D01*
X42606119Y-50162099D01*
X42613349Y-50163199D01*
X42620641Y-50162606D01*
X42620644Y-50162606D01*
X42666018Y-50158915D01*
X42676233Y-50158500D01*
X42684293Y-50158500D01*
X42697583Y-50156951D01*
X42712507Y-50155211D01*
X42716882Y-50154778D01*
X42782339Y-50149454D01*
X42782342Y-50149453D01*
X42789637Y-50148860D01*
X42796601Y-50146604D01*
X42802560Y-50145413D01*
X42808415Y-50144029D01*
X42815681Y-50143182D01*
X42884327Y-50118265D01*
X42888455Y-50116848D01*
X42950936Y-50096607D01*
X42950938Y-50096606D01*
X42957899Y-50094351D01*
X42964154Y-50090555D01*
X42969628Y-50088049D01*
X42975058Y-50085330D01*
X42981937Y-50082833D01*
X43014846Y-50061257D01*
X43042976Y-50042814D01*
X43046680Y-50040477D01*
X43109107Y-50002595D01*
X43117484Y-49995197D01*
X43117508Y-49995224D01*
X43120500Y-49992571D01*
X43123733Y-49989868D01*
X43129852Y-49985856D01*
X43183128Y-49929617D01*
X43185506Y-49927175D01*
X46432751Y-46679930D01*
X66637416Y-46679930D01*
X66656498Y-46922390D01*
X66658041Y-46932137D01*
X66714817Y-47168624D01*
X66717866Y-47178009D01*
X66810936Y-47402700D01*
X66815417Y-47411494D01*
X66934713Y-47606167D01*
X66945170Y-47615627D01*
X66953946Y-47611844D01*
X67877978Y-46687812D01*
X67884356Y-46676132D01*
X68614408Y-46676132D01*
X68614539Y-46677965D01*
X68618790Y-46684580D01*
X69543010Y-47608800D01*
X69555390Y-47615560D01*
X69563040Y-47609833D01*
X69684583Y-47411494D01*
X69689064Y-47402700D01*
X69782134Y-47178009D01*
X69785183Y-47168624D01*
X69841959Y-46932137D01*
X69843502Y-46922390D01*
X69862584Y-46679930D01*
X69862584Y-46670070D01*
X69843502Y-46427610D01*
X69841959Y-46417863D01*
X69785183Y-46181376D01*
X69782134Y-46171991D01*
X69689064Y-45947300D01*
X69684583Y-45938506D01*
X69565287Y-45743833D01*
X69554830Y-45734373D01*
X69546054Y-45738156D01*
X68622022Y-46662188D01*
X68614408Y-46676132D01*
X67884356Y-46676132D01*
X67885592Y-46673868D01*
X67885461Y-46672035D01*
X67881210Y-46665420D01*
X66956990Y-45741200D01*
X66944610Y-45734440D01*
X66936960Y-45740167D01*
X66815417Y-45938506D01*
X66810936Y-45947300D01*
X66717866Y-46171991D01*
X66714817Y-46181376D01*
X66658041Y-46417863D01*
X66656498Y-46427610D01*
X66637416Y-46670070D01*
X66637416Y-46679930D01*
X46432751Y-46679930D01*
X47037291Y-46075390D01*
X62229440Y-46075390D01*
X62235167Y-46083040D01*
X62433506Y-46204583D01*
X62442300Y-46209064D01*
X62666991Y-46302134D01*
X62676376Y-46305183D01*
X62912863Y-46361959D01*
X62922610Y-46363502D01*
X63165070Y-46382584D01*
X63174930Y-46382584D01*
X63417390Y-46363502D01*
X63427137Y-46361959D01*
X63663624Y-46305183D01*
X63673009Y-46302134D01*
X63897700Y-46209064D01*
X63906494Y-46204583D01*
X64101167Y-46085287D01*
X64110627Y-46074830D01*
X64106844Y-46066054D01*
X63182812Y-45142022D01*
X63168868Y-45134408D01*
X63167035Y-45134539D01*
X63160420Y-45138790D01*
X62236200Y-46063010D01*
X62229440Y-46075390D01*
X47037291Y-46075390D01*
X47423896Y-45688785D01*
X48337751Y-44774930D01*
X61557416Y-44774930D01*
X61576498Y-45017390D01*
X61578041Y-45027137D01*
X61634817Y-45263624D01*
X61637866Y-45273009D01*
X61730936Y-45497700D01*
X61735417Y-45506494D01*
X61854713Y-45701167D01*
X61865170Y-45710627D01*
X61873946Y-45706844D01*
X62797978Y-44782812D01*
X62804356Y-44771132D01*
X63534408Y-44771132D01*
X63534539Y-44772965D01*
X63538790Y-44779580D01*
X64463010Y-45703800D01*
X64475390Y-45710560D01*
X64483040Y-45704833D01*
X64604583Y-45506494D01*
X64609064Y-45497700D01*
X64661889Y-45370170D01*
X67309373Y-45370170D01*
X67313156Y-45378946D01*
X68237188Y-46302978D01*
X68251132Y-46310592D01*
X68252965Y-46310461D01*
X68259580Y-46306210D01*
X69183800Y-45381990D01*
X69190560Y-45369610D01*
X69184833Y-45361960D01*
X68986494Y-45240417D01*
X68977700Y-45235936D01*
X68753009Y-45142866D01*
X68743624Y-45139817D01*
X68507137Y-45083041D01*
X68497390Y-45081498D01*
X68254930Y-45062416D01*
X68245070Y-45062416D01*
X68002610Y-45081498D01*
X67992863Y-45083041D01*
X67756376Y-45139817D01*
X67746991Y-45142866D01*
X67522300Y-45235936D01*
X67513506Y-45240417D01*
X67318833Y-45359713D01*
X67309373Y-45370170D01*
X64661889Y-45370170D01*
X64702134Y-45273009D01*
X64705183Y-45263624D01*
X64761959Y-45027137D01*
X64763502Y-45017390D01*
X64782584Y-44774930D01*
X64782584Y-44765070D01*
X64763502Y-44522610D01*
X64761959Y-44512863D01*
X64705183Y-44276376D01*
X64702134Y-44266991D01*
X64609064Y-44042300D01*
X64604583Y-44033506D01*
X64485287Y-43838833D01*
X64474830Y-43829373D01*
X64466054Y-43833156D01*
X63542022Y-44757188D01*
X63534408Y-44771132D01*
X62804356Y-44771132D01*
X62805592Y-44768868D01*
X62805461Y-44767035D01*
X62801210Y-44760420D01*
X61876990Y-43836200D01*
X61864610Y-43829440D01*
X61856960Y-43835167D01*
X61735417Y-44033506D01*
X61730936Y-44042300D01*
X61637866Y-44266991D01*
X61634817Y-44276376D01*
X61578041Y-44512863D01*
X61576498Y-44522610D01*
X61557416Y-44765070D01*
X61557416Y-44774930D01*
X48337751Y-44774930D01*
X49647510Y-43465170D01*
X62229373Y-43465170D01*
X62233156Y-43473946D01*
X63157188Y-44397978D01*
X63171132Y-44405592D01*
X63172965Y-44405461D01*
X63179580Y-44401210D01*
X64103800Y-43476990D01*
X64110560Y-43464610D01*
X64104833Y-43456960D01*
X63906494Y-43335417D01*
X63897700Y-43330936D01*
X63673009Y-43237866D01*
X63663624Y-43234817D01*
X63427137Y-43178041D01*
X63417390Y-43176498D01*
X63174930Y-43157416D01*
X63165070Y-43157416D01*
X62922610Y-43176498D01*
X62912863Y-43178041D01*
X62676376Y-43234817D01*
X62666991Y-43237866D01*
X62442300Y-43330936D01*
X62433506Y-43335417D01*
X62238833Y-43454713D01*
X62229373Y-43465170D01*
X49647510Y-43465170D01*
X50523026Y-42589654D01*
X55105618Y-42589654D01*
X55112673Y-42599627D01*
X55143679Y-42625551D01*
X55150598Y-42630579D01*
X55375272Y-42771515D01*
X55382807Y-42775556D01*
X55624520Y-42884694D01*
X55632551Y-42887680D01*
X55886832Y-42963002D01*
X55895184Y-42964869D01*
X56157340Y-43004984D01*
X56165874Y-43005700D01*
X56431045Y-43009867D01*
X56439596Y-43009418D01*
X56702883Y-42977557D01*
X56711284Y-42975955D01*
X56967824Y-42908653D01*
X56975926Y-42905926D01*
X57074730Y-42865000D01*
X66636526Y-42865000D01*
X66656391Y-43117403D01*
X66657545Y-43122210D01*
X66657546Y-43122216D01*
X66688029Y-43249185D01*
X66715495Y-43363591D01*
X66717388Y-43368162D01*
X66717389Y-43368164D01*
X66808770Y-43588776D01*
X66812384Y-43597502D01*
X66944672Y-43813376D01*
X67109102Y-44005898D01*
X67301624Y-44170328D01*
X67517498Y-44302616D01*
X67522068Y-44304509D01*
X67522072Y-44304511D01*
X67746836Y-44397611D01*
X67751409Y-44399505D01*
X67836032Y-44419821D01*
X67992784Y-44457454D01*
X67992790Y-44457455D01*
X67997597Y-44458609D01*
X68250000Y-44478474D01*
X68502403Y-44458609D01*
X68507210Y-44457455D01*
X68507216Y-44457454D01*
X68663968Y-44419821D01*
X68748591Y-44399505D01*
X68753164Y-44397611D01*
X68977928Y-44304511D01*
X68977932Y-44304509D01*
X68982502Y-44302616D01*
X69198376Y-44170328D01*
X69390898Y-44005898D01*
X69555328Y-43813376D01*
X69687616Y-43597502D01*
X69691231Y-43588776D01*
X69782611Y-43368164D01*
X69782612Y-43368162D01*
X69784505Y-43363591D01*
X69811971Y-43249185D01*
X69842454Y-43122216D01*
X69842455Y-43122210D01*
X69843609Y-43117403D01*
X69863474Y-42865000D01*
X69843609Y-42612597D01*
X69840496Y-42599627D01*
X69785660Y-42371221D01*
X69784505Y-42366409D01*
X69755626Y-42296688D01*
X69689511Y-42137072D01*
X69689509Y-42137068D01*
X69687616Y-42132498D01*
X69555328Y-41916624D01*
X69390898Y-41724102D01*
X69198376Y-41559672D01*
X68982502Y-41427384D01*
X68977932Y-41425491D01*
X68977928Y-41425489D01*
X68753164Y-41332389D01*
X68753162Y-41332388D01*
X68748591Y-41330495D01*
X68615363Y-41298510D01*
X68507216Y-41272546D01*
X68507210Y-41272545D01*
X68502403Y-41271391D01*
X68250000Y-41251526D01*
X67997597Y-41271391D01*
X67992790Y-41272545D01*
X67992784Y-41272546D01*
X67884637Y-41298510D01*
X67751409Y-41330495D01*
X67746838Y-41332388D01*
X67746836Y-41332389D01*
X67522072Y-41425489D01*
X67522068Y-41425491D01*
X67517498Y-41427384D01*
X67301624Y-41559672D01*
X67109102Y-41724102D01*
X66944672Y-41916624D01*
X66812384Y-42132498D01*
X66810491Y-42137068D01*
X66810489Y-42137072D01*
X66744374Y-42296688D01*
X66715495Y-42366409D01*
X66714340Y-42371221D01*
X66659505Y-42599627D01*
X66656391Y-42612597D01*
X66636526Y-42865000D01*
X57074730Y-42865000D01*
X57220949Y-42804434D01*
X57228617Y-42800628D01*
X57457598Y-42666822D01*
X57464679Y-42662009D01*
X57544655Y-42599301D01*
X57553125Y-42587442D01*
X57546608Y-42575818D01*
X56342812Y-41372022D01*
X56328868Y-41364408D01*
X56327035Y-41364539D01*
X56320420Y-41368790D01*
X55112910Y-42576300D01*
X55105618Y-42589654D01*
X50523026Y-42589654D01*
X51668907Y-41443773D01*
X51683319Y-41431387D01*
X51694917Y-41422851D01*
X51694919Y-41422850D01*
X51700818Y-41418508D01*
X51705557Y-41412930D01*
X51705560Y-41412927D01*
X51735041Y-41378225D01*
X51741971Y-41370709D01*
X51747660Y-41365020D01*
X51749918Y-41362166D01*
X51749927Y-41362156D01*
X51765274Y-41342758D01*
X51768062Y-41339358D01*
X51810595Y-41289293D01*
X51810598Y-41289289D01*
X51815333Y-41283715D01*
X51818660Y-41277200D01*
X51822019Y-41272163D01*
X51825192Y-41267025D01*
X51829734Y-41261284D01*
X51860655Y-41195125D01*
X51862561Y-41191225D01*
X51895769Y-41126192D01*
X51897508Y-41119083D01*
X51899604Y-41113449D01*
X51901523Y-41107680D01*
X51904622Y-41101050D01*
X51906112Y-41093885D01*
X51906114Y-41093880D01*
X51907515Y-41087144D01*
X51940969Y-41024523D01*
X51981136Y-40997033D01*
X52005838Y-40986420D01*
X52009818Y-40983957D01*
X52009822Y-40983955D01*
X52011036Y-40983204D01*
X54317665Y-40983204D01*
X54332932Y-41247969D01*
X54334005Y-41256470D01*
X54385065Y-41516722D01*
X54387276Y-41524974D01*
X54473184Y-41775894D01*
X54476499Y-41783779D01*
X54595664Y-42020713D01*
X54600020Y-42028079D01*
X54729347Y-42216250D01*
X54739601Y-42224594D01*
X54753342Y-42217448D01*
X55957978Y-41012812D01*
X55964356Y-41001132D01*
X56694408Y-41001132D01*
X56694539Y-41002965D01*
X56698790Y-41009580D01*
X57905730Y-42216520D01*
X57917939Y-42223187D01*
X57929439Y-42214497D01*
X58026831Y-42081913D01*
X58031418Y-42074685D01*
X58157962Y-41841621D01*
X58161530Y-41833827D01*
X58255271Y-41585750D01*
X58257748Y-41577544D01*
X58316954Y-41319038D01*
X58318294Y-41310577D01*
X58342031Y-41044616D01*
X58342277Y-41039677D01*
X58342666Y-41002485D01*
X58342523Y-40997519D01*
X58324362Y-40731123D01*
X58323201Y-40722649D01*
X58269419Y-40462944D01*
X58267120Y-40454709D01*
X58178588Y-40204705D01*
X58175191Y-40196854D01*
X58053550Y-39961178D01*
X58049122Y-39953866D01*
X57930031Y-39784417D01*
X57919509Y-39776037D01*
X57906121Y-39783089D01*
X56702022Y-40987188D01*
X56694408Y-41001132D01*
X55964356Y-41001132D01*
X55965592Y-40998868D01*
X55965461Y-40997035D01*
X55961210Y-40990420D01*
X54753814Y-39783024D01*
X54741804Y-39776466D01*
X54730064Y-39785434D01*
X54621935Y-39935911D01*
X54617418Y-39943196D01*
X54493325Y-40177567D01*
X54489839Y-40185395D01*
X54398700Y-40434446D01*
X54396311Y-40442670D01*
X54339812Y-40701795D01*
X54338563Y-40710250D01*
X54317754Y-40974653D01*
X54317665Y-40983204D01*
X52011036Y-40983204D01*
X52227282Y-40849387D01*
X52227286Y-40849384D01*
X52231255Y-40846928D01*
X52433577Y-40675649D01*
X52510784Y-40587611D01*
X52605278Y-40479862D01*
X52605281Y-40479857D01*
X52608360Y-40476347D01*
X52617969Y-40461409D01*
X52749237Y-40257329D01*
X52751765Y-40253399D01*
X52860641Y-40011703D01*
X52922682Y-39791722D01*
X52931326Y-39761074D01*
X52931327Y-39761071D01*
X52932596Y-39756570D01*
X52957837Y-39558164D01*
X52965652Y-39496733D01*
X52965652Y-39496729D01*
X52966050Y-39493603D01*
X52968501Y-39400000D01*
X52948856Y-39135643D01*
X52948190Y-39132699D01*
X52957839Y-39062802D01*
X53004030Y-39008886D01*
X53072745Y-38988500D01*
X55324921Y-38988500D01*
X55393042Y-39008502D01*
X55439535Y-39062158D01*
X55449639Y-39132432D01*
X55420145Y-39197012D01*
X55389627Y-39222616D01*
X55185013Y-39345075D01*
X55177981Y-39349962D01*
X55115053Y-39400377D01*
X55106584Y-39412500D01*
X55112980Y-39423770D01*
X56317188Y-40627978D01*
X56331132Y-40635592D01*
X56332965Y-40635461D01*
X56339580Y-40631210D01*
X57546604Y-39424186D01*
X57553795Y-39411017D01*
X57546473Y-39400780D01*
X57499233Y-39362115D01*
X57492261Y-39357160D01*
X57271591Y-39221933D01*
X57223960Y-39169285D01*
X57212353Y-39099244D01*
X57240456Y-39034046D01*
X57299346Y-38994392D01*
X57337426Y-38988500D01*
X60073629Y-38988500D01*
X60141750Y-39008502D01*
X60162724Y-39025405D01*
X61578481Y-40441162D01*
X61612507Y-40503474D01*
X61611905Y-40559671D01*
X61577784Y-40701795D01*
X61576391Y-40707597D01*
X61556526Y-40960000D01*
X61576391Y-41212403D01*
X61577545Y-41217210D01*
X61577546Y-41217216D01*
X61604465Y-41329340D01*
X61635495Y-41458591D01*
X61637388Y-41463162D01*
X61637389Y-41463164D01*
X61729567Y-41685700D01*
X61732384Y-41692502D01*
X61864672Y-41908376D01*
X62029102Y-42100898D01*
X62221624Y-42265328D01*
X62437498Y-42397616D01*
X62442068Y-42399509D01*
X62442072Y-42399511D01*
X62666836Y-42492611D01*
X62671409Y-42494505D01*
X62756032Y-42514821D01*
X62912784Y-42552454D01*
X62912790Y-42552455D01*
X62917597Y-42553609D01*
X63170000Y-42573474D01*
X63422403Y-42553609D01*
X63427210Y-42552455D01*
X63427216Y-42552454D01*
X63583968Y-42514821D01*
X63668591Y-42494505D01*
X63673164Y-42492611D01*
X63897928Y-42399511D01*
X63897932Y-42399509D01*
X63902502Y-42397616D01*
X64118376Y-42265328D01*
X64310898Y-42100898D01*
X64475328Y-41908376D01*
X64607616Y-41692502D01*
X64610434Y-41685700D01*
X64702611Y-41463164D01*
X64702612Y-41463162D01*
X64704505Y-41458591D01*
X64735535Y-41329340D01*
X64762454Y-41217216D01*
X64762455Y-41217210D01*
X64763609Y-41212403D01*
X64783474Y-40960000D01*
X64763609Y-40707597D01*
X64762217Y-40701795D01*
X64705660Y-40466221D01*
X64704505Y-40461409D01*
X64696743Y-40442670D01*
X64609511Y-40232072D01*
X64609509Y-40232068D01*
X64607616Y-40227498D01*
X64475328Y-40011624D01*
X64310898Y-39819102D01*
X64118376Y-39654672D01*
X63902502Y-39522384D01*
X63897932Y-39520491D01*
X63897928Y-39520489D01*
X63673164Y-39427389D01*
X63673162Y-39427388D01*
X63668591Y-39425495D01*
X63562396Y-39400000D01*
X63427216Y-39367546D01*
X63427210Y-39367545D01*
X63422403Y-39366391D01*
X63170000Y-39346526D01*
X62917597Y-39366391D01*
X62912790Y-39367545D01*
X62912784Y-39367546D01*
X62833340Y-39386619D01*
X62769670Y-39401905D01*
X62698763Y-39398358D01*
X62651162Y-39368481D01*
X62337681Y-39055000D01*
X66636526Y-39055000D01*
X66656391Y-39307403D01*
X66657545Y-39312210D01*
X66657546Y-39312216D01*
X66679079Y-39401905D01*
X66715495Y-39553591D01*
X66717388Y-39558162D01*
X66717389Y-39558164D01*
X66807813Y-39776466D01*
X66812384Y-39787502D01*
X66944672Y-40003376D01*
X67109102Y-40195898D01*
X67301624Y-40360328D01*
X67517498Y-40492616D01*
X67522068Y-40494509D01*
X67522072Y-40494511D01*
X67712436Y-40573362D01*
X67751409Y-40589505D01*
X67836032Y-40609821D01*
X67992784Y-40647454D01*
X67992790Y-40647455D01*
X67997597Y-40648609D01*
X68250000Y-40668474D01*
X68502403Y-40648609D01*
X68507210Y-40647455D01*
X68507216Y-40647454D01*
X68663968Y-40609821D01*
X68748591Y-40589505D01*
X68787564Y-40573362D01*
X68977928Y-40494511D01*
X68977932Y-40494509D01*
X68982502Y-40492616D01*
X69198376Y-40360328D01*
X69390898Y-40195898D01*
X69555328Y-40003376D01*
X69687616Y-39787502D01*
X69692188Y-39776466D01*
X69782611Y-39558164D01*
X69782612Y-39558162D01*
X69784505Y-39553591D01*
X69820921Y-39401905D01*
X69842454Y-39312216D01*
X69842455Y-39312210D01*
X69843609Y-39307403D01*
X69863474Y-39055000D01*
X69843609Y-38802597D01*
X69829052Y-38741959D01*
X69804821Y-38641032D01*
X69784505Y-38556409D01*
X69746761Y-38465287D01*
X69689511Y-38327072D01*
X69689509Y-38327068D01*
X69687616Y-38322498D01*
X69555328Y-38106624D01*
X69390898Y-37914102D01*
X69198376Y-37749672D01*
X68982502Y-37617384D01*
X68977932Y-37615491D01*
X68977928Y-37615489D01*
X68753164Y-37522389D01*
X68753162Y-37522388D01*
X68748591Y-37520495D01*
X68663968Y-37500179D01*
X68507216Y-37462546D01*
X68507210Y-37462545D01*
X68502403Y-37461391D01*
X68250000Y-37441526D01*
X67997597Y-37461391D01*
X67992790Y-37462545D01*
X67992784Y-37462546D01*
X67836032Y-37500179D01*
X67751409Y-37520495D01*
X67746838Y-37522388D01*
X67746836Y-37522389D01*
X67522072Y-37615489D01*
X67522068Y-37615491D01*
X67517498Y-37617384D01*
X67301624Y-37749672D01*
X67109102Y-37914102D01*
X66944672Y-38106624D01*
X66812384Y-38322498D01*
X66810491Y-38327068D01*
X66810489Y-38327072D01*
X66753239Y-38465287D01*
X66715495Y-38556409D01*
X66695179Y-38641032D01*
X66670949Y-38741959D01*
X66656391Y-38802597D01*
X66636526Y-39055000D01*
X62337681Y-39055000D01*
X61738071Y-38455390D01*
X62229440Y-38455390D01*
X62235167Y-38463040D01*
X62433506Y-38584583D01*
X62442300Y-38589064D01*
X62666991Y-38682134D01*
X62676376Y-38685183D01*
X62912863Y-38741959D01*
X62922610Y-38743502D01*
X63165070Y-38762584D01*
X63174930Y-38762584D01*
X63417390Y-38743502D01*
X63427137Y-38741959D01*
X63663624Y-38685183D01*
X63673009Y-38682134D01*
X63897700Y-38589064D01*
X63906494Y-38584583D01*
X64101167Y-38465287D01*
X64110627Y-38454830D01*
X64106844Y-38446054D01*
X63182812Y-37522022D01*
X63168868Y-37514408D01*
X63167035Y-37514539D01*
X63160420Y-37518790D01*
X62236200Y-38443010D01*
X62229440Y-38455390D01*
X61738071Y-38455390D01*
X61023770Y-37741089D01*
X61011384Y-37726677D01*
X61002851Y-37715082D01*
X61002846Y-37715077D01*
X60998508Y-37709182D01*
X60992930Y-37704443D01*
X60992927Y-37704440D01*
X60958232Y-37674965D01*
X60950716Y-37668035D01*
X60945021Y-37662340D01*
X60929362Y-37649951D01*
X60922749Y-37644719D01*
X60919345Y-37641928D01*
X60869297Y-37599409D01*
X60869295Y-37599408D01*
X60863715Y-37594667D01*
X60857199Y-37591339D01*
X60852150Y-37587972D01*
X60847021Y-37584805D01*
X60841284Y-37580266D01*
X60775125Y-37549345D01*
X60771225Y-37547439D01*
X60706192Y-37514231D01*
X60699084Y-37512492D01*
X60693441Y-37510393D01*
X60687678Y-37508476D01*
X60681050Y-37505378D01*
X60609583Y-37490513D01*
X60605299Y-37489543D01*
X60534390Y-37472192D01*
X60528788Y-37471844D01*
X60528785Y-37471844D01*
X60523236Y-37471500D01*
X60523238Y-37471464D01*
X60519245Y-37471225D01*
X60515053Y-37470851D01*
X60507885Y-37469360D01*
X60444120Y-37471085D01*
X60430479Y-37471454D01*
X60427072Y-37471500D01*
X52417070Y-37471500D01*
X52398120Y-37470067D01*
X52383885Y-37467901D01*
X52383881Y-37467901D01*
X52376651Y-37466801D01*
X52369359Y-37467394D01*
X52369356Y-37467394D01*
X52323982Y-37471085D01*
X52313767Y-37471500D01*
X52305707Y-37471500D01*
X52302073Y-37471924D01*
X52302067Y-37471924D01*
X52289042Y-37473443D01*
X52277480Y-37474791D01*
X52273132Y-37475221D01*
X52200364Y-37481140D01*
X52193403Y-37483395D01*
X52187463Y-37484582D01*
X52181588Y-37485971D01*
X52174319Y-37486818D01*
X52105670Y-37511736D01*
X52101542Y-37513153D01*
X52039064Y-37533393D01*
X52039062Y-37533394D01*
X52032101Y-37535649D01*
X52025846Y-37539445D01*
X52020372Y-37541951D01*
X52014942Y-37544670D01*
X52008063Y-37547167D01*
X52001943Y-37551180D01*
X52001942Y-37551180D01*
X51947024Y-37587186D01*
X51943320Y-37589523D01*
X51880893Y-37627405D01*
X51872516Y-37634803D01*
X51872492Y-37634776D01*
X51869500Y-37637429D01*
X51866267Y-37640132D01*
X51860148Y-37644144D01*
X51855115Y-37649457D01*
X51841309Y-37664030D01*
X51779939Y-37699727D01*
X51711425Y-37697377D01*
X51619760Y-37668035D01*
X51597517Y-37660915D01*
X51422506Y-37632413D01*
X51340490Y-37619056D01*
X51340489Y-37619056D01*
X51335878Y-37618305D01*
X51203346Y-37616570D01*
X51075492Y-37614896D01*
X51075489Y-37614896D01*
X51070815Y-37614835D01*
X50808150Y-37650582D01*
X50803660Y-37651891D01*
X50803654Y-37651892D01*
X50695430Y-37683437D01*
X50553654Y-37724761D01*
X50549407Y-37726719D01*
X50549404Y-37726720D01*
X50499618Y-37749672D01*
X50312918Y-37835742D01*
X50309009Y-37838305D01*
X50095143Y-37978521D01*
X50095138Y-37978525D01*
X50091230Y-37981087D01*
X50087738Y-37984204D01*
X49968576Y-38090560D01*
X49893460Y-38157603D01*
X49723954Y-38361412D01*
X49586434Y-38588038D01*
X49584625Y-38592352D01*
X49584624Y-38592354D01*
X49498480Y-38797784D01*
X49483922Y-38832500D01*
X49482771Y-38837032D01*
X49482770Y-38837035D01*
X49419822Y-39084893D01*
X49418670Y-39089430D01*
X49392112Y-39353183D01*
X49392336Y-39357850D01*
X49392336Y-39357855D01*
X49394890Y-39411017D01*
X49404830Y-39617963D01*
X49412132Y-39654672D01*
X49438554Y-39787502D01*
X49456546Y-39877956D01*
X49458125Y-39882354D01*
X49458127Y-39882361D01*
X49506097Y-40015967D01*
X49546123Y-40127449D01*
X49671594Y-40360961D01*
X49830201Y-40573362D01*
X49833510Y-40576642D01*
X49833515Y-40576648D01*
X49906499Y-40648997D01*
X50017385Y-40758919D01*
X50018462Y-40759987D01*
X50018233Y-40760218D01*
X50055738Y-40817676D01*
X50056242Y-40888671D01*
X50024192Y-40943127D01*
X42362724Y-48604595D01*
X42300412Y-48638621D01*
X42273629Y-48641500D01*
X40371867Y-48641500D01*
X40303746Y-48621498D01*
X40268655Y-48587772D01*
X40246198Y-48555700D01*
X40084300Y-48393802D01*
X40079792Y-48390645D01*
X40079789Y-48390643D01*
X40033474Y-48358213D01*
X39989146Y-48302756D01*
X39981837Y-48232136D01*
X40013868Y-48168776D01*
X40033474Y-48151787D01*
X40079789Y-48119357D01*
X40079792Y-48119355D01*
X40084300Y-48116198D01*
X40246198Y-47954300D01*
X40256538Y-47939533D01*
X40375374Y-47769819D01*
X40413221Y-47734372D01*
X40444302Y-47715511D01*
X40444304Y-47715509D01*
X40449107Y-47712595D01*
X40457484Y-47705197D01*
X40457508Y-47705224D01*
X40460500Y-47702571D01*
X40463733Y-47699868D01*
X40469852Y-47695856D01*
X40523128Y-47639617D01*
X40525506Y-47637175D01*
X41978911Y-46183770D01*
X41993323Y-46171384D01*
X42004918Y-46162851D01*
X42004923Y-46162846D01*
X42010818Y-46158508D01*
X42015557Y-46152930D01*
X42015560Y-46152927D01*
X42045035Y-46118232D01*
X42051965Y-46110716D01*
X42057660Y-46105021D01*
X42073273Y-46085287D01*
X42075281Y-46082749D01*
X42078072Y-46079345D01*
X42120591Y-46029297D01*
X42120592Y-46029295D01*
X42125333Y-46023715D01*
X42128661Y-46017199D01*
X42132020Y-46012162D01*
X42135194Y-46007023D01*
X42139734Y-46001284D01*
X42153197Y-45972477D01*
X42170636Y-45935163D01*
X42172569Y-45931209D01*
X42199343Y-45878776D01*
X42205769Y-45866192D01*
X42207510Y-45859076D01*
X42209604Y-45853446D01*
X42211523Y-45847679D01*
X42214621Y-45841050D01*
X42217711Y-45826198D01*
X42229482Y-45769604D01*
X42230453Y-45765315D01*
X42247808Y-45694390D01*
X42248500Y-45683236D01*
X42248536Y-45683238D01*
X42248775Y-45679248D01*
X42249150Y-45675050D01*
X42250640Y-45667885D01*
X42248546Y-45590479D01*
X42248500Y-45587072D01*
X42248500Y-42589654D01*
X44805618Y-42589654D01*
X44812673Y-42599627D01*
X44843679Y-42625551D01*
X44850598Y-42630579D01*
X45075272Y-42771515D01*
X45082807Y-42775556D01*
X45324520Y-42884694D01*
X45332551Y-42887680D01*
X45586832Y-42963002D01*
X45595184Y-42964869D01*
X45857340Y-43004984D01*
X45865874Y-43005700D01*
X46131045Y-43009867D01*
X46139596Y-43009418D01*
X46402883Y-42977557D01*
X46411284Y-42975955D01*
X46667824Y-42908653D01*
X46675926Y-42905926D01*
X46920949Y-42804434D01*
X46928617Y-42800628D01*
X47157598Y-42666822D01*
X47164679Y-42662009D01*
X47244655Y-42599301D01*
X47253125Y-42587442D01*
X47246608Y-42575818D01*
X46042812Y-41372022D01*
X46028868Y-41364408D01*
X46027035Y-41364539D01*
X46020420Y-41368790D01*
X44812910Y-42576300D01*
X44805618Y-42589654D01*
X42248500Y-42589654D01*
X42248500Y-40983204D01*
X44017665Y-40983204D01*
X44032932Y-41247969D01*
X44034005Y-41256470D01*
X44085065Y-41516722D01*
X44087276Y-41524974D01*
X44173184Y-41775894D01*
X44176499Y-41783779D01*
X44295664Y-42020713D01*
X44300020Y-42028079D01*
X44429347Y-42216250D01*
X44439601Y-42224594D01*
X44453342Y-42217448D01*
X45657978Y-41012812D01*
X45664356Y-41001132D01*
X46394408Y-41001132D01*
X46394539Y-41002965D01*
X46398790Y-41009580D01*
X47605730Y-42216520D01*
X47617939Y-42223187D01*
X47629439Y-42214497D01*
X47726831Y-42081913D01*
X47731418Y-42074685D01*
X47857962Y-41841621D01*
X47861530Y-41833827D01*
X47955271Y-41585750D01*
X47957748Y-41577544D01*
X48016954Y-41319038D01*
X48018294Y-41310577D01*
X48042031Y-41044616D01*
X48042277Y-41039677D01*
X48042666Y-41002485D01*
X48042523Y-40997519D01*
X48024362Y-40731123D01*
X48023201Y-40722649D01*
X47969419Y-40462944D01*
X47967120Y-40454709D01*
X47878588Y-40204705D01*
X47875191Y-40196854D01*
X47753550Y-39961178D01*
X47749122Y-39953866D01*
X47630031Y-39784417D01*
X47619509Y-39776037D01*
X47606121Y-39783089D01*
X46402022Y-40987188D01*
X46394408Y-41001132D01*
X45664356Y-41001132D01*
X45665592Y-40998868D01*
X45665461Y-40997035D01*
X45661210Y-40990420D01*
X44453814Y-39783024D01*
X44441804Y-39776466D01*
X44430064Y-39785434D01*
X44321935Y-39935911D01*
X44317418Y-39943196D01*
X44193325Y-40177567D01*
X44189839Y-40185395D01*
X44098700Y-40434446D01*
X44096311Y-40442670D01*
X44039812Y-40701795D01*
X44038563Y-40710250D01*
X44017754Y-40974653D01*
X44017665Y-40983204D01*
X42248500Y-40983204D01*
X42248500Y-39412500D01*
X44806584Y-39412500D01*
X44812980Y-39423770D01*
X46017188Y-40627978D01*
X46031132Y-40635592D01*
X46032965Y-40635461D01*
X46039580Y-40631210D01*
X47246604Y-39424186D01*
X47253795Y-39411017D01*
X47246473Y-39400780D01*
X47199233Y-39362115D01*
X47192261Y-39357160D01*
X46966122Y-39218582D01*
X46958552Y-39214624D01*
X46715704Y-39108022D01*
X46707644Y-39105120D01*
X46452592Y-39032467D01*
X46444214Y-39030685D01*
X46181656Y-38993318D01*
X46173111Y-38992691D01*
X45907908Y-38991302D01*
X45899374Y-38991839D01*
X45636433Y-39026456D01*
X45628035Y-39028149D01*
X45372238Y-39098127D01*
X45364143Y-39100946D01*
X45120199Y-39204997D01*
X45112577Y-39208881D01*
X44885013Y-39345075D01*
X44877981Y-39349962D01*
X44815053Y-39400377D01*
X44806584Y-39412500D01*
X42248500Y-39412500D01*
X42248500Y-37154930D01*
X61557416Y-37154930D01*
X61576498Y-37397390D01*
X61578041Y-37407137D01*
X61634817Y-37643624D01*
X61637866Y-37653009D01*
X61730936Y-37877700D01*
X61735417Y-37886494D01*
X61854713Y-38081167D01*
X61865170Y-38090627D01*
X61873946Y-38086844D01*
X62797978Y-37162812D01*
X62804356Y-37151132D01*
X63534408Y-37151132D01*
X63534539Y-37152965D01*
X63538790Y-37159580D01*
X64463010Y-38083800D01*
X64475390Y-38090560D01*
X64483040Y-38084833D01*
X64604583Y-37886494D01*
X64609064Y-37877700D01*
X64702134Y-37653009D01*
X64705183Y-37643624D01*
X64761959Y-37407137D01*
X64763502Y-37397390D01*
X64782584Y-37154930D01*
X64782584Y-37145070D01*
X64763502Y-36902610D01*
X64761959Y-36892863D01*
X64705183Y-36656376D01*
X64702134Y-36646991D01*
X64609064Y-36422300D01*
X64604583Y-36413506D01*
X64485287Y-36218833D01*
X64474830Y-36209373D01*
X64466054Y-36213156D01*
X63542022Y-37137188D01*
X63534408Y-37151132D01*
X62804356Y-37151132D01*
X62805592Y-37148868D01*
X62805461Y-37147035D01*
X62801210Y-37140420D01*
X61876990Y-36216200D01*
X61864610Y-36209440D01*
X61856960Y-36215167D01*
X61735417Y-36413506D01*
X61730936Y-36422300D01*
X61637866Y-36646991D01*
X61634817Y-36656376D01*
X61578041Y-36892863D01*
X61576498Y-36902610D01*
X61557416Y-37145070D01*
X61557416Y-37154930D01*
X42248500Y-37154930D01*
X42248500Y-35845170D01*
X62229373Y-35845170D01*
X62233156Y-35853946D01*
X63157188Y-36777978D01*
X63171132Y-36785592D01*
X63172965Y-36785461D01*
X63179580Y-36781210D01*
X64103800Y-35856990D01*
X64110560Y-35844610D01*
X64104833Y-35836960D01*
X63906494Y-35715417D01*
X63897700Y-35710936D01*
X63673009Y-35617866D01*
X63663624Y-35614817D01*
X63427137Y-35558041D01*
X63417390Y-35556498D01*
X63174930Y-35537416D01*
X63165070Y-35537416D01*
X62922610Y-35556498D01*
X62912863Y-35558041D01*
X62676376Y-35614817D01*
X62666991Y-35617866D01*
X62442300Y-35710936D01*
X62433506Y-35715417D01*
X62238833Y-35834713D01*
X62229373Y-35845170D01*
X42248500Y-35845170D01*
X42248500Y-35346371D01*
X42268502Y-35278250D01*
X42285405Y-35257276D01*
X42297681Y-35245000D01*
X66636526Y-35245000D01*
X66656391Y-35497403D01*
X66657545Y-35502210D01*
X66657546Y-35502216D01*
X66676562Y-35581424D01*
X66715495Y-35743591D01*
X66717388Y-35748162D01*
X66717389Y-35748164D01*
X66754170Y-35836960D01*
X66812384Y-35977502D01*
X66944672Y-36193376D01*
X67109102Y-36385898D01*
X67301624Y-36550328D01*
X67517498Y-36682616D01*
X67522068Y-36684509D01*
X67522072Y-36684511D01*
X67746836Y-36777611D01*
X67751409Y-36779505D01*
X67836032Y-36799821D01*
X67992784Y-36837454D01*
X67992790Y-36837455D01*
X67997597Y-36838609D01*
X68250000Y-36858474D01*
X68502403Y-36838609D01*
X68507210Y-36837455D01*
X68507216Y-36837454D01*
X68663968Y-36799821D01*
X68748591Y-36779505D01*
X68753164Y-36777611D01*
X68977928Y-36684511D01*
X68977932Y-36684509D01*
X68982502Y-36682616D01*
X69198376Y-36550328D01*
X69390898Y-36385898D01*
X69555328Y-36193376D01*
X69687616Y-35977502D01*
X69745831Y-35836960D01*
X69782611Y-35748164D01*
X69782612Y-35748162D01*
X69784505Y-35743591D01*
X69823438Y-35581424D01*
X69842454Y-35502216D01*
X69842455Y-35502210D01*
X69843609Y-35497403D01*
X69863474Y-35245000D01*
X69843609Y-34992597D01*
X69834217Y-34953474D01*
X69785660Y-34751221D01*
X69784505Y-34746409D01*
X69782611Y-34741836D01*
X69689511Y-34517072D01*
X69689509Y-34517068D01*
X69687616Y-34512498D01*
X69555328Y-34296624D01*
X69390898Y-34104102D01*
X69198376Y-33939672D01*
X68982502Y-33807384D01*
X68977932Y-33805491D01*
X68977928Y-33805489D01*
X68753164Y-33712389D01*
X68753162Y-33712388D01*
X68748591Y-33710495D01*
X68663968Y-33690179D01*
X68507216Y-33652546D01*
X68507210Y-33652545D01*
X68502403Y-33651391D01*
X68250000Y-33631526D01*
X67997597Y-33651391D01*
X67992790Y-33652545D01*
X67992784Y-33652546D01*
X67836032Y-33690179D01*
X67751409Y-33710495D01*
X67746838Y-33712388D01*
X67746836Y-33712389D01*
X67522072Y-33805489D01*
X67522068Y-33805491D01*
X67517498Y-33807384D01*
X67301624Y-33939672D01*
X67109102Y-34104102D01*
X66944672Y-34296624D01*
X66812384Y-34512498D01*
X66810491Y-34517068D01*
X66810489Y-34517072D01*
X66717389Y-34741836D01*
X66715495Y-34746409D01*
X66714340Y-34751221D01*
X66665784Y-34953474D01*
X66656391Y-34992597D01*
X66636526Y-35245000D01*
X42297681Y-35245000D01*
X51080905Y-26461776D01*
X51143217Y-26427750D01*
X51214032Y-26432815D01*
X51259095Y-26461776D01*
X58626230Y-33828911D01*
X58638616Y-33843323D01*
X58647149Y-33854918D01*
X58647154Y-33854923D01*
X58651492Y-33860818D01*
X58657070Y-33865557D01*
X58657073Y-33865560D01*
X58691768Y-33895035D01*
X58699284Y-33901965D01*
X58704979Y-33907660D01*
X58707861Y-33909940D01*
X58727251Y-33925281D01*
X58730655Y-33928072D01*
X58748089Y-33942883D01*
X58786285Y-33975333D01*
X58792801Y-33978661D01*
X58797850Y-33982028D01*
X58802979Y-33985195D01*
X58808716Y-33989734D01*
X58874875Y-34020655D01*
X58878769Y-34022558D01*
X58943808Y-34055769D01*
X58950916Y-34057508D01*
X58956559Y-34059607D01*
X58962322Y-34061524D01*
X58968950Y-34064622D01*
X58976112Y-34066112D01*
X58976113Y-34066112D01*
X59040412Y-34079486D01*
X59044696Y-34080456D01*
X59115610Y-34097808D01*
X59121212Y-34098156D01*
X59121215Y-34098156D01*
X59126764Y-34098500D01*
X59126762Y-34098536D01*
X59130755Y-34098775D01*
X59134947Y-34099149D01*
X59142115Y-34100640D01*
X59219520Y-34098546D01*
X59222928Y-34098500D01*
X61677752Y-34098500D01*
X61745873Y-34118502D01*
X61785185Y-34158665D01*
X61864672Y-34288376D01*
X62029102Y-34480898D01*
X62221624Y-34645328D01*
X62437498Y-34777616D01*
X62442068Y-34779509D01*
X62442072Y-34779511D01*
X62666836Y-34872611D01*
X62671409Y-34874505D01*
X62741012Y-34891215D01*
X62912784Y-34932454D01*
X62912790Y-34932455D01*
X62917597Y-34933609D01*
X63170000Y-34953474D01*
X63422403Y-34933609D01*
X63427210Y-34932455D01*
X63427216Y-34932454D01*
X63598988Y-34891215D01*
X63668591Y-34874505D01*
X63673164Y-34872611D01*
X63897928Y-34779511D01*
X63897932Y-34779509D01*
X63902502Y-34777616D01*
X64118376Y-34645328D01*
X64310898Y-34480898D01*
X64475328Y-34288376D01*
X64602741Y-34080457D01*
X64605030Y-34076722D01*
X64607616Y-34072502D01*
X64612958Y-34059607D01*
X64702611Y-33843164D01*
X64702612Y-33843162D01*
X64704505Y-33838591D01*
X64749170Y-33652546D01*
X64762454Y-33597216D01*
X64762455Y-33597210D01*
X64763609Y-33592403D01*
X64783474Y-33340000D01*
X64763609Y-33087597D01*
X64754217Y-33048474D01*
X64705660Y-32846221D01*
X64704505Y-32841409D01*
X64702611Y-32836836D01*
X64609511Y-32612072D01*
X64609509Y-32612068D01*
X64607616Y-32607498D01*
X64475328Y-32391624D01*
X64310898Y-32199102D01*
X64118376Y-32034672D01*
X63902502Y-31902384D01*
X63897932Y-31900491D01*
X63897928Y-31900489D01*
X63673164Y-31807389D01*
X63673162Y-31807388D01*
X63668591Y-31805495D01*
X63583968Y-31785179D01*
X63427216Y-31747546D01*
X63427210Y-31747545D01*
X63422403Y-31746391D01*
X63170000Y-31726526D01*
X62917597Y-31746391D01*
X62912790Y-31747545D01*
X62912784Y-31747546D01*
X62756032Y-31785179D01*
X62671409Y-31805495D01*
X62666838Y-31807388D01*
X62666836Y-31807389D01*
X62442072Y-31900489D01*
X62442068Y-31900491D01*
X62437498Y-31902384D01*
X62221624Y-32034672D01*
X62029102Y-32199102D01*
X61864672Y-32391624D01*
X61862090Y-32395838D01*
X61785185Y-32521335D01*
X61732537Y-32568966D01*
X61677752Y-32581500D01*
X59576371Y-32581500D01*
X59508250Y-32561498D01*
X59487276Y-32544595D01*
X57778071Y-30835390D01*
X62229440Y-30835390D01*
X62235167Y-30843040D01*
X62433506Y-30964583D01*
X62442300Y-30969064D01*
X62666991Y-31062134D01*
X62676376Y-31065183D01*
X62912863Y-31121959D01*
X62922610Y-31123502D01*
X63165070Y-31142584D01*
X63174930Y-31142584D01*
X63417390Y-31123502D01*
X63427137Y-31121959D01*
X63663624Y-31065183D01*
X63673009Y-31062134D01*
X63897700Y-30969064D01*
X63906494Y-30964583D01*
X64101167Y-30845287D01*
X64110627Y-30834830D01*
X64106844Y-30826054D01*
X63182812Y-29902022D01*
X63168868Y-29894408D01*
X63167035Y-29894539D01*
X63160420Y-29898790D01*
X62236200Y-30823010D01*
X62229440Y-30835390D01*
X57778071Y-30835390D01*
X56477611Y-29534930D01*
X61557416Y-29534930D01*
X61576498Y-29777390D01*
X61578041Y-29787137D01*
X61634817Y-30023624D01*
X61637866Y-30033009D01*
X61730936Y-30257700D01*
X61735417Y-30266494D01*
X61854713Y-30461167D01*
X61865170Y-30470627D01*
X61873946Y-30466844D01*
X62797978Y-29542812D01*
X62805592Y-29528868D01*
X62805461Y-29527035D01*
X62801210Y-29520420D01*
X61876990Y-28596200D01*
X61864610Y-28589440D01*
X61856960Y-28595167D01*
X61735417Y-28793506D01*
X61730936Y-28802300D01*
X61637866Y-29026991D01*
X61634817Y-29036376D01*
X61578041Y-29272863D01*
X61576498Y-29282610D01*
X61557416Y-29525070D01*
X61557416Y-29534930D01*
X56477611Y-29534930D01*
X55167851Y-28225170D01*
X62229373Y-28225170D01*
X62233156Y-28233946D01*
X63157188Y-29157978D01*
X63171132Y-29165592D01*
X63172965Y-29165461D01*
X63179580Y-29161210D01*
X64103800Y-28236990D01*
X64110560Y-28224610D01*
X64104833Y-28216960D01*
X63906494Y-28095417D01*
X63897700Y-28090936D01*
X63673009Y-27997866D01*
X63663624Y-27994817D01*
X63427137Y-27938041D01*
X63417390Y-27936498D01*
X63174930Y-27917416D01*
X63165070Y-27917416D01*
X62922610Y-27936498D01*
X62912863Y-27938041D01*
X62676376Y-27994817D01*
X62666991Y-27997866D01*
X62442300Y-28090936D01*
X62433506Y-28095417D01*
X62238833Y-28214713D01*
X62229373Y-28225170D01*
X55167851Y-28225170D01*
X54532335Y-27589654D01*
X55105618Y-27589654D01*
X55112673Y-27599627D01*
X55143679Y-27625551D01*
X55150598Y-27630579D01*
X55375272Y-27771515D01*
X55382807Y-27775556D01*
X55624520Y-27884694D01*
X55632551Y-27887680D01*
X55886832Y-27963002D01*
X55895184Y-27964869D01*
X56157340Y-28004984D01*
X56165874Y-28005700D01*
X56431045Y-28009867D01*
X56439596Y-28009418D01*
X56702883Y-27977557D01*
X56711284Y-27975955D01*
X56967824Y-27908653D01*
X56975926Y-27905926D01*
X57220949Y-27804434D01*
X57228617Y-27800628D01*
X57457598Y-27666822D01*
X57464679Y-27662009D01*
X57544655Y-27599301D01*
X57553125Y-27587442D01*
X57546608Y-27575818D01*
X56342812Y-26372022D01*
X56328868Y-26364408D01*
X56327035Y-26364539D01*
X56320420Y-26368790D01*
X55112910Y-27576300D01*
X55105618Y-27589654D01*
X54532335Y-27589654D01*
X52925885Y-25983204D01*
X54317665Y-25983204D01*
X54332932Y-26247969D01*
X54334005Y-26256470D01*
X54385065Y-26516722D01*
X54387276Y-26524974D01*
X54473184Y-26775894D01*
X54476499Y-26783779D01*
X54595664Y-27020713D01*
X54600020Y-27028079D01*
X54729347Y-27216250D01*
X54739601Y-27224594D01*
X54753342Y-27217448D01*
X55957978Y-26012812D01*
X55964356Y-26001132D01*
X56694408Y-26001132D01*
X56694539Y-26002965D01*
X56698790Y-26009580D01*
X57905730Y-27216520D01*
X57917939Y-27223187D01*
X57929439Y-27214497D01*
X58026831Y-27081913D01*
X58031418Y-27074685D01*
X58157962Y-26841621D01*
X58161530Y-26833827D01*
X58255271Y-26585750D01*
X58257748Y-26577544D01*
X58316954Y-26319038D01*
X58318294Y-26310577D01*
X58342031Y-26044616D01*
X58342277Y-26039677D01*
X58342666Y-26002485D01*
X58342523Y-25997519D01*
X58324362Y-25731123D01*
X58323201Y-25722649D01*
X58269419Y-25462944D01*
X58267120Y-25454709D01*
X58178588Y-25204705D01*
X58175191Y-25196854D01*
X58053550Y-24961178D01*
X58049122Y-24953866D01*
X57930031Y-24784417D01*
X57919509Y-24776037D01*
X57906121Y-24783089D01*
X56702022Y-25987188D01*
X56694408Y-26001132D01*
X55964356Y-26001132D01*
X55965592Y-25998868D01*
X55965461Y-25997035D01*
X55961210Y-25990420D01*
X54753814Y-24783024D01*
X54741804Y-24776466D01*
X54730064Y-24785434D01*
X54621935Y-24935911D01*
X54617418Y-24943196D01*
X54493325Y-25177567D01*
X54489839Y-25185395D01*
X54398700Y-25434446D01*
X54396311Y-25442670D01*
X54339812Y-25701795D01*
X54338563Y-25710250D01*
X54317754Y-25974653D01*
X54317665Y-25983204D01*
X52925885Y-25983204D01*
X52603346Y-25660665D01*
X52569320Y-25598353D01*
X52574385Y-25527538D01*
X52597706Y-25488496D01*
X52605280Y-25479859D01*
X52608360Y-25476347D01*
X52613989Y-25467597D01*
X52715220Y-25310214D01*
X52751765Y-25253399D01*
X52860641Y-25011703D01*
X52898362Y-24877956D01*
X52931326Y-24761074D01*
X52931327Y-24761071D01*
X52932596Y-24756570D01*
X52966050Y-24493603D01*
X52968174Y-24412500D01*
X55106584Y-24412500D01*
X55112980Y-24423770D01*
X56317188Y-25627978D01*
X56331132Y-25635592D01*
X56332965Y-25635461D01*
X56339580Y-25631210D01*
X57546604Y-24424186D01*
X57553795Y-24411017D01*
X57546473Y-24400780D01*
X57499233Y-24362115D01*
X57492261Y-24357160D01*
X57266122Y-24218582D01*
X57258552Y-24214624D01*
X57015704Y-24108022D01*
X57007644Y-24105120D01*
X56752592Y-24032467D01*
X56744214Y-24030685D01*
X56481656Y-23993318D01*
X56473111Y-23992691D01*
X56207908Y-23991302D01*
X56199374Y-23991839D01*
X55936433Y-24026456D01*
X55928035Y-24028149D01*
X55672238Y-24098127D01*
X55664143Y-24100946D01*
X55420199Y-24204997D01*
X55412577Y-24208881D01*
X55185013Y-24345075D01*
X55177981Y-24349962D01*
X55115053Y-24400377D01*
X55106584Y-24412500D01*
X52968174Y-24412500D01*
X52968501Y-24400000D01*
X52965369Y-24357855D01*
X52949202Y-24140295D01*
X52949201Y-24140291D01*
X52948856Y-24135643D01*
X52890352Y-23877093D01*
X52888659Y-23872739D01*
X52795968Y-23634383D01*
X52795967Y-23634380D01*
X52794275Y-23630030D01*
X52662735Y-23399883D01*
X52498621Y-23191706D01*
X52305540Y-23010074D01*
X52151094Y-22902930D01*
X52091575Y-22861640D01*
X52091572Y-22861638D01*
X52087733Y-22858975D01*
X52083543Y-22856909D01*
X52083540Y-22856907D01*
X51854172Y-22743796D01*
X51854169Y-22743795D01*
X51849984Y-22741731D01*
X51778708Y-22718915D01*
X51601962Y-22662338D01*
X51601964Y-22662338D01*
X51597517Y-22660915D01*
X51453876Y-22637522D01*
X51340490Y-22619056D01*
X51340489Y-22619056D01*
X51335878Y-22618305D01*
X51203346Y-22616570D01*
X51075492Y-22614896D01*
X51075489Y-22614896D01*
X51070815Y-22614835D01*
X50808150Y-22650582D01*
X50803660Y-22651891D01*
X50803654Y-22651892D01*
X50713136Y-22678276D01*
X50553654Y-22724761D01*
X50549407Y-22726719D01*
X50549404Y-22726720D01*
X50519930Y-22740308D01*
X50312918Y-22835742D01*
X50309009Y-22838305D01*
X50095143Y-22978521D01*
X50095138Y-22978525D01*
X50091230Y-22981087D01*
X50013013Y-23050898D01*
X49972484Y-23087072D01*
X49893460Y-23157603D01*
X49723954Y-23361412D01*
X49586434Y-23588038D01*
X49584625Y-23592352D01*
X49584624Y-23592354D01*
X49485929Y-23827715D01*
X49483922Y-23832500D01*
X49482771Y-23837032D01*
X49482770Y-23837035D01*
X49425662Y-24061898D01*
X49418670Y-24089430D01*
X49392112Y-24353183D01*
X49392336Y-24357850D01*
X49392336Y-24357855D01*
X49395502Y-24423770D01*
X49404830Y-24617963D01*
X49405743Y-24622551D01*
X49433755Y-24763376D01*
X49456546Y-24877956D01*
X49458125Y-24882354D01*
X49458127Y-24882361D01*
X49502949Y-25007200D01*
X49546123Y-25127449D01*
X49671594Y-25360961D01*
X49674389Y-25364704D01*
X49674391Y-25364707D01*
X49707464Y-25408997D01*
X49760380Y-25479859D01*
X49762286Y-25482412D01*
X49787018Y-25548962D01*
X49771844Y-25618318D01*
X49750423Y-25646896D01*
X41001089Y-34396230D01*
X40986677Y-34408616D01*
X40975082Y-34417149D01*
X40975077Y-34417154D01*
X40969182Y-34421492D01*
X40964443Y-34427070D01*
X40964440Y-34427073D01*
X40934965Y-34461768D01*
X40928035Y-34469284D01*
X40922340Y-34474979D01*
X40920060Y-34477861D01*
X40904719Y-34497251D01*
X40901928Y-34500655D01*
X40866943Y-34541835D01*
X40854667Y-34556285D01*
X40851339Y-34562801D01*
X40847972Y-34567850D01*
X40844805Y-34572979D01*
X40840266Y-34578716D01*
X40809345Y-34644875D01*
X40807442Y-34648769D01*
X40774231Y-34713808D01*
X40772492Y-34720916D01*
X40770393Y-34726559D01*
X40768476Y-34732322D01*
X40765378Y-34738950D01*
X40763888Y-34746112D01*
X40763888Y-34746113D01*
X40750514Y-34810412D01*
X40749544Y-34814696D01*
X40732192Y-34885610D01*
X40731500Y-34896764D01*
X40731464Y-34896762D01*
X40731225Y-34900755D01*
X40730851Y-34904947D01*
X40729360Y-34912115D01*
X40729952Y-34933997D01*
X40731454Y-34989521D01*
X40731500Y-34992928D01*
X40731500Y-42085564D01*
X40711498Y-42153685D01*
X40657842Y-42200178D01*
X40587568Y-42210282D01*
X40522988Y-42180788D01*
X40483793Y-42118175D01*
X40475236Y-42086239D01*
X40471490Y-42075947D01*
X40379414Y-41878489D01*
X40373931Y-41868994D01*
X40337491Y-41816952D01*
X40327012Y-41808576D01*
X40313566Y-41815644D01*
X39612022Y-42517188D01*
X39604408Y-42531132D01*
X39604539Y-42532965D01*
X39608790Y-42539580D01*
X40314287Y-43245077D01*
X40326062Y-43251507D01*
X40338077Y-43242211D01*
X40373931Y-43191006D01*
X40379414Y-43181511D01*
X40471490Y-42984053D01*
X40475236Y-42973761D01*
X40483793Y-42941825D01*
X40520745Y-42881202D01*
X40584605Y-42850181D01*
X40655100Y-42858609D01*
X40709847Y-42903812D01*
X40731500Y-42974436D01*
X40731500Y-44373634D01*
X40711498Y-44441755D01*
X40657842Y-44488248D01*
X40587568Y-44498352D01*
X40522988Y-44468858D01*
X40483793Y-44406245D01*
X40475707Y-44376067D01*
X40475706Y-44376065D01*
X40474284Y-44370757D01*
X40430274Y-44276376D01*
X40379849Y-44168238D01*
X40379846Y-44168233D01*
X40377523Y-44163251D01*
X40246198Y-43975700D01*
X40084300Y-43813802D01*
X40079792Y-43810645D01*
X40079789Y-43810643D01*
X40012674Y-43763649D01*
X39968346Y-43708192D01*
X39959615Y-43647464D01*
X39962546Y-43619147D01*
X39954356Y-43603566D01*
X39252812Y-42902022D01*
X39238868Y-42894408D01*
X39237035Y-42894539D01*
X39230420Y-42898790D01*
X38524923Y-43604287D01*
X38517309Y-43618231D01*
X38519734Y-43652142D01*
X38515887Y-43652417D01*
X38512114Y-43705166D01*
X38466329Y-43764347D01*
X38400211Y-43810643D01*
X38400208Y-43810645D01*
X38395700Y-43813802D01*
X38233802Y-43975700D01*
X38219046Y-43996774D01*
X38163590Y-44041102D01*
X38092970Y-44048411D01*
X38029610Y-44016381D01*
X37993624Y-43955180D01*
X37991747Y-43902624D01*
X37993528Y-43892522D01*
X38012517Y-43675475D01*
X38012517Y-43664525D01*
X37993528Y-43447481D01*
X37991624Y-43436680D01*
X37983705Y-43407127D01*
X37985394Y-43336151D01*
X38025187Y-43277354D01*
X38090451Y-43249406D01*
X38118383Y-43249185D01*
X38150853Y-43252546D01*
X38166434Y-43244356D01*
X38867978Y-42542812D01*
X38875592Y-42528868D01*
X38875461Y-42527035D01*
X38871210Y-42520420D01*
X38165713Y-41814923D01*
X38153938Y-41808493D01*
X38141923Y-41817789D01*
X38106069Y-41868994D01*
X38100586Y-41878489D01*
X38008510Y-42075947D01*
X38004764Y-42086239D01*
X37948375Y-42296688D01*
X37946472Y-42307481D01*
X37927483Y-42524525D01*
X37927483Y-42535475D01*
X37946472Y-42752519D01*
X37948376Y-42763320D01*
X37956295Y-42792873D01*
X37954606Y-42863849D01*
X37914813Y-42922646D01*
X37849549Y-42950594D01*
X37821617Y-42950815D01*
X37789147Y-42947454D01*
X37773566Y-42955644D01*
X37072022Y-43657188D01*
X37064408Y-43671132D01*
X37064539Y-43672965D01*
X37068790Y-43679580D01*
X37774287Y-44385077D01*
X37788231Y-44392691D01*
X37812293Y-44390970D01*
X37826752Y-44385314D01*
X37896357Y-44399301D01*
X37947351Y-44448699D01*
X37963543Y-44517824D01*
X37959444Y-44543445D01*
X37946457Y-44591913D01*
X37926502Y-44820000D01*
X37926981Y-44825475D01*
X37946457Y-45048087D01*
X37944109Y-45048292D01*
X37937327Y-45108890D01*
X37892539Y-45163976D01*
X37825079Y-45186104D01*
X37756364Y-45168247D01*
X37717918Y-45132437D01*
X37706198Y-45115700D01*
X37544300Y-44953802D01*
X37539792Y-44950645D01*
X37539789Y-44950643D01*
X37472674Y-44903649D01*
X37428346Y-44848192D01*
X37419615Y-44787464D01*
X37422546Y-44759147D01*
X37414356Y-44743566D01*
X36712812Y-44042022D01*
X36698868Y-44034408D01*
X36697035Y-44034539D01*
X36690420Y-44038790D01*
X35984923Y-44744287D01*
X35977309Y-44758231D01*
X35979734Y-44792142D01*
X35975887Y-44792417D01*
X35972114Y-44845166D01*
X35926329Y-44904347D01*
X35860211Y-44950643D01*
X35860208Y-44950645D01*
X35855700Y-44953802D01*
X35693802Y-45115700D01*
X35690647Y-45120206D01*
X35690643Y-45120211D01*
X35682084Y-45132435D01*
X35626627Y-45176763D01*
X35556007Y-45184072D01*
X35492647Y-45152041D01*
X35456662Y-45090840D01*
X35455139Y-45048227D01*
X35453543Y-45048087D01*
X35473019Y-44825475D01*
X35473498Y-44820000D01*
X35453543Y-44591913D01*
X35441016Y-44545162D01*
X35442706Y-44474186D01*
X35482500Y-44415390D01*
X35547764Y-44387442D01*
X35577773Y-44392488D01*
X35578118Y-44389157D01*
X35610854Y-44392545D01*
X35626434Y-44384356D01*
X36327978Y-43682812D01*
X36335592Y-43668868D01*
X36335461Y-43667035D01*
X36331210Y-43660420D01*
X35625713Y-42954923D01*
X35611769Y-42947309D01*
X35583665Y-42949319D01*
X35576630Y-42952071D01*
X35507024Y-42938085D01*
X35456030Y-42888688D01*
X35439837Y-42819563D01*
X35443937Y-42793939D01*
X35452118Y-42763409D01*
X35452120Y-42763398D01*
X35453543Y-42758087D01*
X35468862Y-42582988D01*
X35978576Y-42582988D01*
X35985644Y-42596434D01*
X36687188Y-43297978D01*
X36701132Y-43305592D01*
X36702965Y-43305461D01*
X36709580Y-43301210D01*
X37415077Y-42595713D01*
X37421507Y-42583938D01*
X37412211Y-42571923D01*
X37361006Y-42536069D01*
X37351511Y-42530586D01*
X37154053Y-42438510D01*
X37143761Y-42434764D01*
X36933312Y-42378375D01*
X36922519Y-42376472D01*
X36705475Y-42357483D01*
X36694525Y-42357483D01*
X36477481Y-42376472D01*
X36466688Y-42378375D01*
X36256239Y-42434764D01*
X36245947Y-42438510D01*
X36048489Y-42530586D01*
X36038994Y-42536069D01*
X35986952Y-42572509D01*
X35978576Y-42582988D01*
X35468862Y-42582988D01*
X35473498Y-42530000D01*
X35453543Y-42301913D01*
X35430120Y-42214497D01*
X35395707Y-42086067D01*
X35395706Y-42086065D01*
X35394284Y-42080757D01*
X35317748Y-41916624D01*
X35299849Y-41878238D01*
X35299846Y-41878233D01*
X35297523Y-41873251D01*
X35224098Y-41768389D01*
X35169357Y-41690211D01*
X35169355Y-41690208D01*
X35166198Y-41685700D01*
X35004300Y-41523802D01*
X34999792Y-41520645D01*
X34999789Y-41520643D01*
X34888886Y-41442988D01*
X38518576Y-41442988D01*
X38525644Y-41456434D01*
X39227188Y-42157978D01*
X39241132Y-42165592D01*
X39242965Y-42165461D01*
X39249580Y-42161210D01*
X39955077Y-41455713D01*
X39961507Y-41443938D01*
X39952211Y-41431923D01*
X39901006Y-41396069D01*
X39891511Y-41390586D01*
X39694053Y-41298510D01*
X39683761Y-41294764D01*
X39473312Y-41238375D01*
X39462519Y-41236472D01*
X39245475Y-41217483D01*
X39234525Y-41217483D01*
X39017481Y-41236472D01*
X39006688Y-41238375D01*
X38796239Y-41294764D01*
X38785947Y-41298510D01*
X38588489Y-41390586D01*
X38578994Y-41396069D01*
X38526952Y-41432509D01*
X38518576Y-41442988D01*
X34888886Y-41442988D01*
X34816749Y-41392477D01*
X34811767Y-41390154D01*
X34811762Y-41390151D01*
X34614225Y-41298039D01*
X34614224Y-41298039D01*
X34609243Y-41295716D01*
X34603935Y-41294294D01*
X34603933Y-41294293D01*
X34393402Y-41237881D01*
X34393400Y-41237881D01*
X34388087Y-41236457D01*
X34160000Y-41216502D01*
X33931913Y-41236457D01*
X33926600Y-41237881D01*
X33926598Y-41237881D01*
X33716067Y-41294293D01*
X33716065Y-41294294D01*
X33710757Y-41295716D01*
X33705776Y-41298039D01*
X33705775Y-41298039D01*
X33508238Y-41390151D01*
X33508233Y-41390154D01*
X33503251Y-41392477D01*
X33431114Y-41442988D01*
X33320211Y-41520643D01*
X33320208Y-41520645D01*
X33315700Y-41523802D01*
X33153802Y-41685700D01*
X33150645Y-41690208D01*
X33150643Y-41690211D01*
X33095902Y-41768389D01*
X33022477Y-41873251D01*
X33020154Y-41878233D01*
X33020151Y-41878238D01*
X33002252Y-41916624D01*
X32925716Y-42080757D01*
X32924294Y-42086065D01*
X32924293Y-42086067D01*
X32889880Y-42214497D01*
X32866457Y-42301913D01*
X32846502Y-42530000D01*
X32866457Y-42758087D01*
X32867881Y-42763400D01*
X32867881Y-42763402D01*
X32919393Y-42955644D01*
X32925716Y-42979243D01*
X32928039Y-42984224D01*
X32928039Y-42984225D01*
X33020151Y-43181762D01*
X33020154Y-43181767D01*
X33022477Y-43186749D01*
X33095902Y-43291611D01*
X33149506Y-43368164D01*
X33153802Y-43374300D01*
X33315700Y-43536198D01*
X33320208Y-43539355D01*
X33320211Y-43539357D01*
X33366526Y-43571787D01*
X33410854Y-43627244D01*
X33418163Y-43697864D01*
X33386132Y-43761224D01*
X33366526Y-43778213D01*
X33320211Y-43810643D01*
X33320208Y-43810645D01*
X33315700Y-43813802D01*
X33153802Y-43975700D01*
X33022477Y-44163251D01*
X33020154Y-44168233D01*
X33020151Y-44168238D01*
X32969726Y-44276376D01*
X32925716Y-44370757D01*
X32924294Y-44376065D01*
X32924293Y-44376067D01*
X32886309Y-44517824D01*
X32866457Y-44591913D01*
X32846502Y-44820000D01*
X32866457Y-45048087D01*
X32867881Y-45053400D01*
X32867881Y-45053402D01*
X32897510Y-45163976D01*
X32925716Y-45269243D01*
X32928039Y-45274224D01*
X32928039Y-45274225D01*
X33020151Y-45471762D01*
X33020154Y-45471767D01*
X33022477Y-45476749D01*
X33025634Y-45481257D01*
X33128356Y-45627959D01*
X33153802Y-45664300D01*
X33315700Y-45826198D01*
X33320208Y-45829355D01*
X33320211Y-45829357D01*
X33366526Y-45861787D01*
X33410854Y-45917244D01*
X33418163Y-45987864D01*
X33386132Y-46051224D01*
X33366526Y-46068213D01*
X33320211Y-46100643D01*
X33320208Y-46100645D01*
X33315700Y-46103802D01*
X33153802Y-46265700D01*
X33150645Y-46270208D01*
X33150643Y-46270211D01*
X33122460Y-46310461D01*
X33022477Y-46453251D01*
X33020154Y-46458233D01*
X33020151Y-46458238D01*
X32946237Y-46616749D01*
X32925716Y-46660757D01*
X32924294Y-46666065D01*
X32924293Y-46666067D01*
X32888462Y-46799789D01*
X32866457Y-46881913D01*
X32846502Y-47110000D01*
X32866457Y-47338087D01*
X32867881Y-47343400D01*
X32867881Y-47343402D01*
X32914688Y-47518085D01*
X32925716Y-47559243D01*
X32928039Y-47564224D01*
X32928039Y-47564225D01*
X33020151Y-47761762D01*
X33020154Y-47761767D01*
X33022477Y-47766749D01*
X33076063Y-47843278D01*
X33142662Y-47938390D01*
X33153802Y-47954300D01*
X33315700Y-48116198D01*
X33320208Y-48119355D01*
X33320211Y-48119357D01*
X33366526Y-48151787D01*
X33410854Y-48207244D01*
X33418163Y-48277864D01*
X33386132Y-48341224D01*
X33366526Y-48358213D01*
X33320211Y-48390643D01*
X33320208Y-48390645D01*
X33315700Y-48393802D01*
X33153802Y-48555700D01*
X33022477Y-48743251D01*
X33020154Y-48748233D01*
X33020151Y-48748238D01*
X32952860Y-48892546D01*
X32925716Y-48950757D01*
X32924294Y-48956065D01*
X32924293Y-48956067D01*
X32900332Y-49045489D01*
X32866457Y-49171913D01*
X32846502Y-49400000D01*
X32866457Y-49628087D01*
X32867881Y-49633400D01*
X32867881Y-49633402D01*
X32914688Y-49808085D01*
X32925716Y-49849243D01*
X32928039Y-49854224D01*
X32928039Y-49854225D01*
X33020151Y-50051762D01*
X33020154Y-50051767D01*
X33022477Y-50056749D01*
X33091421Y-50155211D01*
X33127674Y-50206985D01*
X33153802Y-50244300D01*
X33315700Y-50406198D01*
X33320208Y-50409355D01*
X33320211Y-50409357D01*
X33366526Y-50441787D01*
X33410854Y-50497244D01*
X33418163Y-50567864D01*
X33386132Y-50631224D01*
X33366526Y-50648213D01*
X33320211Y-50680643D01*
X33320208Y-50680645D01*
X33315700Y-50683802D01*
X33153802Y-50845700D01*
X33022477Y-51033251D01*
X33020154Y-51038233D01*
X33020151Y-51038238D01*
X32950934Y-51186677D01*
X32925716Y-51240757D01*
X32924294Y-51246065D01*
X32924293Y-51246067D01*
X32867988Y-51456200D01*
X32866457Y-51461913D01*
X32846502Y-51690000D01*
X25818500Y-51690000D01*
X25818500Y-36991982D01*
X34943142Y-36991982D01*
X34950668Y-37002415D01*
X35096463Y-37119848D01*
X35102648Y-37124244D01*
X35378363Y-37296195D01*
X35385034Y-37299817D01*
X35679414Y-37437402D01*
X35686468Y-37440195D01*
X35995257Y-37541420D01*
X36002570Y-37543339D01*
X36321298Y-37606738D01*
X36328789Y-37607764D01*
X36652823Y-37632413D01*
X36660386Y-37632531D01*
X36985021Y-37618074D01*
X36992562Y-37617282D01*
X37313115Y-37563926D01*
X37320479Y-37562240D01*
X37632315Y-37470757D01*
X37639424Y-37468198D01*
X37938003Y-37339919D01*
X37944770Y-37336515D01*
X38225764Y-37173301D01*
X38232071Y-37169111D01*
X38450005Y-37004588D01*
X38458461Y-36993197D01*
X38451743Y-36980953D01*
X36712812Y-35242022D01*
X36698868Y-35234408D01*
X36697035Y-35234539D01*
X36690420Y-35238790D01*
X34950257Y-36978953D01*
X34943142Y-36991982D01*
X25818500Y-36991982D01*
X25818500Y-34844858D01*
X33937299Y-34844858D01*
X33953456Y-35169410D01*
X33954287Y-35176939D01*
X34009318Y-35497198D01*
X34011051Y-35504585D01*
X34104156Y-35815909D01*
X34106759Y-35823022D01*
X34236595Y-36120913D01*
X34240037Y-36127669D01*
X34404720Y-36407803D01*
X34408943Y-36414088D01*
X34565792Y-36619608D01*
X34577316Y-36628069D01*
X34589382Y-36621408D01*
X36327978Y-34882812D01*
X36334356Y-34871132D01*
X37064408Y-34871132D01*
X37064539Y-34872965D01*
X37068790Y-34879580D01*
X38808825Y-36619615D01*
X38821948Y-36626781D01*
X38832250Y-36619391D01*
X38941429Y-36485285D01*
X38945842Y-36479144D01*
X39119248Y-36204312D01*
X39122895Y-36197677D01*
X39262025Y-35904011D01*
X39264850Y-35896984D01*
X39367696Y-35588715D01*
X39369650Y-35581424D01*
X39434716Y-35263033D01*
X39435784Y-35255529D01*
X39462253Y-34930100D01*
X39462458Y-34925625D01*
X39463018Y-34872221D01*
X39462908Y-34867789D01*
X39443257Y-34541835D01*
X39442349Y-34534333D01*
X39383967Y-34214663D01*
X39382154Y-34207284D01*
X39285797Y-33896966D01*
X39283116Y-33889869D01*
X39150172Y-33593363D01*
X39146655Y-33586636D01*
X38979054Y-33308252D01*
X38974757Y-33301999D01*
X38833617Y-33121022D01*
X38821823Y-33112551D01*
X38810113Y-33119097D01*
X37072022Y-34857188D01*
X37064408Y-34871132D01*
X36334356Y-34871132D01*
X36335592Y-34868868D01*
X36335461Y-34867035D01*
X36331210Y-34860420D01*
X34590864Y-33120074D01*
X34577929Y-33113011D01*
X34567367Y-33120671D01*
X34441785Y-33278268D01*
X34437428Y-33284467D01*
X34266913Y-33561094D01*
X34263333Y-33567770D01*
X34127287Y-33862878D01*
X34124537Y-33869929D01*
X34024927Y-34179251D01*
X34023044Y-34186584D01*
X33961316Y-34505632D01*
X33960329Y-34513132D01*
X33937378Y-34837277D01*
X33937299Y-34844858D01*
X25818500Y-34844858D01*
X25818500Y-32747773D01*
X34942267Y-32747773D01*
X34948871Y-32759661D01*
X36687188Y-34497978D01*
X36701132Y-34505592D01*
X36702965Y-34505461D01*
X36709580Y-34501210D01*
X38450162Y-32760628D01*
X38457174Y-32747787D01*
X38449379Y-32737098D01*
X38279886Y-32603481D01*
X38273663Y-32599156D01*
X37996140Y-32430088D01*
X37989465Y-32426553D01*
X37693637Y-32292049D01*
X37686567Y-32289335D01*
X37376740Y-32191350D01*
X37369389Y-32189503D01*
X37050024Y-32129446D01*
X37042515Y-32128498D01*
X36718251Y-32107245D01*
X36710686Y-32107205D01*
X36386207Y-32125062D01*
X36378693Y-32125931D01*
X36058713Y-32182641D01*
X36051357Y-32184406D01*
X35740503Y-32279147D01*
X35733409Y-32281786D01*
X35436207Y-32413178D01*
X35429470Y-32416655D01*
X35150196Y-32582805D01*
X35143945Y-32587053D01*
X34950733Y-32736115D01*
X34942267Y-32747773D01*
X25818500Y-32747773D01*
X25818500Y-27589654D01*
X44805618Y-27589654D01*
X44812673Y-27599627D01*
X44843679Y-27625551D01*
X44850598Y-27630579D01*
X45075272Y-27771515D01*
X45082807Y-27775556D01*
X45324520Y-27884694D01*
X45332551Y-27887680D01*
X45586832Y-27963002D01*
X45595184Y-27964869D01*
X45857340Y-28004984D01*
X45865874Y-28005700D01*
X46131045Y-28009867D01*
X46139596Y-28009418D01*
X46402883Y-27977557D01*
X46411284Y-27975955D01*
X46667824Y-27908653D01*
X46675926Y-27905926D01*
X46920949Y-27804434D01*
X46928617Y-27800628D01*
X47157598Y-27666822D01*
X47164679Y-27662009D01*
X47244655Y-27599301D01*
X47253125Y-27587442D01*
X47246608Y-27575818D01*
X46042812Y-26372022D01*
X46028868Y-26364408D01*
X46027035Y-26364539D01*
X46020420Y-26368790D01*
X44812910Y-27576300D01*
X44805618Y-27589654D01*
X25818500Y-27589654D01*
X25818500Y-26344000D01*
X25838502Y-26275879D01*
X25892158Y-26229386D01*
X25944500Y-26218000D01*
X26267885Y-26218000D01*
X26283124Y-26213525D01*
X26284329Y-26212135D01*
X26286000Y-26204452D01*
X26286000Y-26199884D01*
X26794000Y-26199884D01*
X26798475Y-26215123D01*
X26799865Y-26216328D01*
X26807548Y-26217999D01*
X27434669Y-26217999D01*
X27441490Y-26217629D01*
X27492352Y-26212105D01*
X27507604Y-26208479D01*
X27628054Y-26163324D01*
X27643649Y-26154786D01*
X27745724Y-26078285D01*
X27758285Y-26065724D01*
X27834786Y-25963649D01*
X27843324Y-25948054D01*
X27888478Y-25827606D01*
X27892105Y-25812351D01*
X27897631Y-25761486D01*
X27898000Y-25754672D01*
X27898000Y-24343300D01*
X27918002Y-24275179D01*
X27971658Y-24228686D01*
X28035045Y-24218454D01*
X28035072Y-24217947D01*
X28037403Y-24218073D01*
X28037618Y-24218039D01*
X28041866Y-24218500D01*
X29838134Y-24218500D01*
X29900316Y-24211745D01*
X30036705Y-24160615D01*
X30153261Y-24073261D01*
X30158642Y-24066081D01*
X30164992Y-24059731D01*
X30167159Y-24061898D01*
X30211775Y-24028536D01*
X30282594Y-24023509D01*
X30344839Y-24057520D01*
X32446229Y-26158910D01*
X32458615Y-26173321D01*
X32460974Y-26176526D01*
X32471492Y-26190818D01*
X32477070Y-26195557D01*
X32477073Y-26195560D01*
X32511768Y-26225035D01*
X32519284Y-26231965D01*
X32524979Y-26237660D01*
X32527861Y-26239940D01*
X32547251Y-26255281D01*
X32550655Y-26258072D01*
X32600703Y-26300591D01*
X32606285Y-26305333D01*
X32612801Y-26308661D01*
X32617850Y-26312028D01*
X32622979Y-26315195D01*
X32628716Y-26319734D01*
X32694875Y-26350655D01*
X32698769Y-26352558D01*
X32763808Y-26385769D01*
X32770916Y-26387508D01*
X32776559Y-26389607D01*
X32782322Y-26391524D01*
X32788950Y-26394622D01*
X32796112Y-26396112D01*
X32796113Y-26396112D01*
X32860412Y-26409486D01*
X32864696Y-26410456D01*
X32935610Y-26427808D01*
X32941212Y-26428156D01*
X32941215Y-26428156D01*
X32946764Y-26428500D01*
X32946762Y-26428536D01*
X32950755Y-26428775D01*
X32954947Y-26429149D01*
X32962115Y-26430640D01*
X33039520Y-26428546D01*
X33042928Y-26428500D01*
X38632930Y-26428500D01*
X38651880Y-26429933D01*
X38666115Y-26432099D01*
X38666119Y-26432099D01*
X38673349Y-26433199D01*
X38680641Y-26432606D01*
X38680644Y-26432606D01*
X38726018Y-26428915D01*
X38736233Y-26428500D01*
X38744293Y-26428500D01*
X38761680Y-26426473D01*
X38772507Y-26425211D01*
X38776882Y-26424778D01*
X38842339Y-26419454D01*
X38842342Y-26419453D01*
X38849637Y-26418860D01*
X38856601Y-26416604D01*
X38862560Y-26415413D01*
X38868415Y-26414029D01*
X38875681Y-26413182D01*
X38944327Y-26388265D01*
X38948455Y-26386848D01*
X39010936Y-26366607D01*
X39010938Y-26366606D01*
X39017899Y-26364351D01*
X39024154Y-26360555D01*
X39029628Y-26358049D01*
X39035058Y-26355330D01*
X39041937Y-26352833D01*
X39048058Y-26348820D01*
X39102976Y-26312814D01*
X39106680Y-26310477D01*
X39169107Y-26272595D01*
X39177484Y-26265197D01*
X39177508Y-26265224D01*
X39180500Y-26262571D01*
X39183733Y-26259868D01*
X39189852Y-26255856D01*
X39243128Y-26199617D01*
X39245506Y-26197175D01*
X39459477Y-25983204D01*
X44017665Y-25983204D01*
X44032932Y-26247969D01*
X44034005Y-26256470D01*
X44085065Y-26516722D01*
X44087276Y-26524974D01*
X44173184Y-26775894D01*
X44176499Y-26783779D01*
X44295664Y-27020713D01*
X44300020Y-27028079D01*
X44429347Y-27216250D01*
X44439601Y-27224594D01*
X44453342Y-27217448D01*
X45657978Y-26012812D01*
X45664356Y-26001132D01*
X46394408Y-26001132D01*
X46394539Y-26002965D01*
X46398790Y-26009580D01*
X47605730Y-27216520D01*
X47617939Y-27223187D01*
X47629439Y-27214497D01*
X47726831Y-27081913D01*
X47731418Y-27074685D01*
X47857962Y-26841621D01*
X47861530Y-26833827D01*
X47955271Y-26585750D01*
X47957748Y-26577544D01*
X48016954Y-26319038D01*
X48018294Y-26310577D01*
X48042031Y-26044616D01*
X48042277Y-26039677D01*
X48042666Y-26002485D01*
X48042523Y-25997519D01*
X48024362Y-25731123D01*
X48023201Y-25722649D01*
X47969419Y-25462944D01*
X47967120Y-25454709D01*
X47878588Y-25204705D01*
X47875191Y-25196854D01*
X47753550Y-24961178D01*
X47749122Y-24953866D01*
X47630031Y-24784417D01*
X47619509Y-24776037D01*
X47606121Y-24783089D01*
X46402022Y-25987188D01*
X46394408Y-26001132D01*
X45664356Y-26001132D01*
X45665592Y-25998868D01*
X45665461Y-25997035D01*
X45661210Y-25990420D01*
X44453814Y-24783024D01*
X44441804Y-24776466D01*
X44430064Y-24785434D01*
X44321935Y-24935911D01*
X44317418Y-24943196D01*
X44193325Y-25177567D01*
X44189839Y-25185395D01*
X44098700Y-25434446D01*
X44096311Y-25442670D01*
X44039812Y-25701795D01*
X44038563Y-25710250D01*
X44017754Y-25974653D01*
X44017665Y-25983204D01*
X39459477Y-25983204D01*
X41030181Y-24412500D01*
X44806584Y-24412500D01*
X44812980Y-24423770D01*
X46017188Y-25627978D01*
X46031132Y-25635592D01*
X46032965Y-25635461D01*
X46039580Y-25631210D01*
X47246604Y-24424186D01*
X47253795Y-24411017D01*
X47246473Y-24400780D01*
X47199233Y-24362115D01*
X47192261Y-24357160D01*
X46966122Y-24218582D01*
X46958552Y-24214624D01*
X46715704Y-24108022D01*
X46707644Y-24105120D01*
X46452592Y-24032467D01*
X46444214Y-24030685D01*
X46181656Y-23993318D01*
X46173111Y-23992691D01*
X45907908Y-23991302D01*
X45899374Y-23991839D01*
X45636433Y-24026456D01*
X45628035Y-24028149D01*
X45372238Y-24098127D01*
X45364143Y-24100946D01*
X45120199Y-24204997D01*
X45112577Y-24208881D01*
X44885013Y-24345075D01*
X44877981Y-24349962D01*
X44815053Y-24400377D01*
X44806584Y-24412500D01*
X41030181Y-24412500D01*
X43667276Y-21775405D01*
X43729588Y-21741379D01*
X43756371Y-21738500D01*
X58063629Y-21738500D01*
X58131750Y-21758502D01*
X58152724Y-21775405D01*
X61578481Y-25201162D01*
X61612507Y-25263474D01*
X61611905Y-25319671D01*
X61584350Y-25434446D01*
X61576391Y-25467597D01*
X61556526Y-25720000D01*
X61576391Y-25972403D01*
X61577545Y-25977210D01*
X61577546Y-25977216D01*
X61598795Y-26065724D01*
X61635495Y-26218591D01*
X61637388Y-26223162D01*
X61637389Y-26223164D01*
X61724143Y-26432606D01*
X61732384Y-26452502D01*
X61864672Y-26668376D01*
X62029102Y-26860898D01*
X62221624Y-27025328D01*
X62437498Y-27157616D01*
X62442068Y-27159509D01*
X62442072Y-27159511D01*
X62599197Y-27224594D01*
X62671409Y-27254505D01*
X62756032Y-27274821D01*
X62912784Y-27312454D01*
X62912790Y-27312455D01*
X62917597Y-27313609D01*
X63170000Y-27333474D01*
X63422403Y-27313609D01*
X63427210Y-27312455D01*
X63427216Y-27312454D01*
X63506660Y-27293381D01*
X63570330Y-27278095D01*
X63641237Y-27281642D01*
X63688838Y-27311519D01*
X64884595Y-28507276D01*
X64918621Y-28569588D01*
X64921500Y-28596371D01*
X64921500Y-28797930D01*
X64920067Y-28816880D01*
X64916801Y-28838349D01*
X64917394Y-28845641D01*
X64917394Y-28845644D01*
X64921085Y-28891018D01*
X64921500Y-28901233D01*
X64921500Y-28909293D01*
X64921925Y-28912934D01*
X64922136Y-28916573D01*
X64920763Y-28916653D01*
X64909735Y-28981087D01*
X64861825Y-29033482D01*
X64793195Y-29051657D01*
X64725632Y-29029843D01*
X64680151Y-28973920D01*
X64609064Y-28802300D01*
X64604583Y-28793506D01*
X64485287Y-28598833D01*
X64474830Y-28589373D01*
X64466054Y-28593156D01*
X63542022Y-29517188D01*
X63534408Y-29531132D01*
X63534539Y-29532965D01*
X63538790Y-29539580D01*
X64463010Y-30463800D01*
X64475390Y-30470560D01*
X64483040Y-30464833D01*
X64604583Y-30266494D01*
X64609064Y-30257700D01*
X64702134Y-30033009D01*
X64705183Y-30023624D01*
X64761959Y-29787137D01*
X64763502Y-29777390D01*
X64782584Y-29534930D01*
X64782584Y-29525070D01*
X64763310Y-29280171D01*
X64777906Y-29210691D01*
X64827749Y-29160131D01*
X64897013Y-29144545D01*
X64963709Y-29168880D01*
X64996255Y-29207535D01*
X64997167Y-29206937D01*
X65037186Y-29267976D01*
X65039523Y-29271680D01*
X65077405Y-29334107D01*
X65081121Y-29338315D01*
X65081122Y-29338316D01*
X65084803Y-29342484D01*
X65084776Y-29342508D01*
X65087429Y-29345500D01*
X65090132Y-29348733D01*
X65094144Y-29354852D01*
X65099456Y-29359884D01*
X65150383Y-29408128D01*
X65152825Y-29410506D01*
X66658481Y-30916162D01*
X66692507Y-30978474D01*
X66691905Y-31034669D01*
X66656391Y-31182597D01*
X66636526Y-31435000D01*
X66656391Y-31687403D01*
X66657545Y-31692210D01*
X66657546Y-31692216D01*
X66670830Y-31747546D01*
X66715495Y-31933591D01*
X66717388Y-31938162D01*
X66717389Y-31938164D01*
X66796621Y-32129446D01*
X66812384Y-32167502D01*
X66944672Y-32383376D01*
X67109102Y-32575898D01*
X67301624Y-32740328D01*
X67517498Y-32872616D01*
X67522068Y-32874509D01*
X67522072Y-32874511D01*
X67746836Y-32967611D01*
X67751409Y-32969505D01*
X67836032Y-32989821D01*
X67992784Y-33027454D01*
X67992790Y-33027455D01*
X67997597Y-33028609D01*
X68250000Y-33048474D01*
X68502403Y-33028609D01*
X68507210Y-33027455D01*
X68507216Y-33027454D01*
X68663968Y-32989821D01*
X68748591Y-32969505D01*
X68753164Y-32967611D01*
X68977928Y-32874511D01*
X68977932Y-32874509D01*
X68982502Y-32872616D01*
X69198376Y-32740328D01*
X69390898Y-32575898D01*
X69555328Y-32383376D01*
X69687616Y-32167502D01*
X69703380Y-32129446D01*
X69782611Y-31938164D01*
X69782612Y-31938162D01*
X69784505Y-31933591D01*
X69829170Y-31747546D01*
X69842454Y-31692216D01*
X69842455Y-31692210D01*
X69843609Y-31687403D01*
X69863474Y-31435000D01*
X69843609Y-31182597D01*
X69829052Y-31121959D01*
X69785660Y-30941221D01*
X69784505Y-30936409D01*
X69782611Y-30931836D01*
X69689511Y-30707072D01*
X69689509Y-30707068D01*
X69687616Y-30702498D01*
X69555328Y-30486624D01*
X69390898Y-30294102D01*
X69198376Y-30129672D01*
X68982502Y-29997384D01*
X68977932Y-29995491D01*
X68977928Y-29995489D01*
X68753164Y-29902389D01*
X68753162Y-29902388D01*
X68748591Y-29900495D01*
X68650331Y-29876905D01*
X68507216Y-29842546D01*
X68507210Y-29842545D01*
X68502403Y-29841391D01*
X68250000Y-29821526D01*
X67997597Y-29841391D01*
X67992790Y-29842545D01*
X67992784Y-29842546D01*
X67913340Y-29861619D01*
X67849670Y-29876905D01*
X67778763Y-29873358D01*
X67731162Y-29843481D01*
X66818071Y-28930390D01*
X67309440Y-28930390D01*
X67315167Y-28938040D01*
X67513506Y-29059583D01*
X67522300Y-29064064D01*
X67746991Y-29157134D01*
X67756376Y-29160183D01*
X67992863Y-29216959D01*
X68002610Y-29218502D01*
X68245070Y-29237584D01*
X68254930Y-29237584D01*
X68497390Y-29218502D01*
X68507137Y-29216959D01*
X68743624Y-29160183D01*
X68753009Y-29157134D01*
X68977700Y-29064064D01*
X68986494Y-29059583D01*
X69181167Y-28940287D01*
X69190627Y-28929830D01*
X69186844Y-28921054D01*
X68262812Y-27997022D01*
X68248868Y-27989408D01*
X68247035Y-27989539D01*
X68240420Y-27993790D01*
X67316200Y-28918010D01*
X67309440Y-28930390D01*
X66818071Y-28930390D01*
X66475405Y-28587724D01*
X66441379Y-28525412D01*
X66438500Y-28498629D01*
X66438500Y-28297070D01*
X66439933Y-28278120D01*
X66442099Y-28263885D01*
X66442099Y-28263881D01*
X66443199Y-28256651D01*
X66440639Y-28225170D01*
X66438915Y-28203982D01*
X66438500Y-28193767D01*
X66438500Y-28185707D01*
X66435211Y-28157493D01*
X66434778Y-28153118D01*
X66429454Y-28087661D01*
X66429453Y-28087658D01*
X66428860Y-28080363D01*
X66426604Y-28073399D01*
X66425413Y-28067440D01*
X66424029Y-28061585D01*
X66423182Y-28054319D01*
X66398265Y-27985673D01*
X66396848Y-27981545D01*
X66376607Y-27919064D01*
X66376606Y-27919062D01*
X66374351Y-27912101D01*
X66370555Y-27905846D01*
X66368049Y-27900372D01*
X66365330Y-27894942D01*
X66362833Y-27888063D01*
X66322814Y-27827024D01*
X66320467Y-27823305D01*
X66309016Y-27804434D01*
X66282595Y-27760893D01*
X66275197Y-27752516D01*
X66275224Y-27752492D01*
X66272571Y-27749500D01*
X66269868Y-27746267D01*
X66265856Y-27740148D01*
X66209617Y-27686872D01*
X66207175Y-27684494D01*
X66152611Y-27629930D01*
X66637416Y-27629930D01*
X66656498Y-27872390D01*
X66658041Y-27882137D01*
X66714817Y-28118624D01*
X66717866Y-28128009D01*
X66810936Y-28352700D01*
X66815417Y-28361494D01*
X66934713Y-28556167D01*
X66945170Y-28565627D01*
X66953946Y-28561844D01*
X67877978Y-27637812D01*
X67884356Y-27626132D01*
X68614408Y-27626132D01*
X68614539Y-27627965D01*
X68618790Y-27634580D01*
X69543010Y-28558800D01*
X69555390Y-28565560D01*
X69563040Y-28559833D01*
X69684583Y-28361494D01*
X69689064Y-28352700D01*
X69782134Y-28128009D01*
X69785183Y-28118624D01*
X69841959Y-27882137D01*
X69843502Y-27872390D01*
X69862584Y-27629930D01*
X69862584Y-27620070D01*
X69843502Y-27377610D01*
X69841959Y-27367863D01*
X69785183Y-27131376D01*
X69782134Y-27121991D01*
X69689064Y-26897300D01*
X69684583Y-26888506D01*
X69565287Y-26693833D01*
X69554830Y-26684373D01*
X69546054Y-26688156D01*
X68622022Y-27612188D01*
X68614408Y-27626132D01*
X67884356Y-27626132D01*
X67885592Y-27623868D01*
X67885461Y-27622035D01*
X67881210Y-27615420D01*
X66956990Y-26691200D01*
X66944610Y-26684440D01*
X66936960Y-26690167D01*
X66815417Y-26888506D01*
X66810936Y-26897300D01*
X66717866Y-27121991D01*
X66714817Y-27131376D01*
X66658041Y-27367863D01*
X66656498Y-27377610D01*
X66637416Y-27620070D01*
X66637416Y-27629930D01*
X66152611Y-27629930D01*
X64842851Y-26320170D01*
X67309373Y-26320170D01*
X67313156Y-26328946D01*
X68237188Y-27252978D01*
X68251132Y-27260592D01*
X68252965Y-27260461D01*
X68259580Y-27256210D01*
X69183800Y-26331990D01*
X69190560Y-26319610D01*
X69184833Y-26311960D01*
X68986494Y-26190417D01*
X68977700Y-26185936D01*
X68753009Y-26092866D01*
X68743624Y-26089817D01*
X68507137Y-26033041D01*
X68497390Y-26031498D01*
X68254930Y-26012416D01*
X68245070Y-26012416D01*
X68002610Y-26031498D01*
X67992863Y-26033041D01*
X67756376Y-26089817D01*
X67746991Y-26092866D01*
X67522300Y-26185936D01*
X67513506Y-26190417D01*
X67318833Y-26309713D01*
X67309373Y-26320170D01*
X64842851Y-26320170D01*
X64761519Y-26238838D01*
X64727493Y-26176526D01*
X64728095Y-26120329D01*
X64734689Y-26092866D01*
X64756712Y-26001132D01*
X64762454Y-25977216D01*
X64762455Y-25977210D01*
X64763609Y-25972403D01*
X64783474Y-25720000D01*
X64763609Y-25467597D01*
X64755651Y-25434446D01*
X64714604Y-25263474D01*
X64704505Y-25221409D01*
X64697586Y-25204705D01*
X64609511Y-24992072D01*
X64609509Y-24992068D01*
X64607616Y-24987498D01*
X64475328Y-24771624D01*
X64310898Y-24579102D01*
X64118376Y-24414672D01*
X63902502Y-24282384D01*
X63897932Y-24280491D01*
X63897928Y-24280489D01*
X63673164Y-24187389D01*
X63673162Y-24187388D01*
X63668591Y-24185495D01*
X63570331Y-24161905D01*
X63427216Y-24127546D01*
X63427210Y-24127545D01*
X63422403Y-24126391D01*
X63170000Y-24106526D01*
X62917597Y-24126391D01*
X62912790Y-24127545D01*
X62912784Y-24127546D01*
X62859682Y-24140295D01*
X62769670Y-24161905D01*
X62698763Y-24158358D01*
X62651162Y-24128481D01*
X59013770Y-20491089D01*
X59001384Y-20476677D01*
X58992851Y-20465082D01*
X58992846Y-20465077D01*
X58988508Y-20459182D01*
X58982930Y-20454443D01*
X58982927Y-20454440D01*
X58948232Y-20424965D01*
X58940716Y-20418035D01*
X58935021Y-20412340D01*
X58918736Y-20399456D01*
X58912749Y-20394719D01*
X58909345Y-20391928D01*
X58859297Y-20349409D01*
X58859295Y-20349408D01*
X58853715Y-20344667D01*
X58847199Y-20341339D01*
X58842150Y-20337972D01*
X58837021Y-20334805D01*
X58831284Y-20330266D01*
X58765125Y-20299345D01*
X58761225Y-20297439D01*
X58696192Y-20264231D01*
X58689084Y-20262492D01*
X58683441Y-20260393D01*
X58677678Y-20258476D01*
X58671050Y-20255378D01*
X58599583Y-20240513D01*
X58595299Y-20239543D01*
X58524390Y-20222192D01*
X58518788Y-20221844D01*
X58518785Y-20221844D01*
X58513236Y-20221500D01*
X58513238Y-20221464D01*
X58509245Y-20221225D01*
X58505053Y-20220851D01*
X58497885Y-20219360D01*
X58434120Y-20221085D01*
X58420479Y-20221454D01*
X58417072Y-20221500D01*
X43457070Y-20221500D01*
X43438120Y-20220067D01*
X43423885Y-20217901D01*
X43423881Y-20217901D01*
X43416651Y-20216801D01*
X43409359Y-20217394D01*
X43409356Y-20217394D01*
X43363982Y-20221085D01*
X43353767Y-20221500D01*
X43345707Y-20221500D01*
X43342073Y-20221924D01*
X43342067Y-20221924D01*
X43329042Y-20223443D01*
X43317480Y-20224791D01*
X43313132Y-20225221D01*
X43291059Y-20227016D01*
X43247662Y-20230546D01*
X43247659Y-20230547D01*
X43240364Y-20231140D01*
X43233400Y-20233396D01*
X43227461Y-20234583D01*
X43221590Y-20235970D01*
X43214319Y-20236818D01*
X43207443Y-20239314D01*
X43207434Y-20239316D01*
X43145702Y-20261725D01*
X43141598Y-20263135D01*
X43072101Y-20285648D01*
X43065846Y-20289444D01*
X43060387Y-20291943D01*
X43054939Y-20294671D01*
X43048063Y-20297167D01*
X42987010Y-20337195D01*
X42983327Y-20339519D01*
X42935771Y-20368377D01*
X42920893Y-20377405D01*
X42912517Y-20384802D01*
X42912493Y-20384775D01*
X42909499Y-20387430D01*
X42906268Y-20390132D01*
X42900148Y-20394144D01*
X42870951Y-20424965D01*
X42846872Y-20450383D01*
X42844494Y-20452825D01*
X38422724Y-24874595D01*
X38360412Y-24908621D01*
X38333629Y-24911500D01*
X33396371Y-24911500D01*
X33328250Y-24891498D01*
X33307276Y-24874595D01*
X32190815Y-23758134D01*
X33081500Y-23758134D01*
X33088255Y-23820316D01*
X33139385Y-23956705D01*
X33226739Y-24073261D01*
X33343295Y-24160615D01*
X33479684Y-24211745D01*
X33541866Y-24218500D01*
X35338134Y-24218500D01*
X35400316Y-24211745D01*
X35536705Y-24160615D01*
X35653261Y-24073261D01*
X35740615Y-23956705D01*
X35791745Y-23820316D01*
X35798500Y-23758134D01*
X35798500Y-22844500D01*
X35818502Y-22776379D01*
X35872158Y-22729886D01*
X35924500Y-22718500D01*
X36552930Y-22718500D01*
X36571880Y-22719933D01*
X36586115Y-22722099D01*
X36586119Y-22722099D01*
X36593349Y-22723199D01*
X36600641Y-22722606D01*
X36600644Y-22722606D01*
X36646018Y-22718915D01*
X36656233Y-22718500D01*
X36664293Y-22718500D01*
X36677583Y-22716951D01*
X36692507Y-22715211D01*
X36696882Y-22714778D01*
X36762339Y-22709454D01*
X36762342Y-22709453D01*
X36769637Y-22708860D01*
X36776601Y-22706604D01*
X36782560Y-22705413D01*
X36788415Y-22704029D01*
X36795681Y-22703182D01*
X36864327Y-22678265D01*
X36868455Y-22676848D01*
X36930936Y-22656607D01*
X36930938Y-22656606D01*
X36937899Y-22654351D01*
X36944154Y-22650555D01*
X36949628Y-22648049D01*
X36955058Y-22645330D01*
X36961937Y-22642833D01*
X36968058Y-22638820D01*
X37022976Y-22602814D01*
X37026680Y-22600477D01*
X37089107Y-22562595D01*
X37097484Y-22555197D01*
X37097508Y-22555224D01*
X37100500Y-22552571D01*
X37103733Y-22549868D01*
X37109852Y-22545856D01*
X37163128Y-22489617D01*
X37165506Y-22487175D01*
X40177276Y-19475405D01*
X40239588Y-19441379D01*
X40266371Y-19438500D01*
X59573629Y-19438500D01*
X59641750Y-19458502D01*
X59662724Y-19475405D01*
X61578481Y-21391162D01*
X61612507Y-21453474D01*
X61611905Y-21509669D01*
X61576391Y-21657597D01*
X61556526Y-21910000D01*
X61576391Y-22162403D01*
X61577545Y-22167210D01*
X61577546Y-22167216D01*
X61590830Y-22222546D01*
X61635495Y-22408591D01*
X61637388Y-22413162D01*
X61637389Y-22413164D01*
X61715945Y-22602814D01*
X61732384Y-22642502D01*
X61864672Y-22858376D01*
X62029102Y-23050898D01*
X62221624Y-23215328D01*
X62437498Y-23347616D01*
X62442068Y-23349509D01*
X62442072Y-23349511D01*
X62599383Y-23414671D01*
X62671409Y-23444505D01*
X62756032Y-23464821D01*
X62912784Y-23502454D01*
X62912790Y-23502455D01*
X62917597Y-23503609D01*
X63170000Y-23523474D01*
X63422403Y-23503609D01*
X63427210Y-23502455D01*
X63427216Y-23502454D01*
X63583968Y-23464821D01*
X63668591Y-23444505D01*
X63740617Y-23414671D01*
X63897928Y-23349511D01*
X63897932Y-23349509D01*
X63902502Y-23347616D01*
X64118376Y-23215328D01*
X64310898Y-23050898D01*
X64475328Y-22858376D01*
X64554815Y-22728665D01*
X64607463Y-22681034D01*
X64662248Y-22668500D01*
X65978629Y-22668500D01*
X66046750Y-22688502D01*
X66067724Y-22705405D01*
X66658481Y-23296162D01*
X66692507Y-23358474D01*
X66691905Y-23414671D01*
X66665784Y-23523474D01*
X66656391Y-23562597D01*
X66636526Y-23815000D01*
X66656391Y-24067403D01*
X66657545Y-24072210D01*
X66657546Y-24072216D01*
X66692655Y-24218454D01*
X66715495Y-24313591D01*
X66717388Y-24318162D01*
X66717389Y-24318164D01*
X66791355Y-24496733D01*
X66812384Y-24547502D01*
X66944672Y-24763376D01*
X67109102Y-24955898D01*
X67301624Y-25120328D01*
X67517498Y-25252616D01*
X67522068Y-25254509D01*
X67522072Y-25254511D01*
X67679383Y-25319671D01*
X67751409Y-25349505D01*
X67836032Y-25369821D01*
X67992784Y-25407454D01*
X67992790Y-25407455D01*
X67997597Y-25408609D01*
X68250000Y-25428474D01*
X68502403Y-25408609D01*
X68507210Y-25407455D01*
X68507216Y-25407454D01*
X68663968Y-25369821D01*
X68748591Y-25349505D01*
X68820617Y-25319671D01*
X68977928Y-25254511D01*
X68977932Y-25254509D01*
X68982502Y-25252616D01*
X69198376Y-25120328D01*
X69390898Y-24955898D01*
X69555328Y-24763376D01*
X69687616Y-24547502D01*
X69708646Y-24496733D01*
X69782611Y-24318164D01*
X69782612Y-24318162D01*
X69784505Y-24313591D01*
X69807345Y-24218454D01*
X69842454Y-24072216D01*
X69842455Y-24072210D01*
X69843609Y-24067403D01*
X69863474Y-23815000D01*
X69843609Y-23562597D01*
X69834217Y-23523474D01*
X69785660Y-23321221D01*
X69784505Y-23316409D01*
X69782611Y-23311836D01*
X69689511Y-23087072D01*
X69689509Y-23087068D01*
X69687616Y-23082498D01*
X69555328Y-22866624D01*
X69390898Y-22674102D01*
X69198376Y-22509672D01*
X68982502Y-22377384D01*
X68977932Y-22375491D01*
X68977928Y-22375489D01*
X68753164Y-22282389D01*
X68753162Y-22282388D01*
X68748591Y-22280495D01*
X68650331Y-22256905D01*
X68507216Y-22222546D01*
X68507210Y-22222545D01*
X68502403Y-22221391D01*
X68250000Y-22201526D01*
X67997597Y-22221391D01*
X67992790Y-22222545D01*
X67992784Y-22222546D01*
X67913340Y-22241619D01*
X67849670Y-22256905D01*
X67778763Y-22253358D01*
X67731162Y-22223481D01*
X66928770Y-21421089D01*
X66916384Y-21406677D01*
X66907851Y-21395082D01*
X66907846Y-21395077D01*
X66903508Y-21389182D01*
X66897930Y-21384443D01*
X66897927Y-21384440D01*
X66863232Y-21354965D01*
X66855716Y-21348035D01*
X66850021Y-21342340D01*
X66843880Y-21337482D01*
X66827749Y-21324719D01*
X66824345Y-21321928D01*
X66774297Y-21279409D01*
X66774295Y-21279408D01*
X66768715Y-21274667D01*
X66762199Y-21271339D01*
X66757150Y-21267972D01*
X66752021Y-21264805D01*
X66746284Y-21260266D01*
X66680125Y-21229345D01*
X66676225Y-21227439D01*
X66611192Y-21194231D01*
X66604084Y-21192492D01*
X66598441Y-21190393D01*
X66592678Y-21188476D01*
X66586050Y-21185378D01*
X66514583Y-21170513D01*
X66510299Y-21169543D01*
X66490078Y-21164595D01*
X66439390Y-21152192D01*
X66433788Y-21151844D01*
X66433785Y-21151844D01*
X66428236Y-21151500D01*
X66428238Y-21151464D01*
X66424245Y-21151225D01*
X66420053Y-21150851D01*
X66412885Y-21149360D01*
X66346675Y-21151151D01*
X66335479Y-21151454D01*
X66332072Y-21151500D01*
X64662248Y-21151500D01*
X64594127Y-21131498D01*
X64554815Y-21091335D01*
X64477910Y-20965838D01*
X64475328Y-20961624D01*
X64310898Y-20769102D01*
X64118376Y-20604672D01*
X63902502Y-20472384D01*
X63897932Y-20470491D01*
X63897928Y-20470489D01*
X63673164Y-20377389D01*
X63673162Y-20377388D01*
X63668591Y-20375495D01*
X63559934Y-20349409D01*
X63427216Y-20317546D01*
X63427210Y-20317545D01*
X63422403Y-20316391D01*
X63180980Y-20297390D01*
X63174930Y-20296914D01*
X63170000Y-20296526D01*
X63165070Y-20296914D01*
X63159020Y-20297390D01*
X62917597Y-20316391D01*
X62912790Y-20317545D01*
X62912784Y-20317546D01*
X62833340Y-20336619D01*
X62769670Y-20351905D01*
X62698763Y-20348358D01*
X62651162Y-20318481D01*
X60523770Y-18191089D01*
X60511384Y-18176677D01*
X60502851Y-18165082D01*
X60502846Y-18165077D01*
X60498508Y-18159182D01*
X60492930Y-18154443D01*
X60492927Y-18154440D01*
X60458232Y-18124965D01*
X60450716Y-18118035D01*
X60445021Y-18112340D01*
X60438880Y-18107482D01*
X60422749Y-18094719D01*
X60419345Y-18091928D01*
X60369297Y-18049409D01*
X60369295Y-18049408D01*
X60363715Y-18044667D01*
X60357199Y-18041339D01*
X60352150Y-18037972D01*
X60347021Y-18034805D01*
X60341284Y-18030266D01*
X60275125Y-17999345D01*
X60271225Y-17997439D01*
X60206192Y-17964231D01*
X60199084Y-17962492D01*
X60193441Y-17960393D01*
X60187678Y-17958476D01*
X60181050Y-17955378D01*
X60109583Y-17940513D01*
X60105299Y-17939543D01*
X60070958Y-17931140D01*
X60034390Y-17922192D01*
X60028788Y-17921844D01*
X60028785Y-17921844D01*
X60023236Y-17921500D01*
X60023238Y-17921464D01*
X60019245Y-17921225D01*
X60015053Y-17920851D01*
X60007885Y-17919360D01*
X59944120Y-17921085D01*
X59930479Y-17921454D01*
X59927072Y-17921500D01*
X39967063Y-17921500D01*
X39948114Y-17920067D01*
X39947907Y-17920036D01*
X39926651Y-17916802D01*
X39919359Y-17917395D01*
X39919356Y-17917395D01*
X39873991Y-17921085D01*
X39863777Y-17921500D01*
X39855707Y-17921500D01*
X39852087Y-17921922D01*
X39852069Y-17921923D01*
X39827461Y-17924792D01*
X39823100Y-17925224D01*
X39797981Y-17927267D01*
X39757661Y-17930546D01*
X39757658Y-17930547D01*
X39750363Y-17931140D01*
X39743399Y-17933396D01*
X39737440Y-17934587D01*
X39731585Y-17935971D01*
X39724319Y-17936818D01*
X39655673Y-17961735D01*
X39651545Y-17963152D01*
X39589064Y-17983393D01*
X39589062Y-17983394D01*
X39582101Y-17985649D01*
X39575846Y-17989445D01*
X39570372Y-17991951D01*
X39564942Y-17994670D01*
X39558063Y-17997167D01*
X39497016Y-18037191D01*
X39493327Y-18039518D01*
X39484843Y-18044667D01*
X39435693Y-18074491D01*
X39435688Y-18074495D01*
X39430892Y-18077405D01*
X39422516Y-18084803D01*
X39422493Y-18084777D01*
X39419503Y-18087426D01*
X39416264Y-18090134D01*
X39410148Y-18094144D01*
X39405121Y-18099451D01*
X39405117Y-18099454D01*
X39356872Y-18150383D01*
X39354494Y-18152825D01*
X36342724Y-21164595D01*
X36280412Y-21198621D01*
X36253629Y-21201500D01*
X35924500Y-21201500D01*
X35856379Y-21181498D01*
X35809886Y-21127842D01*
X35798500Y-21075500D01*
X35798500Y-20161866D01*
X35791745Y-20099684D01*
X35740615Y-19963295D01*
X35653261Y-19846739D01*
X35536705Y-19759385D01*
X35400316Y-19708255D01*
X35338134Y-19701500D01*
X33541866Y-19701500D01*
X33479684Y-19708255D01*
X33343295Y-19759385D01*
X33226739Y-19846739D01*
X33139385Y-19963295D01*
X33088255Y-20099684D01*
X33081500Y-20161866D01*
X33081500Y-23758134D01*
X32190815Y-23758134D01*
X30335405Y-21902724D01*
X30301379Y-21840412D01*
X30298500Y-21813629D01*
X30298500Y-20161866D01*
X30291745Y-20099684D01*
X30240615Y-19963295D01*
X30153261Y-19846739D01*
X30036705Y-19759385D01*
X29900316Y-19708255D01*
X29838134Y-19701500D01*
X28041866Y-19701500D01*
X27979684Y-19708255D01*
X27843295Y-19759385D01*
X27726739Y-19846739D01*
X27639385Y-19963295D01*
X27588255Y-20099684D01*
X27581500Y-20161866D01*
X27581500Y-21577150D01*
X27561498Y-21645271D01*
X27507842Y-21691764D01*
X27444917Y-21701926D01*
X27444883Y-21702553D01*
X27442002Y-21702397D01*
X27441897Y-21702414D01*
X27441480Y-21702369D01*
X27434672Y-21702000D01*
X26812115Y-21702000D01*
X26796876Y-21706475D01*
X26795671Y-21707865D01*
X26794000Y-21715548D01*
X26794000Y-26199884D01*
X26286000Y-26199884D01*
X26286000Y-21720116D01*
X26281525Y-21704877D01*
X26280135Y-21703672D01*
X26272452Y-21702001D01*
X25944500Y-21702001D01*
X25876379Y-21681999D01*
X25829886Y-21628343D01*
X25818500Y-21576001D01*
X25818500Y-16634500D01*
X25838502Y-16566379D01*
X25892158Y-16519886D01*
X25944500Y-16508500D01*
X71575500Y-16508500D01*
X71643621Y-16528502D01*
G37*
%TD.AperFunction*%
%TD*%
M02*
