%TF.GenerationSoftware,KiCad,Pcbnew,6.0.4+dfsg-1+b1*%
%TF.CreationDate,2022-07-06T22:38:45+03:00*%
%TF.ProjectId,dexx_video_adapter,64657878-5f76-4696-9465-6f5f61646170,rev?*%
%TF.SameCoordinates,Original*%
%TF.FileFunction,Legend,Bot*%
%TF.FilePolarity,Positive*%
%FSLAX46Y46*%
G04 Gerber Fmt 4.6, Leading zero omitted, Abs format (unit mm)*
G04 Created by KiCad (PCBNEW 6.0.4+dfsg-1+b1) date 2022-07-06 22:38:45*
%MOMM*%
%LPD*%
G01*
G04 APERTURE LIST*
%ADD10C,0.150000*%
G04 APERTURE END LIST*
D10*
X55222023Y-59756666D02*
X54745833Y-59756666D01*
X55317261Y-60042380D02*
X54983928Y-59042380D01*
X54650595Y-60042380D01*
X54460119Y-59042380D02*
X54126785Y-60042380D01*
X53793452Y-59042380D01*
X52269642Y-60042380D02*
X52269642Y-59518571D01*
X52317261Y-59423333D01*
X52412500Y-59375714D01*
X52602976Y-59375714D01*
X52698214Y-59423333D01*
X52269642Y-59994761D02*
X52364880Y-60042380D01*
X52602976Y-60042380D01*
X52698214Y-59994761D01*
X52745833Y-59899523D01*
X52745833Y-59804285D01*
X52698214Y-59709047D01*
X52602976Y-59661428D01*
X52364880Y-59661428D01*
X52269642Y-59613809D01*
X51364880Y-60042380D02*
X51364880Y-59042380D01*
X51364880Y-59994761D02*
X51460119Y-60042380D01*
X51650595Y-60042380D01*
X51745833Y-59994761D01*
X51793452Y-59947142D01*
X51841071Y-59851904D01*
X51841071Y-59566190D01*
X51793452Y-59470952D01*
X51745833Y-59423333D01*
X51650595Y-59375714D01*
X51460119Y-59375714D01*
X51364880Y-59423333D01*
X50460119Y-60042380D02*
X50460119Y-59518571D01*
X50507738Y-59423333D01*
X50602976Y-59375714D01*
X50793452Y-59375714D01*
X50888690Y-59423333D01*
X50460119Y-59994761D02*
X50555357Y-60042380D01*
X50793452Y-60042380D01*
X50888690Y-59994761D01*
X50936309Y-59899523D01*
X50936309Y-59804285D01*
X50888690Y-59709047D01*
X50793452Y-59661428D01*
X50555357Y-59661428D01*
X50460119Y-59613809D01*
X49983928Y-59375714D02*
X49983928Y-60375714D01*
X49983928Y-59423333D02*
X49888690Y-59375714D01*
X49698214Y-59375714D01*
X49602976Y-59423333D01*
X49555357Y-59470952D01*
X49507738Y-59566190D01*
X49507738Y-59851904D01*
X49555357Y-59947142D01*
X49602976Y-59994761D01*
X49698214Y-60042380D01*
X49888690Y-60042380D01*
X49983928Y-59994761D01*
X49222023Y-59375714D02*
X48841071Y-59375714D01*
X49079166Y-59042380D02*
X49079166Y-59899523D01*
X49031547Y-59994761D01*
X48936309Y-60042380D01*
X48841071Y-60042380D01*
X48126785Y-59994761D02*
X48222023Y-60042380D01*
X48412500Y-60042380D01*
X48507738Y-59994761D01*
X48555357Y-59899523D01*
X48555357Y-59518571D01*
X48507738Y-59423333D01*
X48412500Y-59375714D01*
X48222023Y-59375714D01*
X48126785Y-59423333D01*
X48079166Y-59518571D01*
X48079166Y-59613809D01*
X48555357Y-59709047D01*
X47650595Y-60042380D02*
X47650595Y-59375714D01*
X47650595Y-59566190D02*
X47602976Y-59470952D01*
X47555357Y-59423333D01*
X47460119Y-59375714D01*
X47364880Y-59375714D01*
X46412500Y-59375714D02*
X46031547Y-59375714D01*
X46269642Y-60042380D02*
X46269642Y-59185238D01*
X46222023Y-59090000D01*
X46126785Y-59042380D01*
X46031547Y-59042380D01*
X45555357Y-60042380D02*
X45650595Y-59994761D01*
X45698214Y-59947142D01*
X45745833Y-59851904D01*
X45745833Y-59566190D01*
X45698214Y-59470952D01*
X45650595Y-59423333D01*
X45555357Y-59375714D01*
X45412500Y-59375714D01*
X45317261Y-59423333D01*
X45269642Y-59470952D01*
X45222023Y-59566190D01*
X45222023Y-59851904D01*
X45269642Y-59947142D01*
X45317261Y-59994761D01*
X45412500Y-60042380D01*
X45555357Y-60042380D01*
X44793452Y-60042380D02*
X44793452Y-59375714D01*
X44793452Y-59566190D02*
X44745833Y-59470952D01*
X44698214Y-59423333D01*
X44602976Y-59375714D01*
X44507738Y-59375714D01*
X55031547Y-60652380D02*
X55031547Y-60890476D01*
X55269642Y-60795238D02*
X55031547Y-60890476D01*
X54793452Y-60795238D01*
X55174404Y-61080952D02*
X55031547Y-60890476D01*
X54888690Y-61080952D01*
X53650595Y-61652380D02*
X53650595Y-60652380D01*
X53412500Y-60652380D01*
X53269642Y-60700000D01*
X53174404Y-60795238D01*
X53126785Y-60890476D01*
X53079166Y-61080952D01*
X53079166Y-61223809D01*
X53126785Y-61414285D01*
X53174404Y-61509523D01*
X53269642Y-61604761D01*
X53412500Y-61652380D01*
X53650595Y-61652380D01*
X52650595Y-61128571D02*
X52317261Y-61128571D01*
X52174404Y-61652380D02*
X52650595Y-61652380D01*
X52650595Y-60652380D01*
X52174404Y-60652380D01*
X51841071Y-61652380D02*
X51317261Y-60985714D01*
X51841071Y-60985714D02*
X51317261Y-61652380D01*
X51031547Y-61652380D02*
X50507738Y-60985714D01*
X51031547Y-60985714D02*
X50507738Y-61652380D01*
X50126785Y-61271428D02*
X49364880Y-61271428D01*
X48983928Y-60985714D02*
X48745833Y-61652380D01*
X48507738Y-60985714D01*
X47698214Y-61652380D02*
X47698214Y-60652380D01*
X47698214Y-61604761D02*
X47793452Y-61652380D01*
X47983928Y-61652380D01*
X48079166Y-61604761D01*
X48126785Y-61557142D01*
X48174404Y-61461904D01*
X48174404Y-61176190D01*
X48126785Y-61080952D01*
X48079166Y-61033333D01*
X47983928Y-60985714D01*
X47793452Y-60985714D01*
X47698214Y-61033333D01*
X47460119Y-61747619D02*
X46698214Y-61747619D01*
X46460119Y-61652380D02*
X46460119Y-60985714D01*
X46460119Y-60652380D02*
X46507738Y-60700000D01*
X46460119Y-60747619D01*
X46412500Y-60700000D01*
X46460119Y-60652380D01*
X46460119Y-60747619D01*
X46031547Y-61604761D02*
X45936309Y-61652380D01*
X45745833Y-61652380D01*
X45650595Y-61604761D01*
X45602976Y-61509523D01*
X45602976Y-61461904D01*
X45650595Y-61366666D01*
X45745833Y-61319047D01*
X45888690Y-61319047D01*
X45983928Y-61271428D01*
X46031547Y-61176190D01*
X46031547Y-61128571D01*
X45983928Y-61033333D01*
X45888690Y-60985714D01*
X45745833Y-60985714D01*
X45650595Y-61033333D01*
X45031547Y-61652380D02*
X45126785Y-61604761D01*
X45174404Y-61509523D01*
X45174404Y-60652380D01*
X55031547Y-62262380D02*
X55031547Y-62500476D01*
X55269642Y-62405238D02*
X55031547Y-62500476D01*
X54793452Y-62405238D01*
X55174404Y-62690952D02*
X55031547Y-62500476D01*
X54888690Y-62690952D01*
X53460119Y-62262380D02*
X53269642Y-62262380D01*
X53174404Y-62310000D01*
X53079166Y-62405238D01*
X53031547Y-62595714D01*
X53031547Y-62929047D01*
X53079166Y-63119523D01*
X53174404Y-63214761D01*
X53269642Y-63262380D01*
X53460119Y-63262380D01*
X53555357Y-63214761D01*
X53650595Y-63119523D01*
X53698214Y-62929047D01*
X53698214Y-62595714D01*
X53650595Y-62405238D01*
X53555357Y-62310000D01*
X53460119Y-62262380D01*
X52650595Y-63214761D02*
X52507738Y-63262380D01*
X52269642Y-63262380D01*
X52174404Y-63214761D01*
X52126785Y-63167142D01*
X52079166Y-63071904D01*
X52079166Y-62976666D01*
X52126785Y-62881428D01*
X52174404Y-62833809D01*
X52269642Y-62786190D01*
X52460119Y-62738571D01*
X52555357Y-62690952D01*
X52602976Y-62643333D01*
X52650595Y-62548095D01*
X52650595Y-62452857D01*
X52602976Y-62357619D01*
X52555357Y-62310000D01*
X52460119Y-62262380D01*
X52222023Y-62262380D01*
X52079166Y-62310000D01*
X51698214Y-63214761D02*
X51555357Y-63262380D01*
X51317261Y-63262380D01*
X51222023Y-63214761D01*
X51174404Y-63167142D01*
X51126785Y-63071904D01*
X51126785Y-62976666D01*
X51174404Y-62881428D01*
X51222023Y-62833809D01*
X51317261Y-62786190D01*
X51507738Y-62738571D01*
X51602976Y-62690952D01*
X51650595Y-62643333D01*
X51698214Y-62548095D01*
X51698214Y-62452857D01*
X51650595Y-62357619D01*
X51602976Y-62310000D01*
X51507738Y-62262380D01*
X51269642Y-62262380D01*
X51126785Y-62310000D01*
X50126785Y-63167142D02*
X50174404Y-63214761D01*
X50317261Y-63262380D01*
X50412500Y-63262380D01*
X50555357Y-63214761D01*
X50650595Y-63119523D01*
X50698214Y-63024285D01*
X50745833Y-62833809D01*
X50745833Y-62690952D01*
X50698214Y-62500476D01*
X50650595Y-62405238D01*
X50555357Y-62310000D01*
X50412500Y-62262380D01*
X50317261Y-62262380D01*
X50174404Y-62310000D01*
X50126785Y-62357619D01*
X48936309Y-63262380D02*
X48936309Y-62262380D01*
X48555357Y-62262380D01*
X48460119Y-62310000D01*
X48412500Y-62357619D01*
X48364880Y-62452857D01*
X48364880Y-62595714D01*
X48412500Y-62690952D01*
X48460119Y-62738571D01*
X48555357Y-62786190D01*
X48936309Y-62786190D01*
X47936309Y-63262380D02*
X47936309Y-62595714D01*
X47936309Y-62786190D02*
X47888690Y-62690952D01*
X47841071Y-62643333D01*
X47745833Y-62595714D01*
X47650595Y-62595714D01*
X47174404Y-63262380D02*
X47269642Y-63214761D01*
X47317261Y-63167142D01*
X47364880Y-63071904D01*
X47364880Y-62786190D01*
X47317261Y-62690952D01*
X47269642Y-62643333D01*
X47174404Y-62595714D01*
X47031547Y-62595714D01*
X46936309Y-62643333D01*
X46888690Y-62690952D01*
X46841071Y-62786190D01*
X46841071Y-63071904D01*
X46888690Y-63167142D01*
X46936309Y-63214761D01*
X47031547Y-63262380D01*
X47174404Y-63262380D01*
M02*
