M48
; DRILL file {KiCad 6.0.4+dfsg-1+b1} date 2022-07-06T22:39:16 EEST
; FORMAT={-:-/ absolute / inch / decimal}
; #@! TF.CreationDate,2022-07-06T22:39:16+03:00
; #@! TF.GenerationSoftware,Kicad,Pcbnew,6.0.4+dfsg-1+b1
; #@! TF.FileFunction,MixedPlating,1,2
FMAT,2
INCH
; #@! TA.AperFunction,Plated,PTH,ViaDrill
T1C0.0157
; #@! TA.AperFunction,Plated,PTH,ComponentDrill
T2C0.0394
; #@! TA.AperFunction,Plated,PTH,ComponentDrill
T3C0.0512
; #@! TA.AperFunction,Plated,PTH,ComponentDrill
T4C0.0669
; #@! TA.AperFunction,Plated,PTH,ComponentDrill
T5C0.0787
; #@! TA.AperFunction,Plated,PTH,ComponentDrill
T6C0.1260
%
G90
G05
T1
X1.0919Y-0.711
X1.0919Y-1.111
X1.0919Y-1.211
X1.0919Y-1.311
X1.0919Y-1.411
X1.0919Y-1.511
X1.0919Y-1.611
X1.0919Y-1.711
X1.0919Y-1.811
X1.0919Y-1.911
X1.0919Y-2.011
X1.0919Y-2.111
X1.0919Y-2.211
X1.0919Y-2.311
X1.0919Y-2.411
X1.0919Y-2.511
X1.1919Y-0.711
X1.1919Y-1.011
X1.1919Y-1.111
X1.1919Y-1.211
X1.1919Y-1.311
X1.1919Y-1.411
X1.1919Y-1.511
X1.1919Y-1.611
X1.1919Y-1.711
X1.1919Y-1.811
X1.1919Y-1.911
X1.1919Y-2.011
X1.1919Y-2.111
X1.1919Y-2.211
X1.1919Y-2.311
X1.1919Y-2.411
X1.1919Y-2.511
X1.2919Y-0.711
X1.2919Y-1.111
X1.2919Y-1.211
X1.2919Y-1.311
X1.2919Y-1.411
X1.2919Y-1.511
X1.2919Y-2.111
X1.2919Y-2.211
X1.2919Y-2.311
X1.2919Y-2.411
X1.2919Y-2.511
X1.3919Y-0.711
X1.3919Y-1.111
X1.3919Y-1.211
X1.3919Y-2.211
X1.3919Y-2.511
X1.4919Y-0.711
X1.4919Y-0.911
X1.4919Y-1.111
X1.4919Y-1.211
X1.4919Y-2.511
X1.5919Y-0.811
X1.5919Y-1.111
X1.5919Y-1.211
X1.5919Y-1.311
X1.5919Y-2.111
X1.5919Y-2.411
X1.5919Y-2.511
X1.6919Y-1.011
X1.6919Y-1.111
X1.6919Y-1.211
X1.6919Y-1.411
X1.6919Y-1.811
X1.6919Y-2.111
X1.6919Y-2.211
X1.6919Y-2.511
X1.7919Y-0.911
X1.7919Y-1.311
X1.7919Y-2.311
X1.7919Y-2.511
X1.8919Y-0.911
X1.8919Y-1.211
X1.8919Y-1.311
X1.8919Y-1.511
X1.8919Y-1.911
X1.8919Y-2.111
X1.8919Y-2.311
X1.8919Y-2.511
X1.9919Y-1.111
X1.9919Y-1.211
X1.9919Y-1.311
X1.9919Y-1.911
X1.9919Y-2.011
X1.9919Y-2.311
X1.9919Y-2.511
X2.0919Y-1.211
X2.0919Y-1.311
X2.0919Y-1.711
X2.0919Y-1.911
X2.0919Y-2.211
X2.0919Y-2.311
X2.0919Y-2.511
X2.1919Y-0.911
X2.1919Y-1.311
X2.1919Y-1.711
X2.1919Y-2.311
X2.1919Y-2.511
X2.2919Y-0.911
X2.2919Y-1.111
X2.2919Y-1.711
X2.2919Y-2.011
X2.2919Y-2.111
X2.2919Y-2.311
X2.2919Y-2.511
X2.3919Y-1.011
X2.3919Y-1.111
X2.3919Y-1.211
X2.3919Y-1.611
X2.3919Y-2.011
X2.3919Y-2.111
X2.3919Y-2.211
X2.3919Y-2.311
X2.3919Y-2.511
X2.4919Y-0.711
X2.4919Y-2.511
X2.5919Y-0.711
X2.5919Y-0.811
X2.5919Y-1.011
X2.5919Y-1.311
X2.5919Y-1.411
X2.5919Y-1.611
X2.5919Y-1.811
X2.5919Y-1.911
X2.5919Y-2.011
X2.5919Y-2.111
X2.5919Y-2.211
X2.5919Y-2.511
X2.6919Y-0.711
X2.6919Y-0.811
X2.6919Y-2.411
X2.6919Y-2.511
X2.7919Y-0.711
X2.7919Y-0.811
X2.7919Y-0.911
X2.7919Y-1.011
X2.7919Y-1.111
X2.7919Y-1.211
X2.7919Y-1.311
X2.7919Y-1.411
X2.7919Y-1.511
X2.7919Y-1.611
X2.7919Y-1.711
X2.7919Y-1.811
X2.7919Y-1.911
X2.7919Y-2.011
X2.7919Y-2.111
X2.7919Y-2.211
X2.7919Y-2.311
X2.7919Y-2.411
X2.7919Y-2.511
T2
X1.3449Y-1.6744
X1.3449Y-1.7646
X1.3449Y-1.8547
X1.3449Y-1.9449
X1.3449Y-2.035
X1.4449Y-1.7193
X1.4449Y-1.8094
X1.4449Y-1.8996
X1.4449Y-1.9898
X1.4449Y-2.0799
X1.5449Y-1.6744
X1.5449Y-1.7646
X1.5449Y-1.8547
X1.5449Y-1.9449
X1.5449Y-2.035
T3
X2.487Y-0.8626
X2.487Y-1.0126
X2.487Y-1.1626
X2.487Y-1.3126
X2.487Y-1.4626
X2.487Y-1.6126
X2.487Y-1.7626
X2.487Y-1.9126
X2.487Y-2.0626
X2.487Y-2.2126
X2.487Y-2.3626
X2.687Y-0.9376
X2.687Y-1.0876
X2.687Y-1.2376
X2.687Y-1.3876
X2.687Y-1.5376
X2.687Y-1.6876
X2.687Y-1.8376
X2.687Y-1.9876
X2.687Y-2.1376
X2.687Y-2.2876
T4
X2.015Y-0.9606
X2.015Y-1.5512
X2.015Y-2.1417
T5
X1.8122Y-1.0236
X1.8122Y-1.6142
X1.8122Y-2.2047
X2.2177Y-1.0236
X2.2177Y-1.6142
X2.2177Y-2.2047
T6
X1.4449Y-1.3728
X1.4449Y-2.3571
T2
G00X1.0449Y-0.9138
M15
G01X1.0449Y-0.9728
M16
G05
G00X1.1394Y-0.835
M15
G01X1.1394Y-0.8941
M16
G05
G00X1.3559Y-0.835
M15
G01X1.3559Y-0.8941
M16
G05
T0
M30
