%TF.GenerationSoftware,KiCad,Pcbnew,6.0.4+dfsg-1+b1*%
%TF.CreationDate,2022-07-06T22:38:45+03:00*%
%TF.ProjectId,dexx_video_adapter,64657878-5f76-4696-9465-6f5f61646170,rev?*%
%TF.SameCoordinates,Original*%
%TF.FileFunction,Legend,Top*%
%TF.FilePolarity,Positive*%
%FSLAX46Y46*%
G04 Gerber Fmt 4.6, Leading zero omitted, Abs format (unit mm)*
G04 Created by KiCad (PCBNEW 6.0.4+dfsg-1+b1) date 2022-07-06 22:38:45*
%MOMM*%
%LPD*%
G01*
G04 APERTURE LIST*
%ADD10C,0.150000*%
%ADD11C,0.127000*%
%ADD12C,0.400000*%
%ADD13C,1.600000*%
%ADD14C,4.500000*%
%ADD15C,2.200000*%
%ADD16R,1.700000X3.500000*%
G04 APERTURE END LIST*
D10*
%TO.C,J3*%
X48640683Y-34214754D02*
X48640683Y-34929316D01*
X48593045Y-35072228D01*
X48497770Y-35167503D01*
X48354858Y-35215140D01*
X48259583Y-35215140D01*
X49021782Y-34214754D02*
X49641069Y-34214754D01*
X49307607Y-34595854D01*
X49450519Y-34595854D01*
X49545794Y-34643491D01*
X49593431Y-34691128D01*
X49641069Y-34786403D01*
X49641069Y-35024590D01*
X49593431Y-35119865D01*
X49545794Y-35167503D01*
X49450519Y-35215140D01*
X49164694Y-35215140D01*
X49069419Y-35167503D01*
X49021782Y-35119865D01*
%TO.C,J4*%
X48640683Y-19214754D02*
X48640683Y-19929316D01*
X48593045Y-20072228D01*
X48497770Y-20167503D01*
X48354858Y-20215140D01*
X48259583Y-20215140D01*
X49545794Y-19548216D02*
X49545794Y-20215140D01*
X49307607Y-19167117D02*
X49069419Y-19881678D01*
X49688706Y-19881678D01*
%TO.C,J6*%
X36271666Y-30232380D02*
X36271666Y-30946666D01*
X36224047Y-31089523D01*
X36128809Y-31184761D01*
X35985952Y-31232380D01*
X35890714Y-31232380D01*
X37176428Y-30232380D02*
X36985952Y-30232380D01*
X36890714Y-30280000D01*
X36843095Y-30327619D01*
X36747857Y-30470476D01*
X36700238Y-30660952D01*
X36700238Y-31041904D01*
X36747857Y-31137142D01*
X36795476Y-31184761D01*
X36890714Y-31232380D01*
X37081190Y-31232380D01*
X37176428Y-31184761D01*
X37224047Y-31137142D01*
X37271666Y-31041904D01*
X37271666Y-30803809D01*
X37224047Y-30708571D01*
X37176428Y-30660952D01*
X37081190Y-30613333D01*
X36890714Y-30613333D01*
X36795476Y-30660952D01*
X36747857Y-30708571D01*
X36700238Y-30803809D01*
%TO.C,J2*%
X48640683Y-49214754D02*
X48640683Y-49929316D01*
X48593045Y-50072228D01*
X48497770Y-50167503D01*
X48354858Y-50215140D01*
X48259583Y-50215140D01*
X49069419Y-49310029D02*
X49117057Y-49262392D01*
X49212332Y-49214754D01*
X49450519Y-49214754D01*
X49545794Y-49262392D01*
X49593431Y-49310029D01*
X49641069Y-49405304D01*
X49641069Y-49500579D01*
X49593431Y-49643491D01*
X49021782Y-50215140D01*
X49641069Y-50215140D01*
%TO.C,J1*%
X63679946Y-63145380D02*
X63679946Y-63859666D01*
X63632327Y-64002523D01*
X63537089Y-64097761D01*
X63394232Y-64145380D01*
X63298994Y-64145380D01*
X64679946Y-64145380D02*
X64108518Y-64145380D01*
X64394232Y-64145380D02*
X64394232Y-63145380D01*
X64298994Y-63288238D01*
X64203756Y-63383476D01*
X64108518Y-63431095D01*
%TO.C,J5*%
X27809406Y-28598220D02*
X27809406Y-29312506D01*
X27761787Y-29455363D01*
X27666549Y-29550601D01*
X27523692Y-29598220D01*
X27428454Y-29598220D01*
X28761787Y-28598220D02*
X28285597Y-28598220D01*
X28237978Y-29074411D01*
X28285597Y-29026792D01*
X28380835Y-28979173D01*
X28618930Y-28979173D01*
X28714168Y-29026792D01*
X28761787Y-29074411D01*
X28809406Y-29169649D01*
X28809406Y-29407744D01*
X28761787Y-29502982D01*
X28714168Y-29550601D01*
X28618930Y-29598220D01*
X28380835Y-29598220D01*
X28285597Y-29550601D01*
X28237978Y-29502982D01*
D11*
%TO.C,J3*%
X47296000Y-44135000D02*
X45830000Y-44135000D01*
X56530000Y-44135000D02*
X55064000Y-44135000D01*
X56530000Y-42765000D02*
X56530000Y-44135000D01*
X47296000Y-37865000D02*
X45830000Y-37865000D01*
X45830000Y-37865000D02*
X45830000Y-39235000D01*
X56530000Y-37865000D02*
X55064000Y-37865000D01*
X45830000Y-42765000D02*
X45830000Y-44135000D01*
X56530000Y-37865000D02*
X56530000Y-39235000D01*
X47296000Y-44135000D02*
G75*
G03*
X55064000Y-44135000I3884000J3148851D01*
G01*
X55064000Y-37865000D02*
G75*
G03*
X47296000Y-37865000I-3884000J-3148851D01*
G01*
D12*
X43980000Y-41000000D02*
G75*
G03*
X43980000Y-41000000I-200000J0D01*
G01*
D11*
%TO.C,J4*%
X56530000Y-22865000D02*
X56530000Y-24235000D01*
X45830000Y-27765000D02*
X45830000Y-29135000D01*
X56530000Y-29135000D02*
X55064000Y-29135000D01*
X56530000Y-22865000D02*
X55064000Y-22865000D01*
X56530000Y-27765000D02*
X56530000Y-29135000D01*
X47296000Y-22865000D02*
X45830000Y-22865000D01*
X45830000Y-22865000D02*
X45830000Y-24235000D01*
X47296000Y-29135000D02*
X45830000Y-29135000D01*
X55064000Y-22865000D02*
G75*
G03*
X47296000Y-22865000I-3884000J-3148851D01*
G01*
X47296000Y-29135000D02*
G75*
G03*
X55064000Y-29135000I3884000J3148851D01*
G01*
D12*
X43980000Y-26000000D02*
G75*
G03*
X43980000Y-26000000I-200000J0D01*
G01*
D10*
%TO.C,J6*%
X40800000Y-62650000D02*
X25270000Y-62650000D01*
X40800000Y-62650000D02*
X40800000Y-31850000D01*
X25270000Y-31850000D02*
X40800000Y-31850000D01*
X29320000Y-62650000D02*
X29320000Y-31850000D01*
X25270000Y-62650000D02*
X25270000Y-31850000D01*
D11*
%TO.C,J2*%
X47296000Y-59135000D02*
X45830000Y-59135000D01*
X56530000Y-52865000D02*
X55064000Y-52865000D01*
X47296000Y-52865000D02*
X45830000Y-52865000D01*
X56530000Y-52865000D02*
X56530000Y-54235000D01*
X45830000Y-52865000D02*
X45830000Y-54235000D01*
X56530000Y-57765000D02*
X56530000Y-59135000D01*
X45830000Y-57765000D02*
X45830000Y-59135000D01*
X56530000Y-59135000D02*
X55064000Y-59135000D01*
X55064000Y-52865000D02*
G75*
G03*
X47296000Y-52865000I-3884000J-3148851D01*
G01*
X47296000Y-59135000D02*
G75*
G03*
X55064000Y-59135000I3884000J3148851D01*
G01*
D12*
X43980000Y-56000000D02*
G75*
G03*
X43980000Y-56000000I-200000J0D01*
G01*
D10*
%TO.C,J1*%
X72192080Y-68306660D02*
X68724980Y-65339940D01*
X61250000Y-19210000D02*
X68700000Y-19210000D01*
X78950000Y-17515000D02*
X72200000Y-17515000D01*
X68700000Y-13055000D02*
X72200000Y-13055000D01*
X78950000Y-17515000D02*
X78950000Y-64415000D01*
X61250000Y-62710000D02*
X61250000Y-19210000D01*
X72207320Y-16047680D02*
X68704660Y-13058100D01*
X72200000Y-68325000D02*
X68700000Y-68325000D01*
X68709740Y-68314280D02*
X72189540Y-65342480D01*
X68700000Y-16055000D02*
X72200000Y-16055000D01*
X68700000Y-62710000D02*
X68700000Y-68325000D01*
X72200000Y-65325000D02*
X68700000Y-65325000D01*
X68700000Y-19210000D02*
X68700000Y-13055000D01*
X68700000Y-62710000D02*
X61250000Y-62710000D01*
X72200000Y-13055000D02*
X72200000Y-68325000D01*
X78950000Y-64415000D02*
X72200000Y-64415000D01*
X68702120Y-16055300D02*
X72194620Y-13068260D01*
%TO.C,J5*%
X27695700Y-26082600D02*
X27698240Y-20616520D01*
X25340000Y-27960000D02*
X39340000Y-27960000D01*
X25371600Y-26082600D02*
X27695700Y-26082600D01*
X25340000Y-19760000D02*
X25340000Y-27960000D01*
X39340000Y-19760000D02*
X25340000Y-19760000D01*
X27698240Y-20616520D02*
X25343660Y-20616520D01*
X39340000Y-27960000D02*
X39340000Y-19760000D01*
%TD*%
D13*
%TO.C,J6*%
X39240000Y-51690000D03*
X39240000Y-49400000D03*
X39240000Y-47110000D03*
X39240000Y-44820000D03*
X39240000Y-42530000D03*
X36700000Y-52830000D03*
X36700000Y-50540000D03*
X36700000Y-48250000D03*
X36700000Y-45960000D03*
D14*
X36700000Y-34870000D03*
D13*
X36700000Y-43670000D03*
D14*
X36700000Y-59870000D03*
D13*
X34160000Y-51690000D03*
X34160000Y-49400000D03*
X34160000Y-47110000D03*
X34160000Y-44820000D03*
X34160000Y-42530000D03*
%TD*%
D15*
%TO.C,J1*%
X63170000Y-21910000D03*
X68250000Y-23815000D03*
X63170000Y-25720000D03*
X68250000Y-27625000D03*
X63170000Y-29530000D03*
X68250000Y-31435000D03*
X63170000Y-33340000D03*
X68250000Y-35245000D03*
X63170000Y-37150000D03*
X68250000Y-39055000D03*
X63170000Y-40960000D03*
X68250000Y-42865000D03*
X63170000Y-44770000D03*
X68250000Y-46675000D03*
X63170000Y-48580000D03*
X68250000Y-50485000D03*
X63170000Y-52390000D03*
X68250000Y-54295000D03*
X63170000Y-56200000D03*
X68250000Y-58105000D03*
X63170000Y-60010000D03*
%TD*%
D16*
%TO.C,J5*%
X34440000Y-21960000D03*
X26540000Y-23960000D03*
X28940000Y-21960000D03*
%TD*%
M02*
