G04 #@! TF.GenerationSoftware,KiCad,Pcbnew,5.1.5+dfsg1-2*
G04 #@! TF.CreationDate,2020-02-07T00:59:59+02:00*
G04 #@! TF.ProjectId,isl_board,69736c5f-626f-4617-9264-2e6b69636164,rev?*
G04 #@! TF.SameCoordinates,Original*
G04 #@! TF.FileFunction,Soldermask,Top*
G04 #@! TF.FilePolarity,Negative*
%FSLAX46Y46*%
G04 Gerber Fmt 4.6, Leading zero omitted, Abs format (unit mm)*
G04 Created by KiCad (PCBNEW 5.1.5+dfsg1-2) date 2020-02-07 00:59:59*
%MOMM*%
%LPD*%
G04 APERTURE LIST*
%ADD10R,0.736600X1.244600*%
%ADD11R,1.244600X0.736600*%
%ADD12R,1.801600X1.801600*%
%ADD13O,1.801600X1.801600*%
%ADD14C,1.501600*%
%ADD15C,0.100000*%
%ADD16C,2.301600*%
%ADD17R,1.498600X0.990600*%
%ADD18R,0.990600X1.498600*%
%ADD19C,1.625600*%
%ADD20R,0.457200X1.778000*%
%ADD21C,2.351600*%
%ADD22R,1.101600X0.401600*%
%ADD23R,0.401600X1.101600*%
%ADD24R,2.601600X2.601600*%
%ADD25R,2.501600X1.301600*%
%ADD26R,2.501600X3.401600*%
%ADD27R,1.661600X0.751600*%
%ADD28C,1.001600*%
%ADD29R,0.401600X1.701600*%
%ADD30R,1.701600X0.401600*%
%ADD31R,8.101600X8.101600*%
%ADD32C,1.101600*%
G04 APERTURE END LIST*
D10*
X25718000Y-42120000D03*
X27242000Y-42120000D03*
D11*
X25150000Y-40522000D03*
X25150000Y-38998000D03*
D12*
X79930000Y-77020000D03*
D13*
X79930000Y-74480000D03*
X82470000Y-77020000D03*
X82470000Y-74480000D03*
X85010000Y-77020000D03*
X85010000Y-74480000D03*
X87550000Y-77020000D03*
X87550000Y-74480000D03*
D14*
X38900000Y-28230000D03*
X33820000Y-28230000D03*
D15*
G36*
X31789714Y-27480487D02*
G01*
X31815661Y-27484336D01*
X31841104Y-27490709D01*
X31865801Y-27499546D01*
X31889513Y-27510761D01*
X31912011Y-27524245D01*
X31933079Y-27539871D01*
X31952514Y-27557486D01*
X31970129Y-27576921D01*
X31985755Y-27597989D01*
X31999239Y-27620487D01*
X32010454Y-27644199D01*
X32019291Y-27668896D01*
X32025664Y-27694339D01*
X32029513Y-27720286D01*
X32030800Y-27746484D01*
X32030800Y-28713516D01*
X32029513Y-28739714D01*
X32025664Y-28765661D01*
X32019291Y-28791104D01*
X32010454Y-28815801D01*
X31999239Y-28839513D01*
X31985755Y-28862011D01*
X31970129Y-28883079D01*
X31952514Y-28902514D01*
X31933079Y-28920129D01*
X31912011Y-28935755D01*
X31889513Y-28949239D01*
X31865801Y-28960454D01*
X31841104Y-28969291D01*
X31815661Y-28975664D01*
X31789714Y-28979513D01*
X31763516Y-28980800D01*
X30796484Y-28980800D01*
X30770286Y-28979513D01*
X30744339Y-28975664D01*
X30718896Y-28969291D01*
X30694199Y-28960454D01*
X30670487Y-28949239D01*
X30647989Y-28935755D01*
X30626921Y-28920129D01*
X30607486Y-28902514D01*
X30589871Y-28883079D01*
X30574245Y-28862011D01*
X30560761Y-28839513D01*
X30549546Y-28815801D01*
X30540709Y-28791104D01*
X30534336Y-28765661D01*
X30530487Y-28739714D01*
X30529200Y-28713516D01*
X30529200Y-27746484D01*
X30530487Y-27720286D01*
X30534336Y-27694339D01*
X30540709Y-27668896D01*
X30549546Y-27644199D01*
X30560761Y-27620487D01*
X30574245Y-27597989D01*
X30589871Y-27576921D01*
X30607486Y-27557486D01*
X30626921Y-27539871D01*
X30647989Y-27524245D01*
X30670487Y-27510761D01*
X30694199Y-27499546D01*
X30718896Y-27490709D01*
X30744339Y-27484336D01*
X30770286Y-27480487D01*
X30796484Y-27479200D01*
X31763516Y-27479200D01*
X31789714Y-27480487D01*
G37*
D11*
X44410000Y-89618000D03*
X44410000Y-91142000D03*
X49470000Y-89628000D03*
X49470000Y-91152000D03*
D13*
X39300000Y-93680000D03*
X41840000Y-93680000D03*
X44380000Y-93680000D03*
X46920000Y-93680000D03*
X49460000Y-93680000D03*
X52000000Y-93680000D03*
X54540000Y-93680000D03*
X57080000Y-93680000D03*
X59620000Y-93680000D03*
X62160000Y-93680000D03*
X64700000Y-93680000D03*
X67240000Y-93680000D03*
X69780000Y-93680000D03*
X72320000Y-93680000D03*
X74860000Y-93680000D03*
X77400000Y-93680000D03*
X79940000Y-93680000D03*
X82480000Y-93680000D03*
X85020000Y-93680000D03*
D12*
X87560000Y-93680000D03*
D10*
X83108000Y-90880000D03*
X84632000Y-90880000D03*
D16*
X58250000Y-30500000D03*
X60155000Y-35580000D03*
X62060000Y-30500000D03*
X63965000Y-35580000D03*
X65870000Y-30500000D03*
X67775000Y-35580000D03*
X69680000Y-30500000D03*
X71585000Y-35580000D03*
X73490000Y-30500000D03*
X75395000Y-35580000D03*
X77300000Y-30500000D03*
X79205000Y-35580000D03*
X92540000Y-30500000D03*
X83015000Y-35580000D03*
X81110000Y-30500000D03*
X86825000Y-35580000D03*
X84920000Y-30500000D03*
X90635000Y-35580000D03*
X88730000Y-30500000D03*
X94445000Y-35580000D03*
X56345000Y-35580000D03*
D17*
X86930000Y-52107500D03*
X86930000Y-54012500D03*
X81150000Y-53982500D03*
X81150000Y-52077500D03*
X81090000Y-62847500D03*
X81090000Y-64752500D03*
D18*
X84512500Y-69320000D03*
X82607500Y-69320000D03*
D19*
X91390000Y-41710000D03*
X91390000Y-44250000D03*
X91390000Y-46790000D03*
X94015000Y-46790000D03*
X94015000Y-41710000D03*
D11*
X59070000Y-73132000D03*
X59070000Y-71608000D03*
D10*
X26208000Y-61000000D03*
X27732000Y-61000000D03*
X29238000Y-72120000D03*
X30762000Y-72120000D03*
X29238000Y-66990000D03*
X30762000Y-66990000D03*
X29208000Y-58360000D03*
X30732000Y-58360000D03*
X29208000Y-56650000D03*
X30732000Y-56650000D03*
X29238000Y-70410000D03*
X30762000Y-70410000D03*
X29238000Y-68700000D03*
X30762000Y-68700000D03*
X26208000Y-66130000D03*
X27732000Y-66130000D03*
X26208000Y-62710000D03*
X27732000Y-62710000D03*
X26208000Y-64420000D03*
X27732000Y-64420000D03*
X29208000Y-54940000D03*
X30732000Y-54940000D03*
X29208000Y-60070000D03*
X30732000Y-60070000D03*
D11*
X20630000Y-38444000D03*
X20630000Y-36920000D03*
D13*
X42280000Y-35050000D03*
X42280000Y-32510000D03*
X44820000Y-35050000D03*
X44820000Y-32510000D03*
X47360000Y-35050000D03*
X47360000Y-32510000D03*
X49900000Y-35050000D03*
D12*
X49900000Y-32510000D03*
D20*
X83589999Y-64259400D03*
X84240000Y-64259400D03*
X84890001Y-64259400D03*
X85540000Y-64259400D03*
X86189999Y-64259400D03*
X86840000Y-64259400D03*
X87489999Y-64259400D03*
X87490001Y-58620600D03*
X86840000Y-58620600D03*
X86190001Y-58620600D03*
X85540000Y-58620600D03*
X84890001Y-58620600D03*
X84240000Y-58620600D03*
X83590001Y-58620600D03*
D11*
X79140000Y-63328000D03*
X79140000Y-64852000D03*
D10*
X87432000Y-67130000D03*
X85908000Y-67130000D03*
X83048000Y-67130000D03*
X84572000Y-67130000D03*
D11*
X27090000Y-40522000D03*
X27090000Y-38998000D03*
D10*
X88102000Y-55800000D03*
X86578000Y-55800000D03*
X81442000Y-55770000D03*
X79918000Y-55770000D03*
D11*
X83130000Y-54008000D03*
X83130000Y-55532000D03*
X84920000Y-55532000D03*
X84920000Y-54008000D03*
D21*
X28090053Y-34782843D03*
D22*
X25975053Y-35782843D03*
X25975053Y-35282843D03*
X25975053Y-34782843D03*
X25975053Y-34282843D03*
X25975053Y-33782843D03*
D23*
X27090053Y-32667843D03*
X27590053Y-32667843D03*
X28090053Y-32667843D03*
X28590053Y-32667843D03*
X29090053Y-32667843D03*
D22*
X30205053Y-33782843D03*
X30205053Y-34282843D03*
X30205053Y-34782843D03*
X30205053Y-35282843D03*
X30205053Y-35782843D03*
D23*
X29090053Y-36897843D03*
X28590053Y-36897843D03*
X28090053Y-36897843D03*
X27590053Y-36897843D03*
X27090053Y-36897843D03*
D24*
X28090053Y-34782843D03*
D11*
X72120000Y-64752000D03*
X72120000Y-63228000D03*
X72090000Y-60732000D03*
X72090000Y-59208000D03*
X35930000Y-40568000D03*
X35930000Y-42092000D03*
D10*
X64312000Y-66960000D03*
X62788000Y-66960000D03*
X64382000Y-73990000D03*
X62858000Y-73990000D03*
D11*
X64290000Y-64542000D03*
X64290000Y-63018000D03*
X64300000Y-60352000D03*
X64300000Y-58828000D03*
X43640000Y-40548000D03*
X43640000Y-42072000D03*
D10*
X64048000Y-54110000D03*
X65572000Y-54110000D03*
X68322000Y-50690000D03*
X66798000Y-50690000D03*
X65572000Y-52400000D03*
X64048000Y-52400000D03*
X65572000Y-48980000D03*
X64048000Y-48980000D03*
D11*
X50080000Y-38588000D03*
X50080000Y-40112000D03*
X55440000Y-38598000D03*
X55440000Y-40122000D03*
D12*
X20630000Y-42600000D03*
D13*
X23170000Y-42600000D03*
X20630000Y-45140000D03*
X23170000Y-45140000D03*
X20630000Y-47680000D03*
X23170000Y-47680000D03*
X20630000Y-50220000D03*
X23170000Y-50220000D03*
X20630000Y-52760000D03*
X23170000Y-52760000D03*
X20630000Y-55300000D03*
X23170000Y-55300000D03*
X20630000Y-57840000D03*
X23170000Y-57840000D03*
X20630000Y-60380000D03*
X23170000Y-60380000D03*
X20630000Y-62920000D03*
X23170000Y-62920000D03*
X20630000Y-65460000D03*
X23170000Y-65460000D03*
X20630000Y-68000000D03*
X23170000Y-68000000D03*
X20630000Y-70540000D03*
X23170000Y-70540000D03*
X20630000Y-73080000D03*
X23170000Y-73080000D03*
X20630000Y-75620000D03*
X23170000Y-75620000D03*
X20630000Y-78160000D03*
X23170000Y-78160000D03*
X20630000Y-80700000D03*
X23170000Y-80700000D03*
X20630000Y-83240000D03*
X23170000Y-83240000D03*
X20630000Y-85780000D03*
X23170000Y-85780000D03*
X20630000Y-88320000D03*
X23170000Y-88320000D03*
X20630000Y-90860000D03*
X23170000Y-90860000D03*
D10*
X65572000Y-50690000D03*
X64048000Y-50690000D03*
X29168000Y-91180000D03*
X30692000Y-91180000D03*
X26198000Y-90240000D03*
X27722000Y-90240000D03*
X26198000Y-88530000D03*
X27722000Y-88530000D03*
X26198000Y-86820000D03*
X27722000Y-86820000D03*
X26198000Y-85110000D03*
X27722000Y-85110000D03*
D11*
X51810000Y-38588000D03*
X51810000Y-40112000D03*
D10*
X52222000Y-41640000D03*
X50698000Y-41640000D03*
X29178000Y-84130000D03*
X30702000Y-84130000D03*
X29178000Y-82410000D03*
X30702000Y-82410000D03*
D11*
X53720000Y-38598000D03*
X53720000Y-40122000D03*
D10*
X53448000Y-41640000D03*
X54972000Y-41640000D03*
X29178000Y-80690000D03*
X30702000Y-80690000D03*
X29178000Y-78980000D03*
X30702000Y-78980000D03*
X26208000Y-78100000D03*
X27732000Y-78100000D03*
X26208000Y-76390000D03*
X27732000Y-76390000D03*
X26208000Y-74680000D03*
X27732000Y-74680000D03*
X26208000Y-72970000D03*
X27732000Y-72970000D03*
X26168000Y-52370000D03*
X27692000Y-52370000D03*
X26168000Y-48950000D03*
X27692000Y-48950000D03*
X26168000Y-54080000D03*
X27692000Y-54080000D03*
X26168000Y-50660000D03*
X27692000Y-50660000D03*
D11*
X67040000Y-54098000D03*
X67040000Y-55622000D03*
X69860000Y-52398000D03*
X69860000Y-53922000D03*
X73360000Y-50682000D03*
X73360000Y-49158000D03*
X67250000Y-48972000D03*
X67250000Y-47448000D03*
D25*
X66780000Y-70210000D03*
X66780000Y-67910000D03*
X66780000Y-72510000D03*
D26*
X73980000Y-70210000D03*
D27*
X69920000Y-64770000D03*
X69920000Y-63820000D03*
X69920000Y-62870000D03*
X66620000Y-62870000D03*
X66620000Y-64770000D03*
X69920000Y-60530000D03*
X69920000Y-59580000D03*
X69920000Y-58630000D03*
X66620000Y-58630000D03*
X66620000Y-60530000D03*
X38130000Y-40560000D03*
X38130000Y-41510000D03*
X38130000Y-42460000D03*
X41430000Y-42460000D03*
X41430000Y-40560000D03*
D28*
X63750000Y-41910000D03*
X62650000Y-41910000D03*
D29*
X50580000Y-67290000D03*
X50080000Y-67290000D03*
X49580000Y-67290000D03*
X49080000Y-67290000D03*
X48580000Y-67290000D03*
X48080000Y-67290000D03*
X47580000Y-67290000D03*
X47080000Y-67290000D03*
X46580000Y-67290000D03*
X46080000Y-67290000D03*
X45580000Y-67290000D03*
D30*
X43530000Y-50240000D03*
X43530000Y-49740000D03*
X43530000Y-49240000D03*
X43530000Y-48740000D03*
X43530000Y-48240000D03*
X43530000Y-47740000D03*
X43530000Y-47240000D03*
X43530000Y-46740000D03*
D29*
X57080000Y-44690000D03*
X57580000Y-44690000D03*
X58080000Y-44690000D03*
D30*
X60130000Y-46740000D03*
X60130000Y-47240000D03*
X60130000Y-65240000D03*
X60130000Y-64740000D03*
X60130000Y-64240000D03*
X60130000Y-63740000D03*
X60130000Y-63240000D03*
X60130000Y-62740000D03*
X60130000Y-62240000D03*
X60130000Y-61740000D03*
X60130000Y-61240000D03*
X60130000Y-60740000D03*
X60130000Y-60240000D03*
X60130000Y-59740000D03*
X60130000Y-59240000D03*
X60130000Y-58740000D03*
X60130000Y-58240000D03*
X60130000Y-57740000D03*
X60130000Y-57240000D03*
X60130000Y-56740000D03*
X60130000Y-56240000D03*
X60130000Y-55740000D03*
X60130000Y-55240000D03*
X60130000Y-54740000D03*
X60130000Y-54240000D03*
X60130000Y-53740000D03*
X60130000Y-53240000D03*
X60130000Y-52740000D03*
X60130000Y-52240000D03*
X60130000Y-51740000D03*
X60130000Y-51240000D03*
X60130000Y-50740000D03*
X60130000Y-50240000D03*
X60130000Y-49740000D03*
X60130000Y-49240000D03*
X60130000Y-48740000D03*
X60130000Y-48240000D03*
X60130000Y-47740000D03*
D29*
X56580000Y-44690000D03*
X56080000Y-44690000D03*
X55580000Y-44690000D03*
X55080000Y-44690000D03*
X54580000Y-44690000D03*
X54080000Y-44690000D03*
X53580000Y-44690000D03*
X53080000Y-44690000D03*
X52580000Y-44690000D03*
X52080000Y-44690000D03*
X51580000Y-44690000D03*
X51080000Y-44690000D03*
X50580000Y-44690000D03*
X50080000Y-44690000D03*
X49580000Y-44690000D03*
X49080000Y-44690000D03*
X48580000Y-44690000D03*
X48080000Y-44690000D03*
X47580000Y-44690000D03*
X47080000Y-44690000D03*
X46580000Y-44690000D03*
X46080000Y-44690000D03*
X45580000Y-44690000D03*
D30*
X43530000Y-50740000D03*
X43530000Y-51240000D03*
X43530000Y-51740000D03*
X43530000Y-52240000D03*
X43530000Y-52740000D03*
X43530000Y-53240000D03*
X43530000Y-53740000D03*
X43530000Y-54240000D03*
X43530000Y-54740000D03*
X43530000Y-55240000D03*
X43530000Y-55740000D03*
X43530000Y-56240000D03*
X43530000Y-56740000D03*
X43530000Y-57240000D03*
X43530000Y-57740000D03*
X43530000Y-58240000D03*
X43530000Y-58740000D03*
X43530000Y-59240000D03*
X43530000Y-59740000D03*
X43530000Y-60240000D03*
X43530000Y-60740000D03*
X43530000Y-61240000D03*
X43530000Y-61740000D03*
X43530000Y-62240000D03*
X43530000Y-62740000D03*
X43530000Y-63240000D03*
X43530000Y-63740000D03*
X43530000Y-64240000D03*
X43530000Y-64740000D03*
X43530000Y-65240000D03*
D29*
X51080000Y-67290000D03*
X51580000Y-67290000D03*
X52080000Y-67290000D03*
X52580000Y-67290000D03*
X53080000Y-67290000D03*
X53580000Y-67290000D03*
X54080000Y-67290000D03*
X54580000Y-67290000D03*
X55080000Y-67290000D03*
X55580000Y-67290000D03*
X56080000Y-67290000D03*
X56580000Y-67290000D03*
X57080000Y-67290000D03*
X57580000Y-67290000D03*
X58080000Y-67290000D03*
D31*
X51830000Y-55990000D03*
D32*
X55058340Y-59215800D03*
X53758340Y-59215800D03*
X52458340Y-59215800D03*
X51158340Y-59215800D03*
X49858340Y-59215800D03*
X48558340Y-59215800D03*
X55058340Y-57915800D03*
X53758340Y-57915800D03*
X52458340Y-57915800D03*
X51158340Y-57915800D03*
X49858340Y-57915800D03*
X48558340Y-57915800D03*
X55058340Y-56615800D03*
X53758340Y-56615800D03*
X52458340Y-56615800D03*
X51158340Y-56615800D03*
X49858340Y-56615800D03*
X48558340Y-56615800D03*
X55058340Y-55315800D03*
X53758340Y-55315800D03*
X52458340Y-55315800D03*
X51158340Y-55315800D03*
X49858340Y-55315800D03*
X48558340Y-55315800D03*
X55058340Y-54015800D03*
X53758340Y-54015800D03*
X52458340Y-54015800D03*
X51158340Y-54015800D03*
X49858340Y-54015800D03*
X48558340Y-54015800D03*
X55058340Y-52715800D03*
X53758340Y-52715800D03*
X52458340Y-52715800D03*
X51158340Y-52715800D03*
X49858340Y-52715800D03*
X48558340Y-52715800D03*
M02*
