G04 #@! TF.FileFunction,Legend,Top*
%FSLAX46Y46*%
G04 Gerber Fmt 4.6, Leading zero omitted, Abs format (unit mm)*
G04 Created by KiCad (PCBNEW 4.0.6+dfsg1-1) date Fri Sep 29 01:28:00 2017*
%MOMM*%
%LPD*%
G01*
G04 APERTURE LIST*
%ADD10C,0.100000*%
%ADD11C,0.119380*%
%ADD12C,0.120000*%
%ADD13C,0.381000*%
%ADD14C,0.150000*%
%ADD15C,0.127000*%
%ADD16C,0.114300*%
%ADD17C,0.304800*%
G04 APERTURE END LIST*
D10*
D11*
X72904860Y-63489620D02*
X72904860Y-62707300D01*
X72904860Y-64490380D02*
X72904860Y-65272700D01*
X71335140Y-63489620D02*
X71335140Y-62707300D01*
X71335140Y-65272700D02*
X71335140Y-64490380D01*
X71358000Y-62699680D02*
X72882000Y-62699680D01*
X72882000Y-65280320D02*
X71358000Y-65280320D01*
X72874860Y-59469620D02*
X72874860Y-58687300D01*
X72874860Y-60470380D02*
X72874860Y-61252700D01*
X71305140Y-59469620D02*
X71305140Y-58687300D01*
X71305140Y-61252700D02*
X71305140Y-60470380D01*
X71328000Y-58679680D02*
X72852000Y-58679680D01*
X72852000Y-61260320D02*
X71328000Y-61260320D01*
X35145140Y-41830380D02*
X35145140Y-42612700D01*
X35145140Y-40829620D02*
X35145140Y-40047300D01*
X36714860Y-41830380D02*
X36714860Y-42612700D01*
X36714860Y-40047300D02*
X36714860Y-40829620D01*
X36692000Y-42620320D02*
X35168000Y-42620320D01*
X35168000Y-40039680D02*
X36692000Y-40039680D01*
X63049620Y-66175140D02*
X62267300Y-66175140D01*
X64050380Y-66175140D02*
X64832700Y-66175140D01*
X63049620Y-67744860D02*
X62267300Y-67744860D01*
X64832700Y-67744860D02*
X64050380Y-67744860D01*
X62259680Y-67722000D02*
X62259680Y-66198000D01*
X64840320Y-66198000D02*
X64840320Y-67722000D01*
X63119620Y-73205140D02*
X62337300Y-73205140D01*
X64120380Y-73205140D02*
X64902700Y-73205140D01*
X63119620Y-74774860D02*
X62337300Y-74774860D01*
X64902700Y-74774860D02*
X64120380Y-74774860D01*
X62329680Y-74752000D02*
X62329680Y-73228000D01*
X64910320Y-73228000D02*
X64910320Y-74752000D01*
X65074860Y-63279620D02*
X65074860Y-62497300D01*
X65074860Y-64280380D02*
X65074860Y-65062700D01*
X63505140Y-63279620D02*
X63505140Y-62497300D01*
X63505140Y-65062700D02*
X63505140Y-64280380D01*
X63528000Y-62489680D02*
X65052000Y-62489680D01*
X65052000Y-65070320D02*
X63528000Y-65070320D01*
X65084860Y-59089620D02*
X65084860Y-58307300D01*
X65084860Y-60090380D02*
X65084860Y-60872700D01*
X63515140Y-59089620D02*
X63515140Y-58307300D01*
X63515140Y-60872700D02*
X63515140Y-60090380D01*
X63538000Y-58299680D02*
X65062000Y-58299680D01*
X65062000Y-60880320D02*
X63538000Y-60880320D01*
X42855140Y-41810380D02*
X42855140Y-42592700D01*
X42855140Y-40809620D02*
X42855140Y-40027300D01*
X44424860Y-41810380D02*
X44424860Y-42592700D01*
X44424860Y-40027300D02*
X44424860Y-40809620D01*
X44402000Y-42600320D02*
X42878000Y-42600320D01*
X42878000Y-40019680D02*
X44402000Y-40019680D01*
X65310380Y-54894860D02*
X66092700Y-54894860D01*
X64309620Y-54894860D02*
X63527300Y-54894860D01*
X65310380Y-53325140D02*
X66092700Y-53325140D01*
X63527300Y-53325140D02*
X64309620Y-53325140D01*
X66100320Y-53348000D02*
X66100320Y-54872000D01*
X63519680Y-54872000D02*
X63519680Y-53348000D01*
X67059620Y-49905140D02*
X66277300Y-49905140D01*
X68060380Y-49905140D02*
X68842700Y-49905140D01*
X67059620Y-51474860D02*
X66277300Y-51474860D01*
X68842700Y-51474860D02*
X68060380Y-51474860D01*
X66269680Y-51452000D02*
X66269680Y-49928000D01*
X68850320Y-49928000D02*
X68850320Y-51452000D01*
X64309620Y-51615140D02*
X63527300Y-51615140D01*
X65310380Y-51615140D02*
X66092700Y-51615140D01*
X64309620Y-53184860D02*
X63527300Y-53184860D01*
X66092700Y-53184860D02*
X65310380Y-53184860D01*
X63519680Y-53162000D02*
X63519680Y-51638000D01*
X66100320Y-51638000D02*
X66100320Y-53162000D01*
X64309620Y-48195140D02*
X63527300Y-48195140D01*
X65310380Y-48195140D02*
X66092700Y-48195140D01*
X64309620Y-49764860D02*
X63527300Y-49764860D01*
X66092700Y-49764860D02*
X65310380Y-49764860D01*
X63519680Y-49742000D02*
X63519680Y-48218000D01*
X66100320Y-48218000D02*
X66100320Y-49742000D01*
X49295140Y-39850380D02*
X49295140Y-40632700D01*
X49295140Y-38849620D02*
X49295140Y-38067300D01*
X50864860Y-39850380D02*
X50864860Y-40632700D01*
X50864860Y-38067300D02*
X50864860Y-38849620D01*
X50842000Y-40640320D02*
X49318000Y-40640320D01*
X49318000Y-38059680D02*
X50842000Y-38059680D01*
X54655140Y-39860380D02*
X54655140Y-40642700D01*
X54655140Y-38859620D02*
X54655140Y-38077300D01*
X56224860Y-39860380D02*
X56224860Y-40642700D01*
X56224860Y-38077300D02*
X56224860Y-38859620D01*
X56202000Y-40650320D02*
X54678000Y-40650320D01*
X54678000Y-38069680D02*
X56202000Y-38069680D01*
D12*
X19240000Y-43870000D02*
X19240000Y-92250000D01*
X19240000Y-92250000D02*
X24560000Y-92250000D01*
X24560000Y-92250000D02*
X24560000Y-41210000D01*
X24560000Y-41210000D02*
X21900000Y-41210000D01*
X21900000Y-41210000D02*
X21900000Y-43870000D01*
X21900000Y-43870000D02*
X19240000Y-43870000D01*
X19240000Y-42600000D02*
X19240000Y-41210000D01*
X19240000Y-41210000D02*
X20630000Y-41210000D01*
D13*
X49710400Y-89890400D02*
X56009600Y-89890400D01*
X56009600Y-89890400D02*
X56009600Y-96189600D01*
X56009600Y-96189600D02*
X49710400Y-96189600D01*
X49710400Y-96189600D02*
X49710400Y-89890400D01*
X58960400Y-89890400D02*
X65259600Y-89890400D01*
X65259600Y-89890400D02*
X65259600Y-96189600D01*
X65259600Y-96189600D02*
X58960400Y-96189600D01*
X58960400Y-96189600D02*
X58960400Y-89890400D01*
D14*
X102741660Y-26557920D02*
X99774940Y-30025020D01*
X102749280Y-30040260D02*
X99777480Y-26560460D01*
X50482680Y-26542680D02*
X47493100Y-30045340D01*
X50490300Y-30047880D02*
X47503260Y-26555380D01*
X102760000Y-26550000D02*
X102760000Y-30050000D01*
X47490000Y-30050000D02*
X47490000Y-26550000D01*
X47490000Y-26550000D02*
X102760000Y-26550000D01*
X99760000Y-26550000D02*
X99760000Y-30050000D01*
X97145000Y-30050000D02*
X102760000Y-30050000D01*
X97145000Y-30050000D02*
X97145000Y-37500000D01*
X97145000Y-37500000D02*
X53645000Y-37500000D01*
X53645000Y-37500000D02*
X53645000Y-30050000D01*
X53645000Y-30050000D02*
X47490000Y-30050000D01*
X50490000Y-30050000D02*
X50490000Y-26550000D01*
D12*
X50260000Y-33910000D02*
X50260000Y-31250000D01*
X50260000Y-31250000D02*
X47480000Y-31250000D01*
X47480000Y-31250000D02*
X47480000Y-33910000D01*
X47480000Y-33910000D02*
X50260000Y-33910000D01*
X50260000Y-35180000D02*
X50260000Y-36570000D01*
X50260000Y-36570000D02*
X48870000Y-36570000D01*
D11*
X64309620Y-49905140D02*
X63527300Y-49905140D01*
X65310380Y-49905140D02*
X66092700Y-49905140D01*
X64309620Y-51474860D02*
X63527300Y-51474860D01*
X66092700Y-51474860D02*
X65310380Y-51474860D01*
X63519680Y-51452000D02*
X63519680Y-49928000D01*
X66100320Y-49928000D02*
X66100320Y-51452000D01*
X27460380Y-80074860D02*
X28242700Y-80074860D01*
X26459620Y-80074860D02*
X25677300Y-80074860D01*
X27460380Y-78505140D02*
X28242700Y-78505140D01*
X25677300Y-78505140D02*
X26459620Y-78505140D01*
X28250320Y-78528000D02*
X28250320Y-80052000D01*
X25669680Y-80052000D02*
X25669680Y-78528000D01*
X27460380Y-88964860D02*
X28242700Y-88964860D01*
X26459620Y-88964860D02*
X25677300Y-88964860D01*
X27460380Y-87395140D02*
X28242700Y-87395140D01*
X25677300Y-87395140D02*
X26459620Y-87395140D01*
X28250320Y-87418000D02*
X28250320Y-88942000D01*
X25669680Y-88942000D02*
X25669680Y-87418000D01*
X27460380Y-78354860D02*
X28242700Y-78354860D01*
X26459620Y-78354860D02*
X25677300Y-78354860D01*
X27460380Y-76785140D02*
X28242700Y-76785140D01*
X25677300Y-76785140D02*
X26459620Y-76785140D01*
X28250320Y-76808000D02*
X28250320Y-78332000D01*
X25669680Y-78332000D02*
X25669680Y-76808000D01*
X27460380Y-87254860D02*
X28242700Y-87254860D01*
X26459620Y-87254860D02*
X25677300Y-87254860D01*
X27460380Y-85685140D02*
X28242700Y-85685140D01*
X25677300Y-85685140D02*
X26459620Y-85685140D01*
X28250320Y-85708000D02*
X28250320Y-87232000D01*
X25669680Y-87232000D02*
X25669680Y-85708000D01*
X27460380Y-85544860D02*
X28242700Y-85544860D01*
X26459620Y-85544860D02*
X25677300Y-85544860D01*
X27460380Y-83975140D02*
X28242700Y-83975140D01*
X25677300Y-83975140D02*
X26459620Y-83975140D01*
X28250320Y-83998000D02*
X28250320Y-85522000D01*
X25669680Y-85522000D02*
X25669680Y-83998000D01*
X27460380Y-81784860D02*
X28242700Y-81784860D01*
X26459620Y-81784860D02*
X25677300Y-81784860D01*
X27460380Y-80215140D02*
X28242700Y-80215140D01*
X25677300Y-80215140D02*
X26459620Y-80215140D01*
X28250320Y-80238000D02*
X28250320Y-81762000D01*
X25669680Y-81762000D02*
X25669680Y-80238000D01*
X51025140Y-39850380D02*
X51025140Y-40632700D01*
X51025140Y-38849620D02*
X51025140Y-38067300D01*
X52594860Y-39850380D02*
X52594860Y-40632700D01*
X52594860Y-38067300D02*
X52594860Y-38849620D01*
X52572000Y-40640320D02*
X51048000Y-40640320D01*
X51048000Y-38059680D02*
X52572000Y-38059680D01*
X50959620Y-40855140D02*
X50177300Y-40855140D01*
X51960380Y-40855140D02*
X52742700Y-40855140D01*
X50959620Y-42424860D02*
X50177300Y-42424860D01*
X52742700Y-42424860D02*
X51960380Y-42424860D01*
X50169680Y-42402000D02*
X50169680Y-40878000D01*
X52750320Y-40878000D02*
X52750320Y-42402000D01*
X53884860Y-70689620D02*
X53884860Y-69907300D01*
X53884860Y-71690380D02*
X53884860Y-72472700D01*
X52315140Y-70689620D02*
X52315140Y-69907300D01*
X52315140Y-72472700D02*
X52315140Y-71690380D01*
X52338000Y-69899680D02*
X53862000Y-69899680D01*
X53862000Y-72480320D02*
X52338000Y-72480320D01*
X30440380Y-77474860D02*
X31222700Y-77474860D01*
X29439620Y-77474860D02*
X28657300Y-77474860D01*
X30440380Y-75905140D02*
X31222700Y-75905140D01*
X28657300Y-75905140D02*
X29439620Y-75905140D01*
X31230320Y-75928000D02*
X31230320Y-77452000D01*
X28649680Y-77452000D02*
X28649680Y-75928000D01*
X30440380Y-75754860D02*
X31222700Y-75754860D01*
X29439620Y-75754860D02*
X28657300Y-75754860D01*
X30440380Y-74185140D02*
X31222700Y-74185140D01*
X28657300Y-74185140D02*
X29439620Y-74185140D01*
X31230320Y-74208000D02*
X31230320Y-75732000D01*
X28649680Y-75732000D02*
X28649680Y-74208000D01*
X52935140Y-39860380D02*
X52935140Y-40642700D01*
X52935140Y-38859620D02*
X52935140Y-38077300D01*
X54504860Y-39860380D02*
X54504860Y-40642700D01*
X54504860Y-38077300D02*
X54504860Y-38859620D01*
X54482000Y-40650320D02*
X52958000Y-40650320D01*
X52958000Y-38069680D02*
X54482000Y-38069680D01*
X54710380Y-42424860D02*
X55492700Y-42424860D01*
X53709620Y-42424860D02*
X52927300Y-42424860D01*
X54710380Y-40855140D02*
X55492700Y-40855140D01*
X52927300Y-40855140D02*
X53709620Y-40855140D01*
X55500320Y-40878000D02*
X55500320Y-42402000D01*
X52919680Y-42402000D02*
X52919680Y-40878000D01*
X30440380Y-74034860D02*
X31222700Y-74034860D01*
X29439620Y-74034860D02*
X28657300Y-74034860D01*
X30440380Y-72465140D02*
X31222700Y-72465140D01*
X28657300Y-72465140D02*
X29439620Y-72465140D01*
X31230320Y-72488000D02*
X31230320Y-74012000D01*
X28649680Y-74012000D02*
X28649680Y-72488000D01*
X30440380Y-72324860D02*
X31222700Y-72324860D01*
X29439620Y-72324860D02*
X28657300Y-72324860D01*
X30440380Y-70755140D02*
X31222700Y-70755140D01*
X28657300Y-70755140D02*
X29439620Y-70755140D01*
X31230320Y-70778000D02*
X31230320Y-72302000D01*
X28649680Y-72302000D02*
X28649680Y-70778000D01*
X27460380Y-71514860D02*
X28242700Y-71514860D01*
X26459620Y-71514860D02*
X25677300Y-71514860D01*
X27460380Y-69945140D02*
X28242700Y-69945140D01*
X25677300Y-69945140D02*
X26459620Y-69945140D01*
X28250320Y-69968000D02*
X28250320Y-71492000D01*
X25669680Y-71492000D02*
X25669680Y-69968000D01*
X27460380Y-69804860D02*
X28242700Y-69804860D01*
X26459620Y-69804860D02*
X25677300Y-69804860D01*
X27460380Y-68235140D02*
X28242700Y-68235140D01*
X25677300Y-68235140D02*
X26459620Y-68235140D01*
X28250320Y-68258000D02*
X28250320Y-69782000D01*
X25669680Y-69782000D02*
X25669680Y-68258000D01*
X27460380Y-68094860D02*
X28242700Y-68094860D01*
X26459620Y-68094860D02*
X25677300Y-68094860D01*
X27460380Y-66525140D02*
X28242700Y-66525140D01*
X25677300Y-66525140D02*
X26459620Y-66525140D01*
X28250320Y-66548000D02*
X28250320Y-68072000D01*
X25669680Y-68072000D02*
X25669680Y-66548000D01*
X27460380Y-66384860D02*
X28242700Y-66384860D01*
X26459620Y-66384860D02*
X25677300Y-66384860D01*
X27460380Y-64815140D02*
X28242700Y-64815140D01*
X25677300Y-64815140D02*
X26459620Y-64815140D01*
X28250320Y-64838000D02*
X28250320Y-66362000D01*
X25669680Y-66362000D02*
X25669680Y-64838000D01*
X30490380Y-65534860D02*
X31272700Y-65534860D01*
X29489620Y-65534860D02*
X28707300Y-65534860D01*
X30490380Y-63965140D02*
X31272700Y-63965140D01*
X28707300Y-63965140D02*
X29489620Y-63965140D01*
X31280320Y-63988000D02*
X31280320Y-65512000D01*
X28699680Y-65512000D02*
X28699680Y-63988000D01*
X30490380Y-62114860D02*
X31272700Y-62114860D01*
X29489620Y-62114860D02*
X28707300Y-62114860D01*
X30490380Y-60545140D02*
X31272700Y-60545140D01*
X28707300Y-60545140D02*
X29489620Y-60545140D01*
X31280320Y-60568000D02*
X31280320Y-62092000D01*
X28699680Y-62092000D02*
X28699680Y-60568000D01*
X30490380Y-60404860D02*
X31272700Y-60404860D01*
X29489620Y-60404860D02*
X28707300Y-60404860D01*
X30490380Y-58835140D02*
X31272700Y-58835140D01*
X28707300Y-58835140D02*
X29489620Y-58835140D01*
X31280320Y-58858000D02*
X31280320Y-60382000D01*
X28699680Y-60382000D02*
X28699680Y-58858000D01*
X27460380Y-57834860D02*
X28242700Y-57834860D01*
X26459620Y-57834860D02*
X25677300Y-57834860D01*
X27460380Y-56265140D02*
X28242700Y-56265140D01*
X25677300Y-56265140D02*
X26459620Y-56265140D01*
X28250320Y-56288000D02*
X28250320Y-57812000D01*
X25669680Y-57812000D02*
X25669680Y-56288000D01*
X27460380Y-54414860D02*
X28242700Y-54414860D01*
X26459620Y-54414860D02*
X25677300Y-54414860D01*
X27460380Y-52845140D02*
X28242700Y-52845140D01*
X25677300Y-52845140D02*
X26459620Y-52845140D01*
X28250320Y-52868000D02*
X28250320Y-54392000D01*
X25669680Y-54392000D02*
X25669680Y-52868000D01*
X30460380Y-53484860D02*
X31242700Y-53484860D01*
X29459620Y-53484860D02*
X28677300Y-53484860D01*
X30460380Y-51915140D02*
X31242700Y-51915140D01*
X28677300Y-51915140D02*
X29459620Y-51915140D01*
X31250320Y-51938000D02*
X31250320Y-53462000D01*
X28669680Y-53462000D02*
X28669680Y-51938000D01*
X30460380Y-50064860D02*
X31242700Y-50064860D01*
X29459620Y-50064860D02*
X28677300Y-50064860D01*
X30460380Y-48495140D02*
X31242700Y-48495140D01*
X28677300Y-48495140D02*
X29459620Y-48495140D01*
X31250320Y-48518000D02*
X31250320Y-50042000D01*
X28669680Y-50042000D02*
X28669680Y-48518000D01*
X30460380Y-48354860D02*
X31242700Y-48354860D01*
X29459620Y-48354860D02*
X28677300Y-48354860D01*
X30460380Y-46785140D02*
X31242700Y-46785140D01*
X28677300Y-46785140D02*
X29459620Y-46785140D01*
X31250320Y-46808000D02*
X31250320Y-48332000D01*
X28669680Y-48332000D02*
X28669680Y-46808000D01*
X27460380Y-45864860D02*
X28242700Y-45864860D01*
X26459620Y-45864860D02*
X25677300Y-45864860D01*
X27460380Y-44295140D02*
X28242700Y-44295140D01*
X25677300Y-44295140D02*
X26459620Y-44295140D01*
X28250320Y-44318000D02*
X28250320Y-45842000D01*
X25669680Y-45842000D02*
X25669680Y-44318000D01*
X27460380Y-42444860D02*
X28242700Y-42444860D01*
X26459620Y-42444860D02*
X25677300Y-42444860D01*
X27460380Y-40875140D02*
X28242700Y-40875140D01*
X25677300Y-40875140D02*
X26459620Y-40875140D01*
X28250320Y-40898000D02*
X28250320Y-42422000D01*
X25669680Y-42422000D02*
X25669680Y-40898000D01*
X30490380Y-63824860D02*
X31272700Y-63824860D01*
X29489620Y-63824860D02*
X28707300Y-63824860D01*
X30490380Y-62255140D02*
X31272700Y-62255140D01*
X28707300Y-62255140D02*
X29489620Y-62255140D01*
X31280320Y-62278000D02*
X31280320Y-63802000D01*
X28699680Y-63802000D02*
X28699680Y-62278000D01*
X27460380Y-59544860D02*
X28242700Y-59544860D01*
X26459620Y-59544860D02*
X25677300Y-59544860D01*
X27460380Y-57975140D02*
X28242700Y-57975140D01*
X25677300Y-57975140D02*
X26459620Y-57975140D01*
X28250320Y-57998000D02*
X28250320Y-59522000D01*
X25669680Y-59522000D02*
X25669680Y-57998000D01*
X27460380Y-56124860D02*
X28242700Y-56124860D01*
X26459620Y-56124860D02*
X25677300Y-56124860D01*
X27460380Y-54555140D02*
X28242700Y-54555140D01*
X25677300Y-54555140D02*
X26459620Y-54555140D01*
X28250320Y-54578000D02*
X28250320Y-56102000D01*
X25669680Y-56102000D02*
X25669680Y-54578000D01*
X30460380Y-51774860D02*
X31242700Y-51774860D01*
X29459620Y-51774860D02*
X28677300Y-51774860D01*
X30460380Y-50205140D02*
X31242700Y-50205140D01*
X28677300Y-50205140D02*
X29459620Y-50205140D01*
X31250320Y-50228000D02*
X31250320Y-51752000D01*
X28669680Y-51752000D02*
X28669680Y-50228000D01*
X27460380Y-47574860D02*
X28242700Y-47574860D01*
X26459620Y-47574860D02*
X25677300Y-47574860D01*
X27460380Y-46005140D02*
X28242700Y-46005140D01*
X25677300Y-46005140D02*
X26459620Y-46005140D01*
X28250320Y-46028000D02*
X28250320Y-47552000D01*
X25669680Y-47552000D02*
X25669680Y-46028000D01*
X27460380Y-44154860D02*
X28242700Y-44154860D01*
X26459620Y-44154860D02*
X25677300Y-44154860D01*
X27460380Y-42585140D02*
X28242700Y-42585140D01*
X25677300Y-42585140D02*
X26459620Y-42585140D01*
X28250320Y-42608000D02*
X28250320Y-44132000D01*
X25669680Y-44132000D02*
X25669680Y-42608000D01*
X60194860Y-73459620D02*
X60194860Y-72677300D01*
X60194860Y-74460380D02*
X60194860Y-75242700D01*
X58625140Y-73459620D02*
X58625140Y-72677300D01*
X58625140Y-75242700D02*
X58625140Y-74460380D01*
X58648000Y-72669680D02*
X60172000Y-72669680D01*
X60172000Y-75250320D02*
X58648000Y-75250320D01*
X41525140Y-79040380D02*
X41525140Y-79822700D01*
X41525140Y-78039620D02*
X41525140Y-77257300D01*
X43094860Y-79040380D02*
X43094860Y-79822700D01*
X43094860Y-77257300D02*
X43094860Y-78039620D01*
X43072000Y-79830320D02*
X41548000Y-79830320D01*
X41548000Y-77249680D02*
X43072000Y-77249680D01*
X66255140Y-55360380D02*
X66255140Y-56142700D01*
X66255140Y-54359620D02*
X66255140Y-53577300D01*
X67824860Y-55360380D02*
X67824860Y-56142700D01*
X67824860Y-53577300D02*
X67824860Y-54359620D01*
X67802000Y-56150320D02*
X66278000Y-56150320D01*
X66278000Y-53569680D02*
X67802000Y-53569680D01*
X69075140Y-53660380D02*
X69075140Y-54442700D01*
X69075140Y-52659620D02*
X69075140Y-51877300D01*
X70644860Y-53660380D02*
X70644860Y-54442700D01*
X70644860Y-51877300D02*
X70644860Y-52659620D01*
X70622000Y-54450320D02*
X69098000Y-54450320D01*
X69098000Y-51869680D02*
X70622000Y-51869680D01*
X74144860Y-49419620D02*
X74144860Y-48637300D01*
X74144860Y-50420380D02*
X74144860Y-51202700D01*
X72575140Y-49419620D02*
X72575140Y-48637300D01*
X72575140Y-51202700D02*
X72575140Y-50420380D01*
X72598000Y-48629680D02*
X74122000Y-48629680D01*
X74122000Y-51210320D02*
X72598000Y-51210320D01*
X68034860Y-47709620D02*
X68034860Y-46927300D01*
X68034860Y-48710380D02*
X68034860Y-49492700D01*
X66465140Y-47709620D02*
X66465140Y-46927300D01*
X66465140Y-49492700D02*
X66465140Y-48710380D01*
X66488000Y-46919680D02*
X68012000Y-46919680D01*
X68012000Y-49500320D02*
X66488000Y-49500320D01*
D14*
X72201180Y-73325260D02*
X72201180Y-73277000D01*
X71510300Y-66889000D02*
X72211340Y-66889000D01*
X72211340Y-66889000D02*
X72211340Y-67137920D01*
X72201180Y-73325260D02*
X72201180Y-73525920D01*
X72201180Y-73525920D02*
X71500140Y-73525920D01*
X68670000Y-65520000D02*
G75*
G03X68670000Y-65520000I-100000J0D01*
G01*
X68020000Y-65270000D02*
X68520000Y-65270000D01*
X68020000Y-62370000D02*
X68020000Y-65270000D01*
X68520000Y-62370000D02*
X68020000Y-62370000D01*
X68520000Y-65270000D02*
X68520000Y-62370000D01*
X68670000Y-61280000D02*
G75*
G03X68670000Y-61280000I-100000J0D01*
G01*
X68020000Y-61030000D02*
X68520000Y-61030000D01*
X68020000Y-58130000D02*
X68020000Y-61030000D01*
X68520000Y-58130000D02*
X68020000Y-58130000D01*
X68520000Y-61030000D02*
X68520000Y-58130000D01*
X39580000Y-39810000D02*
G75*
G03X39580000Y-39810000I-100000J0D01*
G01*
X40030000Y-40060000D02*
X39530000Y-40060000D01*
X40030000Y-42960000D02*
X40030000Y-40060000D01*
X39530000Y-42960000D02*
X40030000Y-42960000D01*
X39530000Y-40060000D02*
X39530000Y-42960000D01*
D11*
X44585140Y-34450380D02*
X44585140Y-35232700D01*
X44585140Y-33449620D02*
X44585140Y-32667300D01*
X46154860Y-34450380D02*
X46154860Y-35232700D01*
X46154860Y-32667300D02*
X46154860Y-33449620D01*
X46132000Y-35240320D02*
X44608000Y-35240320D01*
X44608000Y-32659680D02*
X46132000Y-32659680D01*
D14*
X61899520Y-41010840D02*
X62150980Y-40759380D01*
X62150980Y-40759380D02*
X62498960Y-40510460D01*
X62498960Y-40510460D02*
X63050140Y-40360600D01*
X63050140Y-40360600D02*
X63448920Y-40360600D01*
X63448920Y-40360600D02*
X63949300Y-40561260D01*
X63949300Y-40561260D02*
X64350620Y-40909240D01*
X61899520Y-42760900D02*
X62049380Y-42959020D01*
X62049380Y-42959020D02*
X62349100Y-43210480D01*
X62349100Y-43210480D02*
X62801220Y-43411140D01*
X62801220Y-43411140D02*
X63250800Y-43459400D01*
X63250800Y-43459400D02*
X63751180Y-43360340D01*
X63751180Y-43360340D02*
X64099160Y-43159680D01*
X64099160Y-43159680D02*
X64449680Y-42809160D01*
X60340000Y-81370000D02*
X59565000Y-81370000D01*
X56040000Y-77070000D02*
X56815000Y-77070000D01*
X56040000Y-81370000D02*
X56815000Y-81370000D01*
X60340000Y-77070000D02*
X60340000Y-77845000D01*
X56040000Y-77070000D02*
X56040000Y-77845000D01*
X56040000Y-81370000D02*
X56040000Y-80595000D01*
X60340000Y-81370000D02*
X60340000Y-80595000D01*
X58838232Y-65420640D02*
G75*
G03X58838232Y-65420640I-590292J0D01*
G01*
X59505000Y-66665000D02*
X59505000Y-65590000D01*
X44155000Y-66665000D02*
X44155000Y-65590000D01*
X44155000Y-45315000D02*
X44155000Y-46390000D01*
X59505000Y-45315000D02*
X59505000Y-46390000D01*
X59505000Y-66665000D02*
X58430000Y-66665000D01*
X59505000Y-45315000D02*
X58430000Y-45315000D01*
X44155000Y-45315000D02*
X45230000Y-45315000D01*
X44155000Y-66665000D02*
X45230000Y-66665000D01*
X59505000Y-65590000D02*
X60605000Y-65590000D01*
D15*
X72035333Y-66027443D02*
X72011143Y-66055262D01*
X71938571Y-66083081D01*
X71890190Y-66083081D01*
X71817619Y-66055262D01*
X71769238Y-65999624D01*
X71745047Y-65943986D01*
X71720857Y-65832710D01*
X71720857Y-65749252D01*
X71745047Y-65637976D01*
X71769238Y-65582338D01*
X71817619Y-65526700D01*
X71890190Y-65498881D01*
X71938571Y-65498881D01*
X72011143Y-65526700D01*
X72035333Y-65554519D01*
X72519143Y-66083081D02*
X72228857Y-66083081D01*
X72374000Y-66083081D02*
X72374000Y-65498881D01*
X72325619Y-65582338D01*
X72277238Y-65637976D01*
X72228857Y-65665795D01*
D16*
X72043800Y-64219810D02*
X71782543Y-64219810D01*
X71913171Y-64219810D02*
X71913171Y-63711810D01*
X71869628Y-63784381D01*
X71826086Y-63832762D01*
X71782543Y-63856952D01*
X72435686Y-63881143D02*
X72435686Y-64219810D01*
X72239743Y-63881143D02*
X72239743Y-64147238D01*
X72261515Y-64195619D01*
X72305057Y-64219810D01*
X72370372Y-64219810D01*
X72413915Y-64195619D01*
X72435686Y-64171429D01*
D15*
X72005333Y-62007443D02*
X71981143Y-62035262D01*
X71908571Y-62063081D01*
X71860190Y-62063081D01*
X71787619Y-62035262D01*
X71739238Y-61979624D01*
X71715047Y-61923986D01*
X71690857Y-61812710D01*
X71690857Y-61729252D01*
X71715047Y-61617976D01*
X71739238Y-61562338D01*
X71787619Y-61506700D01*
X71860190Y-61478881D01*
X71908571Y-61478881D01*
X71981143Y-61506700D01*
X72005333Y-61534519D01*
X72198857Y-61534519D02*
X72223047Y-61506700D01*
X72271428Y-61478881D01*
X72392381Y-61478881D01*
X72440762Y-61506700D01*
X72464952Y-61534519D01*
X72489143Y-61590157D01*
X72489143Y-61645795D01*
X72464952Y-61729252D01*
X72174666Y-62063081D01*
X72489143Y-62063081D01*
D16*
X72013800Y-60199810D02*
X71752543Y-60199810D01*
X71883171Y-60199810D02*
X71883171Y-59691810D01*
X71839628Y-59764381D01*
X71796086Y-59812762D01*
X71752543Y-59836952D01*
X72405686Y-59861143D02*
X72405686Y-60199810D01*
X72209743Y-59861143D02*
X72209743Y-60127238D01*
X72231515Y-60175619D01*
X72275057Y-60199810D01*
X72340372Y-60199810D01*
X72383915Y-60175619D01*
X72405686Y-60151429D01*
D15*
X35845333Y-39709843D02*
X35821143Y-39737662D01*
X35748571Y-39765481D01*
X35700190Y-39765481D01*
X35627619Y-39737662D01*
X35579238Y-39682024D01*
X35555047Y-39626386D01*
X35530857Y-39515110D01*
X35530857Y-39431652D01*
X35555047Y-39320376D01*
X35579238Y-39264738D01*
X35627619Y-39209100D01*
X35700190Y-39181281D01*
X35748571Y-39181281D01*
X35821143Y-39209100D01*
X35845333Y-39236919D01*
X36014666Y-39181281D02*
X36329143Y-39181281D01*
X36159809Y-39403833D01*
X36232381Y-39403833D01*
X36280762Y-39431652D01*
X36304952Y-39459471D01*
X36329143Y-39515110D01*
X36329143Y-39654205D01*
X36304952Y-39709843D01*
X36280762Y-39737662D01*
X36232381Y-39765481D01*
X36087238Y-39765481D01*
X36038857Y-39737662D01*
X36014666Y-39709843D01*
D16*
X35853800Y-41559810D02*
X35592543Y-41559810D01*
X35723171Y-41559810D02*
X35723171Y-41051810D01*
X35679628Y-41124381D01*
X35636086Y-41172762D01*
X35592543Y-41196952D01*
X36245686Y-41221143D02*
X36245686Y-41559810D01*
X36049743Y-41221143D02*
X36049743Y-41487238D01*
X36071515Y-41535619D01*
X36115057Y-41559810D01*
X36180372Y-41559810D01*
X36223915Y-41535619D01*
X36245686Y-41511429D01*
D15*
X65587443Y-67044667D02*
X65615262Y-67068857D01*
X65643081Y-67141429D01*
X65643081Y-67189810D01*
X65615262Y-67262381D01*
X65559624Y-67310762D01*
X65503986Y-67334953D01*
X65392710Y-67359143D01*
X65309252Y-67359143D01*
X65197976Y-67334953D01*
X65142338Y-67310762D01*
X65086700Y-67262381D01*
X65058881Y-67189810D01*
X65058881Y-67141429D01*
X65086700Y-67068857D01*
X65114519Y-67044667D01*
X65253614Y-66609238D02*
X65643081Y-66609238D01*
X65031062Y-66730191D02*
X65448348Y-66851143D01*
X65448348Y-66536667D01*
D16*
X63779810Y-67253914D02*
X63779810Y-67515171D01*
X63779810Y-67384543D02*
X63271810Y-67384543D01*
X63344381Y-67428086D01*
X63392762Y-67471628D01*
X63416952Y-67515171D01*
X63271810Y-66970885D02*
X63271810Y-66927342D01*
X63296000Y-66883799D01*
X63320190Y-66862028D01*
X63368571Y-66840257D01*
X63465333Y-66818485D01*
X63586286Y-66818485D01*
X63683048Y-66840257D01*
X63731429Y-66862028D01*
X63755619Y-66883799D01*
X63779810Y-66927342D01*
X63779810Y-66970885D01*
X63755619Y-67014428D01*
X63731429Y-67036199D01*
X63683048Y-67057971D01*
X63586286Y-67079742D01*
X63465333Y-67079742D01*
X63368571Y-67057971D01*
X63320190Y-67036199D01*
X63296000Y-67014428D01*
X63271810Y-66970885D01*
X63441143Y-66426599D02*
X63779810Y-66426599D01*
X63441143Y-66622542D02*
X63707238Y-66622542D01*
X63755619Y-66600770D01*
X63779810Y-66557228D01*
X63779810Y-66491913D01*
X63755619Y-66448370D01*
X63731429Y-66426599D01*
D15*
X65657443Y-74074667D02*
X65685262Y-74098857D01*
X65713081Y-74171429D01*
X65713081Y-74219810D01*
X65685262Y-74292381D01*
X65629624Y-74340762D01*
X65573986Y-74364953D01*
X65462710Y-74389143D01*
X65379252Y-74389143D01*
X65267976Y-74364953D01*
X65212338Y-74340762D01*
X65156700Y-74292381D01*
X65128881Y-74219810D01*
X65128881Y-74171429D01*
X65156700Y-74098857D01*
X65184519Y-74074667D01*
X65128881Y-73615048D02*
X65128881Y-73856953D01*
X65407071Y-73881143D01*
X65379252Y-73856953D01*
X65351433Y-73808572D01*
X65351433Y-73687619D01*
X65379252Y-73639238D01*
X65407071Y-73615048D01*
X65462710Y-73590857D01*
X65601805Y-73590857D01*
X65657443Y-73615048D01*
X65685262Y-73639238D01*
X65713081Y-73687619D01*
X65713081Y-73808572D01*
X65685262Y-73856953D01*
X65657443Y-73881143D01*
D16*
X63849810Y-74283914D02*
X63849810Y-74545171D01*
X63849810Y-74414543D02*
X63341810Y-74414543D01*
X63414381Y-74458086D01*
X63462762Y-74501628D01*
X63486952Y-74545171D01*
X63341810Y-74000885D02*
X63341810Y-73957342D01*
X63366000Y-73913799D01*
X63390190Y-73892028D01*
X63438571Y-73870257D01*
X63535333Y-73848485D01*
X63656286Y-73848485D01*
X63753048Y-73870257D01*
X63801429Y-73892028D01*
X63825619Y-73913799D01*
X63849810Y-73957342D01*
X63849810Y-74000885D01*
X63825619Y-74044428D01*
X63801429Y-74066199D01*
X63753048Y-74087971D01*
X63656286Y-74109742D01*
X63535333Y-74109742D01*
X63438571Y-74087971D01*
X63390190Y-74066199D01*
X63366000Y-74044428D01*
X63341810Y-74000885D01*
X63511143Y-73456599D02*
X63849810Y-73456599D01*
X63511143Y-73652542D02*
X63777238Y-73652542D01*
X63825619Y-73630770D01*
X63849810Y-73587228D01*
X63849810Y-73521913D01*
X63825619Y-73478370D01*
X63801429Y-73456599D01*
D15*
X64205333Y-65817443D02*
X64181143Y-65845262D01*
X64108571Y-65873081D01*
X64060190Y-65873081D01*
X63987619Y-65845262D01*
X63939238Y-65789624D01*
X63915047Y-65733986D01*
X63890857Y-65622710D01*
X63890857Y-65539252D01*
X63915047Y-65427976D01*
X63939238Y-65372338D01*
X63987619Y-65316700D01*
X64060190Y-65288881D01*
X64108571Y-65288881D01*
X64181143Y-65316700D01*
X64205333Y-65344519D01*
X64640762Y-65288881D02*
X64544000Y-65288881D01*
X64495619Y-65316700D01*
X64471428Y-65344519D01*
X64423047Y-65427976D01*
X64398857Y-65539252D01*
X64398857Y-65761805D01*
X64423047Y-65817443D01*
X64447238Y-65845262D01*
X64495619Y-65873081D01*
X64592381Y-65873081D01*
X64640762Y-65845262D01*
X64664952Y-65817443D01*
X64689143Y-65761805D01*
X64689143Y-65622710D01*
X64664952Y-65567071D01*
X64640762Y-65539252D01*
X64592381Y-65511433D01*
X64495619Y-65511433D01*
X64447238Y-65539252D01*
X64423047Y-65567071D01*
X64398857Y-65622710D01*
D16*
X64213800Y-64009810D02*
X63952543Y-64009810D01*
X64083171Y-64009810D02*
X64083171Y-63501810D01*
X64039628Y-63574381D01*
X63996086Y-63622762D01*
X63952543Y-63646952D01*
X64605686Y-63671143D02*
X64605686Y-64009810D01*
X64409743Y-63671143D02*
X64409743Y-63937238D01*
X64431515Y-63985619D01*
X64475057Y-64009810D01*
X64540372Y-64009810D01*
X64583915Y-63985619D01*
X64605686Y-63961429D01*
D15*
X64215333Y-61627443D02*
X64191143Y-61655262D01*
X64118571Y-61683081D01*
X64070190Y-61683081D01*
X63997619Y-61655262D01*
X63949238Y-61599624D01*
X63925047Y-61543986D01*
X63900857Y-61432710D01*
X63900857Y-61349252D01*
X63925047Y-61237976D01*
X63949238Y-61182338D01*
X63997619Y-61126700D01*
X64070190Y-61098881D01*
X64118571Y-61098881D01*
X64191143Y-61126700D01*
X64215333Y-61154519D01*
X64384666Y-61098881D02*
X64723333Y-61098881D01*
X64505619Y-61683081D01*
D16*
X64223800Y-59819810D02*
X63962543Y-59819810D01*
X64093171Y-59819810D02*
X64093171Y-59311810D01*
X64049628Y-59384381D01*
X64006086Y-59432762D01*
X63962543Y-59456952D01*
X64615686Y-59481143D02*
X64615686Y-59819810D01*
X64419743Y-59481143D02*
X64419743Y-59747238D01*
X64441515Y-59795619D01*
X64485057Y-59819810D01*
X64550372Y-59819810D01*
X64593915Y-59795619D01*
X64615686Y-59771429D01*
D15*
X43555333Y-39689843D02*
X43531143Y-39717662D01*
X43458571Y-39745481D01*
X43410190Y-39745481D01*
X43337619Y-39717662D01*
X43289238Y-39662024D01*
X43265047Y-39606386D01*
X43240857Y-39495110D01*
X43240857Y-39411652D01*
X43265047Y-39300376D01*
X43289238Y-39244738D01*
X43337619Y-39189100D01*
X43410190Y-39161281D01*
X43458571Y-39161281D01*
X43531143Y-39189100D01*
X43555333Y-39216919D01*
X43845619Y-39411652D02*
X43797238Y-39383833D01*
X43773047Y-39356014D01*
X43748857Y-39300376D01*
X43748857Y-39272557D01*
X43773047Y-39216919D01*
X43797238Y-39189100D01*
X43845619Y-39161281D01*
X43942381Y-39161281D01*
X43990762Y-39189100D01*
X44014952Y-39216919D01*
X44039143Y-39272557D01*
X44039143Y-39300376D01*
X44014952Y-39356014D01*
X43990762Y-39383833D01*
X43942381Y-39411652D01*
X43845619Y-39411652D01*
X43797238Y-39439471D01*
X43773047Y-39467290D01*
X43748857Y-39522929D01*
X43748857Y-39634205D01*
X43773047Y-39689843D01*
X43797238Y-39717662D01*
X43845619Y-39745481D01*
X43942381Y-39745481D01*
X43990762Y-39717662D01*
X44014952Y-39689843D01*
X44039143Y-39634205D01*
X44039143Y-39522929D01*
X44014952Y-39467290D01*
X43990762Y-39439471D01*
X43942381Y-39411652D01*
D16*
X43563800Y-41539810D02*
X43302543Y-41539810D01*
X43433171Y-41539810D02*
X43433171Y-41031810D01*
X43389628Y-41104381D01*
X43346086Y-41152762D01*
X43302543Y-41176952D01*
X43955686Y-41201143D02*
X43955686Y-41539810D01*
X43759743Y-41201143D02*
X43759743Y-41467238D01*
X43781515Y-41515619D01*
X43825057Y-41539810D01*
X43890372Y-41539810D01*
X43933915Y-41515619D01*
X43955686Y-41491429D01*
D15*
X64608643Y-56006572D02*
X64636462Y-56030762D01*
X64664281Y-56103334D01*
X64664281Y-56151715D01*
X64636462Y-56224286D01*
X64580824Y-56272667D01*
X64525186Y-56296858D01*
X64413910Y-56321048D01*
X64330452Y-56321048D01*
X64219176Y-56296858D01*
X64163538Y-56272667D01*
X64107900Y-56224286D01*
X64080081Y-56151715D01*
X64080081Y-56103334D01*
X64107900Y-56030762D01*
X64135719Y-56006572D01*
X64664281Y-55522762D02*
X64664281Y-55813048D01*
X64664281Y-55667905D02*
X64080081Y-55667905D01*
X64163538Y-55716286D01*
X64219176Y-55764667D01*
X64246995Y-55813048D01*
X64080081Y-55353429D02*
X64080081Y-55038952D01*
X64302633Y-55208286D01*
X64302633Y-55135714D01*
X64330452Y-55087333D01*
X64358271Y-55063143D01*
X64413910Y-55038952D01*
X64553005Y-55038952D01*
X64608643Y-55063143D01*
X64636462Y-55087333D01*
X64664281Y-55135714D01*
X64664281Y-55280857D01*
X64636462Y-55329238D01*
X64608643Y-55353429D01*
D16*
X64531810Y-54665171D02*
X64531810Y-54621628D01*
X64556000Y-54578085D01*
X64580190Y-54556314D01*
X64628571Y-54534543D01*
X64725333Y-54512771D01*
X64846286Y-54512771D01*
X64943048Y-54534543D01*
X64991429Y-54556314D01*
X65015619Y-54578085D01*
X65039810Y-54621628D01*
X65039810Y-54665171D01*
X65015619Y-54708714D01*
X64991429Y-54730485D01*
X64943048Y-54752257D01*
X64846286Y-54774028D01*
X64725333Y-54774028D01*
X64628571Y-54752257D01*
X64580190Y-54730485D01*
X64556000Y-54708714D01*
X64531810Y-54665171D01*
X64991429Y-54316828D02*
X65015619Y-54295056D01*
X65039810Y-54316828D01*
X65015619Y-54338599D01*
X64991429Y-54316828D01*
X65039810Y-54316828D01*
X65039810Y-53859628D02*
X65039810Y-54120885D01*
X65039810Y-53990257D02*
X64531810Y-53990257D01*
X64604381Y-54033800D01*
X64652762Y-54077342D01*
X64676952Y-54120885D01*
X64701143Y-53467742D02*
X65039810Y-53467742D01*
X64701143Y-53663685D02*
X64967238Y-53663685D01*
X65015619Y-53641913D01*
X65039810Y-53598371D01*
X65039810Y-53533056D01*
X65015619Y-53489513D01*
X64991429Y-53467742D01*
D15*
X69597443Y-51016572D02*
X69625262Y-51040762D01*
X69653081Y-51113334D01*
X69653081Y-51161715D01*
X69625262Y-51234286D01*
X69569624Y-51282667D01*
X69513986Y-51306858D01*
X69402710Y-51331048D01*
X69319252Y-51331048D01*
X69207976Y-51306858D01*
X69152338Y-51282667D01*
X69096700Y-51234286D01*
X69068881Y-51161715D01*
X69068881Y-51113334D01*
X69096700Y-51040762D01*
X69124519Y-51016572D01*
X69124519Y-50823048D02*
X69096700Y-50798858D01*
X69068881Y-50750477D01*
X69068881Y-50629524D01*
X69096700Y-50581143D01*
X69124519Y-50556953D01*
X69180157Y-50532762D01*
X69235795Y-50532762D01*
X69319252Y-50556953D01*
X69653081Y-50847239D01*
X69653081Y-50532762D01*
X69068881Y-50218286D02*
X69068881Y-50169905D01*
X69096700Y-50121524D01*
X69124519Y-50097333D01*
X69180157Y-50073143D01*
X69291433Y-50048952D01*
X69430529Y-50048952D01*
X69541805Y-50073143D01*
X69597443Y-50097333D01*
X69625262Y-50121524D01*
X69653081Y-50169905D01*
X69653081Y-50218286D01*
X69625262Y-50266667D01*
X69597443Y-50290857D01*
X69541805Y-50315048D01*
X69430529Y-50339238D01*
X69291433Y-50339238D01*
X69180157Y-50315048D01*
X69124519Y-50290857D01*
X69096700Y-50266667D01*
X69068881Y-50218286D01*
D16*
X67789810Y-50983914D02*
X67789810Y-51245171D01*
X67789810Y-51114543D02*
X67281810Y-51114543D01*
X67354381Y-51158086D01*
X67402762Y-51201628D01*
X67426952Y-51245171D01*
X67281810Y-50700885D02*
X67281810Y-50657342D01*
X67306000Y-50613799D01*
X67330190Y-50592028D01*
X67378571Y-50570257D01*
X67475333Y-50548485D01*
X67596286Y-50548485D01*
X67693048Y-50570257D01*
X67741429Y-50592028D01*
X67765619Y-50613799D01*
X67789810Y-50657342D01*
X67789810Y-50700885D01*
X67765619Y-50744428D01*
X67741429Y-50766199D01*
X67693048Y-50787971D01*
X67596286Y-50809742D01*
X67475333Y-50809742D01*
X67378571Y-50787971D01*
X67330190Y-50766199D01*
X67306000Y-50744428D01*
X67281810Y-50700885D01*
X67451143Y-50352542D02*
X67789810Y-50352542D01*
X67499524Y-50352542D02*
X67475333Y-50330770D01*
X67451143Y-50287228D01*
X67451143Y-50221913D01*
X67475333Y-50178370D01*
X67523714Y-50156599D01*
X67789810Y-50156599D01*
D15*
X66847443Y-52726572D02*
X66875262Y-52750762D01*
X66903081Y-52823334D01*
X66903081Y-52871715D01*
X66875262Y-52944286D01*
X66819624Y-52992667D01*
X66763986Y-53016858D01*
X66652710Y-53041048D01*
X66569252Y-53041048D01*
X66457976Y-53016858D01*
X66402338Y-52992667D01*
X66346700Y-52944286D01*
X66318881Y-52871715D01*
X66318881Y-52823334D01*
X66346700Y-52750762D01*
X66374519Y-52726572D01*
X66374519Y-52533048D02*
X66346700Y-52508858D01*
X66318881Y-52460477D01*
X66318881Y-52339524D01*
X66346700Y-52291143D01*
X66374519Y-52266953D01*
X66430157Y-52242762D01*
X66485795Y-52242762D01*
X66569252Y-52266953D01*
X66903081Y-52557239D01*
X66903081Y-52242762D01*
X66374519Y-52049238D02*
X66346700Y-52025048D01*
X66318881Y-51976667D01*
X66318881Y-51855714D01*
X66346700Y-51807333D01*
X66374519Y-51783143D01*
X66430157Y-51758952D01*
X66485795Y-51758952D01*
X66569252Y-51783143D01*
X66903081Y-52073429D01*
X66903081Y-51758952D01*
D16*
X64531810Y-52955171D02*
X64531810Y-52911628D01*
X64556000Y-52868085D01*
X64580190Y-52846314D01*
X64628571Y-52824543D01*
X64725333Y-52802771D01*
X64846286Y-52802771D01*
X64943048Y-52824543D01*
X64991429Y-52846314D01*
X65015619Y-52868085D01*
X65039810Y-52911628D01*
X65039810Y-52955171D01*
X65015619Y-52998714D01*
X64991429Y-53020485D01*
X64943048Y-53042257D01*
X64846286Y-53064028D01*
X64725333Y-53064028D01*
X64628571Y-53042257D01*
X64580190Y-53020485D01*
X64556000Y-52998714D01*
X64531810Y-52955171D01*
X64991429Y-52606828D02*
X65015619Y-52585056D01*
X65039810Y-52606828D01*
X65015619Y-52628599D01*
X64991429Y-52606828D01*
X65039810Y-52606828D01*
X65039810Y-52149628D02*
X65039810Y-52410885D01*
X65039810Y-52280257D02*
X64531810Y-52280257D01*
X64604381Y-52323800D01*
X64652762Y-52367342D01*
X64676952Y-52410885D01*
X64701143Y-51757742D02*
X65039810Y-51757742D01*
X64701143Y-51953685D02*
X64967238Y-51953685D01*
X65015619Y-51931913D01*
X65039810Y-51888371D01*
X65039810Y-51823056D01*
X65015619Y-51779513D01*
X64991429Y-51757742D01*
D15*
X65698643Y-47526572D02*
X65726462Y-47550762D01*
X65754281Y-47623334D01*
X65754281Y-47671715D01*
X65726462Y-47744286D01*
X65670824Y-47792667D01*
X65615186Y-47816858D01*
X65503910Y-47841048D01*
X65420452Y-47841048D01*
X65309176Y-47816858D01*
X65253538Y-47792667D01*
X65197900Y-47744286D01*
X65170081Y-47671715D01*
X65170081Y-47623334D01*
X65197900Y-47550762D01*
X65225719Y-47526572D01*
X65225719Y-47333048D02*
X65197900Y-47308858D01*
X65170081Y-47260477D01*
X65170081Y-47139524D01*
X65197900Y-47091143D01*
X65225719Y-47066953D01*
X65281357Y-47042762D01*
X65336995Y-47042762D01*
X65420452Y-47066953D01*
X65754281Y-47357239D01*
X65754281Y-47042762D01*
X65170081Y-46873429D02*
X65170081Y-46558952D01*
X65392633Y-46728286D01*
X65392633Y-46655714D01*
X65420452Y-46607333D01*
X65448271Y-46583143D01*
X65503910Y-46558952D01*
X65643005Y-46558952D01*
X65698643Y-46583143D01*
X65726462Y-46607333D01*
X65754281Y-46655714D01*
X65754281Y-46800857D01*
X65726462Y-46849238D01*
X65698643Y-46873429D01*
D16*
X64531810Y-49535171D02*
X64531810Y-49491628D01*
X64556000Y-49448085D01*
X64580190Y-49426314D01*
X64628571Y-49404543D01*
X64725333Y-49382771D01*
X64846286Y-49382771D01*
X64943048Y-49404543D01*
X64991429Y-49426314D01*
X65015619Y-49448085D01*
X65039810Y-49491628D01*
X65039810Y-49535171D01*
X65015619Y-49578714D01*
X64991429Y-49600485D01*
X64943048Y-49622257D01*
X64846286Y-49644028D01*
X64725333Y-49644028D01*
X64628571Y-49622257D01*
X64580190Y-49600485D01*
X64556000Y-49578714D01*
X64531810Y-49535171D01*
X64991429Y-49186828D02*
X65015619Y-49165056D01*
X65039810Y-49186828D01*
X65015619Y-49208599D01*
X64991429Y-49186828D01*
X65039810Y-49186828D01*
X65039810Y-48729628D02*
X65039810Y-48990885D01*
X65039810Y-48860257D02*
X64531810Y-48860257D01*
X64604381Y-48903800D01*
X64652762Y-48947342D01*
X64676952Y-48990885D01*
X64701143Y-48337742D02*
X65039810Y-48337742D01*
X64701143Y-48533685D02*
X64967238Y-48533685D01*
X65015619Y-48511913D01*
X65039810Y-48468371D01*
X65039810Y-48403056D01*
X65015619Y-48359513D01*
X64991429Y-48337742D01*
D15*
X49753428Y-37729843D02*
X49729238Y-37757662D01*
X49656666Y-37785481D01*
X49608285Y-37785481D01*
X49535714Y-37757662D01*
X49487333Y-37702024D01*
X49463142Y-37646386D01*
X49438952Y-37535110D01*
X49438952Y-37451652D01*
X49463142Y-37340376D01*
X49487333Y-37284738D01*
X49535714Y-37229100D01*
X49608285Y-37201281D01*
X49656666Y-37201281D01*
X49729238Y-37229100D01*
X49753428Y-37256919D01*
X49946952Y-37256919D02*
X49971142Y-37229100D01*
X50019523Y-37201281D01*
X50140476Y-37201281D01*
X50188857Y-37229100D01*
X50213047Y-37256919D01*
X50237238Y-37312557D01*
X50237238Y-37368195D01*
X50213047Y-37451652D01*
X49922761Y-37785481D01*
X50237238Y-37785481D01*
X50406571Y-37201281D02*
X50745238Y-37201281D01*
X50527524Y-37785481D01*
D16*
X49764314Y-39071810D02*
X49546600Y-39071810D01*
X49524829Y-39313714D01*
X49546600Y-39289524D01*
X49590143Y-39265333D01*
X49699000Y-39265333D01*
X49742543Y-39289524D01*
X49764314Y-39313714D01*
X49786086Y-39362095D01*
X49786086Y-39483048D01*
X49764314Y-39531429D01*
X49742543Y-39555619D01*
X49699000Y-39579810D01*
X49590143Y-39579810D01*
X49546600Y-39555619D01*
X49524829Y-39531429D01*
X50069115Y-39071810D02*
X50112658Y-39071810D01*
X50156201Y-39096000D01*
X50177972Y-39120190D01*
X50199743Y-39168571D01*
X50221515Y-39265333D01*
X50221515Y-39386286D01*
X50199743Y-39483048D01*
X50177972Y-39531429D01*
X50156201Y-39555619D01*
X50112658Y-39579810D01*
X50069115Y-39579810D01*
X50025572Y-39555619D01*
X50003801Y-39531429D01*
X49982029Y-39483048D01*
X49960258Y-39386286D01*
X49960258Y-39265333D01*
X49982029Y-39168571D01*
X50003801Y-39120190D01*
X50025572Y-39096000D01*
X50069115Y-39071810D01*
X50417458Y-39241143D02*
X50417458Y-39749143D01*
X50417458Y-39265333D02*
X50461001Y-39241143D01*
X50548087Y-39241143D01*
X50591630Y-39265333D01*
X50613401Y-39289524D01*
X50635172Y-39337905D01*
X50635172Y-39483048D01*
X50613401Y-39531429D01*
X50591630Y-39555619D01*
X50548087Y-39579810D01*
X50461001Y-39579810D01*
X50417458Y-39555619D01*
D15*
X56793428Y-38798643D02*
X56769238Y-38826462D01*
X56696666Y-38854281D01*
X56648285Y-38854281D01*
X56575714Y-38826462D01*
X56527333Y-38770824D01*
X56503142Y-38715186D01*
X56478952Y-38603910D01*
X56478952Y-38520452D01*
X56503142Y-38409176D01*
X56527333Y-38353538D01*
X56575714Y-38297900D01*
X56648285Y-38270081D01*
X56696666Y-38270081D01*
X56769238Y-38297900D01*
X56793428Y-38325719D01*
X56962761Y-38270081D02*
X57277238Y-38270081D01*
X57107904Y-38492633D01*
X57180476Y-38492633D01*
X57228857Y-38520452D01*
X57253047Y-38548271D01*
X57277238Y-38603910D01*
X57277238Y-38743005D01*
X57253047Y-38798643D01*
X57228857Y-38826462D01*
X57180476Y-38854281D01*
X57035333Y-38854281D01*
X56986952Y-38826462D01*
X56962761Y-38798643D01*
X57591714Y-38270081D02*
X57640095Y-38270081D01*
X57688476Y-38297900D01*
X57712667Y-38325719D01*
X57736857Y-38381357D01*
X57761048Y-38492633D01*
X57761048Y-38631729D01*
X57736857Y-38743005D01*
X57712667Y-38798643D01*
X57688476Y-38826462D01*
X57640095Y-38854281D01*
X57591714Y-38854281D01*
X57543333Y-38826462D01*
X57519143Y-38798643D01*
X57494952Y-38743005D01*
X57470762Y-38631729D01*
X57470762Y-38492633D01*
X57494952Y-38381357D01*
X57519143Y-38325719D01*
X57543333Y-38297900D01*
X57591714Y-38270081D01*
D16*
X55124314Y-39081810D02*
X54906600Y-39081810D01*
X54884829Y-39323714D01*
X54906600Y-39299524D01*
X54950143Y-39275333D01*
X55059000Y-39275333D01*
X55102543Y-39299524D01*
X55124314Y-39323714D01*
X55146086Y-39372095D01*
X55146086Y-39493048D01*
X55124314Y-39541429D01*
X55102543Y-39565619D01*
X55059000Y-39589810D01*
X54950143Y-39589810D01*
X54906600Y-39565619D01*
X54884829Y-39541429D01*
X55429115Y-39081810D02*
X55472658Y-39081810D01*
X55516201Y-39106000D01*
X55537972Y-39130190D01*
X55559743Y-39178571D01*
X55581515Y-39275333D01*
X55581515Y-39396286D01*
X55559743Y-39493048D01*
X55537972Y-39541429D01*
X55516201Y-39565619D01*
X55472658Y-39589810D01*
X55429115Y-39589810D01*
X55385572Y-39565619D01*
X55363801Y-39541429D01*
X55342029Y-39493048D01*
X55320258Y-39396286D01*
X55320258Y-39275333D01*
X55342029Y-39178571D01*
X55363801Y-39130190D01*
X55385572Y-39106000D01*
X55429115Y-39081810D01*
X55777458Y-39251143D02*
X55777458Y-39759143D01*
X55777458Y-39275333D02*
X55821001Y-39251143D01*
X55908087Y-39251143D01*
X55951630Y-39275333D01*
X55973401Y-39299524D01*
X55995172Y-39347905D01*
X55995172Y-39493048D01*
X55973401Y-39541429D01*
X55951630Y-39565619D01*
X55908087Y-39589810D01*
X55821001Y-39589810D01*
X55777458Y-39565619D01*
D14*
X21566667Y-39662381D02*
X21566667Y-40376667D01*
X21519047Y-40519524D01*
X21423809Y-40614762D01*
X21280952Y-40662381D01*
X21185714Y-40662381D01*
X22566667Y-40662381D02*
X21995238Y-40662381D01*
X22280952Y-40662381D02*
X22280952Y-39662381D01*
X22185714Y-39805238D01*
X22090476Y-39900476D01*
X21995238Y-39948095D01*
D17*
X46812000Y-92285429D02*
X46812000Y-93374000D01*
X46739428Y-93591714D01*
X46594285Y-93736857D01*
X46376571Y-93809429D01*
X46231428Y-93809429D01*
X47465143Y-92430571D02*
X47537714Y-92358000D01*
X47682857Y-92285429D01*
X48045714Y-92285429D01*
X48190857Y-92358000D01*
X48263428Y-92430571D01*
X48336000Y-92575714D01*
X48336000Y-92720857D01*
X48263428Y-92938571D01*
X47392571Y-93809429D01*
X48336000Y-93809429D01*
X45727143Y-99526857D02*
X45944857Y-99599429D01*
X46307714Y-99599429D01*
X46452857Y-99526857D01*
X46525428Y-99454286D01*
X46598000Y-99309143D01*
X46598000Y-99164000D01*
X46525428Y-99018857D01*
X46452857Y-98946286D01*
X46307714Y-98873714D01*
X46017428Y-98801143D01*
X45872286Y-98728571D01*
X45799714Y-98656000D01*
X45727143Y-98510857D01*
X45727143Y-98365714D01*
X45799714Y-98220571D01*
X45872286Y-98148000D01*
X46017428Y-98075429D01*
X46380286Y-98075429D01*
X46598000Y-98148000D01*
X47251143Y-99599429D02*
X47251143Y-98075429D01*
X47759143Y-99164000D01*
X48267143Y-98075429D01*
X48267143Y-99599429D01*
X48920286Y-99164000D02*
X49646000Y-99164000D01*
X48775143Y-99599429D02*
X49283143Y-98075429D01*
X49791143Y-99599429D01*
X49936286Y-99744571D02*
X51097429Y-99744571D01*
X51460286Y-99599429D02*
X51460286Y-98075429D01*
X52040858Y-98075429D01*
X52186000Y-98148000D01*
X52258572Y-98220571D01*
X52331143Y-98365714D01*
X52331143Y-98583429D01*
X52258572Y-98728571D01*
X52186000Y-98801143D01*
X52040858Y-98873714D01*
X51460286Y-98873714D01*
X53855143Y-99454286D02*
X53782572Y-99526857D01*
X53564858Y-99599429D01*
X53419715Y-99599429D01*
X53202000Y-99526857D01*
X53056858Y-99381714D01*
X52984286Y-99236571D01*
X52911715Y-98946286D01*
X52911715Y-98728571D01*
X52984286Y-98438286D01*
X53056858Y-98293143D01*
X53202000Y-98148000D01*
X53419715Y-98075429D01*
X53564858Y-98075429D01*
X53782572Y-98148000D01*
X53855143Y-98220571D01*
X55234000Y-99599429D02*
X54508286Y-99599429D01*
X54508286Y-98075429D01*
X55742000Y-99599429D02*
X55742000Y-98075429D01*
X56612857Y-99599429D02*
X55959714Y-98728571D01*
X56612857Y-98075429D02*
X55742000Y-98946286D01*
X66432000Y-92165429D02*
X66432000Y-93254000D01*
X66359428Y-93471714D01*
X66214285Y-93616857D01*
X65996571Y-93689429D01*
X65851428Y-93689429D01*
X67012571Y-92165429D02*
X67956000Y-92165429D01*
X67448000Y-92746000D01*
X67665714Y-92746000D01*
X67810857Y-92818571D01*
X67883428Y-92891143D01*
X67956000Y-93036286D01*
X67956000Y-93399143D01*
X67883428Y-93544286D01*
X67810857Y-93616857D01*
X67665714Y-93689429D01*
X67230286Y-93689429D01*
X67085143Y-93616857D01*
X67012571Y-93544286D01*
X58998000Y-99556857D02*
X59215714Y-99629429D01*
X59578571Y-99629429D01*
X59723714Y-99556857D01*
X59796285Y-99484286D01*
X59868857Y-99339143D01*
X59868857Y-99194000D01*
X59796285Y-99048857D01*
X59723714Y-98976286D01*
X59578571Y-98903714D01*
X59288285Y-98831143D01*
X59143143Y-98758571D01*
X59070571Y-98686000D01*
X58998000Y-98540857D01*
X58998000Y-98395714D01*
X59070571Y-98250571D01*
X59143143Y-98178000D01*
X59288285Y-98105429D01*
X59651143Y-98105429D01*
X59868857Y-98178000D01*
X60522000Y-99629429D02*
X60522000Y-98105429D01*
X61030000Y-99194000D01*
X61538000Y-98105429D01*
X61538000Y-99629429D01*
X62191143Y-99194000D02*
X62916857Y-99194000D01*
X62046000Y-99629429D02*
X62554000Y-98105429D01*
X63062000Y-99629429D01*
X63207143Y-99774571D02*
X64368286Y-99774571D01*
X64731143Y-99629429D02*
X64731143Y-98105429D01*
X65311715Y-98105429D01*
X65456857Y-98178000D01*
X65529429Y-98250571D01*
X65602000Y-98395714D01*
X65602000Y-98613429D01*
X65529429Y-98758571D01*
X65456857Y-98831143D01*
X65311715Y-98903714D01*
X64731143Y-98903714D01*
X67126000Y-99484286D02*
X67053429Y-99556857D01*
X66835715Y-99629429D01*
X66690572Y-99629429D01*
X66472857Y-99556857D01*
X66327715Y-99411714D01*
X66255143Y-99266571D01*
X66182572Y-98976286D01*
X66182572Y-98758571D01*
X66255143Y-98468286D01*
X66327715Y-98323143D01*
X66472857Y-98178000D01*
X66690572Y-98105429D01*
X66835715Y-98105429D01*
X67053429Y-98178000D01*
X67126000Y-98250571D01*
X68504857Y-99629429D02*
X67779143Y-99629429D01*
X67779143Y-98105429D01*
X69012857Y-99629429D02*
X69012857Y-98105429D01*
X69883714Y-99629429D02*
X69230571Y-98758571D01*
X69883714Y-98105429D02*
X69012857Y-98976286D01*
X70174000Y-99774571D02*
X71335143Y-99774571D01*
X71625429Y-99556857D02*
X71843143Y-99629429D01*
X72206000Y-99629429D01*
X72351143Y-99556857D01*
X72423714Y-99484286D01*
X72496286Y-99339143D01*
X72496286Y-99194000D01*
X72423714Y-99048857D01*
X72351143Y-98976286D01*
X72206000Y-98903714D01*
X71915714Y-98831143D01*
X71770572Y-98758571D01*
X71698000Y-98686000D01*
X71625429Y-98540857D01*
X71625429Y-98395714D01*
X71698000Y-98250571D01*
X71770572Y-98178000D01*
X71915714Y-98105429D01*
X72278572Y-98105429D01*
X72496286Y-98178000D01*
X73149429Y-99629429D02*
X73149429Y-98105429D01*
D14*
X97580381Y-35070053D02*
X98294667Y-35070053D01*
X98437524Y-35117673D01*
X98532762Y-35212911D01*
X98580381Y-35355768D01*
X98580381Y-35451006D01*
X97913714Y-34165291D02*
X98580381Y-34165291D01*
X97532762Y-34403387D02*
X98247048Y-34641482D01*
X98247048Y-34022434D01*
X50976667Y-31392381D02*
X50976667Y-32106667D01*
X50929047Y-32249524D01*
X50833809Y-32344762D01*
X50690952Y-32392381D01*
X50595714Y-32392381D01*
X51929048Y-31392381D02*
X51452857Y-31392381D01*
X51405238Y-31868571D01*
X51452857Y-31820952D01*
X51548095Y-31773333D01*
X51786191Y-31773333D01*
X51881429Y-31820952D01*
X51929048Y-31868571D01*
X51976667Y-31963810D01*
X51976667Y-32201905D01*
X51929048Y-32297143D01*
X51881429Y-32344762D01*
X51786191Y-32392381D01*
X51548095Y-32392381D01*
X51452857Y-32344762D01*
X51405238Y-32297143D01*
D15*
X63244281Y-50714667D02*
X62966090Y-50884000D01*
X63244281Y-51004953D02*
X62660081Y-51004953D01*
X62660081Y-50811429D01*
X62687900Y-50763048D01*
X62715719Y-50738857D01*
X62771357Y-50714667D01*
X62854814Y-50714667D01*
X62910452Y-50738857D01*
X62938271Y-50763048D01*
X62966090Y-50811429D01*
X62966090Y-51004953D01*
X63244281Y-50230857D02*
X63244281Y-50521143D01*
X63244281Y-50376000D02*
X62660081Y-50376000D01*
X62743538Y-50424381D01*
X62799176Y-50472762D01*
X62826995Y-50521143D01*
D16*
X64531810Y-51016572D02*
X64531810Y-51234286D01*
X64773714Y-51256057D01*
X64749524Y-51234286D01*
X64725333Y-51190743D01*
X64725333Y-51081886D01*
X64749524Y-51038343D01*
X64773714Y-51016572D01*
X64822095Y-50994800D01*
X64943048Y-50994800D01*
X64991429Y-51016572D01*
X65015619Y-51038343D01*
X65039810Y-51081886D01*
X65039810Y-51190743D01*
X65015619Y-51234286D01*
X64991429Y-51256057D01*
X64531810Y-50711771D02*
X64531810Y-50668228D01*
X64556000Y-50624685D01*
X64580190Y-50602914D01*
X64628571Y-50581143D01*
X64725333Y-50559371D01*
X64846286Y-50559371D01*
X64943048Y-50581143D01*
X64991429Y-50602914D01*
X65015619Y-50624685D01*
X65039810Y-50668228D01*
X65039810Y-50711771D01*
X65015619Y-50755314D01*
X64991429Y-50777085D01*
X64943048Y-50798857D01*
X64846286Y-50820628D01*
X64725333Y-50820628D01*
X64628571Y-50798857D01*
X64580190Y-50777085D01*
X64556000Y-50755314D01*
X64531810Y-50711771D01*
X64531810Y-50276342D02*
X64531810Y-50232799D01*
X64556000Y-50189256D01*
X64580190Y-50167485D01*
X64628571Y-50145714D01*
X64725333Y-50123942D01*
X64846286Y-50123942D01*
X64943048Y-50145714D01*
X64991429Y-50167485D01*
X65015619Y-50189256D01*
X65039810Y-50232799D01*
X65039810Y-50276342D01*
X65015619Y-50319885D01*
X64991429Y-50341656D01*
X64943048Y-50363428D01*
X64846286Y-50385199D01*
X64725333Y-50385199D01*
X64628571Y-50363428D01*
X64580190Y-50341656D01*
X64556000Y-50319885D01*
X64531810Y-50276342D01*
D15*
X25395481Y-79374667D02*
X25117290Y-79544000D01*
X25395481Y-79664953D02*
X24811281Y-79664953D01*
X24811281Y-79471429D01*
X24839100Y-79423048D01*
X24866919Y-79398857D01*
X24922557Y-79374667D01*
X25006014Y-79374667D01*
X25061652Y-79398857D01*
X25089471Y-79423048D01*
X25117290Y-79471429D01*
X25117290Y-79664953D01*
X24866919Y-79181143D02*
X24839100Y-79156953D01*
X24811281Y-79108572D01*
X24811281Y-78987619D01*
X24839100Y-78939238D01*
X24866919Y-78915048D01*
X24922557Y-78890857D01*
X24978195Y-78890857D01*
X25061652Y-78915048D01*
X25395481Y-79205334D01*
X25395481Y-78890857D01*
D16*
X26730190Y-79638343D02*
X26706000Y-79616572D01*
X26681810Y-79573029D01*
X26681810Y-79464172D01*
X26706000Y-79420629D01*
X26730190Y-79398858D01*
X26778571Y-79377086D01*
X26826952Y-79377086D01*
X26899524Y-79398858D01*
X27189810Y-79660115D01*
X27189810Y-79377086D01*
X26730190Y-79202914D02*
X26706000Y-79181143D01*
X26681810Y-79137600D01*
X26681810Y-79028743D01*
X26706000Y-78985200D01*
X26730190Y-78963429D01*
X26778571Y-78941657D01*
X26826952Y-78941657D01*
X26899524Y-78963429D01*
X27189810Y-79224686D01*
X27189810Y-78941657D01*
D15*
X25395481Y-88264667D02*
X25117290Y-88434000D01*
X25395481Y-88554953D02*
X24811281Y-88554953D01*
X24811281Y-88361429D01*
X24839100Y-88313048D01*
X24866919Y-88288857D01*
X24922557Y-88264667D01*
X25006014Y-88264667D01*
X25061652Y-88288857D01*
X25089471Y-88313048D01*
X25117290Y-88361429D01*
X25117290Y-88554953D01*
X24811281Y-88095334D02*
X24811281Y-87780857D01*
X25033833Y-87950191D01*
X25033833Y-87877619D01*
X25061652Y-87829238D01*
X25089471Y-87805048D01*
X25145110Y-87780857D01*
X25284205Y-87780857D01*
X25339843Y-87805048D01*
X25367662Y-87829238D01*
X25395481Y-87877619D01*
X25395481Y-88022762D01*
X25367662Y-88071143D01*
X25339843Y-88095334D01*
D16*
X26730190Y-88528343D02*
X26706000Y-88506572D01*
X26681810Y-88463029D01*
X26681810Y-88354172D01*
X26706000Y-88310629D01*
X26730190Y-88288858D01*
X26778571Y-88267086D01*
X26826952Y-88267086D01*
X26899524Y-88288858D01*
X27189810Y-88550115D01*
X27189810Y-88267086D01*
X26730190Y-88092914D02*
X26706000Y-88071143D01*
X26681810Y-88027600D01*
X26681810Y-87918743D01*
X26706000Y-87875200D01*
X26730190Y-87853429D01*
X26778571Y-87831657D01*
X26826952Y-87831657D01*
X26899524Y-87853429D01*
X27189810Y-88114686D01*
X27189810Y-87831657D01*
D15*
X25395481Y-77654667D02*
X25117290Y-77824000D01*
X25395481Y-77944953D02*
X24811281Y-77944953D01*
X24811281Y-77751429D01*
X24839100Y-77703048D01*
X24866919Y-77678857D01*
X24922557Y-77654667D01*
X25006014Y-77654667D01*
X25061652Y-77678857D01*
X25089471Y-77703048D01*
X25117290Y-77751429D01*
X25117290Y-77944953D01*
X25006014Y-77219238D02*
X25395481Y-77219238D01*
X24783462Y-77340191D02*
X25200748Y-77461143D01*
X25200748Y-77146667D01*
D16*
X26730190Y-77918343D02*
X26706000Y-77896572D01*
X26681810Y-77853029D01*
X26681810Y-77744172D01*
X26706000Y-77700629D01*
X26730190Y-77678858D01*
X26778571Y-77657086D01*
X26826952Y-77657086D01*
X26899524Y-77678858D01*
X27189810Y-77940115D01*
X27189810Y-77657086D01*
X26730190Y-77482914D02*
X26706000Y-77461143D01*
X26681810Y-77417600D01*
X26681810Y-77308743D01*
X26706000Y-77265200D01*
X26730190Y-77243429D01*
X26778571Y-77221657D01*
X26826952Y-77221657D01*
X26899524Y-77243429D01*
X27189810Y-77504686D01*
X27189810Y-77221657D01*
D15*
X25395481Y-86554667D02*
X25117290Y-86724000D01*
X25395481Y-86844953D02*
X24811281Y-86844953D01*
X24811281Y-86651429D01*
X24839100Y-86603048D01*
X24866919Y-86578857D01*
X24922557Y-86554667D01*
X25006014Y-86554667D01*
X25061652Y-86578857D01*
X25089471Y-86603048D01*
X25117290Y-86651429D01*
X25117290Y-86844953D01*
X24811281Y-86095048D02*
X24811281Y-86336953D01*
X25089471Y-86361143D01*
X25061652Y-86336953D01*
X25033833Y-86288572D01*
X25033833Y-86167619D01*
X25061652Y-86119238D01*
X25089471Y-86095048D01*
X25145110Y-86070857D01*
X25284205Y-86070857D01*
X25339843Y-86095048D01*
X25367662Y-86119238D01*
X25395481Y-86167619D01*
X25395481Y-86288572D01*
X25367662Y-86336953D01*
X25339843Y-86361143D01*
D16*
X26730190Y-86818343D02*
X26706000Y-86796572D01*
X26681810Y-86753029D01*
X26681810Y-86644172D01*
X26706000Y-86600629D01*
X26730190Y-86578858D01*
X26778571Y-86557086D01*
X26826952Y-86557086D01*
X26899524Y-86578858D01*
X27189810Y-86840115D01*
X27189810Y-86557086D01*
X26730190Y-86382914D02*
X26706000Y-86361143D01*
X26681810Y-86317600D01*
X26681810Y-86208743D01*
X26706000Y-86165200D01*
X26730190Y-86143429D01*
X26778571Y-86121657D01*
X26826952Y-86121657D01*
X26899524Y-86143429D01*
X27189810Y-86404686D01*
X27189810Y-86121657D01*
D15*
X25395481Y-84844667D02*
X25117290Y-85014000D01*
X25395481Y-85134953D02*
X24811281Y-85134953D01*
X24811281Y-84941429D01*
X24839100Y-84893048D01*
X24866919Y-84868857D01*
X24922557Y-84844667D01*
X25006014Y-84844667D01*
X25061652Y-84868857D01*
X25089471Y-84893048D01*
X25117290Y-84941429D01*
X25117290Y-85134953D01*
X24811281Y-84409238D02*
X24811281Y-84506000D01*
X24839100Y-84554381D01*
X24866919Y-84578572D01*
X24950376Y-84626953D01*
X25061652Y-84651143D01*
X25284205Y-84651143D01*
X25339843Y-84626953D01*
X25367662Y-84602762D01*
X25395481Y-84554381D01*
X25395481Y-84457619D01*
X25367662Y-84409238D01*
X25339843Y-84385048D01*
X25284205Y-84360857D01*
X25145110Y-84360857D01*
X25089471Y-84385048D01*
X25061652Y-84409238D01*
X25033833Y-84457619D01*
X25033833Y-84554381D01*
X25061652Y-84602762D01*
X25089471Y-84626953D01*
X25145110Y-84651143D01*
D16*
X26730190Y-85108343D02*
X26706000Y-85086572D01*
X26681810Y-85043029D01*
X26681810Y-84934172D01*
X26706000Y-84890629D01*
X26730190Y-84868858D01*
X26778571Y-84847086D01*
X26826952Y-84847086D01*
X26899524Y-84868858D01*
X27189810Y-85130115D01*
X27189810Y-84847086D01*
X26730190Y-84672914D02*
X26706000Y-84651143D01*
X26681810Y-84607600D01*
X26681810Y-84498743D01*
X26706000Y-84455200D01*
X26730190Y-84433429D01*
X26778571Y-84411657D01*
X26826952Y-84411657D01*
X26899524Y-84433429D01*
X27189810Y-84694686D01*
X27189810Y-84411657D01*
D15*
X25395481Y-81084667D02*
X25117290Y-81254000D01*
X25395481Y-81374953D02*
X24811281Y-81374953D01*
X24811281Y-81181429D01*
X24839100Y-81133048D01*
X24866919Y-81108857D01*
X24922557Y-81084667D01*
X25006014Y-81084667D01*
X25061652Y-81108857D01*
X25089471Y-81133048D01*
X25117290Y-81181429D01*
X25117290Y-81374953D01*
X24811281Y-80915334D02*
X24811281Y-80576667D01*
X25395481Y-80794381D01*
D16*
X26730190Y-81348343D02*
X26706000Y-81326572D01*
X26681810Y-81283029D01*
X26681810Y-81174172D01*
X26706000Y-81130629D01*
X26730190Y-81108858D01*
X26778571Y-81087086D01*
X26826952Y-81087086D01*
X26899524Y-81108858D01*
X27189810Y-81370115D01*
X27189810Y-81087086D01*
X26730190Y-80912914D02*
X26706000Y-80891143D01*
X26681810Y-80847600D01*
X26681810Y-80738743D01*
X26706000Y-80695200D01*
X26730190Y-80673429D01*
X26778571Y-80651657D01*
X26826952Y-80651657D01*
X26899524Y-80673429D01*
X27189810Y-80934686D01*
X27189810Y-80651657D01*
D15*
X51725333Y-37785481D02*
X51556000Y-37507290D01*
X51435047Y-37785481D02*
X51435047Y-37201281D01*
X51628571Y-37201281D01*
X51676952Y-37229100D01*
X51701143Y-37256919D01*
X51725333Y-37312557D01*
X51725333Y-37396014D01*
X51701143Y-37451652D01*
X51676952Y-37479471D01*
X51628571Y-37507290D01*
X51435047Y-37507290D01*
X52015619Y-37451652D02*
X51967238Y-37423833D01*
X51943047Y-37396014D01*
X51918857Y-37340376D01*
X51918857Y-37312557D01*
X51943047Y-37256919D01*
X51967238Y-37229100D01*
X52015619Y-37201281D01*
X52112381Y-37201281D01*
X52160762Y-37229100D01*
X52184952Y-37256919D01*
X52209143Y-37312557D01*
X52209143Y-37340376D01*
X52184952Y-37396014D01*
X52160762Y-37423833D01*
X52112381Y-37451652D01*
X52015619Y-37451652D01*
X51967238Y-37479471D01*
X51943047Y-37507290D01*
X51918857Y-37562929D01*
X51918857Y-37674205D01*
X51943047Y-37729843D01*
X51967238Y-37757662D01*
X52015619Y-37785481D01*
X52112381Y-37785481D01*
X52160762Y-37757662D01*
X52184952Y-37729843D01*
X52209143Y-37674205D01*
X52209143Y-37562929D01*
X52184952Y-37507290D01*
X52160762Y-37479471D01*
X52112381Y-37451652D01*
D16*
X51755572Y-39579810D02*
X51494315Y-39579810D01*
X51624943Y-39579810D02*
X51624943Y-39071810D01*
X51581400Y-39144381D01*
X51537858Y-39192762D01*
X51494315Y-39216952D01*
X51951515Y-39579810D02*
X51951515Y-39071810D01*
X51995058Y-39386286D02*
X52125687Y-39579810D01*
X52125687Y-39241143D02*
X51951515Y-39434667D01*
D15*
X49854281Y-41714667D02*
X49576090Y-41884000D01*
X49854281Y-42004953D02*
X49270081Y-42004953D01*
X49270081Y-41811429D01*
X49297900Y-41763048D01*
X49325719Y-41738857D01*
X49381357Y-41714667D01*
X49464814Y-41714667D01*
X49520452Y-41738857D01*
X49548271Y-41763048D01*
X49576090Y-41811429D01*
X49576090Y-42004953D01*
X49854281Y-41472762D02*
X49854281Y-41376000D01*
X49826462Y-41327619D01*
X49798643Y-41303429D01*
X49715186Y-41255048D01*
X49603910Y-41230857D01*
X49381357Y-41230857D01*
X49325719Y-41255048D01*
X49297900Y-41279238D01*
X49270081Y-41327619D01*
X49270081Y-41424381D01*
X49297900Y-41472762D01*
X49325719Y-41496953D01*
X49381357Y-41521143D01*
X49520452Y-41521143D01*
X49576090Y-41496953D01*
X49603910Y-41472762D01*
X49631729Y-41424381D01*
X49631729Y-41327619D01*
X49603910Y-41279238D01*
X49576090Y-41255048D01*
X49520452Y-41230857D01*
D16*
X51689810Y-42021000D02*
X51689810Y-42282257D01*
X51689810Y-42151629D02*
X51181810Y-42151629D01*
X51254381Y-42195172D01*
X51302762Y-42238714D01*
X51326952Y-42282257D01*
X51641429Y-41825057D02*
X51665619Y-41803285D01*
X51689810Y-41825057D01*
X51665619Y-41846828D01*
X51641429Y-41825057D01*
X51689810Y-41825057D01*
X51689810Y-41585571D02*
X51689810Y-41498486D01*
X51665619Y-41454943D01*
X51641429Y-41433171D01*
X51568857Y-41389629D01*
X51472095Y-41367857D01*
X51278571Y-41367857D01*
X51230190Y-41389629D01*
X51206000Y-41411400D01*
X51181810Y-41454943D01*
X51181810Y-41542029D01*
X51206000Y-41585571D01*
X51230190Y-41607343D01*
X51278571Y-41629114D01*
X51399524Y-41629114D01*
X51447905Y-41607343D01*
X51472095Y-41585571D01*
X51496286Y-41542029D01*
X51496286Y-41454943D01*
X51472095Y-41411400D01*
X51447905Y-41389629D01*
X51399524Y-41367857D01*
X51689810Y-41171914D02*
X51181810Y-41171914D01*
X51496286Y-41128371D02*
X51689810Y-40997742D01*
X51351143Y-40997742D02*
X51544667Y-41171914D01*
D15*
X52773428Y-73283081D02*
X52604095Y-73004890D01*
X52483142Y-73283081D02*
X52483142Y-72698881D01*
X52676666Y-72698881D01*
X52725047Y-72726700D01*
X52749238Y-72754519D01*
X52773428Y-72810157D01*
X52773428Y-72893614D01*
X52749238Y-72949252D01*
X52725047Y-72977071D01*
X52676666Y-73004890D01*
X52483142Y-73004890D01*
X53257238Y-73283081D02*
X52966952Y-73283081D01*
X53112095Y-73283081D02*
X53112095Y-72698881D01*
X53063714Y-72782338D01*
X53015333Y-72837976D01*
X52966952Y-72865795D01*
X53571714Y-72698881D02*
X53620095Y-72698881D01*
X53668476Y-72726700D01*
X53692667Y-72754519D01*
X53716857Y-72810157D01*
X53741048Y-72921433D01*
X53741048Y-73060529D01*
X53716857Y-73171805D01*
X53692667Y-73227443D01*
X53668476Y-73255262D01*
X53620095Y-73283081D01*
X53571714Y-73283081D01*
X53523333Y-73255262D01*
X53499143Y-73227443D01*
X53474952Y-73171805D01*
X53450762Y-73060529D01*
X53450762Y-72921433D01*
X53474952Y-72810157D01*
X53499143Y-72754519D01*
X53523333Y-72726700D01*
X53571714Y-72698881D01*
D16*
X52751657Y-70960190D02*
X52773428Y-70936000D01*
X52816971Y-70911810D01*
X52925828Y-70911810D01*
X52969371Y-70936000D01*
X52991142Y-70960190D01*
X53012914Y-71008571D01*
X53012914Y-71056952D01*
X52991142Y-71129524D01*
X52729885Y-71419810D01*
X53012914Y-71419810D01*
X53187086Y-70960190D02*
X53208857Y-70936000D01*
X53252400Y-70911810D01*
X53361257Y-70911810D01*
X53404800Y-70936000D01*
X53426571Y-70960190D01*
X53448343Y-71008571D01*
X53448343Y-71056952D01*
X53426571Y-71129524D01*
X53165314Y-71419810D01*
X53448343Y-71419810D01*
D15*
X32074281Y-77026572D02*
X31796090Y-77195905D01*
X32074281Y-77316858D02*
X31490081Y-77316858D01*
X31490081Y-77123334D01*
X31517900Y-77074953D01*
X31545719Y-77050762D01*
X31601357Y-77026572D01*
X31684814Y-77026572D01*
X31740452Y-77050762D01*
X31768271Y-77074953D01*
X31796090Y-77123334D01*
X31796090Y-77316858D01*
X32074281Y-76542762D02*
X32074281Y-76833048D01*
X32074281Y-76687905D02*
X31490081Y-76687905D01*
X31573538Y-76736286D01*
X31629176Y-76784667D01*
X31656995Y-76833048D01*
X32074281Y-76058952D02*
X32074281Y-76349238D01*
X32074281Y-76204095D02*
X31490081Y-76204095D01*
X31573538Y-76252476D01*
X31629176Y-76300857D01*
X31656995Y-76349238D01*
D16*
X29710190Y-77038343D02*
X29686000Y-77016572D01*
X29661810Y-76973029D01*
X29661810Y-76864172D01*
X29686000Y-76820629D01*
X29710190Y-76798858D01*
X29758571Y-76777086D01*
X29806952Y-76777086D01*
X29879524Y-76798858D01*
X30169810Y-77060115D01*
X30169810Y-76777086D01*
X29710190Y-76602914D02*
X29686000Y-76581143D01*
X29661810Y-76537600D01*
X29661810Y-76428743D01*
X29686000Y-76385200D01*
X29710190Y-76363429D01*
X29758571Y-76341657D01*
X29806952Y-76341657D01*
X29879524Y-76363429D01*
X30169810Y-76624686D01*
X30169810Y-76341657D01*
D15*
X28375481Y-75296572D02*
X28097290Y-75465905D01*
X28375481Y-75586858D02*
X27791281Y-75586858D01*
X27791281Y-75393334D01*
X27819100Y-75344953D01*
X27846919Y-75320762D01*
X27902557Y-75296572D01*
X27986014Y-75296572D01*
X28041652Y-75320762D01*
X28069471Y-75344953D01*
X28097290Y-75393334D01*
X28097290Y-75586858D01*
X28375481Y-74812762D02*
X28375481Y-75103048D01*
X28375481Y-74957905D02*
X27791281Y-74957905D01*
X27874738Y-75006286D01*
X27930376Y-75054667D01*
X27958195Y-75103048D01*
X27846919Y-74619238D02*
X27819100Y-74595048D01*
X27791281Y-74546667D01*
X27791281Y-74425714D01*
X27819100Y-74377333D01*
X27846919Y-74353143D01*
X27902557Y-74328952D01*
X27958195Y-74328952D01*
X28041652Y-74353143D01*
X28375481Y-74643429D01*
X28375481Y-74328952D01*
D16*
X29710190Y-75318343D02*
X29686000Y-75296572D01*
X29661810Y-75253029D01*
X29661810Y-75144172D01*
X29686000Y-75100629D01*
X29710190Y-75078858D01*
X29758571Y-75057086D01*
X29806952Y-75057086D01*
X29879524Y-75078858D01*
X30169810Y-75340115D01*
X30169810Y-75057086D01*
X29710190Y-74882914D02*
X29686000Y-74861143D01*
X29661810Y-74817600D01*
X29661810Y-74708743D01*
X29686000Y-74665200D01*
X29710190Y-74643429D01*
X29758571Y-74621657D01*
X29806952Y-74621657D01*
X29879524Y-74643429D01*
X30169810Y-74904686D01*
X30169810Y-74621657D01*
D15*
X53424281Y-37586572D02*
X53146090Y-37755905D01*
X53424281Y-37876858D02*
X52840081Y-37876858D01*
X52840081Y-37683334D01*
X52867900Y-37634953D01*
X52895719Y-37610762D01*
X52951357Y-37586572D01*
X53034814Y-37586572D01*
X53090452Y-37610762D01*
X53118271Y-37634953D01*
X53146090Y-37683334D01*
X53146090Y-37876858D01*
X53424281Y-37102762D02*
X53424281Y-37393048D01*
X53424281Y-37247905D02*
X52840081Y-37247905D01*
X52923538Y-37296286D01*
X52979176Y-37344667D01*
X53006995Y-37393048D01*
X52840081Y-36933429D02*
X52840081Y-36618952D01*
X53062633Y-36788286D01*
X53062633Y-36715714D01*
X53090452Y-36667333D01*
X53118271Y-36643143D01*
X53173910Y-36618952D01*
X53313005Y-36618952D01*
X53368643Y-36643143D01*
X53396462Y-36667333D01*
X53424281Y-36715714D01*
X53424281Y-36860857D01*
X53396462Y-36909238D01*
X53368643Y-36933429D01*
D16*
X53665572Y-39589810D02*
X53404315Y-39589810D01*
X53534943Y-39589810D02*
X53534943Y-39081810D01*
X53491400Y-39154381D01*
X53447858Y-39202762D01*
X53404315Y-39226952D01*
X53861515Y-39589810D02*
X53861515Y-39081810D01*
X53905058Y-39396286D02*
X54035687Y-39589810D01*
X54035687Y-39251143D02*
X53861515Y-39444667D01*
D15*
X56314281Y-41966572D02*
X56036090Y-42135905D01*
X56314281Y-42256858D02*
X55730081Y-42256858D01*
X55730081Y-42063334D01*
X55757900Y-42014953D01*
X55785719Y-41990762D01*
X55841357Y-41966572D01*
X55924814Y-41966572D01*
X55980452Y-41990762D01*
X56008271Y-42014953D01*
X56036090Y-42063334D01*
X56036090Y-42256858D01*
X56314281Y-41482762D02*
X56314281Y-41773048D01*
X56314281Y-41627905D02*
X55730081Y-41627905D01*
X55813538Y-41676286D01*
X55869176Y-41724667D01*
X55896995Y-41773048D01*
X55924814Y-41047333D02*
X56314281Y-41047333D01*
X55702262Y-41168286D02*
X56119548Y-41289238D01*
X56119548Y-40974762D01*
D16*
X54439810Y-42021000D02*
X54439810Y-42282257D01*
X54439810Y-42151629D02*
X53931810Y-42151629D01*
X54004381Y-42195172D01*
X54052762Y-42238714D01*
X54076952Y-42282257D01*
X54391429Y-41825057D02*
X54415619Y-41803285D01*
X54439810Y-41825057D01*
X54415619Y-41846828D01*
X54391429Y-41825057D01*
X54439810Y-41825057D01*
X54439810Y-41585571D02*
X54439810Y-41498486D01*
X54415619Y-41454943D01*
X54391429Y-41433171D01*
X54318857Y-41389629D01*
X54222095Y-41367857D01*
X54028571Y-41367857D01*
X53980190Y-41389629D01*
X53956000Y-41411400D01*
X53931810Y-41454943D01*
X53931810Y-41542029D01*
X53956000Y-41585571D01*
X53980190Y-41607343D01*
X54028571Y-41629114D01*
X54149524Y-41629114D01*
X54197905Y-41607343D01*
X54222095Y-41585571D01*
X54246286Y-41542029D01*
X54246286Y-41454943D01*
X54222095Y-41411400D01*
X54197905Y-41389629D01*
X54149524Y-41367857D01*
X54439810Y-41171914D02*
X53931810Y-41171914D01*
X54246286Y-41128371D02*
X54439810Y-40997742D01*
X54101143Y-40997742D02*
X54294667Y-41171914D01*
D15*
X28375481Y-73576572D02*
X28097290Y-73745905D01*
X28375481Y-73866858D02*
X27791281Y-73866858D01*
X27791281Y-73673334D01*
X27819100Y-73624953D01*
X27846919Y-73600762D01*
X27902557Y-73576572D01*
X27986014Y-73576572D01*
X28041652Y-73600762D01*
X28069471Y-73624953D01*
X28097290Y-73673334D01*
X28097290Y-73866858D01*
X28375481Y-73092762D02*
X28375481Y-73383048D01*
X28375481Y-73237905D02*
X27791281Y-73237905D01*
X27874738Y-73286286D01*
X27930376Y-73334667D01*
X27958195Y-73383048D01*
X27791281Y-72633143D02*
X27791281Y-72875048D01*
X28069471Y-72899238D01*
X28041652Y-72875048D01*
X28013833Y-72826667D01*
X28013833Y-72705714D01*
X28041652Y-72657333D01*
X28069471Y-72633143D01*
X28125110Y-72608952D01*
X28264205Y-72608952D01*
X28319843Y-72633143D01*
X28347662Y-72657333D01*
X28375481Y-72705714D01*
X28375481Y-72826667D01*
X28347662Y-72875048D01*
X28319843Y-72899238D01*
D16*
X29710190Y-73598343D02*
X29686000Y-73576572D01*
X29661810Y-73533029D01*
X29661810Y-73424172D01*
X29686000Y-73380629D01*
X29710190Y-73358858D01*
X29758571Y-73337086D01*
X29806952Y-73337086D01*
X29879524Y-73358858D01*
X30169810Y-73620115D01*
X30169810Y-73337086D01*
X29710190Y-73162914D02*
X29686000Y-73141143D01*
X29661810Y-73097600D01*
X29661810Y-72988743D01*
X29686000Y-72945200D01*
X29710190Y-72923429D01*
X29758571Y-72901657D01*
X29806952Y-72901657D01*
X29879524Y-72923429D01*
X30169810Y-73184686D01*
X30169810Y-72901657D01*
D15*
X32044281Y-71876572D02*
X31766090Y-72045905D01*
X32044281Y-72166858D02*
X31460081Y-72166858D01*
X31460081Y-71973334D01*
X31487900Y-71924953D01*
X31515719Y-71900762D01*
X31571357Y-71876572D01*
X31654814Y-71876572D01*
X31710452Y-71900762D01*
X31738271Y-71924953D01*
X31766090Y-71973334D01*
X31766090Y-72166858D01*
X32044281Y-71392762D02*
X32044281Y-71683048D01*
X32044281Y-71537905D02*
X31460081Y-71537905D01*
X31543538Y-71586286D01*
X31599176Y-71634667D01*
X31626995Y-71683048D01*
X31460081Y-70957333D02*
X31460081Y-71054095D01*
X31487900Y-71102476D01*
X31515719Y-71126667D01*
X31599176Y-71175048D01*
X31710452Y-71199238D01*
X31933005Y-71199238D01*
X31988643Y-71175048D01*
X32016462Y-71150857D01*
X32044281Y-71102476D01*
X32044281Y-71005714D01*
X32016462Y-70957333D01*
X31988643Y-70933143D01*
X31933005Y-70908952D01*
X31793910Y-70908952D01*
X31738271Y-70933143D01*
X31710452Y-70957333D01*
X31682633Y-71005714D01*
X31682633Y-71102476D01*
X31710452Y-71150857D01*
X31738271Y-71175048D01*
X31793910Y-71199238D01*
D16*
X29710190Y-71888343D02*
X29686000Y-71866572D01*
X29661810Y-71823029D01*
X29661810Y-71714172D01*
X29686000Y-71670629D01*
X29710190Y-71648858D01*
X29758571Y-71627086D01*
X29806952Y-71627086D01*
X29879524Y-71648858D01*
X30169810Y-71910115D01*
X30169810Y-71627086D01*
X29710190Y-71452914D02*
X29686000Y-71431143D01*
X29661810Y-71387600D01*
X29661810Y-71278743D01*
X29686000Y-71235200D01*
X29710190Y-71213429D01*
X29758571Y-71191657D01*
X29806952Y-71191657D01*
X29879524Y-71213429D01*
X30169810Y-71474686D01*
X30169810Y-71191657D01*
D15*
X25395481Y-71056572D02*
X25117290Y-71225905D01*
X25395481Y-71346858D02*
X24811281Y-71346858D01*
X24811281Y-71153334D01*
X24839100Y-71104953D01*
X24866919Y-71080762D01*
X24922557Y-71056572D01*
X25006014Y-71056572D01*
X25061652Y-71080762D01*
X25089471Y-71104953D01*
X25117290Y-71153334D01*
X25117290Y-71346858D01*
X25395481Y-70572762D02*
X25395481Y-70863048D01*
X25395481Y-70717905D02*
X24811281Y-70717905D01*
X24894738Y-70766286D01*
X24950376Y-70814667D01*
X24978195Y-70863048D01*
X24811281Y-70403429D02*
X24811281Y-70064762D01*
X25395481Y-70282476D01*
D16*
X26730190Y-71078343D02*
X26706000Y-71056572D01*
X26681810Y-71013029D01*
X26681810Y-70904172D01*
X26706000Y-70860629D01*
X26730190Y-70838858D01*
X26778571Y-70817086D01*
X26826952Y-70817086D01*
X26899524Y-70838858D01*
X27189810Y-71100115D01*
X27189810Y-70817086D01*
X26730190Y-70642914D02*
X26706000Y-70621143D01*
X26681810Y-70577600D01*
X26681810Y-70468743D01*
X26706000Y-70425200D01*
X26730190Y-70403429D01*
X26778571Y-70381657D01*
X26826952Y-70381657D01*
X26899524Y-70403429D01*
X27189810Y-70664686D01*
X27189810Y-70381657D01*
D15*
X25395481Y-69346572D02*
X25117290Y-69515905D01*
X25395481Y-69636858D02*
X24811281Y-69636858D01*
X24811281Y-69443334D01*
X24839100Y-69394953D01*
X24866919Y-69370762D01*
X24922557Y-69346572D01*
X25006014Y-69346572D01*
X25061652Y-69370762D01*
X25089471Y-69394953D01*
X25117290Y-69443334D01*
X25117290Y-69636858D01*
X25395481Y-68862762D02*
X25395481Y-69153048D01*
X25395481Y-69007905D02*
X24811281Y-69007905D01*
X24894738Y-69056286D01*
X24950376Y-69104667D01*
X24978195Y-69153048D01*
X25061652Y-68572476D02*
X25033833Y-68620857D01*
X25006014Y-68645048D01*
X24950376Y-68669238D01*
X24922557Y-68669238D01*
X24866919Y-68645048D01*
X24839100Y-68620857D01*
X24811281Y-68572476D01*
X24811281Y-68475714D01*
X24839100Y-68427333D01*
X24866919Y-68403143D01*
X24922557Y-68378952D01*
X24950376Y-68378952D01*
X25006014Y-68403143D01*
X25033833Y-68427333D01*
X25061652Y-68475714D01*
X25061652Y-68572476D01*
X25089471Y-68620857D01*
X25117290Y-68645048D01*
X25172929Y-68669238D01*
X25284205Y-68669238D01*
X25339843Y-68645048D01*
X25367662Y-68620857D01*
X25395481Y-68572476D01*
X25395481Y-68475714D01*
X25367662Y-68427333D01*
X25339843Y-68403143D01*
X25284205Y-68378952D01*
X25172929Y-68378952D01*
X25117290Y-68403143D01*
X25089471Y-68427333D01*
X25061652Y-68475714D01*
D16*
X26730190Y-69368343D02*
X26706000Y-69346572D01*
X26681810Y-69303029D01*
X26681810Y-69194172D01*
X26706000Y-69150629D01*
X26730190Y-69128858D01*
X26778571Y-69107086D01*
X26826952Y-69107086D01*
X26899524Y-69128858D01*
X27189810Y-69390115D01*
X27189810Y-69107086D01*
X26730190Y-68932914D02*
X26706000Y-68911143D01*
X26681810Y-68867600D01*
X26681810Y-68758743D01*
X26706000Y-68715200D01*
X26730190Y-68693429D01*
X26778571Y-68671657D01*
X26826952Y-68671657D01*
X26899524Y-68693429D01*
X27189810Y-68954686D01*
X27189810Y-68671657D01*
D15*
X25395481Y-67636572D02*
X25117290Y-67805905D01*
X25395481Y-67926858D02*
X24811281Y-67926858D01*
X24811281Y-67733334D01*
X24839100Y-67684953D01*
X24866919Y-67660762D01*
X24922557Y-67636572D01*
X25006014Y-67636572D01*
X25061652Y-67660762D01*
X25089471Y-67684953D01*
X25117290Y-67733334D01*
X25117290Y-67926858D01*
X25395481Y-67152762D02*
X25395481Y-67443048D01*
X25395481Y-67297905D02*
X24811281Y-67297905D01*
X24894738Y-67346286D01*
X24950376Y-67394667D01*
X24978195Y-67443048D01*
X25395481Y-66910857D02*
X25395481Y-66814095D01*
X25367662Y-66765714D01*
X25339843Y-66741524D01*
X25256386Y-66693143D01*
X25145110Y-66668952D01*
X24922557Y-66668952D01*
X24866919Y-66693143D01*
X24839100Y-66717333D01*
X24811281Y-66765714D01*
X24811281Y-66862476D01*
X24839100Y-66910857D01*
X24866919Y-66935048D01*
X24922557Y-66959238D01*
X25061652Y-66959238D01*
X25117290Y-66935048D01*
X25145110Y-66910857D01*
X25172929Y-66862476D01*
X25172929Y-66765714D01*
X25145110Y-66717333D01*
X25117290Y-66693143D01*
X25061652Y-66668952D01*
D16*
X26730190Y-67658343D02*
X26706000Y-67636572D01*
X26681810Y-67593029D01*
X26681810Y-67484172D01*
X26706000Y-67440629D01*
X26730190Y-67418858D01*
X26778571Y-67397086D01*
X26826952Y-67397086D01*
X26899524Y-67418858D01*
X27189810Y-67680115D01*
X27189810Y-67397086D01*
X26730190Y-67222914D02*
X26706000Y-67201143D01*
X26681810Y-67157600D01*
X26681810Y-67048743D01*
X26706000Y-67005200D01*
X26730190Y-66983429D01*
X26778571Y-66961657D01*
X26826952Y-66961657D01*
X26899524Y-66983429D01*
X27189810Y-67244686D01*
X27189810Y-66961657D01*
D15*
X25395481Y-65926572D02*
X25117290Y-66095905D01*
X25395481Y-66216858D02*
X24811281Y-66216858D01*
X24811281Y-66023334D01*
X24839100Y-65974953D01*
X24866919Y-65950762D01*
X24922557Y-65926572D01*
X25006014Y-65926572D01*
X25061652Y-65950762D01*
X25089471Y-65974953D01*
X25117290Y-66023334D01*
X25117290Y-66216858D01*
X24866919Y-65733048D02*
X24839100Y-65708858D01*
X24811281Y-65660477D01*
X24811281Y-65539524D01*
X24839100Y-65491143D01*
X24866919Y-65466953D01*
X24922557Y-65442762D01*
X24978195Y-65442762D01*
X25061652Y-65466953D01*
X25395481Y-65757239D01*
X25395481Y-65442762D01*
X24811281Y-65128286D02*
X24811281Y-65079905D01*
X24839100Y-65031524D01*
X24866919Y-65007333D01*
X24922557Y-64983143D01*
X25033833Y-64958952D01*
X25172929Y-64958952D01*
X25284205Y-64983143D01*
X25339843Y-65007333D01*
X25367662Y-65031524D01*
X25395481Y-65079905D01*
X25395481Y-65128286D01*
X25367662Y-65176667D01*
X25339843Y-65200857D01*
X25284205Y-65225048D01*
X25172929Y-65249238D01*
X25033833Y-65249238D01*
X24922557Y-65225048D01*
X24866919Y-65200857D01*
X24839100Y-65176667D01*
X24811281Y-65128286D01*
D16*
X26730190Y-65948343D02*
X26706000Y-65926572D01*
X26681810Y-65883029D01*
X26681810Y-65774172D01*
X26706000Y-65730629D01*
X26730190Y-65708858D01*
X26778571Y-65687086D01*
X26826952Y-65687086D01*
X26899524Y-65708858D01*
X27189810Y-65970115D01*
X27189810Y-65687086D01*
X26730190Y-65512914D02*
X26706000Y-65491143D01*
X26681810Y-65447600D01*
X26681810Y-65338743D01*
X26706000Y-65295200D01*
X26730190Y-65273429D01*
X26778571Y-65251657D01*
X26826952Y-65251657D01*
X26899524Y-65273429D01*
X27189810Y-65534686D01*
X27189810Y-65251657D01*
D15*
X32204281Y-64986572D02*
X31926090Y-65155905D01*
X32204281Y-65276858D02*
X31620081Y-65276858D01*
X31620081Y-65083334D01*
X31647900Y-65034953D01*
X31675719Y-65010762D01*
X31731357Y-64986572D01*
X31814814Y-64986572D01*
X31870452Y-65010762D01*
X31898271Y-65034953D01*
X31926090Y-65083334D01*
X31926090Y-65276858D01*
X31675719Y-64793048D02*
X31647900Y-64768858D01*
X31620081Y-64720477D01*
X31620081Y-64599524D01*
X31647900Y-64551143D01*
X31675719Y-64526953D01*
X31731357Y-64502762D01*
X31786995Y-64502762D01*
X31870452Y-64526953D01*
X32204281Y-64817239D01*
X32204281Y-64502762D01*
X32204281Y-64018952D02*
X32204281Y-64309238D01*
X32204281Y-64164095D02*
X31620081Y-64164095D01*
X31703538Y-64212476D01*
X31759176Y-64260857D01*
X31786995Y-64309238D01*
D16*
X29760190Y-65098343D02*
X29736000Y-65076572D01*
X29711810Y-65033029D01*
X29711810Y-64924172D01*
X29736000Y-64880629D01*
X29760190Y-64858858D01*
X29808571Y-64837086D01*
X29856952Y-64837086D01*
X29929524Y-64858858D01*
X30219810Y-65120115D01*
X30219810Y-64837086D01*
X29760190Y-64662914D02*
X29736000Y-64641143D01*
X29711810Y-64597600D01*
X29711810Y-64488743D01*
X29736000Y-64445200D01*
X29760190Y-64423429D01*
X29808571Y-64401657D01*
X29856952Y-64401657D01*
X29929524Y-64423429D01*
X30219810Y-64684686D01*
X30219810Y-64401657D01*
D15*
X28425481Y-61656572D02*
X28147290Y-61825905D01*
X28425481Y-61946858D02*
X27841281Y-61946858D01*
X27841281Y-61753334D01*
X27869100Y-61704953D01*
X27896919Y-61680762D01*
X27952557Y-61656572D01*
X28036014Y-61656572D01*
X28091652Y-61680762D01*
X28119471Y-61704953D01*
X28147290Y-61753334D01*
X28147290Y-61946858D01*
X27896919Y-61463048D02*
X27869100Y-61438858D01*
X27841281Y-61390477D01*
X27841281Y-61269524D01*
X27869100Y-61221143D01*
X27896919Y-61196953D01*
X27952557Y-61172762D01*
X28008195Y-61172762D01*
X28091652Y-61196953D01*
X28425481Y-61487239D01*
X28425481Y-61172762D01*
X27896919Y-60979238D02*
X27869100Y-60955048D01*
X27841281Y-60906667D01*
X27841281Y-60785714D01*
X27869100Y-60737333D01*
X27896919Y-60713143D01*
X27952557Y-60688952D01*
X28008195Y-60688952D01*
X28091652Y-60713143D01*
X28425481Y-61003429D01*
X28425481Y-60688952D01*
D16*
X29760190Y-61678343D02*
X29736000Y-61656572D01*
X29711810Y-61613029D01*
X29711810Y-61504172D01*
X29736000Y-61460629D01*
X29760190Y-61438858D01*
X29808571Y-61417086D01*
X29856952Y-61417086D01*
X29929524Y-61438858D01*
X30219810Y-61700115D01*
X30219810Y-61417086D01*
X29760190Y-61242914D02*
X29736000Y-61221143D01*
X29711810Y-61177600D01*
X29711810Y-61068743D01*
X29736000Y-61025200D01*
X29760190Y-61003429D01*
X29808571Y-60981657D01*
X29856952Y-60981657D01*
X29929524Y-61003429D01*
X30219810Y-61264686D01*
X30219810Y-60981657D01*
D15*
X32084281Y-59946572D02*
X31806090Y-60115905D01*
X32084281Y-60236858D02*
X31500081Y-60236858D01*
X31500081Y-60043334D01*
X31527900Y-59994953D01*
X31555719Y-59970762D01*
X31611357Y-59946572D01*
X31694814Y-59946572D01*
X31750452Y-59970762D01*
X31778271Y-59994953D01*
X31806090Y-60043334D01*
X31806090Y-60236858D01*
X31555719Y-59753048D02*
X31527900Y-59728858D01*
X31500081Y-59680477D01*
X31500081Y-59559524D01*
X31527900Y-59511143D01*
X31555719Y-59486953D01*
X31611357Y-59462762D01*
X31666995Y-59462762D01*
X31750452Y-59486953D01*
X32084281Y-59777239D01*
X32084281Y-59462762D01*
X31500081Y-59293429D02*
X31500081Y-58978952D01*
X31722633Y-59148286D01*
X31722633Y-59075714D01*
X31750452Y-59027333D01*
X31778271Y-59003143D01*
X31833910Y-58978952D01*
X31973005Y-58978952D01*
X32028643Y-59003143D01*
X32056462Y-59027333D01*
X32084281Y-59075714D01*
X32084281Y-59220857D01*
X32056462Y-59269238D01*
X32028643Y-59293429D01*
D16*
X29760190Y-59968343D02*
X29736000Y-59946572D01*
X29711810Y-59903029D01*
X29711810Y-59794172D01*
X29736000Y-59750629D01*
X29760190Y-59728858D01*
X29808571Y-59707086D01*
X29856952Y-59707086D01*
X29929524Y-59728858D01*
X30219810Y-59990115D01*
X30219810Y-59707086D01*
X29760190Y-59532914D02*
X29736000Y-59511143D01*
X29711810Y-59467600D01*
X29711810Y-59358743D01*
X29736000Y-59315200D01*
X29760190Y-59293429D01*
X29808571Y-59271657D01*
X29856952Y-59271657D01*
X29929524Y-59293429D01*
X30219810Y-59554686D01*
X30219810Y-59271657D01*
D15*
X25395481Y-57376572D02*
X25117290Y-57545905D01*
X25395481Y-57666858D02*
X24811281Y-57666858D01*
X24811281Y-57473334D01*
X24839100Y-57424953D01*
X24866919Y-57400762D01*
X24922557Y-57376572D01*
X25006014Y-57376572D01*
X25061652Y-57400762D01*
X25089471Y-57424953D01*
X25117290Y-57473334D01*
X25117290Y-57666858D01*
X24866919Y-57183048D02*
X24839100Y-57158858D01*
X24811281Y-57110477D01*
X24811281Y-56989524D01*
X24839100Y-56941143D01*
X24866919Y-56916953D01*
X24922557Y-56892762D01*
X24978195Y-56892762D01*
X25061652Y-56916953D01*
X25395481Y-57207239D01*
X25395481Y-56892762D01*
X25006014Y-56457333D02*
X25395481Y-56457333D01*
X24783462Y-56578286D02*
X25200748Y-56699238D01*
X25200748Y-56384762D01*
D16*
X26730190Y-57398343D02*
X26706000Y-57376572D01*
X26681810Y-57333029D01*
X26681810Y-57224172D01*
X26706000Y-57180629D01*
X26730190Y-57158858D01*
X26778571Y-57137086D01*
X26826952Y-57137086D01*
X26899524Y-57158858D01*
X27189810Y-57420115D01*
X27189810Y-57137086D01*
X26730190Y-56962914D02*
X26706000Y-56941143D01*
X26681810Y-56897600D01*
X26681810Y-56788743D01*
X26706000Y-56745200D01*
X26730190Y-56723429D01*
X26778571Y-56701657D01*
X26826952Y-56701657D01*
X26899524Y-56723429D01*
X27189810Y-56984686D01*
X27189810Y-56701657D01*
D15*
X25395481Y-53956572D02*
X25117290Y-54125905D01*
X25395481Y-54246858D02*
X24811281Y-54246858D01*
X24811281Y-54053334D01*
X24839100Y-54004953D01*
X24866919Y-53980762D01*
X24922557Y-53956572D01*
X25006014Y-53956572D01*
X25061652Y-53980762D01*
X25089471Y-54004953D01*
X25117290Y-54053334D01*
X25117290Y-54246858D01*
X24866919Y-53763048D02*
X24839100Y-53738858D01*
X24811281Y-53690477D01*
X24811281Y-53569524D01*
X24839100Y-53521143D01*
X24866919Y-53496953D01*
X24922557Y-53472762D01*
X24978195Y-53472762D01*
X25061652Y-53496953D01*
X25395481Y-53787239D01*
X25395481Y-53472762D01*
X24811281Y-53013143D02*
X24811281Y-53255048D01*
X25089471Y-53279238D01*
X25061652Y-53255048D01*
X25033833Y-53206667D01*
X25033833Y-53085714D01*
X25061652Y-53037333D01*
X25089471Y-53013143D01*
X25145110Y-52988952D01*
X25284205Y-52988952D01*
X25339843Y-53013143D01*
X25367662Y-53037333D01*
X25395481Y-53085714D01*
X25395481Y-53206667D01*
X25367662Y-53255048D01*
X25339843Y-53279238D01*
D16*
X26730190Y-53978343D02*
X26706000Y-53956572D01*
X26681810Y-53913029D01*
X26681810Y-53804172D01*
X26706000Y-53760629D01*
X26730190Y-53738858D01*
X26778571Y-53717086D01*
X26826952Y-53717086D01*
X26899524Y-53738858D01*
X27189810Y-54000115D01*
X27189810Y-53717086D01*
X26730190Y-53542914D02*
X26706000Y-53521143D01*
X26681810Y-53477600D01*
X26681810Y-53368743D01*
X26706000Y-53325200D01*
X26730190Y-53303429D01*
X26778571Y-53281657D01*
X26826952Y-53281657D01*
X26899524Y-53303429D01*
X27189810Y-53564686D01*
X27189810Y-53281657D01*
D15*
X32084281Y-53056572D02*
X31806090Y-53225905D01*
X32084281Y-53346858D02*
X31500081Y-53346858D01*
X31500081Y-53153334D01*
X31527900Y-53104953D01*
X31555719Y-53080762D01*
X31611357Y-53056572D01*
X31694814Y-53056572D01*
X31750452Y-53080762D01*
X31778271Y-53104953D01*
X31806090Y-53153334D01*
X31806090Y-53346858D01*
X31555719Y-52863048D02*
X31527900Y-52838858D01*
X31500081Y-52790477D01*
X31500081Y-52669524D01*
X31527900Y-52621143D01*
X31555719Y-52596953D01*
X31611357Y-52572762D01*
X31666995Y-52572762D01*
X31750452Y-52596953D01*
X32084281Y-52887239D01*
X32084281Y-52572762D01*
X31500081Y-52137333D02*
X31500081Y-52234095D01*
X31527900Y-52282476D01*
X31555719Y-52306667D01*
X31639176Y-52355048D01*
X31750452Y-52379238D01*
X31973005Y-52379238D01*
X32028643Y-52355048D01*
X32056462Y-52330857D01*
X32084281Y-52282476D01*
X32084281Y-52185714D01*
X32056462Y-52137333D01*
X32028643Y-52113143D01*
X31973005Y-52088952D01*
X31833910Y-52088952D01*
X31778271Y-52113143D01*
X31750452Y-52137333D01*
X31722633Y-52185714D01*
X31722633Y-52282476D01*
X31750452Y-52330857D01*
X31778271Y-52355048D01*
X31833910Y-52379238D01*
D16*
X29730190Y-53048343D02*
X29706000Y-53026572D01*
X29681810Y-52983029D01*
X29681810Y-52874172D01*
X29706000Y-52830629D01*
X29730190Y-52808858D01*
X29778571Y-52787086D01*
X29826952Y-52787086D01*
X29899524Y-52808858D01*
X30189810Y-53070115D01*
X30189810Y-52787086D01*
X29730190Y-52612914D02*
X29706000Y-52591143D01*
X29681810Y-52547600D01*
X29681810Y-52438743D01*
X29706000Y-52395200D01*
X29730190Y-52373429D01*
X29778571Y-52351657D01*
X29826952Y-52351657D01*
X29899524Y-52373429D01*
X30189810Y-52634686D01*
X30189810Y-52351657D01*
D15*
X28395481Y-49606572D02*
X28117290Y-49775905D01*
X28395481Y-49896858D02*
X27811281Y-49896858D01*
X27811281Y-49703334D01*
X27839100Y-49654953D01*
X27866919Y-49630762D01*
X27922557Y-49606572D01*
X28006014Y-49606572D01*
X28061652Y-49630762D01*
X28089471Y-49654953D01*
X28117290Y-49703334D01*
X28117290Y-49896858D01*
X27866919Y-49413048D02*
X27839100Y-49388858D01*
X27811281Y-49340477D01*
X27811281Y-49219524D01*
X27839100Y-49171143D01*
X27866919Y-49146953D01*
X27922557Y-49122762D01*
X27978195Y-49122762D01*
X28061652Y-49146953D01*
X28395481Y-49437239D01*
X28395481Y-49122762D01*
X27811281Y-48953429D02*
X27811281Y-48614762D01*
X28395481Y-48832476D01*
D16*
X29730190Y-49628343D02*
X29706000Y-49606572D01*
X29681810Y-49563029D01*
X29681810Y-49454172D01*
X29706000Y-49410629D01*
X29730190Y-49388858D01*
X29778571Y-49367086D01*
X29826952Y-49367086D01*
X29899524Y-49388858D01*
X30189810Y-49650115D01*
X30189810Y-49367086D01*
X29730190Y-49192914D02*
X29706000Y-49171143D01*
X29681810Y-49127600D01*
X29681810Y-49018743D01*
X29706000Y-48975200D01*
X29730190Y-48953429D01*
X29778571Y-48931657D01*
X29826952Y-48931657D01*
X29899524Y-48953429D01*
X30189810Y-49214686D01*
X30189810Y-48931657D01*
D15*
X32194281Y-47916572D02*
X31916090Y-48085905D01*
X32194281Y-48206858D02*
X31610081Y-48206858D01*
X31610081Y-48013334D01*
X31637900Y-47964953D01*
X31665719Y-47940762D01*
X31721357Y-47916572D01*
X31804814Y-47916572D01*
X31860452Y-47940762D01*
X31888271Y-47964953D01*
X31916090Y-48013334D01*
X31916090Y-48206858D01*
X31665719Y-47723048D02*
X31637900Y-47698858D01*
X31610081Y-47650477D01*
X31610081Y-47529524D01*
X31637900Y-47481143D01*
X31665719Y-47456953D01*
X31721357Y-47432762D01*
X31776995Y-47432762D01*
X31860452Y-47456953D01*
X32194281Y-47747239D01*
X32194281Y-47432762D01*
X31860452Y-47142476D02*
X31832633Y-47190857D01*
X31804814Y-47215048D01*
X31749176Y-47239238D01*
X31721357Y-47239238D01*
X31665719Y-47215048D01*
X31637900Y-47190857D01*
X31610081Y-47142476D01*
X31610081Y-47045714D01*
X31637900Y-46997333D01*
X31665719Y-46973143D01*
X31721357Y-46948952D01*
X31749176Y-46948952D01*
X31804814Y-46973143D01*
X31832633Y-46997333D01*
X31860452Y-47045714D01*
X31860452Y-47142476D01*
X31888271Y-47190857D01*
X31916090Y-47215048D01*
X31971729Y-47239238D01*
X32083005Y-47239238D01*
X32138643Y-47215048D01*
X32166462Y-47190857D01*
X32194281Y-47142476D01*
X32194281Y-47045714D01*
X32166462Y-46997333D01*
X32138643Y-46973143D01*
X32083005Y-46948952D01*
X31971729Y-46948952D01*
X31916090Y-46973143D01*
X31888271Y-46997333D01*
X31860452Y-47045714D01*
D16*
X29730190Y-47918343D02*
X29706000Y-47896572D01*
X29681810Y-47853029D01*
X29681810Y-47744172D01*
X29706000Y-47700629D01*
X29730190Y-47678858D01*
X29778571Y-47657086D01*
X29826952Y-47657086D01*
X29899524Y-47678858D01*
X30189810Y-47940115D01*
X30189810Y-47657086D01*
X29730190Y-47482914D02*
X29706000Y-47461143D01*
X29681810Y-47417600D01*
X29681810Y-47308743D01*
X29706000Y-47265200D01*
X29730190Y-47243429D01*
X29778571Y-47221657D01*
X29826952Y-47221657D01*
X29899524Y-47243429D01*
X30189810Y-47504686D01*
X30189810Y-47221657D01*
D15*
X25395481Y-45406572D02*
X25117290Y-45575905D01*
X25395481Y-45696858D02*
X24811281Y-45696858D01*
X24811281Y-45503334D01*
X24839100Y-45454953D01*
X24866919Y-45430762D01*
X24922557Y-45406572D01*
X25006014Y-45406572D01*
X25061652Y-45430762D01*
X25089471Y-45454953D01*
X25117290Y-45503334D01*
X25117290Y-45696858D01*
X24866919Y-45213048D02*
X24839100Y-45188858D01*
X24811281Y-45140477D01*
X24811281Y-45019524D01*
X24839100Y-44971143D01*
X24866919Y-44946953D01*
X24922557Y-44922762D01*
X24978195Y-44922762D01*
X25061652Y-44946953D01*
X25395481Y-45237239D01*
X25395481Y-44922762D01*
X25395481Y-44680857D02*
X25395481Y-44584095D01*
X25367662Y-44535714D01*
X25339843Y-44511524D01*
X25256386Y-44463143D01*
X25145110Y-44438952D01*
X24922557Y-44438952D01*
X24866919Y-44463143D01*
X24839100Y-44487333D01*
X24811281Y-44535714D01*
X24811281Y-44632476D01*
X24839100Y-44680857D01*
X24866919Y-44705048D01*
X24922557Y-44729238D01*
X25061652Y-44729238D01*
X25117290Y-44705048D01*
X25145110Y-44680857D01*
X25172929Y-44632476D01*
X25172929Y-44535714D01*
X25145110Y-44487333D01*
X25117290Y-44463143D01*
X25061652Y-44438952D01*
D16*
X26730190Y-45428343D02*
X26706000Y-45406572D01*
X26681810Y-45363029D01*
X26681810Y-45254172D01*
X26706000Y-45210629D01*
X26730190Y-45188858D01*
X26778571Y-45167086D01*
X26826952Y-45167086D01*
X26899524Y-45188858D01*
X27189810Y-45450115D01*
X27189810Y-45167086D01*
X26730190Y-44992914D02*
X26706000Y-44971143D01*
X26681810Y-44927600D01*
X26681810Y-44818743D01*
X26706000Y-44775200D01*
X26730190Y-44753429D01*
X26778571Y-44731657D01*
X26826952Y-44731657D01*
X26899524Y-44753429D01*
X27189810Y-45014686D01*
X27189810Y-44731657D01*
D15*
X25395481Y-41986572D02*
X25117290Y-42155905D01*
X25395481Y-42276858D02*
X24811281Y-42276858D01*
X24811281Y-42083334D01*
X24839100Y-42034953D01*
X24866919Y-42010762D01*
X24922557Y-41986572D01*
X25006014Y-41986572D01*
X25061652Y-42010762D01*
X25089471Y-42034953D01*
X25117290Y-42083334D01*
X25117290Y-42276858D01*
X24811281Y-41817239D02*
X24811281Y-41502762D01*
X25033833Y-41672096D01*
X25033833Y-41599524D01*
X25061652Y-41551143D01*
X25089471Y-41526953D01*
X25145110Y-41502762D01*
X25284205Y-41502762D01*
X25339843Y-41526953D01*
X25367662Y-41551143D01*
X25395481Y-41599524D01*
X25395481Y-41744667D01*
X25367662Y-41793048D01*
X25339843Y-41817239D01*
X24811281Y-41188286D02*
X24811281Y-41139905D01*
X24839100Y-41091524D01*
X24866919Y-41067333D01*
X24922557Y-41043143D01*
X25033833Y-41018952D01*
X25172929Y-41018952D01*
X25284205Y-41043143D01*
X25339843Y-41067333D01*
X25367662Y-41091524D01*
X25395481Y-41139905D01*
X25395481Y-41188286D01*
X25367662Y-41236667D01*
X25339843Y-41260857D01*
X25284205Y-41285048D01*
X25172929Y-41309238D01*
X25033833Y-41309238D01*
X24922557Y-41285048D01*
X24866919Y-41260857D01*
X24839100Y-41236667D01*
X24811281Y-41188286D01*
D16*
X26730190Y-42008343D02*
X26706000Y-41986572D01*
X26681810Y-41943029D01*
X26681810Y-41834172D01*
X26706000Y-41790629D01*
X26730190Y-41768858D01*
X26778571Y-41747086D01*
X26826952Y-41747086D01*
X26899524Y-41768858D01*
X27189810Y-42030115D01*
X27189810Y-41747086D01*
X26730190Y-41572914D02*
X26706000Y-41551143D01*
X26681810Y-41507600D01*
X26681810Y-41398743D01*
X26706000Y-41355200D01*
X26730190Y-41333429D01*
X26778571Y-41311657D01*
X26826952Y-41311657D01*
X26899524Y-41333429D01*
X27189810Y-41594686D01*
X27189810Y-41311657D01*
D15*
X28425481Y-63366572D02*
X28147290Y-63535905D01*
X28425481Y-63656858D02*
X27841281Y-63656858D01*
X27841281Y-63463334D01*
X27869100Y-63414953D01*
X27896919Y-63390762D01*
X27952557Y-63366572D01*
X28036014Y-63366572D01*
X28091652Y-63390762D01*
X28119471Y-63414953D01*
X28147290Y-63463334D01*
X28147290Y-63656858D01*
X27841281Y-63197239D02*
X27841281Y-62882762D01*
X28063833Y-63052096D01*
X28063833Y-62979524D01*
X28091652Y-62931143D01*
X28119471Y-62906953D01*
X28175110Y-62882762D01*
X28314205Y-62882762D01*
X28369843Y-62906953D01*
X28397662Y-62931143D01*
X28425481Y-62979524D01*
X28425481Y-63124667D01*
X28397662Y-63173048D01*
X28369843Y-63197239D01*
X28425481Y-62398952D02*
X28425481Y-62689238D01*
X28425481Y-62544095D02*
X27841281Y-62544095D01*
X27924738Y-62592476D01*
X27980376Y-62640857D01*
X28008195Y-62689238D01*
D16*
X29760190Y-63388343D02*
X29736000Y-63366572D01*
X29711810Y-63323029D01*
X29711810Y-63214172D01*
X29736000Y-63170629D01*
X29760190Y-63148858D01*
X29808571Y-63127086D01*
X29856952Y-63127086D01*
X29929524Y-63148858D01*
X30219810Y-63410115D01*
X30219810Y-63127086D01*
X29760190Y-62952914D02*
X29736000Y-62931143D01*
X29711810Y-62887600D01*
X29711810Y-62778743D01*
X29736000Y-62735200D01*
X29760190Y-62713429D01*
X29808571Y-62691657D01*
X29856952Y-62691657D01*
X29929524Y-62713429D01*
X30219810Y-62974686D01*
X30219810Y-62691657D01*
D15*
X25395481Y-59086572D02*
X25117290Y-59255905D01*
X25395481Y-59376858D02*
X24811281Y-59376858D01*
X24811281Y-59183334D01*
X24839100Y-59134953D01*
X24866919Y-59110762D01*
X24922557Y-59086572D01*
X25006014Y-59086572D01*
X25061652Y-59110762D01*
X25089471Y-59134953D01*
X25117290Y-59183334D01*
X25117290Y-59376858D01*
X24811281Y-58917239D02*
X24811281Y-58602762D01*
X25033833Y-58772096D01*
X25033833Y-58699524D01*
X25061652Y-58651143D01*
X25089471Y-58626953D01*
X25145110Y-58602762D01*
X25284205Y-58602762D01*
X25339843Y-58626953D01*
X25367662Y-58651143D01*
X25395481Y-58699524D01*
X25395481Y-58844667D01*
X25367662Y-58893048D01*
X25339843Y-58917239D01*
X24866919Y-58409238D02*
X24839100Y-58385048D01*
X24811281Y-58336667D01*
X24811281Y-58215714D01*
X24839100Y-58167333D01*
X24866919Y-58143143D01*
X24922557Y-58118952D01*
X24978195Y-58118952D01*
X25061652Y-58143143D01*
X25395481Y-58433429D01*
X25395481Y-58118952D01*
D16*
X26730190Y-59108343D02*
X26706000Y-59086572D01*
X26681810Y-59043029D01*
X26681810Y-58934172D01*
X26706000Y-58890629D01*
X26730190Y-58868858D01*
X26778571Y-58847086D01*
X26826952Y-58847086D01*
X26899524Y-58868858D01*
X27189810Y-59130115D01*
X27189810Y-58847086D01*
X26730190Y-58672914D02*
X26706000Y-58651143D01*
X26681810Y-58607600D01*
X26681810Y-58498743D01*
X26706000Y-58455200D01*
X26730190Y-58433429D01*
X26778571Y-58411657D01*
X26826952Y-58411657D01*
X26899524Y-58433429D01*
X27189810Y-58694686D01*
X27189810Y-58411657D01*
D15*
X25395481Y-55666572D02*
X25117290Y-55835905D01*
X25395481Y-55956858D02*
X24811281Y-55956858D01*
X24811281Y-55763334D01*
X24839100Y-55714953D01*
X24866919Y-55690762D01*
X24922557Y-55666572D01*
X25006014Y-55666572D01*
X25061652Y-55690762D01*
X25089471Y-55714953D01*
X25117290Y-55763334D01*
X25117290Y-55956858D01*
X24811281Y-55497239D02*
X24811281Y-55182762D01*
X25033833Y-55352096D01*
X25033833Y-55279524D01*
X25061652Y-55231143D01*
X25089471Y-55206953D01*
X25145110Y-55182762D01*
X25284205Y-55182762D01*
X25339843Y-55206953D01*
X25367662Y-55231143D01*
X25395481Y-55279524D01*
X25395481Y-55424667D01*
X25367662Y-55473048D01*
X25339843Y-55497239D01*
X24811281Y-55013429D02*
X24811281Y-54698952D01*
X25033833Y-54868286D01*
X25033833Y-54795714D01*
X25061652Y-54747333D01*
X25089471Y-54723143D01*
X25145110Y-54698952D01*
X25284205Y-54698952D01*
X25339843Y-54723143D01*
X25367662Y-54747333D01*
X25395481Y-54795714D01*
X25395481Y-54940857D01*
X25367662Y-54989238D01*
X25339843Y-55013429D01*
D16*
X26730190Y-55688343D02*
X26706000Y-55666572D01*
X26681810Y-55623029D01*
X26681810Y-55514172D01*
X26706000Y-55470629D01*
X26730190Y-55448858D01*
X26778571Y-55427086D01*
X26826952Y-55427086D01*
X26899524Y-55448858D01*
X27189810Y-55710115D01*
X27189810Y-55427086D01*
X26730190Y-55252914D02*
X26706000Y-55231143D01*
X26681810Y-55187600D01*
X26681810Y-55078743D01*
X26706000Y-55035200D01*
X26730190Y-55013429D01*
X26778571Y-54991657D01*
X26826952Y-54991657D01*
X26899524Y-55013429D01*
X27189810Y-55274686D01*
X27189810Y-54991657D01*
D15*
X28395481Y-51316572D02*
X28117290Y-51485905D01*
X28395481Y-51606858D02*
X27811281Y-51606858D01*
X27811281Y-51413334D01*
X27839100Y-51364953D01*
X27866919Y-51340762D01*
X27922557Y-51316572D01*
X28006014Y-51316572D01*
X28061652Y-51340762D01*
X28089471Y-51364953D01*
X28117290Y-51413334D01*
X28117290Y-51606858D01*
X27811281Y-51147239D02*
X27811281Y-50832762D01*
X28033833Y-51002096D01*
X28033833Y-50929524D01*
X28061652Y-50881143D01*
X28089471Y-50856953D01*
X28145110Y-50832762D01*
X28284205Y-50832762D01*
X28339843Y-50856953D01*
X28367662Y-50881143D01*
X28395481Y-50929524D01*
X28395481Y-51074667D01*
X28367662Y-51123048D01*
X28339843Y-51147239D01*
X28006014Y-50397333D02*
X28395481Y-50397333D01*
X27783462Y-50518286D02*
X28200748Y-50639238D01*
X28200748Y-50324762D01*
D16*
X29730190Y-51338343D02*
X29706000Y-51316572D01*
X29681810Y-51273029D01*
X29681810Y-51164172D01*
X29706000Y-51120629D01*
X29730190Y-51098858D01*
X29778571Y-51077086D01*
X29826952Y-51077086D01*
X29899524Y-51098858D01*
X30189810Y-51360115D01*
X30189810Y-51077086D01*
X29730190Y-50902914D02*
X29706000Y-50881143D01*
X29681810Y-50837600D01*
X29681810Y-50728743D01*
X29706000Y-50685200D01*
X29730190Y-50663429D01*
X29778571Y-50641657D01*
X29826952Y-50641657D01*
X29899524Y-50663429D01*
X30189810Y-50924686D01*
X30189810Y-50641657D01*
D15*
X25395481Y-47116572D02*
X25117290Y-47285905D01*
X25395481Y-47406858D02*
X24811281Y-47406858D01*
X24811281Y-47213334D01*
X24839100Y-47164953D01*
X24866919Y-47140762D01*
X24922557Y-47116572D01*
X25006014Y-47116572D01*
X25061652Y-47140762D01*
X25089471Y-47164953D01*
X25117290Y-47213334D01*
X25117290Y-47406858D01*
X24811281Y-46947239D02*
X24811281Y-46632762D01*
X25033833Y-46802096D01*
X25033833Y-46729524D01*
X25061652Y-46681143D01*
X25089471Y-46656953D01*
X25145110Y-46632762D01*
X25284205Y-46632762D01*
X25339843Y-46656953D01*
X25367662Y-46681143D01*
X25395481Y-46729524D01*
X25395481Y-46874667D01*
X25367662Y-46923048D01*
X25339843Y-46947239D01*
X24811281Y-46173143D02*
X24811281Y-46415048D01*
X25089471Y-46439238D01*
X25061652Y-46415048D01*
X25033833Y-46366667D01*
X25033833Y-46245714D01*
X25061652Y-46197333D01*
X25089471Y-46173143D01*
X25145110Y-46148952D01*
X25284205Y-46148952D01*
X25339843Y-46173143D01*
X25367662Y-46197333D01*
X25395481Y-46245714D01*
X25395481Y-46366667D01*
X25367662Y-46415048D01*
X25339843Y-46439238D01*
D16*
X26730190Y-47138343D02*
X26706000Y-47116572D01*
X26681810Y-47073029D01*
X26681810Y-46964172D01*
X26706000Y-46920629D01*
X26730190Y-46898858D01*
X26778571Y-46877086D01*
X26826952Y-46877086D01*
X26899524Y-46898858D01*
X27189810Y-47160115D01*
X27189810Y-46877086D01*
X26730190Y-46702914D02*
X26706000Y-46681143D01*
X26681810Y-46637600D01*
X26681810Y-46528743D01*
X26706000Y-46485200D01*
X26730190Y-46463429D01*
X26778571Y-46441657D01*
X26826952Y-46441657D01*
X26899524Y-46463429D01*
X27189810Y-46724686D01*
X27189810Y-46441657D01*
D15*
X25395481Y-43696572D02*
X25117290Y-43865905D01*
X25395481Y-43986858D02*
X24811281Y-43986858D01*
X24811281Y-43793334D01*
X24839100Y-43744953D01*
X24866919Y-43720762D01*
X24922557Y-43696572D01*
X25006014Y-43696572D01*
X25061652Y-43720762D01*
X25089471Y-43744953D01*
X25117290Y-43793334D01*
X25117290Y-43986858D01*
X24811281Y-43527239D02*
X24811281Y-43212762D01*
X25033833Y-43382096D01*
X25033833Y-43309524D01*
X25061652Y-43261143D01*
X25089471Y-43236953D01*
X25145110Y-43212762D01*
X25284205Y-43212762D01*
X25339843Y-43236953D01*
X25367662Y-43261143D01*
X25395481Y-43309524D01*
X25395481Y-43454667D01*
X25367662Y-43503048D01*
X25339843Y-43527239D01*
X24811281Y-42777333D02*
X24811281Y-42874095D01*
X24839100Y-42922476D01*
X24866919Y-42946667D01*
X24950376Y-42995048D01*
X25061652Y-43019238D01*
X25284205Y-43019238D01*
X25339843Y-42995048D01*
X25367662Y-42970857D01*
X25395481Y-42922476D01*
X25395481Y-42825714D01*
X25367662Y-42777333D01*
X25339843Y-42753143D01*
X25284205Y-42728952D01*
X25145110Y-42728952D01*
X25089471Y-42753143D01*
X25061652Y-42777333D01*
X25033833Y-42825714D01*
X25033833Y-42922476D01*
X25061652Y-42970857D01*
X25089471Y-42995048D01*
X25145110Y-43019238D01*
D16*
X26730190Y-43718343D02*
X26706000Y-43696572D01*
X26681810Y-43653029D01*
X26681810Y-43544172D01*
X26706000Y-43500629D01*
X26730190Y-43478858D01*
X26778571Y-43457086D01*
X26826952Y-43457086D01*
X26899524Y-43478858D01*
X27189810Y-43740115D01*
X27189810Y-43457086D01*
X26730190Y-43282914D02*
X26706000Y-43261143D01*
X26681810Y-43217600D01*
X26681810Y-43108743D01*
X26706000Y-43065200D01*
X26730190Y-43043429D01*
X26778571Y-43021657D01*
X26826952Y-43021657D01*
X26899524Y-43043429D01*
X27189810Y-43304686D01*
X27189810Y-43021657D01*
D15*
X59083428Y-76053081D02*
X58914095Y-75774890D01*
X58793142Y-76053081D02*
X58793142Y-75468881D01*
X58986666Y-75468881D01*
X59035047Y-75496700D01*
X59059238Y-75524519D01*
X59083428Y-75580157D01*
X59083428Y-75663614D01*
X59059238Y-75719252D01*
X59035047Y-75747071D01*
X58986666Y-75774890D01*
X58793142Y-75774890D01*
X59252761Y-75468881D02*
X59567238Y-75468881D01*
X59397904Y-75691433D01*
X59470476Y-75691433D01*
X59518857Y-75719252D01*
X59543047Y-75747071D01*
X59567238Y-75802710D01*
X59567238Y-75941805D01*
X59543047Y-75997443D01*
X59518857Y-76025262D01*
X59470476Y-76053081D01*
X59325333Y-76053081D01*
X59276952Y-76025262D01*
X59252761Y-75997443D01*
X59736571Y-75468881D02*
X60075238Y-75468881D01*
X59857524Y-76053081D01*
D16*
X58767743Y-73730190D02*
X58789514Y-73706000D01*
X58833057Y-73681810D01*
X58941914Y-73681810D01*
X58985457Y-73706000D01*
X59007228Y-73730190D01*
X59029000Y-73778571D01*
X59029000Y-73826952D01*
X59007228Y-73899524D01*
X58745971Y-74189810D01*
X59029000Y-74189810D01*
X59224943Y-74141429D02*
X59246715Y-74165619D01*
X59224943Y-74189810D01*
X59203172Y-74165619D01*
X59224943Y-74141429D01*
X59224943Y-74189810D01*
X59420886Y-73730190D02*
X59442657Y-73706000D01*
X59486200Y-73681810D01*
X59595057Y-73681810D01*
X59638600Y-73706000D01*
X59660371Y-73730190D01*
X59682143Y-73778571D01*
X59682143Y-73826952D01*
X59660371Y-73899524D01*
X59399114Y-74189810D01*
X59682143Y-74189810D01*
X59878086Y-74189810D02*
X59878086Y-73681810D01*
X59921629Y-73996286D02*
X60052258Y-74189810D01*
X60052258Y-73851143D02*
X59878086Y-74044667D01*
D15*
X41983428Y-76975481D02*
X41814095Y-76697290D01*
X41693142Y-76975481D02*
X41693142Y-76391281D01*
X41886666Y-76391281D01*
X41935047Y-76419100D01*
X41959238Y-76446919D01*
X41983428Y-76502557D01*
X41983428Y-76586014D01*
X41959238Y-76641652D01*
X41935047Y-76669471D01*
X41886666Y-76697290D01*
X41693142Y-76697290D01*
X42152761Y-76391281D02*
X42467238Y-76391281D01*
X42297904Y-76613833D01*
X42370476Y-76613833D01*
X42418857Y-76641652D01*
X42443047Y-76669471D01*
X42467238Y-76725110D01*
X42467238Y-76864205D01*
X42443047Y-76919843D01*
X42418857Y-76947662D01*
X42370476Y-76975481D01*
X42225333Y-76975481D01*
X42176952Y-76947662D01*
X42152761Y-76919843D01*
X42757524Y-76641652D02*
X42709143Y-76613833D01*
X42684952Y-76586014D01*
X42660762Y-76530376D01*
X42660762Y-76502557D01*
X42684952Y-76446919D01*
X42709143Y-76419100D01*
X42757524Y-76391281D01*
X42854286Y-76391281D01*
X42902667Y-76419100D01*
X42926857Y-76446919D01*
X42951048Y-76502557D01*
X42951048Y-76530376D01*
X42926857Y-76586014D01*
X42902667Y-76613833D01*
X42854286Y-76641652D01*
X42757524Y-76641652D01*
X42709143Y-76669471D01*
X42684952Y-76697290D01*
X42660762Y-76752929D01*
X42660762Y-76864205D01*
X42684952Y-76919843D01*
X42709143Y-76947662D01*
X42757524Y-76975481D01*
X42854286Y-76975481D01*
X42902667Y-76947662D01*
X42926857Y-76919843D01*
X42951048Y-76864205D01*
X42951048Y-76752929D01*
X42926857Y-76697290D01*
X42902667Y-76669471D01*
X42854286Y-76641652D01*
D16*
X41885457Y-78431143D02*
X41885457Y-78769810D01*
X41776600Y-78237619D02*
X41667743Y-78600476D01*
X41950771Y-78600476D01*
X42124943Y-78721429D02*
X42146715Y-78745619D01*
X42124943Y-78769810D01*
X42103172Y-78745619D01*
X42124943Y-78721429D01*
X42124943Y-78769810D01*
X42299114Y-78261810D02*
X42603914Y-78261810D01*
X42407971Y-78769810D01*
X42778086Y-78769810D02*
X42778086Y-78261810D01*
X42821629Y-78576286D02*
X42952258Y-78769810D01*
X42952258Y-78431143D02*
X42778086Y-78624667D01*
D15*
X68423428Y-55944281D02*
X68254095Y-55666090D01*
X68133142Y-55944281D02*
X68133142Y-55360081D01*
X68326666Y-55360081D01*
X68375047Y-55387900D01*
X68399238Y-55415719D01*
X68423428Y-55471357D01*
X68423428Y-55554814D01*
X68399238Y-55610452D01*
X68375047Y-55638271D01*
X68326666Y-55666090D01*
X68133142Y-55666090D01*
X68858857Y-55554814D02*
X68858857Y-55944281D01*
X68737904Y-55332262D02*
X68616952Y-55749548D01*
X68931428Y-55749548D01*
X69391048Y-55944281D02*
X69100762Y-55944281D01*
X69245905Y-55944281D02*
X69245905Y-55360081D01*
X69197524Y-55443538D01*
X69149143Y-55499176D01*
X69100762Y-55526995D01*
D16*
X66669885Y-54581810D02*
X66974685Y-54581810D01*
X66778742Y-55089810D01*
X67366571Y-54581810D02*
X67148857Y-54581810D01*
X67127086Y-54823714D01*
X67148857Y-54799524D01*
X67192400Y-54775333D01*
X67301257Y-54775333D01*
X67344800Y-54799524D01*
X67366571Y-54823714D01*
X67388343Y-54872095D01*
X67388343Y-54993048D01*
X67366571Y-55041429D01*
X67344800Y-55065619D01*
X67301257Y-55089810D01*
X67192400Y-55089810D01*
X67148857Y-55065619D01*
X67127086Y-55041429D01*
D15*
X71213428Y-54294281D02*
X71044095Y-54016090D01*
X70923142Y-54294281D02*
X70923142Y-53710081D01*
X71116666Y-53710081D01*
X71165047Y-53737900D01*
X71189238Y-53765719D01*
X71213428Y-53821357D01*
X71213428Y-53904814D01*
X71189238Y-53960452D01*
X71165047Y-53988271D01*
X71116666Y-54016090D01*
X70923142Y-54016090D01*
X71648857Y-53904814D02*
X71648857Y-54294281D01*
X71527904Y-53682262D02*
X71406952Y-54099548D01*
X71721428Y-54099548D01*
X71890762Y-53765719D02*
X71914952Y-53737900D01*
X71963333Y-53710081D01*
X72084286Y-53710081D01*
X72132667Y-53737900D01*
X72156857Y-53765719D01*
X72181048Y-53821357D01*
X72181048Y-53876995D01*
X72156857Y-53960452D01*
X71866571Y-54294281D01*
X72181048Y-54294281D01*
D16*
X69489885Y-52881810D02*
X69794685Y-52881810D01*
X69598742Y-53389810D01*
X70186571Y-52881810D02*
X69968857Y-52881810D01*
X69947086Y-53123714D01*
X69968857Y-53099524D01*
X70012400Y-53075333D01*
X70121257Y-53075333D01*
X70164800Y-53099524D01*
X70186571Y-53123714D01*
X70208343Y-53172095D01*
X70208343Y-53293048D01*
X70186571Y-53341429D01*
X70164800Y-53365619D01*
X70121257Y-53389810D01*
X70012400Y-53389810D01*
X69968857Y-53365619D01*
X69947086Y-53341429D01*
D15*
X73033428Y-52013081D02*
X72864095Y-51734890D01*
X72743142Y-52013081D02*
X72743142Y-51428881D01*
X72936666Y-51428881D01*
X72985047Y-51456700D01*
X73009238Y-51484519D01*
X73033428Y-51540157D01*
X73033428Y-51623614D01*
X73009238Y-51679252D01*
X72985047Y-51707071D01*
X72936666Y-51734890D01*
X72743142Y-51734890D01*
X73468857Y-51623614D02*
X73468857Y-52013081D01*
X73347904Y-51401062D02*
X73226952Y-51818348D01*
X73541428Y-51818348D01*
X73686571Y-51428881D02*
X74001048Y-51428881D01*
X73831714Y-51651433D01*
X73904286Y-51651433D01*
X73952667Y-51679252D01*
X73976857Y-51707071D01*
X74001048Y-51762710D01*
X74001048Y-51901805D01*
X73976857Y-51957443D01*
X73952667Y-51985262D01*
X73904286Y-52013081D01*
X73759143Y-52013081D01*
X73710762Y-51985262D01*
X73686571Y-51957443D01*
D16*
X72989885Y-49641810D02*
X73294685Y-49641810D01*
X73098742Y-50149810D01*
X73686571Y-49641810D02*
X73468857Y-49641810D01*
X73447086Y-49883714D01*
X73468857Y-49859524D01*
X73512400Y-49835333D01*
X73621257Y-49835333D01*
X73664800Y-49859524D01*
X73686571Y-49883714D01*
X73708343Y-49932095D01*
X73708343Y-50053048D01*
X73686571Y-50101429D01*
X73664800Y-50125619D01*
X73621257Y-50149810D01*
X73512400Y-50149810D01*
X73468857Y-50125619D01*
X73447086Y-50101429D01*
D15*
X66943428Y-46674281D02*
X66774095Y-46396090D01*
X66653142Y-46674281D02*
X66653142Y-46090081D01*
X66846666Y-46090081D01*
X66895047Y-46117900D01*
X66919238Y-46145719D01*
X66943428Y-46201357D01*
X66943428Y-46284814D01*
X66919238Y-46340452D01*
X66895047Y-46368271D01*
X66846666Y-46396090D01*
X66653142Y-46396090D01*
X67378857Y-46284814D02*
X67378857Y-46674281D01*
X67257904Y-46062262D02*
X67136952Y-46479548D01*
X67451428Y-46479548D01*
X67862667Y-46284814D02*
X67862667Y-46674281D01*
X67741714Y-46062262D02*
X67620762Y-46479548D01*
X67935238Y-46479548D01*
D16*
X66879885Y-47931810D02*
X67184685Y-47931810D01*
X66988742Y-48439810D01*
X67576571Y-47931810D02*
X67358857Y-47931810D01*
X67337086Y-48173714D01*
X67358857Y-48149524D01*
X67402400Y-48125333D01*
X67511257Y-48125333D01*
X67554800Y-48149524D01*
X67576571Y-48173714D01*
X67598343Y-48222095D01*
X67598343Y-48343048D01*
X67576571Y-48391429D01*
X67554800Y-48415619D01*
X67511257Y-48439810D01*
X67402400Y-48439810D01*
X67358857Y-48415619D01*
X67337086Y-48391429D01*
D14*
X72458741Y-75061305D02*
X73268265Y-75061305D01*
X73363503Y-75013686D01*
X73411122Y-74966067D01*
X73458741Y-74870829D01*
X73458741Y-74680352D01*
X73411122Y-74585114D01*
X73363503Y-74537495D01*
X73268265Y-74489876D01*
X72458741Y-74489876D01*
X73458741Y-73489876D02*
X73458741Y-74061305D01*
X73458741Y-73775591D02*
X72458741Y-73775591D01*
X72601598Y-73870829D01*
X72696836Y-73966067D01*
X72744455Y-74061305D01*
X67558095Y-65822381D02*
X67558095Y-66631905D01*
X67605714Y-66727143D01*
X67653333Y-66774762D01*
X67748571Y-66822381D01*
X67939048Y-66822381D01*
X68034286Y-66774762D01*
X68081905Y-66727143D01*
X68129524Y-66631905D01*
X68129524Y-65822381D01*
X68558095Y-65917619D02*
X68605714Y-65870000D01*
X68700952Y-65822381D01*
X68939048Y-65822381D01*
X69034286Y-65870000D01*
X69081905Y-65917619D01*
X69129524Y-66012857D01*
X69129524Y-66108095D01*
X69081905Y-66250952D01*
X68510476Y-66822381D01*
X69129524Y-66822381D01*
X71368095Y-57412381D02*
X71368095Y-58221905D01*
X71415714Y-58317143D01*
X71463333Y-58364762D01*
X71558571Y-58412381D01*
X71749048Y-58412381D01*
X71844286Y-58364762D01*
X71891905Y-58317143D01*
X71939524Y-58221905D01*
X71939524Y-57412381D01*
X72320476Y-57412381D02*
X72939524Y-57412381D01*
X72606190Y-57793333D01*
X72749048Y-57793333D01*
X72844286Y-57840952D01*
X72891905Y-57888571D01*
X72939524Y-57983810D01*
X72939524Y-58221905D01*
X72891905Y-58317143D01*
X72844286Y-58364762D01*
X72749048Y-58412381D01*
X72463333Y-58412381D01*
X72368095Y-58364762D01*
X72320476Y-58317143D01*
X38968095Y-38412381D02*
X38968095Y-39221905D01*
X39015714Y-39317143D01*
X39063333Y-39364762D01*
X39158571Y-39412381D01*
X39349048Y-39412381D01*
X39444286Y-39364762D01*
X39491905Y-39317143D01*
X39539524Y-39221905D01*
X39539524Y-38412381D01*
X40444286Y-38745714D02*
X40444286Y-39412381D01*
X40206190Y-38364762D02*
X39968095Y-39079048D01*
X40587143Y-39079048D01*
D15*
X45043428Y-32385481D02*
X44874095Y-32107290D01*
X44753142Y-32385481D02*
X44753142Y-31801281D01*
X44946666Y-31801281D01*
X44995047Y-31829100D01*
X45019238Y-31856919D01*
X45043428Y-31912557D01*
X45043428Y-31996014D01*
X45019238Y-32051652D01*
X44995047Y-32079471D01*
X44946666Y-32107290D01*
X44753142Y-32107290D01*
X45478857Y-31996014D02*
X45478857Y-32385481D01*
X45357904Y-31773462D02*
X45236952Y-32190748D01*
X45551428Y-32190748D01*
X45986857Y-31801281D02*
X45744952Y-31801281D01*
X45720762Y-32079471D01*
X45744952Y-32051652D01*
X45793333Y-32023833D01*
X45914286Y-32023833D01*
X45962667Y-32051652D01*
X45986857Y-32079471D01*
X46011048Y-32135110D01*
X46011048Y-32274205D01*
X45986857Y-32329843D01*
X45962667Y-32357662D01*
X45914286Y-32385481D01*
X45793333Y-32385481D01*
X45744952Y-32357662D01*
X45720762Y-32329843D01*
D16*
X44945457Y-33841143D02*
X44945457Y-34179810D01*
X44836600Y-33647619D02*
X44727743Y-34010476D01*
X45010771Y-34010476D01*
X45184943Y-34131429D02*
X45206715Y-34155619D01*
X45184943Y-34179810D01*
X45163172Y-34155619D01*
X45184943Y-34131429D01*
X45184943Y-34179810D01*
X45359114Y-33671810D02*
X45663914Y-33671810D01*
X45467971Y-34179810D01*
X45838086Y-34179810D02*
X45838086Y-33671810D01*
X45881629Y-33986286D02*
X46012258Y-34179810D01*
X46012258Y-33841143D02*
X45838086Y-34034667D01*
D14*
X62358049Y-44484610D02*
X62358049Y-44960801D01*
X62024716Y-43960801D02*
X62358049Y-44484610D01*
X62691383Y-43960801D01*
X63548526Y-44960801D02*
X62977097Y-44960801D01*
X63262811Y-44960801D02*
X63262811Y-43960801D01*
X63167573Y-44103658D01*
X63072335Y-44198896D01*
X62977097Y-44246515D01*
X60972381Y-79981905D02*
X61781905Y-79981905D01*
X61877143Y-79934286D01*
X61924762Y-79886667D01*
X61972381Y-79791429D01*
X61972381Y-79600952D01*
X61924762Y-79505714D01*
X61877143Y-79458095D01*
X61781905Y-79410476D01*
X60972381Y-79410476D01*
X60972381Y-78505714D02*
X60972381Y-78696191D01*
X61020000Y-78791429D01*
X61067619Y-78839048D01*
X61210476Y-78934286D01*
X61400952Y-78981905D01*
X61781905Y-78981905D01*
X61877143Y-78934286D01*
X61924762Y-78886667D01*
X61972381Y-78791429D01*
X61972381Y-78600952D01*
X61924762Y-78505714D01*
X61877143Y-78458095D01*
X61781905Y-78410476D01*
X61543810Y-78410476D01*
X61448571Y-78458095D01*
X61400952Y-78505714D01*
X61353333Y-78600952D01*
X61353333Y-78791429D01*
X61400952Y-78886667D01*
X61448571Y-78934286D01*
X61543810Y-78981905D01*
X51068095Y-68417381D02*
X51068095Y-69226905D01*
X51115714Y-69322143D01*
X51163333Y-69369762D01*
X51258571Y-69417381D01*
X51449048Y-69417381D01*
X51544286Y-69369762D01*
X51591905Y-69322143D01*
X51639524Y-69226905D01*
X51639524Y-68417381D01*
X52591905Y-68417381D02*
X52115714Y-68417381D01*
X52068095Y-68893571D01*
X52115714Y-68845952D01*
X52210952Y-68798333D01*
X52449048Y-68798333D01*
X52544286Y-68845952D01*
X52591905Y-68893571D01*
X52639524Y-68988810D01*
X52639524Y-69226905D01*
X52591905Y-69322143D01*
X52544286Y-69369762D01*
X52449048Y-69417381D01*
X52210952Y-69417381D01*
X52115714Y-69369762D01*
X52068095Y-69322143D01*
M02*
