G04 #@! TF.GenerationSoftware,KiCad,Pcbnew,5.1.6+dfsg1-1*
G04 #@! TF.CreationDate,2020-08-04T21:27:51+03:00*
G04 #@! TF.ProjectId,isl_board,69736c5f-626f-4617-9264-2e6b69636164,rev?*
G04 #@! TF.SameCoordinates,Original*
G04 #@! TF.FileFunction,Soldermask,Bot*
G04 #@! TF.FilePolarity,Negative*
%FSLAX46Y46*%
G04 Gerber Fmt 4.6, Leading zero omitted, Abs format (unit mm)*
G04 Created by KiCad (PCBNEW 5.1.6+dfsg1-1) date 2020-08-04 21:27:51*
%MOMM*%
%LPD*%
G01*
G04 APERTURE LIST*
%ADD10O,1.801600X1.801600*%
%ADD11R,1.801600X1.801600*%
%ADD12C,1.501600*%
%ADD13R,1.244600X0.736600*%
%ADD14C,2.301600*%
%ADD15C,1.625600*%
%ADD16C,2.351600*%
%ADD17R,2.601600X2.601600*%
%ADD18R,0.736600X1.244600*%
%ADD19C,1.001600*%
G04 APERTURE END LIST*
D10*
X76620000Y-48130000D03*
X76620000Y-50670000D03*
D11*
X76620000Y-53210000D03*
X79930000Y-77020000D03*
D10*
X79930000Y-74480000D03*
X82470000Y-77020000D03*
X82470000Y-74480000D03*
X85010000Y-77020000D03*
X85010000Y-74480000D03*
X87550000Y-77020000D03*
X87550000Y-74480000D03*
D12*
X26530000Y-95930000D03*
X21450000Y-95930000D03*
G36*
G01*
X18159200Y-96413516D02*
X18159200Y-95446484D01*
G75*
G02*
X18426484Y-95179200I267284J0D01*
G01*
X19393516Y-95179200D01*
G75*
G02*
X19660800Y-95446484I0J-267284D01*
G01*
X19660800Y-96413516D01*
G75*
G02*
X19393516Y-96680800I-267284J0D01*
G01*
X18426484Y-96680800D01*
G75*
G02*
X18159200Y-96413516I0J267284D01*
G01*
G37*
D10*
X42300000Y-97110000D03*
X44840000Y-97110000D03*
X47380000Y-97110000D03*
X49920000Y-97110000D03*
X52460000Y-97110000D03*
X55000000Y-97110000D03*
X57540000Y-97110000D03*
X60080000Y-97110000D03*
X62620000Y-97110000D03*
X65160000Y-97110000D03*
X67700000Y-97110000D03*
X70240000Y-97110000D03*
X72780000Y-97110000D03*
X75320000Y-97110000D03*
X77860000Y-97110000D03*
X80400000Y-97110000D03*
X82940000Y-97110000D03*
X85480000Y-97110000D03*
X88020000Y-97110000D03*
D11*
X90560000Y-97110000D03*
D13*
X23950000Y-97482000D03*
X23950000Y-95958000D03*
D14*
X58250000Y-30500000D03*
X60155000Y-35580000D03*
X62060000Y-30500000D03*
X63965000Y-35580000D03*
X65870000Y-30500000D03*
X67775000Y-35580000D03*
X69680000Y-30500000D03*
X71585000Y-35580000D03*
X73490000Y-30500000D03*
X75395000Y-35580000D03*
X77300000Y-30500000D03*
X79205000Y-35580000D03*
X92540000Y-30500000D03*
X83015000Y-35580000D03*
X81110000Y-30500000D03*
X86825000Y-35580000D03*
X84920000Y-30500000D03*
X90635000Y-35580000D03*
X88730000Y-30500000D03*
X94445000Y-35580000D03*
X56345000Y-35580000D03*
D15*
X91390000Y-41710000D03*
X91390000Y-44250000D03*
X91390000Y-46790000D03*
X94015000Y-46790000D03*
X94015000Y-41710000D03*
D13*
X89020000Y-46742000D03*
X89020000Y-45218000D03*
D10*
X42280000Y-35050000D03*
X42280000Y-32510000D03*
X44820000Y-35050000D03*
X44820000Y-32510000D03*
X47360000Y-35050000D03*
X47360000Y-32510000D03*
X49900000Y-35050000D03*
D11*
X49900000Y-32510000D03*
D16*
X28090053Y-34782843D03*
D17*
X28090053Y-34782843D03*
D18*
X60242000Y-52890000D03*
X58718000Y-52890000D03*
X60242000Y-64900000D03*
X58718000Y-64900000D03*
X60242000Y-61470000D03*
X58718000Y-61470000D03*
X60242000Y-56320000D03*
X58718000Y-56320000D03*
X60242000Y-51170000D03*
X58718000Y-51170000D03*
X60232000Y-47720000D03*
X58708000Y-47720000D03*
X60242000Y-63180000D03*
X58718000Y-63180000D03*
X60242000Y-59750000D03*
X58718000Y-59750000D03*
X60242000Y-58030000D03*
X58718000Y-58030000D03*
X60242000Y-54600000D03*
X58718000Y-54600000D03*
X60242000Y-49450000D03*
X58718000Y-49450000D03*
D13*
X64120000Y-40242000D03*
X64120000Y-38718000D03*
X62340000Y-40242000D03*
X62340000Y-38718000D03*
X57040000Y-44078000D03*
X57040000Y-45602000D03*
X52760000Y-66368000D03*
X52760000Y-67892000D03*
X49520000Y-67892000D03*
X49520000Y-66368000D03*
X46080000Y-67902000D03*
X46080000Y-66378000D03*
D18*
X43418000Y-52240000D03*
X44942000Y-52240000D03*
X43408000Y-49740000D03*
X44932000Y-49740000D03*
X43418000Y-62750000D03*
X44942000Y-62750000D03*
X43418000Y-59250000D03*
X44942000Y-59250000D03*
X43418000Y-55750000D03*
X44942000Y-55750000D03*
D13*
X23970053Y-36210843D03*
X23970053Y-37734843D03*
X24000053Y-32364843D03*
X24000053Y-30840843D03*
X29190053Y-32384843D03*
X29190053Y-30860843D03*
D11*
X20630000Y-42600000D03*
D10*
X23170000Y-42600000D03*
X20630000Y-45140000D03*
X23170000Y-45140000D03*
X20630000Y-47680000D03*
X23170000Y-47680000D03*
X20630000Y-50220000D03*
X23170000Y-50220000D03*
X20630000Y-52760000D03*
X23170000Y-52760000D03*
X20630000Y-55300000D03*
X23170000Y-55300000D03*
X20630000Y-57840000D03*
X23170000Y-57840000D03*
X20630000Y-60380000D03*
X23170000Y-60380000D03*
X20630000Y-62920000D03*
X23170000Y-62920000D03*
X20630000Y-65460000D03*
X23170000Y-65460000D03*
X20630000Y-68000000D03*
X23170000Y-68000000D03*
X20630000Y-70540000D03*
X23170000Y-70540000D03*
X20630000Y-73080000D03*
X23170000Y-73080000D03*
X20630000Y-75620000D03*
X23170000Y-75620000D03*
X20630000Y-78160000D03*
X23170000Y-78160000D03*
X20630000Y-80700000D03*
X23170000Y-80700000D03*
X20630000Y-83240000D03*
X23170000Y-83240000D03*
X20630000Y-85780000D03*
X23170000Y-85780000D03*
X20630000Y-88320000D03*
X23170000Y-88320000D03*
X20630000Y-90860000D03*
X23170000Y-90860000D03*
D13*
X38190000Y-36644000D03*
X38190000Y-35120000D03*
D18*
X39882000Y-46970000D03*
X38358000Y-46970000D03*
X39892000Y-48690000D03*
X38368000Y-48690000D03*
D13*
X52460000Y-32978000D03*
X52460000Y-34502000D03*
D19*
X63750000Y-41910000D03*
X62650000Y-41910000D03*
M02*
