G04 #@! TF.FileFunction,Soldermask,Top*
%FSLAX46Y46*%
G04 Gerber Fmt 4.6, Leading zero omitted, Abs format (unit mm)*
G04 Created by KiCad (PCBNEW 4.0.6+dfsg1-1) date Fri Sep 29 01:28:00 2017*
%MOMM*%
%LPD*%
G01*
G04 APERTURE LIST*
%ADD10C,0.100000*%
%ADD11R,1.543000X1.035000*%
%ADD12R,1.035000X1.543000*%
%ADD13R,2.100000X2.100000*%
%ADD14O,2.100000X2.100000*%
%ADD15C,3.100000*%
%ADD16C,2.600000*%
%ADD17R,2.800000X1.600000*%
%ADD18R,2.800000X3.700000*%
%ADD19R,1.960000X1.050000*%
%ADD20C,1.300000*%
%ADD21R,0.700000X1.400000*%
%ADD22R,1.400000X0.700000*%
%ADD23R,2.900000X2.900000*%
%ADD24C,2.650000*%
%ADD25R,0.700000X2.000000*%
%ADD26R,2.000000X0.700000*%
%ADD27R,8.400000X8.400000*%
%ADD28C,1.400000*%
G04 APERTURE END LIST*
D10*
D11*
X72120000Y-64752000D03*
X72120000Y-63228000D03*
X72090000Y-60732000D03*
X72090000Y-59208000D03*
X35930000Y-40568000D03*
X35930000Y-42092000D03*
D12*
X64312000Y-66960000D03*
X62788000Y-66960000D03*
X64382000Y-73990000D03*
X62858000Y-73990000D03*
D11*
X64290000Y-64542000D03*
X64290000Y-63018000D03*
X64300000Y-60352000D03*
X64300000Y-58828000D03*
X43640000Y-40548000D03*
X43640000Y-42072000D03*
D12*
X64048000Y-54110000D03*
X65572000Y-54110000D03*
X68322000Y-50690000D03*
X66798000Y-50690000D03*
X65572000Y-52400000D03*
X64048000Y-52400000D03*
X65572000Y-48980000D03*
X64048000Y-48980000D03*
D11*
X50080000Y-38588000D03*
X50080000Y-40112000D03*
X55440000Y-38598000D03*
X55440000Y-40122000D03*
D13*
X20630000Y-42600000D03*
D14*
X23170000Y-42600000D03*
X20630000Y-45140000D03*
X23170000Y-45140000D03*
X20630000Y-47680000D03*
X23170000Y-47680000D03*
X20630000Y-50220000D03*
X23170000Y-50220000D03*
X20630000Y-52760000D03*
X23170000Y-52760000D03*
X20630000Y-55300000D03*
X23170000Y-55300000D03*
X20630000Y-57840000D03*
X23170000Y-57840000D03*
X20630000Y-60380000D03*
X23170000Y-60380000D03*
X20630000Y-62920000D03*
X23170000Y-62920000D03*
X20630000Y-65460000D03*
X23170000Y-65460000D03*
X20630000Y-68000000D03*
X23170000Y-68000000D03*
X20630000Y-70540000D03*
X23170000Y-70540000D03*
X20630000Y-73080000D03*
X23170000Y-73080000D03*
X20630000Y-75620000D03*
X23170000Y-75620000D03*
X20630000Y-78160000D03*
X23170000Y-78160000D03*
X20630000Y-80700000D03*
X23170000Y-80700000D03*
X20630000Y-83240000D03*
X23170000Y-83240000D03*
X20630000Y-85780000D03*
X23170000Y-85780000D03*
X20630000Y-88320000D03*
X23170000Y-88320000D03*
X20630000Y-90860000D03*
X23170000Y-90860000D03*
D15*
X52860000Y-93040000D03*
X55400000Y-90500000D03*
X50320000Y-90500000D03*
X50320000Y-95580000D03*
X55400000Y-95580000D03*
X62110000Y-93040000D03*
X64650000Y-90500000D03*
X59570000Y-90500000D03*
X59570000Y-95580000D03*
X64650000Y-95580000D03*
D16*
X58250000Y-30500000D03*
X60155000Y-35580000D03*
X62060000Y-30500000D03*
X63965000Y-35580000D03*
X65870000Y-30500000D03*
X67775000Y-35580000D03*
X69680000Y-30500000D03*
X71585000Y-35580000D03*
X73490000Y-30500000D03*
X75395000Y-35580000D03*
X77300000Y-30500000D03*
X79205000Y-35580000D03*
X92540000Y-30500000D03*
X83015000Y-35580000D03*
X81110000Y-30500000D03*
X86825000Y-35580000D03*
X84920000Y-30500000D03*
X90635000Y-35580000D03*
X88730000Y-30500000D03*
X94445000Y-35580000D03*
X56345000Y-35580000D03*
D13*
X48870000Y-35180000D03*
D14*
X48870000Y-32640000D03*
D12*
X65572000Y-50690000D03*
X64048000Y-50690000D03*
X26198000Y-79290000D03*
X27722000Y-79290000D03*
X26198000Y-88180000D03*
X27722000Y-88180000D03*
X26198000Y-77570000D03*
X27722000Y-77570000D03*
X26198000Y-86470000D03*
X27722000Y-86470000D03*
X26198000Y-84760000D03*
X27722000Y-84760000D03*
X26198000Y-81000000D03*
X27722000Y-81000000D03*
D11*
X51810000Y-38588000D03*
X51810000Y-40112000D03*
D12*
X52222000Y-41640000D03*
X50698000Y-41640000D03*
D11*
X53100000Y-71952000D03*
X53100000Y-70428000D03*
D12*
X29178000Y-76690000D03*
X30702000Y-76690000D03*
X29178000Y-74970000D03*
X30702000Y-74970000D03*
D11*
X53720000Y-38598000D03*
X53720000Y-40122000D03*
D12*
X53448000Y-41640000D03*
X54972000Y-41640000D03*
X29178000Y-73250000D03*
X30702000Y-73250000D03*
X29178000Y-71540000D03*
X30702000Y-71540000D03*
X26198000Y-70730000D03*
X27722000Y-70730000D03*
X26198000Y-69020000D03*
X27722000Y-69020000D03*
X26198000Y-67310000D03*
X27722000Y-67310000D03*
X26198000Y-65600000D03*
X27722000Y-65600000D03*
X29228000Y-64750000D03*
X30752000Y-64750000D03*
X29228000Y-61330000D03*
X30752000Y-61330000D03*
X29228000Y-59620000D03*
X30752000Y-59620000D03*
X26198000Y-57050000D03*
X27722000Y-57050000D03*
X26198000Y-53630000D03*
X27722000Y-53630000D03*
X29198000Y-52700000D03*
X30722000Y-52700000D03*
X29198000Y-49280000D03*
X30722000Y-49280000D03*
X29198000Y-47570000D03*
X30722000Y-47570000D03*
X26198000Y-45080000D03*
X27722000Y-45080000D03*
X26198000Y-41660000D03*
X27722000Y-41660000D03*
X29228000Y-63040000D03*
X30752000Y-63040000D03*
X26198000Y-58760000D03*
X27722000Y-58760000D03*
X26198000Y-55340000D03*
X27722000Y-55340000D03*
X29198000Y-50990000D03*
X30722000Y-50990000D03*
X26198000Y-46790000D03*
X27722000Y-46790000D03*
X26198000Y-43370000D03*
X27722000Y-43370000D03*
D11*
X59410000Y-74722000D03*
X59410000Y-73198000D03*
X42310000Y-77778000D03*
X42310000Y-79302000D03*
X67040000Y-54098000D03*
X67040000Y-55622000D03*
X69860000Y-52398000D03*
X69860000Y-53922000D03*
X73360000Y-50682000D03*
X73360000Y-49158000D03*
X67250000Y-48972000D03*
X67250000Y-47448000D03*
D17*
X66780000Y-70210000D03*
X66780000Y-67910000D03*
X66780000Y-72510000D03*
D18*
X73980000Y-70210000D03*
D19*
X69920000Y-64770000D03*
X69920000Y-63820000D03*
X69920000Y-62870000D03*
X66620000Y-62870000D03*
X66620000Y-64770000D03*
X69920000Y-60530000D03*
X69920000Y-59580000D03*
X69920000Y-58630000D03*
X66620000Y-58630000D03*
X66620000Y-60530000D03*
X38130000Y-40560000D03*
X38130000Y-41510000D03*
X38130000Y-42460000D03*
X41430000Y-42460000D03*
X41430000Y-40560000D03*
D11*
X45370000Y-33188000D03*
X45370000Y-34712000D03*
D20*
X63750000Y-41910000D03*
X62650000Y-41910000D03*
D21*
X59190000Y-77105000D03*
X58690000Y-77105000D03*
X58190000Y-77105000D03*
X57690000Y-77105000D03*
X57190000Y-77105000D03*
D22*
X56075000Y-78220000D03*
X56075000Y-78720000D03*
X56075000Y-79220000D03*
X56075000Y-79720000D03*
X56075000Y-80220000D03*
D21*
X57190000Y-81335000D03*
X57690000Y-81335000D03*
X58190000Y-81335000D03*
X58690000Y-81335000D03*
X59190000Y-81335000D03*
D22*
X60305000Y-80220000D03*
X60305000Y-79720000D03*
X60305000Y-79220000D03*
X60305000Y-78720000D03*
X60305000Y-78220000D03*
D23*
X58190000Y-79220000D03*
D24*
X58190000Y-79220000D03*
D25*
X50580000Y-67290000D03*
X50080000Y-67290000D03*
X49580000Y-67290000D03*
X49080000Y-67290000D03*
X48580000Y-67290000D03*
X48080000Y-67290000D03*
X47580000Y-67290000D03*
X47080000Y-67290000D03*
X46580000Y-67290000D03*
X46080000Y-67290000D03*
X45580000Y-67290000D03*
D26*
X43530000Y-50240000D03*
X43530000Y-49740000D03*
X43530000Y-49240000D03*
X43530000Y-48740000D03*
X43530000Y-48240000D03*
X43530000Y-47740000D03*
X43530000Y-47240000D03*
X43530000Y-46740000D03*
D25*
X57080000Y-44690000D03*
X57580000Y-44690000D03*
X58080000Y-44690000D03*
D26*
X60130000Y-46740000D03*
X60130000Y-47240000D03*
X60130000Y-65240000D03*
X60130000Y-64740000D03*
X60130000Y-64240000D03*
X60130000Y-63740000D03*
X60130000Y-63240000D03*
X60130000Y-62740000D03*
X60130000Y-62240000D03*
X60130000Y-61740000D03*
X60130000Y-61240000D03*
X60130000Y-60740000D03*
X60130000Y-60240000D03*
X60130000Y-59740000D03*
X60130000Y-59240000D03*
X60130000Y-58740000D03*
X60130000Y-58240000D03*
X60130000Y-57740000D03*
X60130000Y-57240000D03*
X60130000Y-56740000D03*
X60130000Y-56240000D03*
X60130000Y-55740000D03*
X60130000Y-55240000D03*
X60130000Y-54740000D03*
X60130000Y-54240000D03*
X60130000Y-53740000D03*
X60130000Y-53240000D03*
X60130000Y-52740000D03*
X60130000Y-52240000D03*
X60130000Y-51740000D03*
X60130000Y-51240000D03*
X60130000Y-50740000D03*
X60130000Y-50240000D03*
X60130000Y-49740000D03*
X60130000Y-49240000D03*
X60130000Y-48740000D03*
X60130000Y-48240000D03*
X60130000Y-47740000D03*
D25*
X56580000Y-44690000D03*
X56080000Y-44690000D03*
X55580000Y-44690000D03*
X55080000Y-44690000D03*
X54580000Y-44690000D03*
X54080000Y-44690000D03*
X53580000Y-44690000D03*
X53080000Y-44690000D03*
X52580000Y-44690000D03*
X52080000Y-44690000D03*
X51580000Y-44690000D03*
X51080000Y-44690000D03*
X50580000Y-44690000D03*
X50080000Y-44690000D03*
X49580000Y-44690000D03*
X49080000Y-44690000D03*
X48580000Y-44690000D03*
X48080000Y-44690000D03*
X47580000Y-44690000D03*
X47080000Y-44690000D03*
X46580000Y-44690000D03*
X46080000Y-44690000D03*
X45580000Y-44690000D03*
D26*
X43530000Y-50740000D03*
X43530000Y-51240000D03*
X43530000Y-51740000D03*
X43530000Y-52240000D03*
X43530000Y-52740000D03*
X43530000Y-53240000D03*
X43530000Y-53740000D03*
X43530000Y-54240000D03*
X43530000Y-54740000D03*
X43530000Y-55240000D03*
X43530000Y-55740000D03*
X43530000Y-56240000D03*
X43530000Y-56740000D03*
X43530000Y-57240000D03*
X43530000Y-57740000D03*
X43530000Y-58240000D03*
X43530000Y-58740000D03*
X43530000Y-59240000D03*
X43530000Y-59740000D03*
X43530000Y-60240000D03*
X43530000Y-60740000D03*
X43530000Y-61240000D03*
X43530000Y-61740000D03*
X43530000Y-62240000D03*
X43530000Y-62740000D03*
X43530000Y-63240000D03*
X43530000Y-63740000D03*
X43530000Y-64240000D03*
X43530000Y-64740000D03*
X43530000Y-65240000D03*
D25*
X51080000Y-67290000D03*
X51580000Y-67290000D03*
X52080000Y-67290000D03*
X52580000Y-67290000D03*
X53080000Y-67290000D03*
X53580000Y-67290000D03*
X54080000Y-67290000D03*
X54580000Y-67290000D03*
X55080000Y-67290000D03*
X55580000Y-67290000D03*
X56080000Y-67290000D03*
X56580000Y-67290000D03*
X57080000Y-67290000D03*
X57580000Y-67290000D03*
X58080000Y-67290000D03*
D27*
X51830000Y-55990000D03*
D28*
X55058340Y-59215800D03*
X53758340Y-59215800D03*
X52458340Y-59215800D03*
X51158340Y-59215800D03*
X49858340Y-59215800D03*
X48558340Y-59215800D03*
X55058340Y-57915800D03*
X53758340Y-57915800D03*
X52458340Y-57915800D03*
X51158340Y-57915800D03*
X49858340Y-57915800D03*
X48558340Y-57915800D03*
X55058340Y-56615800D03*
X53758340Y-56615800D03*
X52458340Y-56615800D03*
X51158340Y-56615800D03*
X49858340Y-56615800D03*
X48558340Y-56615800D03*
X55058340Y-55315800D03*
X53758340Y-55315800D03*
X52458340Y-55315800D03*
X51158340Y-55315800D03*
X49858340Y-55315800D03*
X48558340Y-55315800D03*
X55058340Y-54015800D03*
X53758340Y-54015800D03*
X52458340Y-54015800D03*
X51158340Y-54015800D03*
X49858340Y-54015800D03*
X48558340Y-54015800D03*
X55058340Y-52715800D03*
X53758340Y-52715800D03*
X52458340Y-52715800D03*
X51158340Y-52715800D03*
X49858340Y-52715800D03*
X48558340Y-52715800D03*
M02*
