M48
; DRILL file {KiCad 5.1.5+dfsg1-2} date 2020-02-07T01:00:04 EET
; FORMAT={-:-/ absolute / inch / decimal}
; #@! TF.CreationDate,2020-02-07T01:00:04+02:00
; #@! TF.GenerationSoftware,Kicad,Pcbnew,5.1.5+dfsg1-2
FMAT,2
INCH
T1C0.0130
T2C0.0138
T3C0.0197
T4C0.0276
T5C0.0315
T6C0.0394
T7C0.0512
T8C0.0689
%
G90
G05
T1
X0.9126Y-1.5295
X0.9535Y-1.334
X0.9803Y-1.4253
X1.0004Y-1.7843
X1.0567Y-1.7846
X1.0606Y-1.2418
X1.0939Y-1.4956
X1.1043Y-1.6898
X1.1118Y-1.7839
X1.1134Y-1.8501
X1.1406Y-1.6303
X1.1547Y-1.5744
X1.1858Y-1.2997
X1.2035Y-1.8516
X1.2035Y-1.9009
X1.2594Y-1.9024
X1.2594Y-1.961
X1.2866Y-2.0858
X1.3185Y-1.9606
X1.3185Y-2.0268
X1.3378Y-2.0866
X1.339Y-2.1374
X1.3744Y-2.2921
X1.3752Y-2.0268
X1.3752Y-2.1886
X1.4035Y-1.7488
X1.4362Y-2.4161
X1.439Y-2.2933
X1.4425Y-1.6929
X1.4638Y-1.8488
X1.4642Y-1.3622
X1.4705Y-1.9169
X1.4803Y-2.4421
X1.4906Y-3.4528
X1.5016Y-1.4843
X1.5083Y-1.978
X1.5291Y-3.5091
X1.5295Y-2.7016
X1.5323Y-2.4646
X1.548Y-2.5161
X1.5579Y-3.5571
X1.5654Y-1.6709
X1.5693Y-2.3228
X1.5697Y-2.039
X1.5764Y-3.6181
X1.5862Y-2.55
X1.6161Y-2.8894
X1.6319Y-2.5949
X1.639Y-1.948
X1.6508Y-2.324
X1.6528Y-2.4606
X1.6548Y-2.1843
X1.6587Y-2.9307
X1.6618Y-2.0394
X1.6697Y-1.8075
X1.674Y-2.8472
X1.6969Y-1.7346
X1.7122Y-2.9858
X1.7146Y-3.0626
X1.7146Y-3.1524
X1.7413Y-2.9157
X1.7567Y-1.7827
X1.7756Y-1.6508
X1.776Y-1.6118
X1.7957Y-2.7039
X1.8079Y-2.4693
X1.8122Y-2.3327
X1.8138Y-1.9598
X1.8146Y-2.1949
X1.8154Y-2.0555
X1.835Y-2.5764
X1.8654Y-1.8366
X1.885Y-2.7902
X1.8878Y-1.6303
X1.9413Y-2.7154
X1.9583Y-2.5768
X1.9598Y-1.8346
X1.9626Y-1.6343
X2.0299Y-1.8339
X2.0425Y-2.7169
X2.0646Y-2.5752
X2.1299Y-2.576
X2.1303Y-1.8366
X2.1854Y-2.9252
X2.2071Y-1.8382
X2.2421Y-1.6972
X2.2654Y-2.5543
X2.2661Y-2.4878
X2.2673Y-2.4185
X2.2685Y-2.0827
X2.2685Y-2.2173
X2.2689Y-2.3524
X2.2693Y-2.2843
X2.2697Y-2.1504
X2.2701Y-1.9469
X2.2705Y-2.0134
X2.2717Y-1.8791
X2.324Y-2.9146
X2.3323Y-2.65
X2.3579Y-1.5622
X2.3598Y-1.7094
X2.3823Y-2.6512
X2.4173Y-1.7079
X2.4173Y-1.7988
X2.4201Y-2.9217
X2.4209Y-2.3402
X2.4209Y-2.4736
X2.422Y-2.8791
X2.4236Y-2.2752
X2.4256Y-1.9205
X2.4283Y-2.1559
X2.4291Y-1.8732
X2.4366Y-1.9909
X2.4484Y-2.4354
X2.4492Y-2.5232
X2.4528Y-2.698
X2.4559Y-2.0917
X2.4776Y-1.7862
X2.4945Y-2.552
X2.5043Y-2.1972
X2.5087Y-2.6969
X2.528Y-2.2787
X2.5469Y-2.4433
X2.7295Y-2.6811
X2.7307Y-2.7492
X2.7409Y-2.8583
X2.787Y-2.8571
X2.7882Y-2.6409
X2.8004Y-2.8051
X2.8169Y-2.8937
X2.8177Y-1.8512
X2.8183Y-1.5368
X2.889Y-2.3504
X2.8898Y-2.5122
X2.8925Y-1.8965
X2.9035Y-2.8929
X2.9764Y-2.8945
X2.9898Y-2.6264
X2.9902Y-2.0457
X3.0154Y-1.9469
X3.0378Y-2.6669
X3.0421Y-2.7772
X3.0469Y-2.8685
X3.0689Y-1.539
X3.0819Y-1.7705
X3.1083Y-2.0327
X3.176Y-2.3075
X3.187Y-2.4047
X3.1933Y-1.9941
X3.2654Y-1.6232
X3.2799Y-1.8854
X3.2902Y-1.5398
X3.3272Y-2.7925
X3.3323Y-3.1398
X3.3441Y-1.9476
X3.3768Y-2.7543
X3.3886Y-2.3866
X3.3988Y-1.5327
X3.4012Y-1.7307
X3.4016Y-2.7142
X3.4189Y-2.4429
T2
X2.6795Y-2.1295
X2.737Y-1.8457
X2.8535Y-2.0614
X2.9689Y-1.6004
T3
X1.9117Y-2.0754
X1.9117Y-2.1266
X1.9117Y-2.1778
X1.9117Y-2.229
X1.9117Y-2.2801
X1.9117Y-2.3313
X1.9629Y-2.0754
X1.9629Y-2.1266
X1.9629Y-2.1778
X1.9629Y-2.229
X1.9629Y-2.2801
X1.9629Y-2.3313
X2.0141Y-2.0754
X2.0141Y-2.1266
X2.0141Y-2.1778
X2.0141Y-2.229
X2.0141Y-2.2801
X2.0141Y-2.3313
X2.0653Y-2.0754
X2.0653Y-2.1266
X2.0653Y-2.1778
X2.0653Y-2.229
X2.0653Y-2.2801
X2.0653Y-2.3313
X2.1165Y-2.0754
X2.1165Y-2.1266
X2.1165Y-2.1778
X2.1165Y-2.229
X2.1165Y-2.2801
X2.1165Y-2.3313
X2.1677Y-2.0754
X2.1677Y-2.1266
X2.1677Y-2.1778
X2.1677Y-2.229
X2.1677Y-2.2801
X2.1677Y-2.3313
X2.4665Y-1.65
X2.5098Y-1.65
T4
X1.2315Y-1.1114
X1.3315Y-1.1114
X1.5315Y-1.1114
T5
X3.598Y-1.6421
X3.598Y-1.7421
X3.598Y-1.8421
X3.7014Y-1.6421
X3.7014Y-1.8421
T6
X1.6646Y-1.2799
X1.6646Y-1.3799
X1.7646Y-1.2799
X1.7646Y-1.3799
X1.8646Y-1.2799
X1.8646Y-1.3799
X1.9646Y-1.2799
X1.9646Y-1.3799
X1.5472Y-3.6882
X1.6472Y-3.6882
X1.7472Y-3.6882
X1.8472Y-3.6882
X1.9472Y-3.6882
X2.0472Y-3.6882
X2.1472Y-3.6882
X2.2472Y-3.6882
X2.3472Y-3.6882
X2.4472Y-3.6882
X2.5472Y-3.6882
X2.6472Y-3.6882
X2.7472Y-3.6882
X2.8472Y-3.6882
X2.9472Y-3.6882
X3.0472Y-3.6882
X3.1472Y-3.6882
X3.2472Y-3.6882
X3.3472Y-3.6882
X3.4472Y-3.6882
X3.1469Y-2.9323
X3.1469Y-3.0323
X3.2469Y-2.9323
X3.2469Y-3.0323
X3.3469Y-2.9323
X3.3469Y-3.0323
X3.4469Y-2.9323
X3.4469Y-3.0323
X0.8122Y-1.6772
X0.8122Y-1.7772
X0.8122Y-1.8772
X0.8122Y-1.9772
X0.8122Y-2.0772
X0.8122Y-2.1772
X0.8122Y-2.2772
X0.8122Y-2.3772
X0.8122Y-2.4772
X0.8122Y-2.5772
X0.8122Y-2.6772
X0.8122Y-2.7772
X0.8122Y-2.8772
X0.8122Y-2.9772
X0.8122Y-3.0772
X0.8122Y-3.1772
X0.8122Y-3.2772
X0.8122Y-3.3772
X0.8122Y-3.4772
X0.8122Y-3.5772
X0.9122Y-1.6772
X0.9122Y-1.7772
X0.9122Y-1.8772
X0.9122Y-1.9772
X0.9122Y-2.0772
X0.9122Y-2.1772
X0.9122Y-2.2772
X0.9122Y-2.3772
X0.9122Y-2.4772
X0.9122Y-2.5772
X0.9122Y-2.6772
X0.9122Y-2.7772
X0.9122Y-2.8772
X0.9122Y-2.9772
X0.9122Y-3.0772
X0.9122Y-3.1772
X0.9122Y-3.2772
X0.9122Y-3.3772
X0.9122Y-3.4772
X0.9122Y-3.5772
T7
X2.2183Y-1.4008
X2.2933Y-1.2008
X2.3683Y-1.4008
X2.4433Y-1.2008
X2.5183Y-1.4008
X2.5933Y-1.2008
X2.6683Y-1.4008
X2.7433Y-1.2008
X2.8183Y-1.4008
X2.8933Y-1.2008
X2.9683Y-1.4008
X3.0433Y-1.2008
X3.1183Y-1.4008
X3.1933Y-1.2008
X3.2683Y-1.4008
X3.3433Y-1.2008
X3.4183Y-1.4008
X3.4933Y-1.2008
X3.5683Y-1.4008
X3.6433Y-1.2008
X3.7183Y-1.4008
T8
X1.1059Y-1.3694
T0
M30
