M48
; DRILL file {KiCad 6.0.4+dfsg-1} date 2022-04-25T00:20:15 EEST
; FORMAT={-:-/ absolute / inch / decimal}
; #@! TF.CreationDate,2022-04-25T00:20:15+03:00
; #@! TF.GenerationSoftware,Kicad,Pcbnew,6.0.4+dfsg-1
; #@! TF.FileFunction,MixedPlating,1,4
FMAT,2
INCH
; #@! TA.AperFunction,Plated,PTH,ViaDrill
T1C0.0130
; #@! TA.AperFunction,Plated,PTH,ViaDrill
T2C0.0138
; #@! TA.AperFunction,Plated,PTH,ComponentDrill
T3C0.0197
; #@! TA.AperFunction,Plated,PTH,ComponentDrill
T4C0.0276
; #@! TA.AperFunction,Plated,PTH,ComponentDrill
T5C0.0315
; #@! TA.AperFunction,Plated,PTH,ComponentDrill
T6C0.0394
; #@! TA.AperFunction,Plated,PTH,ComponentDrill
T7C0.0433
; #@! TA.AperFunction,Plated,PTH,ComponentDrill
T8C0.0512
; #@! TA.AperFunction,Plated,PTH,ComponentDrill
T9C0.0689
; #@! TA.AperFunction,NonPlated,NPTH,ComponentDrill
T10C0.0669
%
G90
G05
T1
X0.7356Y-1.1086
X0.7356Y-1.2752
X0.7356Y-1.4417
X0.7356Y-1.6083
X0.7356Y-1.7748
X0.7356Y-1.9413
X0.7356Y-2.1079
X0.7356Y-2.2744
X0.7356Y-2.4409
X0.7356Y-2.6075
X0.7356Y-2.774
X0.7356Y-2.9405
X0.7356Y-3.1071
X0.7356Y-3.2736
X0.7356Y-3.4401
X0.7356Y-3.6067
X0.8022Y-3.7066
X0.8355Y-1.1753
X0.8355Y-1.3418
X0.9126Y-1.5295
X0.9354Y-1.1086
X0.9535Y-1.334
X0.9687Y-1.6416
X0.9687Y-3.64
X0.9803Y-1.4253
X1.002Y-1.7748
X1.002Y-2.6741
X1.0353Y-1.1753
X1.0353Y-1.4417
X1.0353Y-2.1745
X1.0606Y-1.2418
X1.0686Y-3.7066
X1.0939Y-1.4956
X1.102Y-2.7407
X1.104Y-1.6898
X1.1353Y-1.1086
X1.1353Y-2.5742
X1.1353Y-2.9738
X1.1406Y-1.6303
X1.1547Y-1.5744
X1.1686Y-3.64
X1.1686Y-3.8398
X1.1858Y-1.2997
X1.2019Y-1.2086
X1.2019Y-1.475
X1.2685Y-1.3085
X1.2685Y-1.5749
X1.2685Y-2.3743
X1.2685Y-2.7407
X1.2685Y-3.1404
X1.2685Y-3.7399
X1.3018Y-1.1086
X1.3018Y-2.9738
X1.3018Y-3.2736
X1.3272Y-1.8894
X1.3303Y-3.5394
X1.3351Y-1.4084
X1.3351Y-1.6749
X1.3351Y-3.64
X1.3351Y-3.8398
X1.3654Y-1.8535
X1.3684Y-1.2086
X1.3684Y-2.3077
X1.4Y-3.6213
X1.4017Y-1.5083
X1.4075Y-3.389
X1.4087Y-3.4531
X1.428Y-3.3331
X1.435Y-1.7748
X1.435Y-3.7399
X1.4354Y-1.8402
X1.4394Y-3.5606
X1.4402Y-2.4862
X1.4681Y-1.474
X1.4683Y-1.1086
X1.4683Y-1.3418
X1.4683Y-1.6083
X1.4705Y-1.9169
X1.487Y-1.8193
X1.5016Y-3.8398
X1.5043Y-1.4736
X1.5209Y-3.4539
X1.5349Y-3.64
X1.5413Y-1.9546
X1.5476Y-1.3831
X1.5547Y-2.0118
X1.5683Y-1.1753
X1.5683Y-1.4417
X1.5683Y-2.6741
X1.5768Y-1.7988
X1.5823Y-2.0469
X1.6016Y-1.3085
X1.6016Y-3.7399
X1.6094Y-2.1882
X1.611Y-1.9492
X1.611Y-2.0118
X1.624Y-3.3646
X1.6349Y-1.5416
X1.6349Y-1.7748
X1.6349Y-3.5401
X1.6508Y-2.324
X1.6528Y-2.4606
X1.6618Y-2.0394
X1.6682Y-1.1086
X1.7015Y-1.6416
X1.7015Y-2.7074
X1.7015Y-3.64
X1.7217Y-3.263
X1.7348Y-1.475
X1.7348Y-2.8406
X1.7348Y-3.4401
X1.7681Y-1.1753
X1.7681Y-3.7399
X1.8014Y-3.5401
X1.8079Y-2.4693
X1.8122Y-2.3327
X1.8138Y-1.9598
X1.8146Y-2.1949
X1.8154Y-2.0555
X1.8264Y-1.8122
X1.8347Y-3.3402
X1.835Y-2.5764
X1.868Y-1.5083
X1.8724Y-2.5882
X1.8858Y-3.1807
X1.8878Y-1.6303
X1.9013Y-1.8747
X1.9013Y-2.0412
X1.9013Y-2.2078
X1.9013Y-2.3743
X1.9013Y-3.2403
X1.9013Y-3.4401
X1.9013Y-3.6067
X1.9083Y-2.7228
X1.9165Y-3.0614
X1.9346Y-2.5075
X1.9346Y-3.7399
X1.9583Y-2.5768
X1.9626Y-1.6343
X1.9679Y-1.4417
X1.9898Y-3.1283
X1.9906Y-3.0882
X2.0012Y-1.9413
X2.0012Y-2.1079
X2.0012Y-2.2744
X2.0012Y-3.3069
X2.0012Y-3.5068
X2.0067Y-2.7563
X2.0146Y-1.7
X2.0299Y-1.8339
X2.0346Y-1.1086
X2.0346Y-2.4076
X2.0346Y-2.9738
X2.0358Y-3.1661
X2.0362Y-3.0882
X2.0362Y-3.1287
X2.037Y-3.0476
X2.0425Y-2.7169
X2.0646Y-2.5752
X2.0679Y-1.2419
X2.0679Y-3.4068
X2.0679Y-3.6067
X2.0709Y-2.9189
X2.1012Y-1.4084
X2.1012Y-2.0079
X2.1012Y-2.1745
X2.1012Y-2.5075
X2.1012Y-3.207
X2.1106Y-2.9189
X2.1303Y-1.8366
X2.1327Y-1.6992
X2.1345Y-2.3077
X2.1345Y-3.7066
X2.1678Y-1.3085
X2.1678Y-1.908
X2.1678Y-3.0072
X2.1678Y-3.3069
X2.1678Y-3.4735
X2.2011Y-1.475
X2.2011Y-2.0746
X2.2011Y-2.4076
X2.2011Y-2.5742
X2.2011Y-2.8073
X2.2071Y-1.8382
X2.215Y-2.7047
X2.2344Y-1.6083
X2.2344Y-3.6067
X2.2421Y-1.6972
X2.2598Y-2.7972
X2.2654Y-2.5543
X2.2661Y-2.4878
X2.2673Y-2.4185
X2.2677Y-3.207
X2.2677Y-3.3735
X2.2677Y-3.7399
X2.2685Y-2.0827
X2.2685Y-2.2173
X2.2689Y-2.3524
X2.2693Y-2.2843
X2.2697Y-2.1504
X2.2701Y-1.9469
X2.2705Y-2.0134
X2.2717Y-1.8791
X2.301Y-1.2752
X2.301Y-2.7074
X2.301Y-2.9405
X2.301Y-3.5068
X2.3024Y-2.765
X2.3441Y-1.7988
X2.3579Y-1.5622
X2.3642Y-3.1673
X2.3646Y-3.0476
X2.3646Y-3.0882
X2.3646Y-3.1287
X2.3676Y-1.142
X2.3676Y-3.2736
X2.3676Y-3.64
X2.3713Y-2.8165
X2.3724Y-2.948
X2.4009Y-1.6083
X2.4009Y-3.4068
X2.4009Y-3.7732
X2.411Y-3.0693
X2.4122Y-3.1315
X2.4126Y-1.6976
X2.4173Y-1.7988
X2.4209Y-2.3402
X2.4209Y-2.4736
X2.4236Y-2.2752
X2.4256Y-1.9205
X2.4283Y-2.1559
X2.4291Y-1.8732
X2.4342Y-3.5401
X2.4366Y-1.9909
X2.4484Y-2.4354
X2.4492Y-2.5232
X2.4559Y-2.0917
X2.4602Y-2.8071
X2.4675Y-1.475
X2.4933Y-2.3449
X2.5009Y-1.2419
X2.5009Y-1.7415
X2.5009Y-3.2403
X2.5009Y-3.6733
X2.5043Y-2.1972
X2.5075Y-2.9193
X2.5102Y-2.8539
X2.5106Y-2.8075
X2.528Y-2.4618
X2.5342Y-3.3735
X2.5453Y-2.4193
X2.5457Y-2.9193
X2.5591Y-2.8539
X2.5675Y-1.5416
X2.5675Y-1.8414
X2.5675Y-3.5068
X2.5906Y-2.4189
X2.6008Y-1.6749
X2.6008Y-3.7399
X2.6341Y-3.2736
X2.6346Y-2.4433
X2.6453Y-2.2319
X2.6476Y-3.0791
X2.6674Y-1.142
X2.6674Y-1.7748
X2.6674Y-2.4076
X2.6674Y-3.4068
X2.6674Y-3.5734
X2.6819Y-2.2315
X2.6823Y-3.0791
X2.7024Y-3.2035
X2.7224Y-2.2071
X2.734Y-1.475
X2.7516Y-2.3787
X2.752Y-2.2441
X2.7535Y-2.4646
X2.7622Y-2.5996
X2.7646Y-3.2028
X2.7673Y-2.1745
X2.7673Y-3.2403
X2.7673Y-3.4735
X2.7673Y-3.64
X2.7929Y-2.2457
X2.7929Y-2.4661
X2.7961Y-2.6469
X2.8006Y-1.5749
X2.8006Y-1.7415
X2.8028Y-3.0996
X2.813Y-3.1567
X2.813Y-3.2024
X2.8315Y-2.9252
X2.8339Y-1.142
X2.8339Y-3.3402
X2.8339Y-3.7399
X2.839Y-2.3776
X2.839Y-2.6035
X2.8394Y-3.1004
X2.8665Y-2.8012
X2.8672Y-2.0746
X2.8672Y-3.5401
X2.8811Y-2.25
X2.8969Y-2.4626
X2.9005Y-1.475
X2.9005Y-1.6416
X2.9173Y-2.4083
X2.9213Y-2.5142
X2.9224Y-2.561
X2.9224Y-2.6083
X2.9338Y-2.1745
X2.9338Y-3.2403
X2.9338Y-3.4068
X2.9338Y-3.64
X2.9672Y-1.2086
X3.0005Y-3.5068
X3.0005Y-3.7399
X3.0338Y-1.1086
X3.0338Y-1.5083
X3.0338Y-1.7748
X3.0338Y-3.3069
X3.0594Y-2.4374
X3.0671Y-3.6067
X3.0898Y-2.6252
X3.1004Y-2.1412
X3.1004Y-3.4068
X3.1337Y-1.2419
X3.1337Y-1.6749
X3.1337Y-3.2403
X3.1337Y-3.7066
X3.1551Y-2.4134
X3.165Y-2.6244
X3.1669Y-2.7209
X3.167Y-1.475
X3.167Y-3.5068
X3.1933Y-1.9941
X3.2003Y-1.1086
X3.2003Y-3.3402
X3.2336Y-1.3085
X3.2336Y-1.5749
X3.2336Y-1.8414
X3.2336Y-3.6067
X3.2638Y-3.7583
X3.2669Y-1.9746
X3.2669Y-3.4401
X3.2933Y-2.7768
X3.3002Y-3.2403
X3.3002Y-3.7066
X3.315Y-2.4437
X3.3287Y-2.7768
X3.3335Y-2.0746
X3.3335Y-3.5401
X3.3441Y-1.9476
X3.3668Y-1.1086
X3.3668Y-1.2752
X3.3668Y-3.1071
X3.3668Y-3.3402
X3.3823Y-2.6921
X3.3823Y-2.7228
X3.3886Y-2.3866
X3.4001Y-1.475
X3.4001Y-1.6749
X3.4001Y-1.8414
X3.4001Y-3.64
X3.4189Y-2.4429
X3.4335Y-1.9746
X3.4335Y-3.207
X3.4335Y-3.4401
X3.4445Y-3.7598
X3.4668Y-2.4742
X3.5001Y-1.5749
X3.5001Y-1.7415
X3.5001Y-3.3069
X3.5001Y-3.5401
X3.5001Y-3.7066
X3.5334Y-1.1086
X3.5334Y-3.1404
X3.5667Y-1.475
X3.5667Y-2.8739
X3.5667Y-3.4068
X3.5854Y-2.2768
X3.6Y-1.908
X3.6Y-2.0746
X3.6Y-2.341
X3.6Y-2.5075
X3.6Y-2.6741
X3.6Y-3.2403
X3.6Y-3.6067
X3.6333Y-1.3085
X3.6333Y-2.9738
X3.6333Y-3.7399
X3.6666Y-1.5416
X3.6666Y-1.7082
X3.6666Y-2.774
X3.6666Y-3.1071
X3.6666Y-3.3402
X3.6666Y-3.5068
X3.6999Y-1.1086
X3.6999Y-1.9746
X3.6999Y-2.2411
X3.6999Y-2.4076
X3.6999Y-2.5742
X3.6999Y-3.8398
X3.7332Y-1.2419
X3.7332Y-2.8739
X3.7332Y-3.207
X3.7332Y-3.64
X3.7665Y-1.475
X3.7665Y-2.6741
X3.7665Y-3.0072
X3.7665Y-3.4068
X3.7998Y-1.3418
X3.7998Y-2.1412
X3.7998Y-2.3077
X3.7998Y-2.4742
X3.7998Y-3.5401
X3.7998Y-3.7399
X3.8331Y-2.774
X3.8331Y-3.1071
X3.8331Y-3.2736
X3.8664Y-1.1086
X3.8664Y-1.5416
X3.8664Y-1.7082
X3.8664Y-2.0412
X3.8664Y-2.5742
X3.8664Y-2.9072
X3.8664Y-3.8398
T2
X2.6795Y-2.1295
X2.737Y-1.8457
X2.8012Y-2.063
X2.9689Y-1.6004
T3
X2.4665Y-1.65
X2.5098Y-1.65
T4
X0.7445Y-3.7768
X0.8445Y-3.7768
X1.0445Y-3.7768
T5
X3.598Y-1.6421
X3.598Y-1.7421
X3.598Y-1.8421
T6
X0.8122Y-1.6772
X0.8122Y-1.7772
X0.8122Y-1.8772
X0.8122Y-1.9772
X0.8122Y-2.0772
X0.8122Y-2.1772
X0.8122Y-2.2772
X0.8122Y-2.3772
X0.8122Y-2.4772
X0.8122Y-2.5772
X0.8122Y-2.6772
X0.8122Y-2.7772
X0.8122Y-2.8772
X0.8122Y-2.9772
X0.8122Y-3.0772
X0.8122Y-3.1772
X0.8122Y-3.2772
X0.8122Y-3.3772
X0.8122Y-3.4772
X0.8122Y-3.5772
X0.9122Y-1.6772
X0.9122Y-1.7772
X0.9122Y-1.8772
X0.9122Y-1.9772
X0.9122Y-2.0772
X0.9122Y-2.1772
X0.9122Y-2.2772
X0.9122Y-2.3772
X0.9122Y-2.4772
X0.9122Y-2.5772
X0.9122Y-2.6772
X0.9122Y-2.7772
X0.9122Y-2.8772
X0.9122Y-2.9772
X0.9122Y-3.0772
X0.9122Y-3.1772
X0.9122Y-3.2772
X0.9122Y-3.3772
X0.9122Y-3.4772
X0.9122Y-3.5772
X1.6646Y-1.2799
X1.6646Y-1.3799
X1.6654Y-3.8232
X1.7646Y-1.2799
X1.7646Y-1.3799
X1.7654Y-3.8232
X1.8646Y-1.2799
X1.8646Y-1.3799
X1.8654Y-3.8232
X1.9646Y-1.2799
X1.9646Y-1.3799
X1.9654Y-3.8232
X2.0654Y-3.8232
X2.1654Y-3.8232
X2.2654Y-3.8232
X2.3654Y-3.8232
X2.4654Y-3.8232
X2.5654Y-3.8232
X2.6654Y-3.8232
X2.7654Y-3.8232
X2.8654Y-3.8232
X2.9654Y-3.8232
X3.0165Y-1.8949
X3.0165Y-1.9949
X3.0165Y-2.0949
X3.0654Y-3.8232
X3.1469Y-2.9323
X3.1469Y-3.0323
X3.1654Y-3.8232
X3.2469Y-2.9323
X3.2469Y-3.0323
X3.2654Y-3.8232
X3.3469Y-2.9323
X3.3469Y-3.0323
X3.3654Y-3.8232
X3.4469Y-2.9323
X3.4469Y-3.0323
X3.4654Y-3.8232
X3.5654Y-3.8232
T7
X3.7004Y-1.6421
X3.7004Y-1.8421
T8
X2.2183Y-1.4008
X2.2933Y-1.2008
X2.3683Y-1.4008
X2.4433Y-1.2008
X2.5183Y-1.4008
X2.5933Y-1.2008
X2.6683Y-1.4008
X2.7433Y-1.2008
X2.8183Y-1.4008
X2.8933Y-1.2008
X2.9683Y-1.4008
X3.0433Y-1.2008
X3.1183Y-1.4008
X3.1933Y-1.2008
X3.2683Y-1.4008
X3.3433Y-1.2008
X3.4183Y-1.4008
X3.4933Y-1.2008
X3.5683Y-1.4008
X3.6433Y-1.2008
X3.7183Y-1.4008
T9
X1.1059Y-1.3694
T10
X3.7988Y-1.6319
X3.7988Y-1.8524
T0
M30
