G04 #@! TF.GenerationSoftware,KiCad,Pcbnew,5.1.5+dfsg1-2*
G04 #@! TF.CreationDate,2020-02-07T00:59:59+02:00*
G04 #@! TF.ProjectId,isl_board,69736c5f-626f-4617-9264-2e6b69636164,rev?*
G04 #@! TF.SameCoordinates,Original*
G04 #@! TF.FileFunction,Legend,Top*
G04 #@! TF.FilePolarity,Positive*
%FSLAX46Y46*%
G04 Gerber Fmt 4.6, Leading zero omitted, Abs format (unit mm)*
G04 Created by KiCad (PCBNEW 5.1.5+dfsg1-2) date 2020-02-07 00:59:59*
%MOMM*%
%LPD*%
G04 APERTURE LIST*
%ADD10C,0.300000*%
%ADD11C,0.119380*%
%ADD12C,0.120000*%
%ADD13C,0.150000*%
%ADD14C,0.099060*%
%ADD15C,0.152400*%
%ADD16C,0.127000*%
%ADD17C,0.114300*%
G04 APERTURE END LIST*
D10*
X55527142Y-78163571D02*
X55527142Y-76663571D01*
X55884285Y-76663571D01*
X56098571Y-76735000D01*
X56241428Y-76877857D01*
X56312857Y-77020714D01*
X56384285Y-77306428D01*
X56384285Y-77520714D01*
X56312857Y-77806428D01*
X56241428Y-77949285D01*
X56098571Y-78092142D01*
X55884285Y-78163571D01*
X55527142Y-78163571D01*
X57027142Y-77377857D02*
X57527142Y-77377857D01*
X57741428Y-78163571D02*
X57027142Y-78163571D01*
X57027142Y-76663571D01*
X57741428Y-76663571D01*
X58241428Y-78163571D02*
X59027142Y-77163571D01*
X58241428Y-77163571D02*
X59027142Y-78163571D01*
X59455714Y-78163571D02*
X60241428Y-77163571D01*
X59455714Y-77163571D02*
X60241428Y-78163571D01*
X60812857Y-77592142D02*
X61955714Y-77592142D01*
X62527142Y-77163571D02*
X62884285Y-78163571D01*
X63241428Y-77163571D01*
X64455714Y-78163571D02*
X64455714Y-76663571D01*
X64455714Y-78092142D02*
X64312857Y-78163571D01*
X64027142Y-78163571D01*
X63884285Y-78092142D01*
X63812857Y-78020714D01*
X63741428Y-77877857D01*
X63741428Y-77449285D01*
X63812857Y-77306428D01*
X63884285Y-77235000D01*
X64027142Y-77163571D01*
X64312857Y-77163571D01*
X64455714Y-77235000D01*
X64812857Y-78306428D02*
X65955714Y-78306428D01*
X66312857Y-78163571D02*
X66312857Y-77163571D01*
X66312857Y-76663571D02*
X66241428Y-76735000D01*
X66312857Y-76806428D01*
X66384285Y-76735000D01*
X66312857Y-76663571D01*
X66312857Y-76806428D01*
X66955714Y-78092142D02*
X67098571Y-78163571D01*
X67384285Y-78163571D01*
X67527142Y-78092142D01*
X67598571Y-77949285D01*
X67598571Y-77877857D01*
X67527142Y-77735000D01*
X67384285Y-77663571D01*
X67170000Y-77663571D01*
X67027142Y-77592142D01*
X66955714Y-77449285D01*
X66955714Y-77377857D01*
X67027142Y-77235000D01*
X67170000Y-77163571D01*
X67384285Y-77163571D01*
X67527142Y-77235000D01*
X68455714Y-78163571D02*
X68312857Y-78092142D01*
X68241428Y-77949285D01*
X68241428Y-76663571D01*
X59420000Y-79713571D02*
X59777142Y-80713571D01*
X60134285Y-79713571D01*
X60705714Y-80570714D02*
X60777142Y-80642142D01*
X60705714Y-80713571D01*
X60634285Y-80642142D01*
X60705714Y-80570714D01*
X60705714Y-80713571D01*
X62205714Y-80713571D02*
X61348571Y-80713571D01*
X61777142Y-80713571D02*
X61777142Y-79213571D01*
X61634285Y-79427857D01*
X61491428Y-79570714D01*
X61348571Y-79642142D01*
X62848571Y-80570714D02*
X62920000Y-80642142D01*
X62848571Y-80713571D01*
X62777142Y-80642142D01*
X62848571Y-80570714D01*
X62848571Y-80713571D01*
X63491428Y-79356428D02*
X63562857Y-79285000D01*
X63705714Y-79213571D01*
X64062857Y-79213571D01*
X64205714Y-79285000D01*
X64277142Y-79356428D01*
X64348571Y-79499285D01*
X64348571Y-79642142D01*
X64277142Y-79856428D01*
X63420000Y-80713571D01*
X64348571Y-80713571D01*
D11*
X27770320Y-41358000D02*
X27770320Y-42882000D01*
X25189680Y-42882000D02*
X25189680Y-41358000D01*
X27762700Y-42904860D02*
X26980380Y-42904860D01*
X25979620Y-42904860D02*
X25197300Y-42904860D01*
X26980380Y-41335140D02*
X27762700Y-41335140D01*
X25979620Y-41335140D02*
X25197300Y-41335140D01*
X24388000Y-38469680D02*
X25912000Y-38469680D01*
X25912000Y-41050320D02*
X24388000Y-41050320D01*
X25934860Y-38477300D02*
X25934860Y-39259620D01*
X25934860Y-40260380D02*
X25934860Y-41042700D01*
X24365140Y-39259620D02*
X24365140Y-38477300D01*
X24365140Y-40260380D02*
X24365140Y-41042700D01*
D12*
X88880000Y-78350000D02*
X88880000Y-73150000D01*
X81200000Y-78350000D02*
X88880000Y-78350000D01*
X78600000Y-73150000D02*
X88880000Y-73150000D01*
X81200000Y-78350000D02*
X81200000Y-75750000D01*
X81200000Y-75750000D02*
X78600000Y-75750000D01*
X78600000Y-75750000D02*
X78600000Y-73150000D01*
X79930000Y-78350000D02*
X78600000Y-78350000D01*
X78600000Y-78350000D02*
X78600000Y-77020000D01*
X32173744Y-30734232D02*
G75*
G03X37830000Y-30730000I2826256J2504232D01*
G01*
X29980000Y-30730000D02*
X32180000Y-30730000D01*
X29980000Y-28230000D02*
X29980000Y-30730000D01*
X40180000Y-26530000D02*
X31280000Y-26530000D01*
X40180000Y-30730000D02*
X40180000Y-26530000D01*
X37780000Y-30730000D02*
X40180000Y-30730000D01*
X32180000Y-30730000D02*
X37880000Y-30730000D01*
D11*
X45172000Y-91670320D02*
X43648000Y-91670320D01*
X43648000Y-89089680D02*
X45172000Y-89089680D01*
X43625140Y-91662700D02*
X43625140Y-90880380D01*
X43625140Y-89879620D02*
X43625140Y-89097300D01*
X45194860Y-90880380D02*
X45194860Y-91662700D01*
X45194860Y-89879620D02*
X45194860Y-89097300D01*
X50232000Y-91680320D02*
X48708000Y-91680320D01*
X48708000Y-89099680D02*
X50232000Y-89099680D01*
X48685140Y-91672700D02*
X48685140Y-90890380D01*
X48685140Y-89889620D02*
X48685140Y-89107300D01*
X50254860Y-90890380D02*
X50254860Y-91672700D01*
X50254860Y-89889620D02*
X50254860Y-89107300D01*
D12*
X88890000Y-92350000D02*
X88890000Y-93680000D01*
X87560000Y-92350000D02*
X88890000Y-92350000D01*
X86290000Y-92350000D02*
X86290000Y-95010000D01*
X86290000Y-95010000D02*
X37970000Y-95010000D01*
X86290000Y-92350000D02*
X37970000Y-92350000D01*
X37970000Y-92350000D02*
X37970000Y-95010000D01*
D11*
X85160320Y-90118000D02*
X85160320Y-91642000D01*
X82579680Y-91642000D02*
X82579680Y-90118000D01*
X85152700Y-91664860D02*
X84370380Y-91664860D01*
X83369620Y-91664860D02*
X82587300Y-91664860D01*
X84370380Y-90095140D02*
X85152700Y-90095140D01*
X83369620Y-90095140D02*
X82587300Y-90095140D01*
D13*
X102741660Y-26557920D02*
X99774940Y-30025020D01*
X102749280Y-30040260D02*
X99777480Y-26560460D01*
X50482680Y-26542680D02*
X47493100Y-30045340D01*
X50490300Y-30047880D02*
X47503260Y-26555380D01*
X102760000Y-26550000D02*
X102760000Y-30050000D01*
X47490000Y-30050000D02*
X47490000Y-26550000D01*
X47490000Y-26550000D02*
X102760000Y-26550000D01*
X99760000Y-26550000D02*
X99760000Y-30050000D01*
X97145000Y-30050000D02*
X102760000Y-30050000D01*
X97145000Y-30050000D02*
X97145000Y-37500000D01*
X97145000Y-37500000D02*
X53645000Y-37500000D01*
X53645000Y-37500000D02*
X53645000Y-30050000D01*
X53645000Y-30050000D02*
X47490000Y-30050000D01*
X50490000Y-30050000D02*
X50490000Y-26550000D01*
D14*
X87829160Y-51472500D02*
X87829160Y-52552000D01*
X86041000Y-51462340D02*
X87819000Y-51462340D01*
X86030840Y-52552000D02*
X86030840Y-51472500D01*
X86030840Y-54647500D02*
X86030840Y-53568000D01*
X87819000Y-54657660D02*
X86041000Y-54657660D01*
X87829160Y-53568000D02*
X87829160Y-54647500D01*
X88080620Y-54624640D02*
G75*
G03X88080620Y-54624640I-127000J0D01*
G01*
X82300620Y-54594640D02*
G75*
G03X82300620Y-54594640I-127000J0D01*
G01*
X82049160Y-53538000D02*
X82049160Y-54617500D01*
X82039000Y-54627660D02*
X80261000Y-54627660D01*
X80250840Y-54617500D02*
X80250840Y-53538000D01*
X80250840Y-52522000D02*
X80250840Y-51442500D01*
X80261000Y-51432340D02*
X82039000Y-51432340D01*
X82049160Y-51442500D02*
X82049160Y-52522000D01*
X81989160Y-62212500D02*
X81989160Y-63292000D01*
X80201000Y-62202340D02*
X81979000Y-62202340D01*
X80190840Y-63292000D02*
X80190840Y-62212500D01*
X80190840Y-65387500D02*
X80190840Y-64308000D01*
X81979000Y-65397660D02*
X80201000Y-65397660D01*
X81989160Y-64308000D02*
X81989160Y-65387500D01*
X82240620Y-65364640D02*
G75*
G03X82240620Y-65364640I-127000J0D01*
G01*
X85251640Y-68296380D02*
G75*
G03X85251640Y-68296380I-127000J0D01*
G01*
X84068000Y-68420840D02*
X85147500Y-68420840D01*
X85157660Y-68431000D02*
X85157660Y-70209000D01*
X85147500Y-70219160D02*
X84068000Y-70219160D01*
X83052000Y-70219160D02*
X81972500Y-70219160D01*
X81962340Y-70209000D02*
X81962340Y-68431000D01*
X81972500Y-68420840D02*
X83052000Y-68420840D01*
D13*
X102115000Y-39400000D02*
X102115000Y-49100000D01*
X102115000Y-49100000D02*
X88615000Y-49100000D01*
X88615000Y-49100000D02*
X88615000Y-39400000D01*
X88615000Y-39400000D02*
X102115000Y-39400000D01*
X99765000Y-39400000D02*
X99765000Y-49100000D01*
D11*
X59854860Y-71869620D02*
X59854860Y-71087300D01*
X59854860Y-72870380D02*
X59854860Y-73652700D01*
X58285140Y-71869620D02*
X58285140Y-71087300D01*
X58285140Y-73652700D02*
X58285140Y-72870380D01*
X58308000Y-71079680D02*
X59832000Y-71079680D01*
X59832000Y-73660320D02*
X58308000Y-73660320D01*
X27470380Y-61784860D02*
X28252700Y-61784860D01*
X26469620Y-61784860D02*
X25687300Y-61784860D01*
X27470380Y-60215140D02*
X28252700Y-60215140D01*
X25687300Y-60215140D02*
X26469620Y-60215140D01*
X28260320Y-60238000D02*
X28260320Y-61762000D01*
X25679680Y-61762000D02*
X25679680Y-60238000D01*
X30500380Y-72904860D02*
X31282700Y-72904860D01*
X29499620Y-72904860D02*
X28717300Y-72904860D01*
X30500380Y-71335140D02*
X31282700Y-71335140D01*
X28717300Y-71335140D02*
X29499620Y-71335140D01*
X31290320Y-71358000D02*
X31290320Y-72882000D01*
X28709680Y-72882000D02*
X28709680Y-71358000D01*
X30500380Y-67774860D02*
X31282700Y-67774860D01*
X29499620Y-67774860D02*
X28717300Y-67774860D01*
X30500380Y-66205140D02*
X31282700Y-66205140D01*
X28717300Y-66205140D02*
X29499620Y-66205140D01*
X31290320Y-66228000D02*
X31290320Y-67752000D01*
X28709680Y-67752000D02*
X28709680Y-66228000D01*
X30470380Y-59144860D02*
X31252700Y-59144860D01*
X29469620Y-59144860D02*
X28687300Y-59144860D01*
X30470380Y-57575140D02*
X31252700Y-57575140D01*
X28687300Y-57575140D02*
X29469620Y-57575140D01*
X31260320Y-57598000D02*
X31260320Y-59122000D01*
X28679680Y-59122000D02*
X28679680Y-57598000D01*
X30470380Y-57434860D02*
X31252700Y-57434860D01*
X29469620Y-57434860D02*
X28687300Y-57434860D01*
X30470380Y-55865140D02*
X31252700Y-55865140D01*
X28687300Y-55865140D02*
X29469620Y-55865140D01*
X31260320Y-55888000D02*
X31260320Y-57412000D01*
X28679680Y-57412000D02*
X28679680Y-55888000D01*
X30500380Y-71194860D02*
X31282700Y-71194860D01*
X29499620Y-71194860D02*
X28717300Y-71194860D01*
X30500380Y-69625140D02*
X31282700Y-69625140D01*
X28717300Y-69625140D02*
X29499620Y-69625140D01*
X31290320Y-69648000D02*
X31290320Y-71172000D01*
X28709680Y-71172000D02*
X28709680Y-69648000D01*
X30500380Y-69484860D02*
X31282700Y-69484860D01*
X29499620Y-69484860D02*
X28717300Y-69484860D01*
X30500380Y-67915140D02*
X31282700Y-67915140D01*
X28717300Y-67915140D02*
X29499620Y-67915140D01*
X31290320Y-67938000D02*
X31290320Y-69462000D01*
X28709680Y-69462000D02*
X28709680Y-67938000D01*
X27470380Y-66914860D02*
X28252700Y-66914860D01*
X26469620Y-66914860D02*
X25687300Y-66914860D01*
X27470380Y-65345140D02*
X28252700Y-65345140D01*
X25687300Y-65345140D02*
X26469620Y-65345140D01*
X28260320Y-65368000D02*
X28260320Y-66892000D01*
X25679680Y-66892000D02*
X25679680Y-65368000D01*
X27470380Y-63494860D02*
X28252700Y-63494860D01*
X26469620Y-63494860D02*
X25687300Y-63494860D01*
X27470380Y-61925140D02*
X28252700Y-61925140D01*
X25687300Y-61925140D02*
X26469620Y-61925140D01*
X28260320Y-61948000D02*
X28260320Y-63472000D01*
X25679680Y-63472000D02*
X25679680Y-61948000D01*
X27470380Y-65204860D02*
X28252700Y-65204860D01*
X26469620Y-65204860D02*
X25687300Y-65204860D01*
X27470380Y-63635140D02*
X28252700Y-63635140D01*
X25687300Y-63635140D02*
X26469620Y-63635140D01*
X28260320Y-63658000D02*
X28260320Y-65182000D01*
X25679680Y-65182000D02*
X25679680Y-63658000D01*
X30470380Y-55724860D02*
X31252700Y-55724860D01*
X29469620Y-55724860D02*
X28687300Y-55724860D01*
X30470380Y-54155140D02*
X31252700Y-54155140D01*
X28687300Y-54155140D02*
X29469620Y-54155140D01*
X31260320Y-54178000D02*
X31260320Y-55702000D01*
X28679680Y-55702000D02*
X28679680Y-54178000D01*
X30470380Y-60854860D02*
X31252700Y-60854860D01*
X29469620Y-60854860D02*
X28687300Y-60854860D01*
X30470380Y-59285140D02*
X31252700Y-59285140D01*
X28687300Y-59285140D02*
X29469620Y-59285140D01*
X31260320Y-59308000D02*
X31260320Y-60832000D01*
X28679680Y-60832000D02*
X28679680Y-59308000D01*
X21414860Y-37181620D02*
X21414860Y-36399300D01*
X21414860Y-38182380D02*
X21414860Y-38964700D01*
X19845140Y-37181620D02*
X19845140Y-36399300D01*
X19845140Y-38964700D02*
X19845140Y-38182380D01*
X19868000Y-36391680D02*
X21392000Y-36391680D01*
X21392000Y-38972320D02*
X19868000Y-38972320D01*
D12*
X51230000Y-31180000D02*
X51230000Y-32510000D01*
X49900000Y-31180000D02*
X51230000Y-31180000D01*
X51230000Y-33780000D02*
X51230000Y-36380000D01*
X48630000Y-33780000D02*
X51230000Y-33780000D01*
X48630000Y-31180000D02*
X48630000Y-33780000D01*
X51230000Y-36380000D02*
X40950000Y-36380000D01*
X48630000Y-31180000D02*
X40950000Y-31180000D01*
X40950000Y-31180000D02*
X40950000Y-36380000D01*
D15*
X88219700Y-63814900D02*
X88219700Y-59065100D01*
X88219700Y-59065100D02*
X88000541Y-59065100D01*
X82860300Y-59065100D02*
X82860300Y-63814900D01*
X82860300Y-63814900D02*
X83079459Y-63814900D01*
X88000539Y-63814900D02*
X88219700Y-63814900D01*
X83079461Y-59065100D02*
X82860300Y-59065100D01*
X85999499Y-57274400D02*
X86380499Y-57274400D01*
X86380499Y-57274400D02*
X86380499Y-57528400D01*
X86380499Y-57528400D02*
X85999499Y-57528400D01*
X85999499Y-57528400D02*
X85999499Y-57274400D01*
D11*
X79902000Y-65380320D02*
X78378000Y-65380320D01*
X78378000Y-62799680D02*
X79902000Y-62799680D01*
X78355140Y-65372700D02*
X78355140Y-64590380D01*
X78355140Y-63589620D02*
X78355140Y-62807300D01*
X79924860Y-64590380D02*
X79924860Y-65372700D01*
X79924860Y-63589620D02*
X79924860Y-62807300D01*
X86169620Y-66345140D02*
X85387300Y-66345140D01*
X87170380Y-66345140D02*
X87952700Y-66345140D01*
X86169620Y-67914860D02*
X85387300Y-67914860D01*
X87952700Y-67914860D02*
X87170380Y-67914860D01*
X85379680Y-67892000D02*
X85379680Y-66368000D01*
X87960320Y-66368000D02*
X87960320Y-67892000D01*
X85100320Y-66368000D02*
X85100320Y-67892000D01*
X82519680Y-67892000D02*
X82519680Y-66368000D01*
X85092700Y-67914860D02*
X84310380Y-67914860D01*
X83309620Y-67914860D02*
X82527300Y-67914860D01*
X84310380Y-66345140D02*
X85092700Y-66345140D01*
X83309620Y-66345140D02*
X82527300Y-66345140D01*
X27874860Y-39259620D02*
X27874860Y-38477300D01*
X27874860Y-40260380D02*
X27874860Y-41042700D01*
X26305140Y-39259620D02*
X26305140Y-38477300D01*
X26305140Y-41042700D02*
X26305140Y-40260380D01*
X26328000Y-38469680D02*
X27852000Y-38469680D01*
X27852000Y-41050320D02*
X26328000Y-41050320D01*
X86049680Y-56562000D02*
X86049680Y-55038000D01*
X88630320Y-55038000D02*
X88630320Y-56562000D01*
X86057300Y-55015140D02*
X86839620Y-55015140D01*
X87840380Y-55015140D02*
X88622700Y-55015140D01*
X86839620Y-56584860D02*
X86057300Y-56584860D01*
X87840380Y-56584860D02*
X88622700Y-56584860D01*
X80179620Y-54985140D02*
X79397300Y-54985140D01*
X81180380Y-54985140D02*
X81962700Y-54985140D01*
X80179620Y-56554860D02*
X79397300Y-56554860D01*
X81962700Y-56554860D02*
X81180380Y-56554860D01*
X79389680Y-56532000D02*
X79389680Y-55008000D01*
X81970320Y-55008000D02*
X81970320Y-56532000D01*
X83892000Y-56060320D02*
X82368000Y-56060320D01*
X82368000Y-53479680D02*
X83892000Y-53479680D01*
X82345140Y-56052700D02*
X82345140Y-55270380D01*
X82345140Y-54269620D02*
X82345140Y-53487300D01*
X83914860Y-55270380D02*
X83914860Y-56052700D01*
X83914860Y-54269620D02*
X83914860Y-53487300D01*
X85704860Y-54269620D02*
X85704860Y-53487300D01*
X85704860Y-55270380D02*
X85704860Y-56052700D01*
X84135140Y-54269620D02*
X84135140Y-53487300D01*
X84135140Y-56052700D02*
X84135140Y-55270380D01*
X84158000Y-53479680D02*
X85682000Y-53479680D01*
X85682000Y-56060320D02*
X84158000Y-56060320D01*
D13*
X26665948Y-36548143D02*
G75*
G03X26665948Y-36548143I-209115J0D01*
G01*
X25940053Y-32632843D02*
X25940053Y-33407843D01*
X30240053Y-32632843D02*
X30240053Y-33407843D01*
X30240053Y-36932843D02*
X30240053Y-36157843D01*
X25940053Y-36932843D02*
X25940053Y-36157843D01*
X30240053Y-32632843D02*
X29465053Y-32632843D01*
X30240053Y-36932843D02*
X29465053Y-36932843D01*
X25940053Y-32632843D02*
X26715053Y-32632843D01*
D11*
X72904860Y-63489620D02*
X72904860Y-62707300D01*
X72904860Y-64490380D02*
X72904860Y-65272700D01*
X71335140Y-63489620D02*
X71335140Y-62707300D01*
X71335140Y-65272700D02*
X71335140Y-64490380D01*
X71358000Y-62699680D02*
X72882000Y-62699680D01*
X72882000Y-65280320D02*
X71358000Y-65280320D01*
X72874860Y-59469620D02*
X72874860Y-58687300D01*
X72874860Y-60470380D02*
X72874860Y-61252700D01*
X71305140Y-59469620D02*
X71305140Y-58687300D01*
X71305140Y-61252700D02*
X71305140Y-60470380D01*
X71328000Y-58679680D02*
X72852000Y-58679680D01*
X72852000Y-61260320D02*
X71328000Y-61260320D01*
X35145140Y-41830380D02*
X35145140Y-42612700D01*
X35145140Y-40829620D02*
X35145140Y-40047300D01*
X36714860Y-41830380D02*
X36714860Y-42612700D01*
X36714860Y-40047300D02*
X36714860Y-40829620D01*
X36692000Y-42620320D02*
X35168000Y-42620320D01*
X35168000Y-40039680D02*
X36692000Y-40039680D01*
X63049620Y-66175140D02*
X62267300Y-66175140D01*
X64050380Y-66175140D02*
X64832700Y-66175140D01*
X63049620Y-67744860D02*
X62267300Y-67744860D01*
X64832700Y-67744860D02*
X64050380Y-67744860D01*
X62259680Y-67722000D02*
X62259680Y-66198000D01*
X64840320Y-66198000D02*
X64840320Y-67722000D01*
X63119620Y-73205140D02*
X62337300Y-73205140D01*
X64120380Y-73205140D02*
X64902700Y-73205140D01*
X63119620Y-74774860D02*
X62337300Y-74774860D01*
X64902700Y-74774860D02*
X64120380Y-74774860D01*
X62329680Y-74752000D02*
X62329680Y-73228000D01*
X64910320Y-73228000D02*
X64910320Y-74752000D01*
X65074860Y-63279620D02*
X65074860Y-62497300D01*
X65074860Y-64280380D02*
X65074860Y-65062700D01*
X63505140Y-63279620D02*
X63505140Y-62497300D01*
X63505140Y-65062700D02*
X63505140Y-64280380D01*
X63528000Y-62489680D02*
X65052000Y-62489680D01*
X65052000Y-65070320D02*
X63528000Y-65070320D01*
X65084860Y-59089620D02*
X65084860Y-58307300D01*
X65084860Y-60090380D02*
X65084860Y-60872700D01*
X63515140Y-59089620D02*
X63515140Y-58307300D01*
X63515140Y-60872700D02*
X63515140Y-60090380D01*
X63538000Y-58299680D02*
X65062000Y-58299680D01*
X65062000Y-60880320D02*
X63538000Y-60880320D01*
X42855140Y-41810380D02*
X42855140Y-42592700D01*
X42855140Y-40809620D02*
X42855140Y-40027300D01*
X44424860Y-41810380D02*
X44424860Y-42592700D01*
X44424860Y-40027300D02*
X44424860Y-40809620D01*
X44402000Y-42600320D02*
X42878000Y-42600320D01*
X42878000Y-40019680D02*
X44402000Y-40019680D01*
X65310380Y-54894860D02*
X66092700Y-54894860D01*
X64309620Y-54894860D02*
X63527300Y-54894860D01*
X65310380Y-53325140D02*
X66092700Y-53325140D01*
X63527300Y-53325140D02*
X64309620Y-53325140D01*
X66100320Y-53348000D02*
X66100320Y-54872000D01*
X63519680Y-54872000D02*
X63519680Y-53348000D01*
X67059620Y-49905140D02*
X66277300Y-49905140D01*
X68060380Y-49905140D02*
X68842700Y-49905140D01*
X67059620Y-51474860D02*
X66277300Y-51474860D01*
X68842700Y-51474860D02*
X68060380Y-51474860D01*
X66269680Y-51452000D02*
X66269680Y-49928000D01*
X68850320Y-49928000D02*
X68850320Y-51452000D01*
X64309620Y-51615140D02*
X63527300Y-51615140D01*
X65310380Y-51615140D02*
X66092700Y-51615140D01*
X64309620Y-53184860D02*
X63527300Y-53184860D01*
X66092700Y-53184860D02*
X65310380Y-53184860D01*
X63519680Y-53162000D02*
X63519680Y-51638000D01*
X66100320Y-51638000D02*
X66100320Y-53162000D01*
X64309620Y-48195140D02*
X63527300Y-48195140D01*
X65310380Y-48195140D02*
X66092700Y-48195140D01*
X64309620Y-49764860D02*
X63527300Y-49764860D01*
X66092700Y-49764860D02*
X65310380Y-49764860D01*
X63519680Y-49742000D02*
X63519680Y-48218000D01*
X66100320Y-48218000D02*
X66100320Y-49742000D01*
X49295140Y-39850380D02*
X49295140Y-40632700D01*
X49295140Y-38849620D02*
X49295140Y-38067300D01*
X50864860Y-39850380D02*
X50864860Y-40632700D01*
X50864860Y-38067300D02*
X50864860Y-38849620D01*
X50842000Y-40640320D02*
X49318000Y-40640320D01*
X49318000Y-38059680D02*
X50842000Y-38059680D01*
X54655140Y-39860380D02*
X54655140Y-40642700D01*
X54655140Y-38859620D02*
X54655140Y-38077300D01*
X56224860Y-39860380D02*
X56224860Y-40642700D01*
X56224860Y-38077300D02*
X56224860Y-38859620D01*
X56202000Y-40650320D02*
X54678000Y-40650320D01*
X54678000Y-38069680D02*
X56202000Y-38069680D01*
D12*
X19240000Y-43870000D02*
X19240000Y-92250000D01*
X19240000Y-92250000D02*
X24560000Y-92250000D01*
X24560000Y-92250000D02*
X24560000Y-41210000D01*
X24560000Y-41210000D02*
X21900000Y-41210000D01*
X21900000Y-41210000D02*
X21900000Y-43870000D01*
X21900000Y-43870000D02*
X19240000Y-43870000D01*
X19240000Y-42600000D02*
X19240000Y-41210000D01*
X19240000Y-41210000D02*
X20630000Y-41210000D01*
D11*
X64309620Y-49905140D02*
X63527300Y-49905140D01*
X65310380Y-49905140D02*
X66092700Y-49905140D01*
X64309620Y-51474860D02*
X63527300Y-51474860D01*
X66092700Y-51474860D02*
X65310380Y-51474860D01*
X63519680Y-51452000D02*
X63519680Y-49928000D01*
X66100320Y-49928000D02*
X66100320Y-51452000D01*
X30430380Y-91964860D02*
X31212700Y-91964860D01*
X29429620Y-91964860D02*
X28647300Y-91964860D01*
X30430380Y-90395140D02*
X31212700Y-90395140D01*
X28647300Y-90395140D02*
X29429620Y-90395140D01*
X31220320Y-90418000D02*
X31220320Y-91942000D01*
X28639680Y-91942000D02*
X28639680Y-90418000D01*
X27460380Y-91024860D02*
X28242700Y-91024860D01*
X26459620Y-91024860D02*
X25677300Y-91024860D01*
X27460380Y-89455140D02*
X28242700Y-89455140D01*
X25677300Y-89455140D02*
X26459620Y-89455140D01*
X28250320Y-89478000D02*
X28250320Y-91002000D01*
X25669680Y-91002000D02*
X25669680Y-89478000D01*
X27460380Y-89314860D02*
X28242700Y-89314860D01*
X26459620Y-89314860D02*
X25677300Y-89314860D01*
X27460380Y-87745140D02*
X28242700Y-87745140D01*
X25677300Y-87745140D02*
X26459620Y-87745140D01*
X28250320Y-87768000D02*
X28250320Y-89292000D01*
X25669680Y-89292000D02*
X25669680Y-87768000D01*
X27460380Y-87604860D02*
X28242700Y-87604860D01*
X26459620Y-87604860D02*
X25677300Y-87604860D01*
X27460380Y-86035140D02*
X28242700Y-86035140D01*
X25677300Y-86035140D02*
X26459620Y-86035140D01*
X28250320Y-86058000D02*
X28250320Y-87582000D01*
X25669680Y-87582000D02*
X25669680Y-86058000D01*
X27460380Y-85894860D02*
X28242700Y-85894860D01*
X26459620Y-85894860D02*
X25677300Y-85894860D01*
X27460380Y-84325140D02*
X28242700Y-84325140D01*
X25677300Y-84325140D02*
X26459620Y-84325140D01*
X28250320Y-84348000D02*
X28250320Y-85872000D01*
X25669680Y-85872000D02*
X25669680Y-84348000D01*
X51025140Y-39850380D02*
X51025140Y-40632700D01*
X51025140Y-38849620D02*
X51025140Y-38067300D01*
X52594860Y-39850380D02*
X52594860Y-40632700D01*
X52594860Y-38067300D02*
X52594860Y-38849620D01*
X52572000Y-40640320D02*
X51048000Y-40640320D01*
X51048000Y-38059680D02*
X52572000Y-38059680D01*
X50959620Y-40855140D02*
X50177300Y-40855140D01*
X51960380Y-40855140D02*
X52742700Y-40855140D01*
X50959620Y-42424860D02*
X50177300Y-42424860D01*
X52742700Y-42424860D02*
X51960380Y-42424860D01*
X50169680Y-42402000D02*
X50169680Y-40878000D01*
X52750320Y-40878000D02*
X52750320Y-42402000D01*
X30440380Y-84914860D02*
X31222700Y-84914860D01*
X29439620Y-84914860D02*
X28657300Y-84914860D01*
X30440380Y-83345140D02*
X31222700Y-83345140D01*
X28657300Y-83345140D02*
X29439620Y-83345140D01*
X31230320Y-83368000D02*
X31230320Y-84892000D01*
X28649680Y-84892000D02*
X28649680Y-83368000D01*
X30440380Y-83194860D02*
X31222700Y-83194860D01*
X29439620Y-83194860D02*
X28657300Y-83194860D01*
X30440380Y-81625140D02*
X31222700Y-81625140D01*
X28657300Y-81625140D02*
X29439620Y-81625140D01*
X31230320Y-81648000D02*
X31230320Y-83172000D01*
X28649680Y-83172000D02*
X28649680Y-81648000D01*
X52935140Y-39860380D02*
X52935140Y-40642700D01*
X52935140Y-38859620D02*
X52935140Y-38077300D01*
X54504860Y-39860380D02*
X54504860Y-40642700D01*
X54504860Y-38077300D02*
X54504860Y-38859620D01*
X54482000Y-40650320D02*
X52958000Y-40650320D01*
X52958000Y-38069680D02*
X54482000Y-38069680D01*
X54710380Y-42424860D02*
X55492700Y-42424860D01*
X53709620Y-42424860D02*
X52927300Y-42424860D01*
X54710380Y-40855140D02*
X55492700Y-40855140D01*
X52927300Y-40855140D02*
X53709620Y-40855140D01*
X55500320Y-40878000D02*
X55500320Y-42402000D01*
X52919680Y-42402000D02*
X52919680Y-40878000D01*
X30440380Y-81474860D02*
X31222700Y-81474860D01*
X29439620Y-81474860D02*
X28657300Y-81474860D01*
X30440380Y-79905140D02*
X31222700Y-79905140D01*
X28657300Y-79905140D02*
X29439620Y-79905140D01*
X31230320Y-79928000D02*
X31230320Y-81452000D01*
X28649680Y-81452000D02*
X28649680Y-79928000D01*
X30440380Y-79764860D02*
X31222700Y-79764860D01*
X29439620Y-79764860D02*
X28657300Y-79764860D01*
X30440380Y-78195140D02*
X31222700Y-78195140D01*
X28657300Y-78195140D02*
X29439620Y-78195140D01*
X31230320Y-78218000D02*
X31230320Y-79742000D01*
X28649680Y-79742000D02*
X28649680Y-78218000D01*
X27470380Y-78884860D02*
X28252700Y-78884860D01*
X26469620Y-78884860D02*
X25687300Y-78884860D01*
X27470380Y-77315140D02*
X28252700Y-77315140D01*
X25687300Y-77315140D02*
X26469620Y-77315140D01*
X28260320Y-77338000D02*
X28260320Y-78862000D01*
X25679680Y-78862000D02*
X25679680Y-77338000D01*
X27470380Y-77174860D02*
X28252700Y-77174860D01*
X26469620Y-77174860D02*
X25687300Y-77174860D01*
X27470380Y-75605140D02*
X28252700Y-75605140D01*
X25687300Y-75605140D02*
X26469620Y-75605140D01*
X28260320Y-75628000D02*
X28260320Y-77152000D01*
X25679680Y-77152000D02*
X25679680Y-75628000D01*
X27470380Y-75464860D02*
X28252700Y-75464860D01*
X26469620Y-75464860D02*
X25687300Y-75464860D01*
X27470380Y-73895140D02*
X28252700Y-73895140D01*
X25687300Y-73895140D02*
X26469620Y-73895140D01*
X28260320Y-73918000D02*
X28260320Y-75442000D01*
X25679680Y-75442000D02*
X25679680Y-73918000D01*
X27470380Y-73754860D02*
X28252700Y-73754860D01*
X26469620Y-73754860D02*
X25687300Y-73754860D01*
X27470380Y-72185140D02*
X28252700Y-72185140D01*
X25687300Y-72185140D02*
X26469620Y-72185140D01*
X28260320Y-72208000D02*
X28260320Y-73732000D01*
X25679680Y-73732000D02*
X25679680Y-72208000D01*
X27430380Y-53154860D02*
X28212700Y-53154860D01*
X26429620Y-53154860D02*
X25647300Y-53154860D01*
X27430380Y-51585140D02*
X28212700Y-51585140D01*
X25647300Y-51585140D02*
X26429620Y-51585140D01*
X28220320Y-51608000D02*
X28220320Y-53132000D01*
X25639680Y-53132000D02*
X25639680Y-51608000D01*
X27430380Y-49734860D02*
X28212700Y-49734860D01*
X26429620Y-49734860D02*
X25647300Y-49734860D01*
X27430380Y-48165140D02*
X28212700Y-48165140D01*
X25647300Y-48165140D02*
X26429620Y-48165140D01*
X28220320Y-48188000D02*
X28220320Y-49712000D01*
X25639680Y-49712000D02*
X25639680Y-48188000D01*
X27430380Y-54864860D02*
X28212700Y-54864860D01*
X26429620Y-54864860D02*
X25647300Y-54864860D01*
X27430380Y-53295140D02*
X28212700Y-53295140D01*
X25647300Y-53295140D02*
X26429620Y-53295140D01*
X28220320Y-53318000D02*
X28220320Y-54842000D01*
X25639680Y-54842000D02*
X25639680Y-53318000D01*
X27430380Y-51444860D02*
X28212700Y-51444860D01*
X26429620Y-51444860D02*
X25647300Y-51444860D01*
X27430380Y-49875140D02*
X28212700Y-49875140D01*
X25647300Y-49875140D02*
X26429620Y-49875140D01*
X28220320Y-49898000D02*
X28220320Y-51422000D01*
X25639680Y-51422000D02*
X25639680Y-49898000D01*
X66255140Y-55360380D02*
X66255140Y-56142700D01*
X66255140Y-54359620D02*
X66255140Y-53577300D01*
X67824860Y-55360380D02*
X67824860Y-56142700D01*
X67824860Y-53577300D02*
X67824860Y-54359620D01*
X67802000Y-56150320D02*
X66278000Y-56150320D01*
X66278000Y-53569680D02*
X67802000Y-53569680D01*
X69075140Y-53660380D02*
X69075140Y-54442700D01*
X69075140Y-52659620D02*
X69075140Y-51877300D01*
X70644860Y-53660380D02*
X70644860Y-54442700D01*
X70644860Y-51877300D02*
X70644860Y-52659620D01*
X70622000Y-54450320D02*
X69098000Y-54450320D01*
X69098000Y-51869680D02*
X70622000Y-51869680D01*
X74144860Y-49419620D02*
X74144860Y-48637300D01*
X74144860Y-50420380D02*
X74144860Y-51202700D01*
X72575140Y-49419620D02*
X72575140Y-48637300D01*
X72575140Y-51202700D02*
X72575140Y-50420380D01*
X72598000Y-48629680D02*
X74122000Y-48629680D01*
X74122000Y-51210320D02*
X72598000Y-51210320D01*
X68034860Y-47709620D02*
X68034860Y-46927300D01*
X68034860Y-48710380D02*
X68034860Y-49492700D01*
X66465140Y-47709620D02*
X66465140Y-46927300D01*
X66465140Y-49492700D02*
X66465140Y-48710380D01*
X66488000Y-46919680D02*
X68012000Y-46919680D01*
X68012000Y-49500320D02*
X66488000Y-49500320D01*
D13*
X72201180Y-73325260D02*
X72201180Y-73277000D01*
X71510300Y-66889000D02*
X72211340Y-66889000D01*
X72211340Y-66889000D02*
X72211340Y-67137920D01*
X72201180Y-73325260D02*
X72201180Y-73525920D01*
X72201180Y-73525920D02*
X71500140Y-73525920D01*
X68670000Y-65520000D02*
G75*
G03X68670000Y-65520000I-100000J0D01*
G01*
X68020000Y-65270000D02*
X68520000Y-65270000D01*
X68020000Y-62370000D02*
X68020000Y-65270000D01*
X68520000Y-62370000D02*
X68020000Y-62370000D01*
X68520000Y-65270000D02*
X68520000Y-62370000D01*
X68670000Y-61280000D02*
G75*
G03X68670000Y-61280000I-100000J0D01*
G01*
X68020000Y-61030000D02*
X68520000Y-61030000D01*
X68020000Y-58130000D02*
X68020000Y-61030000D01*
X68520000Y-58130000D02*
X68020000Y-58130000D01*
X68520000Y-61030000D02*
X68520000Y-58130000D01*
X39580000Y-39810000D02*
G75*
G03X39580000Y-39810000I-100000J0D01*
G01*
X40030000Y-40060000D02*
X39530000Y-40060000D01*
X40030000Y-42960000D02*
X40030000Y-40060000D01*
X39530000Y-42960000D02*
X40030000Y-42960000D01*
X39530000Y-40060000D02*
X39530000Y-42960000D01*
X61899520Y-41010840D02*
X62150980Y-40759380D01*
X62150980Y-40759380D02*
X62498960Y-40510460D01*
X62498960Y-40510460D02*
X63050140Y-40360600D01*
X63050140Y-40360600D02*
X63448920Y-40360600D01*
X63448920Y-40360600D02*
X63949300Y-40561260D01*
X63949300Y-40561260D02*
X64350620Y-40909240D01*
X61899520Y-42760900D02*
X62049380Y-42959020D01*
X62049380Y-42959020D02*
X62349100Y-43210480D01*
X62349100Y-43210480D02*
X62801220Y-43411140D01*
X62801220Y-43411140D02*
X63250800Y-43459400D01*
X63250800Y-43459400D02*
X63751180Y-43360340D01*
X63751180Y-43360340D02*
X64099160Y-43159680D01*
X64099160Y-43159680D02*
X64449680Y-42809160D01*
X58838232Y-65420640D02*
G75*
G03X58838232Y-65420640I-590292J0D01*
G01*
X59505000Y-66665000D02*
X59505000Y-65590000D01*
X44155000Y-66665000D02*
X44155000Y-65590000D01*
X44155000Y-45315000D02*
X44155000Y-46390000D01*
X59505000Y-45315000D02*
X59505000Y-46390000D01*
X59505000Y-66665000D02*
X58430000Y-66665000D01*
X59505000Y-45315000D02*
X58430000Y-45315000D01*
X44155000Y-45315000D02*
X45230000Y-45315000D01*
X44155000Y-66665000D02*
X45230000Y-66665000D01*
X59505000Y-65590000D02*
X60605000Y-65590000D01*
D16*
X28573080Y-42204666D02*
X28294890Y-42374000D01*
X28573080Y-42494952D02*
X27988880Y-42494952D01*
X27988880Y-42301428D01*
X28016700Y-42253047D01*
X28044519Y-42228857D01*
X28100157Y-42204666D01*
X28183614Y-42204666D01*
X28239252Y-42228857D01*
X28267071Y-42253047D01*
X28294890Y-42301428D01*
X28294890Y-42494952D01*
X27988880Y-42035333D02*
X27988880Y-41720857D01*
X28211433Y-41890190D01*
X28211433Y-41817619D01*
X28239252Y-41769238D01*
X28267071Y-41745047D01*
X28322709Y-41720857D01*
X28461804Y-41720857D01*
X28517442Y-41745047D01*
X28545261Y-41769238D01*
X28573080Y-41817619D01*
X28573080Y-41962761D01*
X28545261Y-42011142D01*
X28517442Y-42035333D01*
D17*
X26250190Y-42762257D02*
X26226000Y-42740485D01*
X26201809Y-42696942D01*
X26201809Y-42588085D01*
X26226000Y-42544542D01*
X26250190Y-42522771D01*
X26298571Y-42501000D01*
X26346952Y-42501000D01*
X26419523Y-42522771D01*
X26709809Y-42784028D01*
X26709809Y-42501000D01*
X26661428Y-42305057D02*
X26685619Y-42283285D01*
X26709809Y-42305057D01*
X26685619Y-42326828D01*
X26661428Y-42305057D01*
X26709809Y-42305057D01*
X26250190Y-42109114D02*
X26226000Y-42087342D01*
X26201809Y-42043800D01*
X26201809Y-41934942D01*
X26226000Y-41891400D01*
X26250190Y-41869628D01*
X26298571Y-41847857D01*
X26346952Y-41847857D01*
X26419523Y-41869628D01*
X26709809Y-42130885D01*
X26709809Y-41847857D01*
X26709809Y-41651914D02*
X26201809Y-41651914D01*
X26516285Y-41608371D02*
X26709809Y-41477742D01*
X26371142Y-41477742D02*
X26564666Y-41651914D01*
D16*
X24823428Y-38195480D02*
X24654095Y-37917290D01*
X24533142Y-38195480D02*
X24533142Y-37611280D01*
X24726666Y-37611280D01*
X24775047Y-37639100D01*
X24799238Y-37666919D01*
X24823428Y-37722557D01*
X24823428Y-37806014D01*
X24799238Y-37861652D01*
X24775047Y-37889471D01*
X24726666Y-37917290D01*
X24533142Y-37917290D01*
X25283047Y-37611280D02*
X25041142Y-37611280D01*
X25016952Y-37889471D01*
X25041142Y-37861652D01*
X25089523Y-37833833D01*
X25210476Y-37833833D01*
X25258857Y-37861652D01*
X25283047Y-37889471D01*
X25307238Y-37945109D01*
X25307238Y-38084204D01*
X25283047Y-38139842D01*
X25258857Y-38167661D01*
X25210476Y-38195480D01*
X25089523Y-38195480D01*
X25041142Y-38167661D01*
X25016952Y-38139842D01*
X25791047Y-38195480D02*
X25500761Y-38195480D01*
X25645904Y-38195480D02*
X25645904Y-37611280D01*
X25597523Y-37694738D01*
X25549142Y-37750376D01*
X25500761Y-37778195D01*
D17*
X25095571Y-39989809D02*
X24834314Y-39989809D01*
X24964942Y-39989809D02*
X24964942Y-39481809D01*
X24921400Y-39554380D01*
X24877857Y-39602761D01*
X24834314Y-39626952D01*
X25291514Y-39989809D02*
X25291514Y-39481809D01*
X25335057Y-39796285D02*
X25465685Y-39989809D01*
X25465685Y-39651142D02*
X25291514Y-39844666D01*
D13*
X89432380Y-76123333D02*
X90146666Y-76123333D01*
X90289523Y-76170952D01*
X90384761Y-76266190D01*
X90432380Y-76409047D01*
X90432380Y-76504285D01*
X89527619Y-75694761D02*
X89480000Y-75647142D01*
X89432380Y-75551904D01*
X89432380Y-75313809D01*
X89480000Y-75218571D01*
X89527619Y-75170952D01*
X89622857Y-75123333D01*
X89718095Y-75123333D01*
X89860952Y-75170952D01*
X90432380Y-75742380D01*
X90432380Y-75123333D01*
X27578095Y-27942380D02*
X27578095Y-28751904D01*
X27625714Y-28847142D01*
X27673333Y-28894761D01*
X27768571Y-28942380D01*
X27959047Y-28942380D01*
X28054285Y-28894761D01*
X28101904Y-28847142D01*
X28149523Y-28751904D01*
X28149523Y-27942380D01*
X28768571Y-28370952D02*
X28673333Y-28323333D01*
X28625714Y-28275714D01*
X28578095Y-28180476D01*
X28578095Y-28132857D01*
X28625714Y-28037619D01*
X28673333Y-27990000D01*
X28768571Y-27942380D01*
X28959047Y-27942380D01*
X29054285Y-27990000D01*
X29101904Y-28037619D01*
X29149523Y-28132857D01*
X29149523Y-28180476D01*
X29101904Y-28275714D01*
X29054285Y-28323333D01*
X28959047Y-28370952D01*
X28768571Y-28370952D01*
X28673333Y-28418571D01*
X28625714Y-28466190D01*
X28578095Y-28561428D01*
X28578095Y-28751904D01*
X28625714Y-28847142D01*
X28673333Y-28894761D01*
X28768571Y-28942380D01*
X28959047Y-28942380D01*
X29054285Y-28894761D01*
X29101904Y-28847142D01*
X29149523Y-28751904D01*
X29149523Y-28561428D01*
X29101904Y-28466190D01*
X29054285Y-28418571D01*
X28959047Y-28370952D01*
D16*
X44063428Y-88874280D02*
X43894095Y-88596090D01*
X43773142Y-88874280D02*
X43773142Y-88290080D01*
X43966666Y-88290080D01*
X44015047Y-88317900D01*
X44039238Y-88345719D01*
X44063428Y-88401357D01*
X44063428Y-88484814D01*
X44039238Y-88540452D01*
X44015047Y-88568271D01*
X43966666Y-88596090D01*
X43773142Y-88596090D01*
X44523047Y-88290080D02*
X44281142Y-88290080D01*
X44256952Y-88568271D01*
X44281142Y-88540452D01*
X44329523Y-88512633D01*
X44450476Y-88512633D01*
X44498857Y-88540452D01*
X44523047Y-88568271D01*
X44547238Y-88623909D01*
X44547238Y-88763004D01*
X44523047Y-88818642D01*
X44498857Y-88846461D01*
X44450476Y-88874280D01*
X44329523Y-88874280D01*
X44281142Y-88846461D01*
X44256952Y-88818642D01*
X44861714Y-88290080D02*
X44910095Y-88290080D01*
X44958476Y-88317900D01*
X44982666Y-88345719D01*
X45006857Y-88401357D01*
X45031047Y-88512633D01*
X45031047Y-88651728D01*
X45006857Y-88763004D01*
X44982666Y-88818642D01*
X44958476Y-88846461D01*
X44910095Y-88874280D01*
X44861714Y-88874280D01*
X44813333Y-88846461D01*
X44789142Y-88818642D01*
X44764952Y-88763004D01*
X44740761Y-88651728D01*
X44740761Y-88512633D01*
X44764952Y-88401357D01*
X44789142Y-88345719D01*
X44813333Y-88317900D01*
X44861714Y-88290080D01*
D17*
X44137857Y-90609809D02*
X43876600Y-90609809D01*
X44007228Y-90609809D02*
X44007228Y-90101809D01*
X43963685Y-90174380D01*
X43920142Y-90222761D01*
X43876600Y-90246952D01*
X44420885Y-90101809D02*
X44464428Y-90101809D01*
X44507971Y-90126000D01*
X44529742Y-90150190D01*
X44551514Y-90198571D01*
X44573285Y-90295333D01*
X44573285Y-90416285D01*
X44551514Y-90513047D01*
X44529742Y-90561428D01*
X44507971Y-90585619D01*
X44464428Y-90609809D01*
X44420885Y-90609809D01*
X44377342Y-90585619D01*
X44355571Y-90561428D01*
X44333800Y-90513047D01*
X44312028Y-90416285D01*
X44312028Y-90295333D01*
X44333800Y-90198571D01*
X44355571Y-90150190D01*
X44377342Y-90126000D01*
X44420885Y-90101809D01*
X44769228Y-90609809D02*
X44769228Y-90101809D01*
X44812771Y-90416285D02*
X44943400Y-90609809D01*
X44943400Y-90271142D02*
X44769228Y-90464666D01*
D16*
X49143428Y-88884280D02*
X48974095Y-88606090D01*
X48853142Y-88884280D02*
X48853142Y-88300080D01*
X49046666Y-88300080D01*
X49095047Y-88327900D01*
X49119238Y-88355719D01*
X49143428Y-88411357D01*
X49143428Y-88494814D01*
X49119238Y-88550452D01*
X49095047Y-88578271D01*
X49046666Y-88606090D01*
X48853142Y-88606090D01*
X49578857Y-88494814D02*
X49578857Y-88884280D01*
X49457904Y-88272261D02*
X49336952Y-88689547D01*
X49651428Y-88689547D01*
X49869142Y-88884280D02*
X49965904Y-88884280D01*
X50014285Y-88856461D01*
X50038476Y-88828642D01*
X50086857Y-88745185D01*
X50111047Y-88633909D01*
X50111047Y-88411357D01*
X50086857Y-88355719D01*
X50062666Y-88327900D01*
X50014285Y-88300080D01*
X49917523Y-88300080D01*
X49869142Y-88327900D01*
X49844952Y-88355719D01*
X49820761Y-88411357D01*
X49820761Y-88550452D01*
X49844952Y-88606090D01*
X49869142Y-88633909D01*
X49917523Y-88661728D01*
X50014285Y-88661728D01*
X50062666Y-88633909D01*
X50086857Y-88606090D01*
X50111047Y-88550452D01*
D17*
X49197857Y-90619809D02*
X48936600Y-90619809D01*
X49067228Y-90619809D02*
X49067228Y-90111809D01*
X49023685Y-90184380D01*
X48980142Y-90232761D01*
X48936600Y-90256952D01*
X49480885Y-90111809D02*
X49524428Y-90111809D01*
X49567971Y-90136000D01*
X49589742Y-90160190D01*
X49611514Y-90208571D01*
X49633285Y-90305333D01*
X49633285Y-90426285D01*
X49611514Y-90523047D01*
X49589742Y-90571428D01*
X49567971Y-90595619D01*
X49524428Y-90619809D01*
X49480885Y-90619809D01*
X49437342Y-90595619D01*
X49415571Y-90571428D01*
X49393800Y-90523047D01*
X49372028Y-90426285D01*
X49372028Y-90305333D01*
X49393800Y-90208571D01*
X49415571Y-90160190D01*
X49437342Y-90136000D01*
X49480885Y-90111809D01*
X49829228Y-90619809D02*
X49829228Y-90111809D01*
X49872771Y-90426285D02*
X50003400Y-90619809D01*
X50003400Y-90281142D02*
X49829228Y-90474666D01*
D13*
X90392380Y-94644285D02*
X89392380Y-94644285D01*
X89392380Y-94406190D01*
X89440000Y-94263333D01*
X89535238Y-94168095D01*
X89630476Y-94120476D01*
X89820952Y-94072857D01*
X89963809Y-94072857D01*
X90154285Y-94120476D01*
X90249523Y-94168095D01*
X90344761Y-94263333D01*
X90392380Y-94406190D01*
X90392380Y-94644285D01*
X90344761Y-93691904D02*
X90392380Y-93549047D01*
X90392380Y-93310952D01*
X90344761Y-93215714D01*
X90297142Y-93168095D01*
X90201904Y-93120476D01*
X90106666Y-93120476D01*
X90011428Y-93168095D01*
X89963809Y-93215714D01*
X89916190Y-93310952D01*
X89868571Y-93501428D01*
X89820952Y-93596666D01*
X89773333Y-93644285D01*
X89678095Y-93691904D01*
X89582857Y-93691904D01*
X89487619Y-93644285D01*
X89440000Y-93596666D01*
X89392380Y-93501428D01*
X89392380Y-93263333D01*
X89440000Y-93120476D01*
X90392380Y-92168095D02*
X90392380Y-92739523D01*
X90392380Y-92453809D02*
X89392380Y-92453809D01*
X89535238Y-92549047D01*
X89630476Y-92644285D01*
X89678095Y-92739523D01*
D16*
X85907442Y-91206571D02*
X85935261Y-91230761D01*
X85963080Y-91303333D01*
X85963080Y-91351714D01*
X85935261Y-91424285D01*
X85879623Y-91472666D01*
X85823985Y-91496857D01*
X85712709Y-91521047D01*
X85629252Y-91521047D01*
X85517976Y-91496857D01*
X85462338Y-91472666D01*
X85406700Y-91424285D01*
X85378880Y-91351714D01*
X85378880Y-91303333D01*
X85406700Y-91230761D01*
X85434519Y-91206571D01*
X85378880Y-91037238D02*
X85378880Y-90722761D01*
X85601433Y-90892095D01*
X85601433Y-90819523D01*
X85629252Y-90771142D01*
X85657071Y-90746952D01*
X85712709Y-90722761D01*
X85851804Y-90722761D01*
X85907442Y-90746952D01*
X85935261Y-90771142D01*
X85963080Y-90819523D01*
X85963080Y-90964666D01*
X85935261Y-91013047D01*
X85907442Y-91037238D01*
X85963080Y-90480857D02*
X85963080Y-90384095D01*
X85935261Y-90335714D01*
X85907442Y-90311523D01*
X85823985Y-90263142D01*
X85712709Y-90238952D01*
X85490157Y-90238952D01*
X85434519Y-90263142D01*
X85406700Y-90287333D01*
X85378880Y-90335714D01*
X85378880Y-90432476D01*
X85406700Y-90480857D01*
X85434519Y-90505047D01*
X85490157Y-90529238D01*
X85629252Y-90529238D01*
X85684890Y-90505047D01*
X85712709Y-90480857D01*
X85740528Y-90432476D01*
X85740528Y-90335714D01*
X85712709Y-90287333D01*
X85684890Y-90263142D01*
X85629252Y-90238952D01*
D17*
X83591809Y-91435171D02*
X83591809Y-91391628D01*
X83616000Y-91348085D01*
X83640190Y-91326314D01*
X83688571Y-91304542D01*
X83785333Y-91282771D01*
X83906285Y-91282771D01*
X84003047Y-91304542D01*
X84051428Y-91326314D01*
X84075619Y-91348085D01*
X84099809Y-91391628D01*
X84099809Y-91435171D01*
X84075619Y-91478714D01*
X84051428Y-91500485D01*
X84003047Y-91522257D01*
X83906285Y-91544028D01*
X83785333Y-91544028D01*
X83688571Y-91522257D01*
X83640190Y-91500485D01*
X83616000Y-91478714D01*
X83591809Y-91435171D01*
X84051428Y-91086828D02*
X84075619Y-91065057D01*
X84099809Y-91086828D01*
X84075619Y-91108600D01*
X84051428Y-91086828D01*
X84099809Y-91086828D01*
X84099809Y-90629628D02*
X84099809Y-90890885D01*
X84099809Y-90760257D02*
X83591809Y-90760257D01*
X83664380Y-90803800D01*
X83712761Y-90847342D01*
X83736952Y-90890885D01*
X83761142Y-90237742D02*
X84099809Y-90237742D01*
X83761142Y-90433685D02*
X84027238Y-90433685D01*
X84075619Y-90411914D01*
X84099809Y-90368371D01*
X84099809Y-90303057D01*
X84075619Y-90259514D01*
X84051428Y-90237742D01*
D13*
X97580380Y-35070053D02*
X98294666Y-35070053D01*
X98437523Y-35117672D01*
X98532761Y-35212910D01*
X98580380Y-35355767D01*
X98580380Y-35451005D01*
X97913714Y-34165291D02*
X98580380Y-34165291D01*
X97532761Y-34403386D02*
X98247047Y-34641481D01*
X98247047Y-34022434D01*
D16*
X86623428Y-51168642D02*
X86599238Y-51196461D01*
X86526666Y-51224280D01*
X86478285Y-51224280D01*
X86405714Y-51196461D01*
X86357333Y-51140823D01*
X86333142Y-51085185D01*
X86308952Y-50973909D01*
X86308952Y-50890452D01*
X86333142Y-50779176D01*
X86357333Y-50723538D01*
X86405714Y-50667900D01*
X86478285Y-50640080D01*
X86526666Y-50640080D01*
X86599238Y-50667900D01*
X86623428Y-50695719D01*
X87083047Y-50640080D02*
X86841142Y-50640080D01*
X86816952Y-50918271D01*
X86841142Y-50890452D01*
X86889523Y-50862633D01*
X87010476Y-50862633D01*
X87058857Y-50890452D01*
X87083047Y-50918271D01*
X87107238Y-50973909D01*
X87107238Y-51113004D01*
X87083047Y-51168642D01*
X87058857Y-51196461D01*
X87010476Y-51224280D01*
X86889523Y-51224280D01*
X86841142Y-51196461D01*
X86816952Y-51168642D01*
X87421714Y-50640080D02*
X87470095Y-50640080D01*
X87518476Y-50667900D01*
X87542666Y-50695719D01*
X87566857Y-50751357D01*
X87591047Y-50862633D01*
X87591047Y-51001728D01*
X87566857Y-51113004D01*
X87542666Y-51168642D01*
X87518476Y-51196461D01*
X87470095Y-51224280D01*
X87421714Y-51224280D01*
X87373333Y-51196461D01*
X87349142Y-51168642D01*
X87324952Y-51113004D01*
X87300761Y-51001728D01*
X87300761Y-50862633D01*
X87324952Y-50751357D01*
X87349142Y-50695719D01*
X87373333Y-50667900D01*
X87421714Y-50640080D01*
X86845333Y-53324280D02*
X86555047Y-53324280D01*
X86700190Y-53324280D02*
X86700190Y-52740080D01*
X86651809Y-52823538D01*
X86603428Y-52879176D01*
X86555047Y-52906995D01*
X87280761Y-52934814D02*
X87280761Y-53324280D01*
X87063047Y-52934814D02*
X87063047Y-53240823D01*
X87087238Y-53296461D01*
X87135619Y-53324280D01*
X87208190Y-53324280D01*
X87256571Y-53296461D01*
X87280761Y-53268642D01*
X80803428Y-51108642D02*
X80779238Y-51136461D01*
X80706666Y-51164280D01*
X80658285Y-51164280D01*
X80585714Y-51136461D01*
X80537333Y-51080823D01*
X80513142Y-51025185D01*
X80488952Y-50913909D01*
X80488952Y-50830452D01*
X80513142Y-50719176D01*
X80537333Y-50663538D01*
X80585714Y-50607900D01*
X80658285Y-50580080D01*
X80706666Y-50580080D01*
X80779238Y-50607900D01*
X80803428Y-50635719D01*
X81238857Y-50774814D02*
X81238857Y-51164280D01*
X81117904Y-50552261D02*
X80996952Y-50969547D01*
X81311428Y-50969547D01*
X81529142Y-51164280D02*
X81625904Y-51164280D01*
X81674285Y-51136461D01*
X81698476Y-51108642D01*
X81746857Y-51025185D01*
X81771047Y-50913909D01*
X81771047Y-50691357D01*
X81746857Y-50635719D01*
X81722666Y-50607900D01*
X81674285Y-50580080D01*
X81577523Y-50580080D01*
X81529142Y-50607900D01*
X81504952Y-50635719D01*
X81480761Y-50691357D01*
X81480761Y-50830452D01*
X81504952Y-50886090D01*
X81529142Y-50913909D01*
X81577523Y-50941728D01*
X81674285Y-50941728D01*
X81722666Y-50913909D01*
X81746857Y-50886090D01*
X81771047Y-50830452D01*
X81065333Y-53294280D02*
X80775047Y-53294280D01*
X80920190Y-53294280D02*
X80920190Y-52710080D01*
X80871809Y-52793538D01*
X80823428Y-52849176D01*
X80775047Y-52876995D01*
X81500761Y-52904814D02*
X81500761Y-53294280D01*
X81283047Y-52904814D02*
X81283047Y-53210823D01*
X81307238Y-53266461D01*
X81355619Y-53294280D01*
X81428190Y-53294280D01*
X81476571Y-53266461D01*
X81500761Y-53238642D01*
X80743428Y-61718642D02*
X80719238Y-61746461D01*
X80646666Y-61774280D01*
X80598285Y-61774280D01*
X80525714Y-61746461D01*
X80477333Y-61690823D01*
X80453142Y-61635185D01*
X80428952Y-61523909D01*
X80428952Y-61440452D01*
X80453142Y-61329176D01*
X80477333Y-61273538D01*
X80525714Y-61217900D01*
X80598285Y-61190080D01*
X80646666Y-61190080D01*
X80719238Y-61217900D01*
X80743428Y-61245719D01*
X81178857Y-61384814D02*
X81178857Y-61774280D01*
X81057904Y-61162261D02*
X80936952Y-61579547D01*
X81251428Y-61579547D01*
X81686857Y-61190080D02*
X81444952Y-61190080D01*
X81420761Y-61468271D01*
X81444952Y-61440452D01*
X81493333Y-61412633D01*
X81614285Y-61412633D01*
X81662666Y-61440452D01*
X81686857Y-61468271D01*
X81711047Y-61523909D01*
X81711047Y-61663004D01*
X81686857Y-61718642D01*
X81662666Y-61746461D01*
X81614285Y-61774280D01*
X81493333Y-61774280D01*
X81444952Y-61746461D01*
X81420761Y-61718642D01*
X80763428Y-64064280D02*
X80473142Y-64064280D01*
X80618285Y-64064280D02*
X80618285Y-63480080D01*
X80569904Y-63563538D01*
X80521523Y-63619176D01*
X80473142Y-63646995D01*
X81077904Y-63480080D02*
X81126285Y-63480080D01*
X81174666Y-63507900D01*
X81198857Y-63535719D01*
X81223047Y-63591357D01*
X81247238Y-63702633D01*
X81247238Y-63841728D01*
X81223047Y-63953004D01*
X81198857Y-64008642D01*
X81174666Y-64036461D01*
X81126285Y-64064280D01*
X81077904Y-64064280D01*
X81029523Y-64036461D01*
X81005333Y-64008642D01*
X80981142Y-63953004D01*
X80956952Y-63841728D01*
X80956952Y-63702633D01*
X80981142Y-63591357D01*
X81005333Y-63535719D01*
X81029523Y-63507900D01*
X81077904Y-63480080D01*
X81682666Y-63674814D02*
X81682666Y-64064280D01*
X81464952Y-63674814D02*
X81464952Y-63980823D01*
X81489142Y-64036461D01*
X81537523Y-64064280D01*
X81610095Y-64064280D01*
X81658476Y-64036461D01*
X81682666Y-64008642D01*
X81588642Y-69626571D02*
X81616461Y-69650761D01*
X81644280Y-69723333D01*
X81644280Y-69771714D01*
X81616461Y-69844285D01*
X81560823Y-69892666D01*
X81505185Y-69916857D01*
X81393909Y-69941047D01*
X81310452Y-69941047D01*
X81199176Y-69916857D01*
X81143538Y-69892666D01*
X81087900Y-69844285D01*
X81060080Y-69771714D01*
X81060080Y-69723333D01*
X81087900Y-69650761D01*
X81115719Y-69626571D01*
X81254814Y-69191142D02*
X81644280Y-69191142D01*
X81032261Y-69312095D02*
X81449547Y-69433047D01*
X81449547Y-69118571D01*
X81060080Y-68707333D02*
X81060080Y-68804095D01*
X81087900Y-68852476D01*
X81115719Y-68876666D01*
X81199176Y-68925047D01*
X81310452Y-68949238D01*
X81533004Y-68949238D01*
X81588642Y-68925047D01*
X81616461Y-68900857D01*
X81644280Y-68852476D01*
X81644280Y-68755714D01*
X81616461Y-68707333D01*
X81588642Y-68683142D01*
X81533004Y-68658952D01*
X81393909Y-68658952D01*
X81338271Y-68683142D01*
X81310452Y-68707333D01*
X81282633Y-68755714D01*
X81282633Y-68852476D01*
X81310452Y-68900857D01*
X81338271Y-68925047D01*
X81393909Y-68949238D01*
X83824280Y-69646571D02*
X83824280Y-69936857D01*
X83824280Y-69791714D02*
X83240080Y-69791714D01*
X83323538Y-69840095D01*
X83379176Y-69888476D01*
X83406995Y-69936857D01*
X83240080Y-69332095D02*
X83240080Y-69283714D01*
X83267900Y-69235333D01*
X83295719Y-69211142D01*
X83351357Y-69186952D01*
X83462633Y-69162761D01*
X83601728Y-69162761D01*
X83713004Y-69186952D01*
X83768642Y-69211142D01*
X83796461Y-69235333D01*
X83824280Y-69283714D01*
X83824280Y-69332095D01*
X83796461Y-69380476D01*
X83768642Y-69404666D01*
X83713004Y-69428857D01*
X83601728Y-69453047D01*
X83462633Y-69453047D01*
X83351357Y-69428857D01*
X83295719Y-69404666D01*
X83267900Y-69380476D01*
X83240080Y-69332095D01*
X83434814Y-68727333D02*
X83824280Y-68727333D01*
X83434814Y-68945047D02*
X83740823Y-68945047D01*
X83796461Y-68920857D01*
X83824280Y-68872476D01*
X83824280Y-68799904D01*
X83796461Y-68751523D01*
X83768642Y-68727333D01*
D13*
X86402460Y-44984653D02*
X87116746Y-44984653D01*
X87259603Y-45032272D01*
X87354841Y-45127510D01*
X87402460Y-45270367D01*
X87402460Y-45365605D01*
X86402460Y-44603700D02*
X86402460Y-43984653D01*
X86783413Y-44317986D01*
X86783413Y-44175129D01*
X86831032Y-44079891D01*
X86878651Y-44032272D01*
X86973889Y-43984653D01*
X87211984Y-43984653D01*
X87307222Y-44032272D01*
X87354841Y-44079891D01*
X87402460Y-44175129D01*
X87402460Y-44460843D01*
X87354841Y-44556081D01*
X87307222Y-44603700D01*
D16*
X58733428Y-70844280D02*
X58564095Y-70566090D01*
X58443142Y-70844280D02*
X58443142Y-70260080D01*
X58636666Y-70260080D01*
X58685047Y-70287900D01*
X58709238Y-70315719D01*
X58733428Y-70371357D01*
X58733428Y-70454814D01*
X58709238Y-70510452D01*
X58685047Y-70538271D01*
X58636666Y-70566090D01*
X58443142Y-70566090D01*
X58902761Y-70260080D02*
X59217238Y-70260080D01*
X59047904Y-70482633D01*
X59120476Y-70482633D01*
X59168857Y-70510452D01*
X59193047Y-70538271D01*
X59217238Y-70593909D01*
X59217238Y-70733004D01*
X59193047Y-70788642D01*
X59168857Y-70816461D01*
X59120476Y-70844280D01*
X58975333Y-70844280D01*
X58926952Y-70816461D01*
X58902761Y-70788642D01*
X59507523Y-70510452D02*
X59459142Y-70482633D01*
X59434952Y-70454814D01*
X59410761Y-70399176D01*
X59410761Y-70371357D01*
X59434952Y-70315719D01*
X59459142Y-70287900D01*
X59507523Y-70260080D01*
X59604285Y-70260080D01*
X59652666Y-70287900D01*
X59676857Y-70315719D01*
X59701047Y-70371357D01*
X59701047Y-70399176D01*
X59676857Y-70454814D01*
X59652666Y-70482633D01*
X59604285Y-70510452D01*
X59507523Y-70510452D01*
X59459142Y-70538271D01*
X59434952Y-70566090D01*
X59410761Y-70621728D01*
X59410761Y-70733004D01*
X59434952Y-70788642D01*
X59459142Y-70816461D01*
X59507523Y-70844280D01*
X59604285Y-70844280D01*
X59652666Y-70816461D01*
X59676857Y-70788642D01*
X59701047Y-70733004D01*
X59701047Y-70621728D01*
X59676857Y-70566090D01*
X59652666Y-70538271D01*
X59604285Y-70510452D01*
D17*
X58645457Y-72261142D02*
X58645457Y-72599809D01*
X58536600Y-72067619D02*
X58427742Y-72430476D01*
X58710771Y-72430476D01*
X58884942Y-72551428D02*
X58906714Y-72575619D01*
X58884942Y-72599809D01*
X58863171Y-72575619D01*
X58884942Y-72551428D01*
X58884942Y-72599809D01*
X59059114Y-72091809D02*
X59363914Y-72091809D01*
X59167971Y-72599809D01*
X59538085Y-72599809D02*
X59538085Y-72091809D01*
X59581628Y-72406285D02*
X59712257Y-72599809D01*
X59712257Y-72261142D02*
X59538085Y-72454666D01*
D16*
X25405480Y-61326571D02*
X25127290Y-61495904D01*
X25405480Y-61616857D02*
X24821280Y-61616857D01*
X24821280Y-61423333D01*
X24849100Y-61374952D01*
X24876919Y-61350761D01*
X24932557Y-61326571D01*
X25016014Y-61326571D01*
X25071652Y-61350761D01*
X25099471Y-61374952D01*
X25127290Y-61423333D01*
X25127290Y-61616857D01*
X24876919Y-61133047D02*
X24849100Y-61108857D01*
X24821280Y-61060476D01*
X24821280Y-60939523D01*
X24849100Y-60891142D01*
X24876919Y-60866952D01*
X24932557Y-60842761D01*
X24988195Y-60842761D01*
X25071652Y-60866952D01*
X25405480Y-61157238D01*
X25405480Y-60842761D01*
X24821280Y-60383142D02*
X24821280Y-60625047D01*
X25099471Y-60649238D01*
X25071652Y-60625047D01*
X25043833Y-60576666D01*
X25043833Y-60455714D01*
X25071652Y-60407333D01*
X25099471Y-60383142D01*
X25155109Y-60358952D01*
X25294204Y-60358952D01*
X25349842Y-60383142D01*
X25377661Y-60407333D01*
X25405480Y-60455714D01*
X25405480Y-60576666D01*
X25377661Y-60625047D01*
X25349842Y-60649238D01*
D17*
X26740190Y-61348342D02*
X26716000Y-61326571D01*
X26691809Y-61283028D01*
X26691809Y-61174171D01*
X26716000Y-61130628D01*
X26740190Y-61108857D01*
X26788571Y-61087085D01*
X26836952Y-61087085D01*
X26909523Y-61108857D01*
X27199809Y-61370114D01*
X27199809Y-61087085D01*
X26740190Y-60912914D02*
X26716000Y-60891142D01*
X26691809Y-60847600D01*
X26691809Y-60738742D01*
X26716000Y-60695200D01*
X26740190Y-60673428D01*
X26788571Y-60651657D01*
X26836952Y-60651657D01*
X26909523Y-60673428D01*
X27199809Y-60934685D01*
X27199809Y-60651657D01*
D16*
X32214280Y-72356571D02*
X31936090Y-72525904D01*
X32214280Y-72646857D02*
X31630080Y-72646857D01*
X31630080Y-72453333D01*
X31657900Y-72404952D01*
X31685719Y-72380761D01*
X31741357Y-72356571D01*
X31824814Y-72356571D01*
X31880452Y-72380761D01*
X31908271Y-72404952D01*
X31936090Y-72453333D01*
X31936090Y-72646857D01*
X31685719Y-72163047D02*
X31657900Y-72138857D01*
X31630080Y-72090476D01*
X31630080Y-71969523D01*
X31657900Y-71921142D01*
X31685719Y-71896952D01*
X31741357Y-71872761D01*
X31796995Y-71872761D01*
X31880452Y-71896952D01*
X32214280Y-72187238D01*
X32214280Y-71872761D01*
X32214280Y-71388952D02*
X32214280Y-71679238D01*
X32214280Y-71534095D02*
X31630080Y-71534095D01*
X31713538Y-71582476D01*
X31769176Y-71630857D01*
X31796995Y-71679238D01*
D17*
X29770190Y-72468342D02*
X29746000Y-72446571D01*
X29721809Y-72403028D01*
X29721809Y-72294171D01*
X29746000Y-72250628D01*
X29770190Y-72228857D01*
X29818571Y-72207085D01*
X29866952Y-72207085D01*
X29939523Y-72228857D01*
X30229809Y-72490114D01*
X30229809Y-72207085D01*
X29770190Y-72032914D02*
X29746000Y-72011142D01*
X29721809Y-71967600D01*
X29721809Y-71858742D01*
X29746000Y-71815200D01*
X29770190Y-71793428D01*
X29818571Y-71771657D01*
X29866952Y-71771657D01*
X29939523Y-71793428D01*
X30229809Y-72054685D01*
X30229809Y-71771657D01*
D16*
X32094280Y-67316571D02*
X31816090Y-67485904D01*
X32094280Y-67606857D02*
X31510080Y-67606857D01*
X31510080Y-67413333D01*
X31537900Y-67364952D01*
X31565719Y-67340761D01*
X31621357Y-67316571D01*
X31704814Y-67316571D01*
X31760452Y-67340761D01*
X31788271Y-67364952D01*
X31816090Y-67413333D01*
X31816090Y-67606857D01*
X31565719Y-67123047D02*
X31537900Y-67098857D01*
X31510080Y-67050476D01*
X31510080Y-66929523D01*
X31537900Y-66881142D01*
X31565719Y-66856952D01*
X31621357Y-66832761D01*
X31676995Y-66832761D01*
X31760452Y-66856952D01*
X32094280Y-67147238D01*
X32094280Y-66832761D01*
X31510080Y-66663428D02*
X31510080Y-66348952D01*
X31732633Y-66518285D01*
X31732633Y-66445714D01*
X31760452Y-66397333D01*
X31788271Y-66373142D01*
X31843909Y-66348952D01*
X31983004Y-66348952D01*
X32038642Y-66373142D01*
X32066461Y-66397333D01*
X32094280Y-66445714D01*
X32094280Y-66590857D01*
X32066461Y-66639238D01*
X32038642Y-66663428D01*
D17*
X29770190Y-67338342D02*
X29746000Y-67316571D01*
X29721809Y-67273028D01*
X29721809Y-67164171D01*
X29746000Y-67120628D01*
X29770190Y-67098857D01*
X29818571Y-67077085D01*
X29866952Y-67077085D01*
X29939523Y-67098857D01*
X30229809Y-67360114D01*
X30229809Y-67077085D01*
X29770190Y-66902914D02*
X29746000Y-66881142D01*
X29721809Y-66837600D01*
X29721809Y-66728742D01*
X29746000Y-66685200D01*
X29770190Y-66663428D01*
X29818571Y-66641657D01*
X29866952Y-66641657D01*
X29939523Y-66663428D01*
X30229809Y-66924685D01*
X30229809Y-66641657D01*
D16*
X28405480Y-58686571D02*
X28127290Y-58855904D01*
X28405480Y-58976857D02*
X27821280Y-58976857D01*
X27821280Y-58783333D01*
X27849100Y-58734952D01*
X27876919Y-58710761D01*
X27932557Y-58686571D01*
X28016014Y-58686571D01*
X28071652Y-58710761D01*
X28099471Y-58734952D01*
X28127290Y-58783333D01*
X28127290Y-58976857D01*
X27821280Y-58517238D02*
X27821280Y-58202761D01*
X28043833Y-58372095D01*
X28043833Y-58299523D01*
X28071652Y-58251142D01*
X28099471Y-58226952D01*
X28155109Y-58202761D01*
X28294204Y-58202761D01*
X28349842Y-58226952D01*
X28377661Y-58251142D01*
X28405480Y-58299523D01*
X28405480Y-58444666D01*
X28377661Y-58493047D01*
X28349842Y-58517238D01*
X28016014Y-57767333D02*
X28405480Y-57767333D01*
X27793461Y-57888285D02*
X28210747Y-58009238D01*
X28210747Y-57694761D01*
D17*
X29740190Y-58708342D02*
X29716000Y-58686571D01*
X29691809Y-58643028D01*
X29691809Y-58534171D01*
X29716000Y-58490628D01*
X29740190Y-58468857D01*
X29788571Y-58447085D01*
X29836952Y-58447085D01*
X29909523Y-58468857D01*
X30199809Y-58730114D01*
X30199809Y-58447085D01*
X29740190Y-58272914D02*
X29716000Y-58251142D01*
X29691809Y-58207600D01*
X29691809Y-58098742D01*
X29716000Y-58055200D01*
X29740190Y-58033428D01*
X29788571Y-58011657D01*
X29836952Y-58011657D01*
X29909523Y-58033428D01*
X30199809Y-58294685D01*
X30199809Y-58011657D01*
D16*
X28405480Y-56976571D02*
X28127290Y-57145904D01*
X28405480Y-57266857D02*
X27821280Y-57266857D01*
X27821280Y-57073333D01*
X27849100Y-57024952D01*
X27876919Y-57000761D01*
X27932557Y-56976571D01*
X28016014Y-56976571D01*
X28071652Y-57000761D01*
X28099471Y-57024952D01*
X28127290Y-57073333D01*
X28127290Y-57266857D01*
X27876919Y-56783047D02*
X27849100Y-56758857D01*
X27821280Y-56710476D01*
X27821280Y-56589523D01*
X27849100Y-56541142D01*
X27876919Y-56516952D01*
X27932557Y-56492761D01*
X27988195Y-56492761D01*
X28071652Y-56516952D01*
X28405480Y-56807238D01*
X28405480Y-56492761D01*
X27821280Y-56323428D02*
X27821280Y-55984761D01*
X28405480Y-56202476D01*
D17*
X29740190Y-56998342D02*
X29716000Y-56976571D01*
X29691809Y-56933028D01*
X29691809Y-56824171D01*
X29716000Y-56780628D01*
X29740190Y-56758857D01*
X29788571Y-56737085D01*
X29836952Y-56737085D01*
X29909523Y-56758857D01*
X30199809Y-57020114D01*
X30199809Y-56737085D01*
X29740190Y-56562914D02*
X29716000Y-56541142D01*
X29691809Y-56497600D01*
X29691809Y-56388742D01*
X29716000Y-56345200D01*
X29740190Y-56323428D01*
X29788571Y-56301657D01*
X29836952Y-56301657D01*
X29909523Y-56323428D01*
X30199809Y-56584685D01*
X30199809Y-56301657D01*
D16*
X28435480Y-70736571D02*
X28157290Y-70905904D01*
X28435480Y-71026857D02*
X27851280Y-71026857D01*
X27851280Y-70833333D01*
X27879100Y-70784952D01*
X27906919Y-70760761D01*
X27962557Y-70736571D01*
X28046014Y-70736571D01*
X28101652Y-70760761D01*
X28129471Y-70784952D01*
X28157290Y-70833333D01*
X28157290Y-71026857D01*
X27851280Y-70567238D02*
X27851280Y-70252761D01*
X28073833Y-70422095D01*
X28073833Y-70349523D01*
X28101652Y-70301142D01*
X28129471Y-70276952D01*
X28185109Y-70252761D01*
X28324204Y-70252761D01*
X28379842Y-70276952D01*
X28407661Y-70301142D01*
X28435480Y-70349523D01*
X28435480Y-70494666D01*
X28407661Y-70543047D01*
X28379842Y-70567238D01*
X28435480Y-69768952D02*
X28435480Y-70059238D01*
X28435480Y-69914095D02*
X27851280Y-69914095D01*
X27934738Y-69962476D01*
X27990376Y-70010857D01*
X28018195Y-70059238D01*
D17*
X29770190Y-70758342D02*
X29746000Y-70736571D01*
X29721809Y-70693028D01*
X29721809Y-70584171D01*
X29746000Y-70540628D01*
X29770190Y-70518857D01*
X29818571Y-70497085D01*
X29866952Y-70497085D01*
X29939523Y-70518857D01*
X30229809Y-70780114D01*
X30229809Y-70497085D01*
X29770190Y-70322914D02*
X29746000Y-70301142D01*
X29721809Y-70257600D01*
X29721809Y-70148742D01*
X29746000Y-70105200D01*
X29770190Y-70083428D01*
X29818571Y-70061657D01*
X29866952Y-70061657D01*
X29939523Y-70083428D01*
X30229809Y-70344685D01*
X30229809Y-70061657D01*
D16*
X28435480Y-69026571D02*
X28157290Y-69195904D01*
X28435480Y-69316857D02*
X27851280Y-69316857D01*
X27851280Y-69123333D01*
X27879100Y-69074952D01*
X27906919Y-69050761D01*
X27962557Y-69026571D01*
X28046014Y-69026571D01*
X28101652Y-69050761D01*
X28129471Y-69074952D01*
X28157290Y-69123333D01*
X28157290Y-69316857D01*
X27906919Y-68833047D02*
X27879100Y-68808857D01*
X27851280Y-68760476D01*
X27851280Y-68639523D01*
X27879100Y-68591142D01*
X27906919Y-68566952D01*
X27962557Y-68542761D01*
X28018195Y-68542761D01*
X28101652Y-68566952D01*
X28435480Y-68857238D01*
X28435480Y-68542761D01*
X27906919Y-68349238D02*
X27879100Y-68325047D01*
X27851280Y-68276666D01*
X27851280Y-68155714D01*
X27879100Y-68107333D01*
X27906919Y-68083142D01*
X27962557Y-68058952D01*
X28018195Y-68058952D01*
X28101652Y-68083142D01*
X28435480Y-68373428D01*
X28435480Y-68058952D01*
D17*
X29770190Y-69048342D02*
X29746000Y-69026571D01*
X29721809Y-68983028D01*
X29721809Y-68874171D01*
X29746000Y-68830628D01*
X29770190Y-68808857D01*
X29818571Y-68787085D01*
X29866952Y-68787085D01*
X29939523Y-68808857D01*
X30229809Y-69070114D01*
X30229809Y-68787085D01*
X29770190Y-68612914D02*
X29746000Y-68591142D01*
X29721809Y-68547600D01*
X29721809Y-68438742D01*
X29746000Y-68395200D01*
X29770190Y-68373428D01*
X29818571Y-68351657D01*
X29866952Y-68351657D01*
X29939523Y-68373428D01*
X30229809Y-68634685D01*
X30229809Y-68351657D01*
D16*
X25405480Y-66456571D02*
X25127290Y-66625904D01*
X25405480Y-66746857D02*
X24821280Y-66746857D01*
X24821280Y-66553333D01*
X24849100Y-66504952D01*
X24876919Y-66480761D01*
X24932557Y-66456571D01*
X25016014Y-66456571D01*
X25071652Y-66480761D01*
X25099471Y-66504952D01*
X25127290Y-66553333D01*
X25127290Y-66746857D01*
X24821280Y-66287238D02*
X24821280Y-65972761D01*
X25043833Y-66142095D01*
X25043833Y-66069523D01*
X25071652Y-66021142D01*
X25099471Y-65996952D01*
X25155109Y-65972761D01*
X25294204Y-65972761D01*
X25349842Y-65996952D01*
X25377661Y-66021142D01*
X25405480Y-66069523D01*
X25405480Y-66214666D01*
X25377661Y-66263047D01*
X25349842Y-66287238D01*
X24876919Y-65779238D02*
X24849100Y-65755047D01*
X24821280Y-65706666D01*
X24821280Y-65585714D01*
X24849100Y-65537333D01*
X24876919Y-65513142D01*
X24932557Y-65488952D01*
X24988195Y-65488952D01*
X25071652Y-65513142D01*
X25405480Y-65803428D01*
X25405480Y-65488952D01*
D17*
X26740190Y-66478342D02*
X26716000Y-66456571D01*
X26691809Y-66413028D01*
X26691809Y-66304171D01*
X26716000Y-66260628D01*
X26740190Y-66238857D01*
X26788571Y-66217085D01*
X26836952Y-66217085D01*
X26909523Y-66238857D01*
X27199809Y-66500114D01*
X27199809Y-66217085D01*
X26740190Y-66042914D02*
X26716000Y-66021142D01*
X26691809Y-65977600D01*
X26691809Y-65868742D01*
X26716000Y-65825200D01*
X26740190Y-65803428D01*
X26788571Y-65781657D01*
X26836952Y-65781657D01*
X26909523Y-65803428D01*
X27199809Y-66064685D01*
X27199809Y-65781657D01*
D16*
X25405480Y-63036571D02*
X25127290Y-63205904D01*
X25405480Y-63326857D02*
X24821280Y-63326857D01*
X24821280Y-63133333D01*
X24849100Y-63084952D01*
X24876919Y-63060761D01*
X24932557Y-63036571D01*
X25016014Y-63036571D01*
X25071652Y-63060761D01*
X25099471Y-63084952D01*
X25127290Y-63133333D01*
X25127290Y-63326857D01*
X24821280Y-62867238D02*
X24821280Y-62552761D01*
X25043833Y-62722095D01*
X25043833Y-62649523D01*
X25071652Y-62601142D01*
X25099471Y-62576952D01*
X25155109Y-62552761D01*
X25294204Y-62552761D01*
X25349842Y-62576952D01*
X25377661Y-62601142D01*
X25405480Y-62649523D01*
X25405480Y-62794666D01*
X25377661Y-62843047D01*
X25349842Y-62867238D01*
X24821280Y-62383428D02*
X24821280Y-62068952D01*
X25043833Y-62238285D01*
X25043833Y-62165714D01*
X25071652Y-62117333D01*
X25099471Y-62093142D01*
X25155109Y-62068952D01*
X25294204Y-62068952D01*
X25349842Y-62093142D01*
X25377661Y-62117333D01*
X25405480Y-62165714D01*
X25405480Y-62310857D01*
X25377661Y-62359238D01*
X25349842Y-62383428D01*
D17*
X26740190Y-63058342D02*
X26716000Y-63036571D01*
X26691809Y-62993028D01*
X26691809Y-62884171D01*
X26716000Y-62840628D01*
X26740190Y-62818857D01*
X26788571Y-62797085D01*
X26836952Y-62797085D01*
X26909523Y-62818857D01*
X27199809Y-63080114D01*
X27199809Y-62797085D01*
X26740190Y-62622914D02*
X26716000Y-62601142D01*
X26691809Y-62557600D01*
X26691809Y-62448742D01*
X26716000Y-62405200D01*
X26740190Y-62383428D01*
X26788571Y-62361657D01*
X26836952Y-62361657D01*
X26909523Y-62383428D01*
X27199809Y-62644685D01*
X27199809Y-62361657D01*
D16*
X25405480Y-64746571D02*
X25127290Y-64915904D01*
X25405480Y-65036857D02*
X24821280Y-65036857D01*
X24821280Y-64843333D01*
X24849100Y-64794952D01*
X24876919Y-64770761D01*
X24932557Y-64746571D01*
X25016014Y-64746571D01*
X25071652Y-64770761D01*
X25099471Y-64794952D01*
X25127290Y-64843333D01*
X25127290Y-65036857D01*
X24876919Y-64553047D02*
X24849100Y-64528857D01*
X24821280Y-64480476D01*
X24821280Y-64359523D01*
X24849100Y-64311142D01*
X24876919Y-64286952D01*
X24932557Y-64262761D01*
X24988195Y-64262761D01*
X25071652Y-64286952D01*
X25405480Y-64577238D01*
X25405480Y-64262761D01*
X25016014Y-63827333D02*
X25405480Y-63827333D01*
X24793461Y-63948285D02*
X25210747Y-64069238D01*
X25210747Y-63754761D01*
D17*
X26740190Y-64768342D02*
X26716000Y-64746571D01*
X26691809Y-64703028D01*
X26691809Y-64594171D01*
X26716000Y-64550628D01*
X26740190Y-64528857D01*
X26788571Y-64507085D01*
X26836952Y-64507085D01*
X26909523Y-64528857D01*
X27199809Y-64790114D01*
X27199809Y-64507085D01*
X26740190Y-64332914D02*
X26716000Y-64311142D01*
X26691809Y-64267600D01*
X26691809Y-64158742D01*
X26716000Y-64115200D01*
X26740190Y-64093428D01*
X26788571Y-64071657D01*
X26836952Y-64071657D01*
X26909523Y-64093428D01*
X27199809Y-64354685D01*
X27199809Y-64071657D01*
D16*
X32204280Y-55286571D02*
X31926090Y-55455904D01*
X32204280Y-55576857D02*
X31620080Y-55576857D01*
X31620080Y-55383333D01*
X31647900Y-55334952D01*
X31675719Y-55310761D01*
X31731357Y-55286571D01*
X31814814Y-55286571D01*
X31870452Y-55310761D01*
X31898271Y-55334952D01*
X31926090Y-55383333D01*
X31926090Y-55576857D01*
X31675719Y-55093047D02*
X31647900Y-55068857D01*
X31620080Y-55020476D01*
X31620080Y-54899523D01*
X31647900Y-54851142D01*
X31675719Y-54826952D01*
X31731357Y-54802761D01*
X31786995Y-54802761D01*
X31870452Y-54826952D01*
X32204280Y-55117238D01*
X32204280Y-54802761D01*
X31870452Y-54512476D02*
X31842633Y-54560857D01*
X31814814Y-54585047D01*
X31759176Y-54609238D01*
X31731357Y-54609238D01*
X31675719Y-54585047D01*
X31647900Y-54560857D01*
X31620080Y-54512476D01*
X31620080Y-54415714D01*
X31647900Y-54367333D01*
X31675719Y-54343142D01*
X31731357Y-54318952D01*
X31759176Y-54318952D01*
X31814814Y-54343142D01*
X31842633Y-54367333D01*
X31870452Y-54415714D01*
X31870452Y-54512476D01*
X31898271Y-54560857D01*
X31926090Y-54585047D01*
X31981728Y-54609238D01*
X32093004Y-54609238D01*
X32148642Y-54585047D01*
X32176461Y-54560857D01*
X32204280Y-54512476D01*
X32204280Y-54415714D01*
X32176461Y-54367333D01*
X32148642Y-54343142D01*
X32093004Y-54318952D01*
X31981728Y-54318952D01*
X31926090Y-54343142D01*
X31898271Y-54367333D01*
X31870452Y-54415714D01*
D17*
X29740190Y-55288342D02*
X29716000Y-55266571D01*
X29691809Y-55223028D01*
X29691809Y-55114171D01*
X29716000Y-55070628D01*
X29740190Y-55048857D01*
X29788571Y-55027085D01*
X29836952Y-55027085D01*
X29909523Y-55048857D01*
X30199809Y-55310114D01*
X30199809Y-55027085D01*
X29740190Y-54852914D02*
X29716000Y-54831142D01*
X29691809Y-54787600D01*
X29691809Y-54678742D01*
X29716000Y-54635200D01*
X29740190Y-54613428D01*
X29788571Y-54591657D01*
X29836952Y-54591657D01*
X29909523Y-54613428D01*
X30199809Y-54874685D01*
X30199809Y-54591657D01*
D16*
X32094280Y-60426571D02*
X31816090Y-60595904D01*
X32094280Y-60716857D02*
X31510080Y-60716857D01*
X31510080Y-60523333D01*
X31537900Y-60474952D01*
X31565719Y-60450761D01*
X31621357Y-60426571D01*
X31704814Y-60426571D01*
X31760452Y-60450761D01*
X31788271Y-60474952D01*
X31816090Y-60523333D01*
X31816090Y-60716857D01*
X31565719Y-60233047D02*
X31537900Y-60208857D01*
X31510080Y-60160476D01*
X31510080Y-60039523D01*
X31537900Y-59991142D01*
X31565719Y-59966952D01*
X31621357Y-59942761D01*
X31676995Y-59942761D01*
X31760452Y-59966952D01*
X32094280Y-60257238D01*
X32094280Y-59942761D01*
X31510080Y-59507333D02*
X31510080Y-59604095D01*
X31537900Y-59652476D01*
X31565719Y-59676666D01*
X31649176Y-59725047D01*
X31760452Y-59749238D01*
X31983004Y-59749238D01*
X32038642Y-59725047D01*
X32066461Y-59700857D01*
X32094280Y-59652476D01*
X32094280Y-59555714D01*
X32066461Y-59507333D01*
X32038642Y-59483142D01*
X31983004Y-59458952D01*
X31843909Y-59458952D01*
X31788271Y-59483142D01*
X31760452Y-59507333D01*
X31732633Y-59555714D01*
X31732633Y-59652476D01*
X31760452Y-59700857D01*
X31788271Y-59725047D01*
X31843909Y-59749238D01*
D17*
X29740190Y-60418342D02*
X29716000Y-60396571D01*
X29691809Y-60353028D01*
X29691809Y-60244171D01*
X29716000Y-60200628D01*
X29740190Y-60178857D01*
X29788571Y-60157085D01*
X29836952Y-60157085D01*
X29909523Y-60178857D01*
X30199809Y-60440114D01*
X30199809Y-60157085D01*
X29740190Y-59982914D02*
X29716000Y-59961142D01*
X29691809Y-59917600D01*
X29691809Y-59808742D01*
X29716000Y-59765200D01*
X29740190Y-59743428D01*
X29788571Y-59721657D01*
X29836952Y-59721657D01*
X29909523Y-59743428D01*
X30199809Y-60004685D01*
X30199809Y-59721657D01*
D16*
X19523428Y-36194280D02*
X19354095Y-35916090D01*
X19233142Y-36194280D02*
X19233142Y-35610080D01*
X19426666Y-35610080D01*
X19475047Y-35637900D01*
X19499238Y-35665719D01*
X19523428Y-35721357D01*
X19523428Y-35804814D01*
X19499238Y-35860452D01*
X19475047Y-35888271D01*
X19426666Y-35916090D01*
X19233142Y-35916090D01*
X19958857Y-35804814D02*
X19958857Y-36194280D01*
X19837904Y-35582261D02*
X19716952Y-35999547D01*
X20031428Y-35999547D01*
X20297523Y-35860452D02*
X20249142Y-35832633D01*
X20224952Y-35804814D01*
X20200761Y-35749176D01*
X20200761Y-35721357D01*
X20224952Y-35665719D01*
X20249142Y-35637900D01*
X20297523Y-35610080D01*
X20394285Y-35610080D01*
X20442666Y-35637900D01*
X20466857Y-35665719D01*
X20491047Y-35721357D01*
X20491047Y-35749176D01*
X20466857Y-35804814D01*
X20442666Y-35832633D01*
X20394285Y-35860452D01*
X20297523Y-35860452D01*
X20249142Y-35888271D01*
X20224952Y-35916090D01*
X20200761Y-35971728D01*
X20200761Y-36083004D01*
X20224952Y-36138642D01*
X20249142Y-36166461D01*
X20297523Y-36194280D01*
X20394285Y-36194280D01*
X20442666Y-36166461D01*
X20466857Y-36138642D01*
X20491047Y-36083004D01*
X20491047Y-35971728D01*
X20466857Y-35916090D01*
X20442666Y-35888271D01*
X20394285Y-35860452D01*
D17*
X20281657Y-37452190D02*
X20303428Y-37428000D01*
X20346971Y-37403809D01*
X20455828Y-37403809D01*
X20499371Y-37428000D01*
X20521142Y-37452190D01*
X20542914Y-37500571D01*
X20542914Y-37548952D01*
X20521142Y-37621523D01*
X20259885Y-37911809D01*
X20542914Y-37911809D01*
X20717085Y-37452190D02*
X20738857Y-37428000D01*
X20782400Y-37403809D01*
X20891257Y-37403809D01*
X20934800Y-37428000D01*
X20956571Y-37452190D01*
X20978342Y-37500571D01*
X20978342Y-37548952D01*
X20956571Y-37621523D01*
X20695314Y-37911809D01*
X20978342Y-37911809D01*
D13*
X51682380Y-34113333D02*
X52396666Y-34113333D01*
X52539523Y-34160952D01*
X52634761Y-34256190D01*
X52682380Y-34399047D01*
X52682380Y-34494285D01*
X51682380Y-33160952D02*
X51682380Y-33637142D01*
X52158571Y-33684761D01*
X52110952Y-33637142D01*
X52063333Y-33541904D01*
X52063333Y-33303809D01*
X52110952Y-33208571D01*
X52158571Y-33160952D01*
X52253809Y-33113333D01*
X52491904Y-33113333D01*
X52587142Y-33160952D01*
X52634761Y-33208571D01*
X52682380Y-33303809D01*
X52682380Y-33541904D01*
X52634761Y-33637142D01*
X52587142Y-33684761D01*
X88822380Y-62251904D02*
X89631904Y-62251904D01*
X89727142Y-62204285D01*
X89774761Y-62156666D01*
X89822380Y-62061428D01*
X89822380Y-61870952D01*
X89774761Y-61775714D01*
X89727142Y-61728095D01*
X89631904Y-61680476D01*
X88822380Y-61680476D01*
X88822380Y-61299523D02*
X88822380Y-60632857D01*
X89822380Y-61061428D01*
X82422380Y-64210000D02*
X82660476Y-64210000D01*
X82565238Y-64448095D02*
X82660476Y-64210000D01*
X82565238Y-63971904D01*
X82850952Y-64352857D02*
X82660476Y-64210000D01*
X82850952Y-64067142D01*
D16*
X78773428Y-62378642D02*
X78749238Y-62406461D01*
X78676666Y-62434280D01*
X78628285Y-62434280D01*
X78555714Y-62406461D01*
X78507333Y-62350823D01*
X78483142Y-62295185D01*
X78458952Y-62183909D01*
X78458952Y-62100452D01*
X78483142Y-61989176D01*
X78507333Y-61933538D01*
X78555714Y-61877900D01*
X78628285Y-61850080D01*
X78676666Y-61850080D01*
X78749238Y-61877900D01*
X78773428Y-61905719D01*
X79208857Y-62044814D02*
X79208857Y-62434280D01*
X79087904Y-61822261D02*
X78966952Y-62239547D01*
X79281428Y-62239547D01*
X79450761Y-61905719D02*
X79474952Y-61877900D01*
X79523333Y-61850080D01*
X79644285Y-61850080D01*
X79692666Y-61877900D01*
X79716857Y-61905719D01*
X79741047Y-61961357D01*
X79741047Y-62016995D01*
X79716857Y-62100452D01*
X79426571Y-62434280D01*
X79741047Y-62434280D01*
D17*
X78584828Y-63811809D02*
X78628371Y-63811809D01*
X78671914Y-63836000D01*
X78693685Y-63860190D01*
X78715457Y-63908571D01*
X78737228Y-64005333D01*
X78737228Y-64126285D01*
X78715457Y-64223047D01*
X78693685Y-64271428D01*
X78671914Y-64295619D01*
X78628371Y-64319809D01*
X78584828Y-64319809D01*
X78541285Y-64295619D01*
X78519514Y-64271428D01*
X78497742Y-64223047D01*
X78475971Y-64126285D01*
X78475971Y-64005333D01*
X78497742Y-63908571D01*
X78519514Y-63860190D01*
X78541285Y-63836000D01*
X78584828Y-63811809D01*
X78933171Y-64271428D02*
X78954942Y-64295619D01*
X78933171Y-64319809D01*
X78911400Y-64295619D01*
X78933171Y-64271428D01*
X78933171Y-64319809D01*
X79390371Y-64319809D02*
X79129114Y-64319809D01*
X79259742Y-64319809D02*
X79259742Y-63811809D01*
X79216200Y-63884380D01*
X79172657Y-63932761D01*
X79129114Y-63956952D01*
X79782257Y-63981142D02*
X79782257Y-64319809D01*
X79586314Y-63981142D02*
X79586314Y-64247238D01*
X79608085Y-64295619D01*
X79651628Y-64319809D01*
X79716942Y-64319809D01*
X79760485Y-64295619D01*
X79782257Y-64271428D01*
D16*
X88707442Y-67456571D02*
X88735261Y-67480761D01*
X88763080Y-67553333D01*
X88763080Y-67601714D01*
X88735261Y-67674285D01*
X88679623Y-67722666D01*
X88623985Y-67746857D01*
X88512709Y-67771047D01*
X88429252Y-67771047D01*
X88317976Y-67746857D01*
X88262338Y-67722666D01*
X88206700Y-67674285D01*
X88178880Y-67601714D01*
X88178880Y-67553333D01*
X88206700Y-67480761D01*
X88234519Y-67456571D01*
X88373614Y-67021142D02*
X88763080Y-67021142D01*
X88151061Y-67142095D02*
X88568347Y-67263047D01*
X88568347Y-66948571D01*
X88373614Y-66537333D02*
X88763080Y-66537333D01*
X88151061Y-66658285D02*
X88568347Y-66779238D01*
X88568347Y-66464761D01*
D17*
X86391809Y-67685171D02*
X86391809Y-67641628D01*
X86416000Y-67598085D01*
X86440190Y-67576314D01*
X86488571Y-67554542D01*
X86585333Y-67532771D01*
X86706285Y-67532771D01*
X86803047Y-67554542D01*
X86851428Y-67576314D01*
X86875619Y-67598085D01*
X86899809Y-67641628D01*
X86899809Y-67685171D01*
X86875619Y-67728714D01*
X86851428Y-67750485D01*
X86803047Y-67772257D01*
X86706285Y-67794028D01*
X86585333Y-67794028D01*
X86488571Y-67772257D01*
X86440190Y-67750485D01*
X86416000Y-67728714D01*
X86391809Y-67685171D01*
X86851428Y-67336828D02*
X86875619Y-67315057D01*
X86899809Y-67336828D01*
X86875619Y-67358600D01*
X86851428Y-67336828D01*
X86899809Y-67336828D01*
X86899809Y-66879628D02*
X86899809Y-67140885D01*
X86899809Y-67010257D02*
X86391809Y-67010257D01*
X86464380Y-67053800D01*
X86512761Y-67097342D01*
X86536952Y-67140885D01*
X86561142Y-66487742D02*
X86899809Y-66487742D01*
X86561142Y-66683685D02*
X86827238Y-66683685D01*
X86875619Y-66661914D01*
X86899809Y-66618371D01*
X86899809Y-66553057D01*
X86875619Y-66509514D01*
X86851428Y-66487742D01*
D16*
X82138642Y-67466571D02*
X82166461Y-67490761D01*
X82194280Y-67563333D01*
X82194280Y-67611714D01*
X82166461Y-67684285D01*
X82110823Y-67732666D01*
X82055185Y-67756857D01*
X81943909Y-67781047D01*
X81860452Y-67781047D01*
X81749176Y-67756857D01*
X81693538Y-67732666D01*
X81637900Y-67684285D01*
X81610080Y-67611714D01*
X81610080Y-67563333D01*
X81637900Y-67490761D01*
X81665719Y-67466571D01*
X81804814Y-67031142D02*
X82194280Y-67031142D01*
X81582261Y-67152095D02*
X81999547Y-67273047D01*
X81999547Y-66958571D01*
X81610080Y-66813428D02*
X81610080Y-66498952D01*
X81832633Y-66668285D01*
X81832633Y-66595714D01*
X81860452Y-66547333D01*
X81888271Y-66523142D01*
X81943909Y-66498952D01*
X82083004Y-66498952D01*
X82138642Y-66523142D01*
X82166461Y-66547333D01*
X82194280Y-66595714D01*
X82194280Y-66740857D01*
X82166461Y-66789238D01*
X82138642Y-66813428D01*
D17*
X83531809Y-67685171D02*
X83531809Y-67641628D01*
X83556000Y-67598085D01*
X83580190Y-67576314D01*
X83628571Y-67554542D01*
X83725333Y-67532771D01*
X83846285Y-67532771D01*
X83943047Y-67554542D01*
X83991428Y-67576314D01*
X84015619Y-67598085D01*
X84039809Y-67641628D01*
X84039809Y-67685171D01*
X84015619Y-67728714D01*
X83991428Y-67750485D01*
X83943047Y-67772257D01*
X83846285Y-67794028D01*
X83725333Y-67794028D01*
X83628571Y-67772257D01*
X83580190Y-67750485D01*
X83556000Y-67728714D01*
X83531809Y-67685171D01*
X83991428Y-67336828D02*
X84015619Y-67315057D01*
X84039809Y-67336828D01*
X84015619Y-67358600D01*
X83991428Y-67336828D01*
X84039809Y-67336828D01*
X84039809Y-66879628D02*
X84039809Y-67140885D01*
X84039809Y-67010257D02*
X83531809Y-67010257D01*
X83604380Y-67053800D01*
X83652761Y-67097342D01*
X83676952Y-67140885D01*
X83701142Y-66487742D02*
X84039809Y-66487742D01*
X83701142Y-66683685D02*
X83967238Y-66683685D01*
X84015619Y-66661914D01*
X84039809Y-66618371D01*
X84039809Y-66553057D01*
X84015619Y-66509514D01*
X83991428Y-66487742D01*
D16*
X28453428Y-39158642D02*
X28429238Y-39186461D01*
X28356666Y-39214280D01*
X28308285Y-39214280D01*
X28235714Y-39186461D01*
X28187333Y-39130823D01*
X28163142Y-39075185D01*
X28138952Y-38963909D01*
X28138952Y-38880452D01*
X28163142Y-38769176D01*
X28187333Y-38713538D01*
X28235714Y-38657900D01*
X28308285Y-38630080D01*
X28356666Y-38630080D01*
X28429238Y-38657900D01*
X28453428Y-38685719D01*
X28913047Y-38630080D02*
X28671142Y-38630080D01*
X28646952Y-38908271D01*
X28671142Y-38880452D01*
X28719523Y-38852633D01*
X28840476Y-38852633D01*
X28888857Y-38880452D01*
X28913047Y-38908271D01*
X28937238Y-38963909D01*
X28937238Y-39103004D01*
X28913047Y-39158642D01*
X28888857Y-39186461D01*
X28840476Y-39214280D01*
X28719523Y-39214280D01*
X28671142Y-39186461D01*
X28646952Y-39158642D01*
X29421047Y-39214280D02*
X29130761Y-39214280D01*
X29275904Y-39214280D02*
X29275904Y-38630080D01*
X29227523Y-38713538D01*
X29179142Y-38769176D01*
X29130761Y-38796995D01*
D17*
X26534828Y-39481809D02*
X26578371Y-39481809D01*
X26621914Y-39506000D01*
X26643685Y-39530190D01*
X26665457Y-39578571D01*
X26687228Y-39675333D01*
X26687228Y-39796285D01*
X26665457Y-39893047D01*
X26643685Y-39941428D01*
X26621914Y-39965619D01*
X26578371Y-39989809D01*
X26534828Y-39989809D01*
X26491285Y-39965619D01*
X26469514Y-39941428D01*
X26447742Y-39893047D01*
X26425971Y-39796285D01*
X26425971Y-39675333D01*
X26447742Y-39578571D01*
X26469514Y-39530190D01*
X26491285Y-39506000D01*
X26534828Y-39481809D01*
X26883171Y-39941428D02*
X26904942Y-39965619D01*
X26883171Y-39989809D01*
X26861400Y-39965619D01*
X26883171Y-39941428D01*
X26883171Y-39989809D01*
X27340371Y-39989809D02*
X27079114Y-39989809D01*
X27209742Y-39989809D02*
X27209742Y-39481809D01*
X27166200Y-39554380D01*
X27122657Y-39602761D01*
X27079114Y-39626952D01*
X27732257Y-39651142D02*
X27732257Y-39989809D01*
X27536314Y-39651142D02*
X27536314Y-39917238D01*
X27558085Y-39965619D01*
X27601628Y-39989809D01*
X27666942Y-39989809D01*
X27710485Y-39965619D01*
X27732257Y-39941428D01*
D16*
X89448642Y-56166571D02*
X89476461Y-56190761D01*
X89504280Y-56263333D01*
X89504280Y-56311714D01*
X89476461Y-56384285D01*
X89420823Y-56432666D01*
X89365185Y-56456857D01*
X89253909Y-56481047D01*
X89170452Y-56481047D01*
X89059176Y-56456857D01*
X89003538Y-56432666D01*
X88947900Y-56384285D01*
X88920080Y-56311714D01*
X88920080Y-56263333D01*
X88947900Y-56190761D01*
X88975719Y-56166571D01*
X89114814Y-55731142D02*
X89504280Y-55731142D01*
X88892261Y-55852095D02*
X89309547Y-55973047D01*
X89309547Y-55658571D01*
X89170452Y-55392476D02*
X89142633Y-55440857D01*
X89114814Y-55465047D01*
X89059176Y-55489238D01*
X89031357Y-55489238D01*
X88975719Y-55465047D01*
X88947900Y-55440857D01*
X88920080Y-55392476D01*
X88920080Y-55295714D01*
X88947900Y-55247333D01*
X88975719Y-55223142D01*
X89031357Y-55198952D01*
X89059176Y-55198952D01*
X89114814Y-55223142D01*
X89142633Y-55247333D01*
X89170452Y-55295714D01*
X89170452Y-55392476D01*
X89198271Y-55440857D01*
X89226090Y-55465047D01*
X89281728Y-55489238D01*
X89393004Y-55489238D01*
X89448642Y-55465047D01*
X89476461Y-55440857D01*
X89504280Y-55392476D01*
X89504280Y-55295714D01*
X89476461Y-55247333D01*
X89448642Y-55223142D01*
X89393004Y-55198952D01*
X89281728Y-55198952D01*
X89226090Y-55223142D01*
X89198271Y-55247333D01*
X89170452Y-55295714D01*
D17*
X87569809Y-55876200D02*
X87569809Y-56137457D01*
X87569809Y-56006828D02*
X87061809Y-56006828D01*
X87134380Y-56050371D01*
X87182761Y-56093914D01*
X87206952Y-56137457D01*
X87231142Y-55680257D02*
X87569809Y-55680257D01*
X87279523Y-55680257D02*
X87255333Y-55658485D01*
X87231142Y-55614942D01*
X87231142Y-55549628D01*
X87255333Y-55506085D01*
X87303714Y-55484314D01*
X87569809Y-55484314D01*
D16*
X79038642Y-56086571D02*
X79066461Y-56110761D01*
X79094280Y-56183333D01*
X79094280Y-56231714D01*
X79066461Y-56304285D01*
X79010823Y-56352666D01*
X78955185Y-56376857D01*
X78843909Y-56401047D01*
X78760452Y-56401047D01*
X78649176Y-56376857D01*
X78593538Y-56352666D01*
X78537900Y-56304285D01*
X78510080Y-56231714D01*
X78510080Y-56183333D01*
X78537900Y-56110761D01*
X78565719Y-56086571D01*
X78704814Y-55651142D02*
X79094280Y-55651142D01*
X78482261Y-55772095D02*
X78899547Y-55893047D01*
X78899547Y-55578571D01*
X78510080Y-55433428D02*
X78510080Y-55094761D01*
X79094280Y-55312476D01*
D17*
X80909809Y-55846200D02*
X80909809Y-56107457D01*
X80909809Y-55976828D02*
X80401809Y-55976828D01*
X80474380Y-56020371D01*
X80522761Y-56063914D01*
X80546952Y-56107457D01*
X80571142Y-55650257D02*
X80909809Y-55650257D01*
X80619523Y-55650257D02*
X80595333Y-55628485D01*
X80571142Y-55584942D01*
X80571142Y-55519628D01*
X80595333Y-55476085D01*
X80643714Y-55454314D01*
X80909809Y-55454314D01*
D16*
X82793428Y-53264280D02*
X82624095Y-52986090D01*
X82503142Y-53264280D02*
X82503142Y-52680080D01*
X82696666Y-52680080D01*
X82745047Y-52707900D01*
X82769238Y-52735719D01*
X82793428Y-52791357D01*
X82793428Y-52874814D01*
X82769238Y-52930452D01*
X82745047Y-52958271D01*
X82696666Y-52986090D01*
X82503142Y-52986090D01*
X83228857Y-52874814D02*
X83228857Y-53264280D01*
X83107904Y-52652261D02*
X82986952Y-53069547D01*
X83301428Y-53069547D01*
X83712666Y-52680080D02*
X83615904Y-52680080D01*
X83567523Y-52707900D01*
X83543333Y-52735719D01*
X83494952Y-52819176D01*
X83470761Y-52930452D01*
X83470761Y-53153004D01*
X83494952Y-53208642D01*
X83519142Y-53236461D01*
X83567523Y-53264280D01*
X83664285Y-53264280D01*
X83712666Y-53236461D01*
X83736857Y-53208642D01*
X83761047Y-53153004D01*
X83761047Y-53013909D01*
X83736857Y-52958271D01*
X83712666Y-52930452D01*
X83664285Y-52902633D01*
X83567523Y-52902633D01*
X83519142Y-52930452D01*
X83494952Y-52958271D01*
X83470761Y-53013909D01*
D17*
X82465971Y-54491809D02*
X82749000Y-54491809D01*
X82596600Y-54685333D01*
X82661914Y-54685333D01*
X82705457Y-54709523D01*
X82727228Y-54733714D01*
X82749000Y-54782095D01*
X82749000Y-54903047D01*
X82727228Y-54951428D01*
X82705457Y-54975619D01*
X82661914Y-54999809D01*
X82531285Y-54999809D01*
X82487742Y-54975619D01*
X82465971Y-54951428D01*
X82944942Y-54951428D02*
X82966714Y-54975619D01*
X82944942Y-54999809D01*
X82923171Y-54975619D01*
X82944942Y-54951428D01*
X82944942Y-54999809D01*
X83119114Y-54491809D02*
X83402142Y-54491809D01*
X83249742Y-54685333D01*
X83315057Y-54685333D01*
X83358600Y-54709523D01*
X83380371Y-54733714D01*
X83402142Y-54782095D01*
X83402142Y-54903047D01*
X83380371Y-54951428D01*
X83358600Y-54975619D01*
X83315057Y-54999809D01*
X83184428Y-54999809D01*
X83140885Y-54975619D01*
X83119114Y-54951428D01*
X83598085Y-54999809D02*
X83598085Y-54491809D01*
X83641628Y-54806285D02*
X83772257Y-54999809D01*
X83772257Y-54661142D02*
X83598085Y-54854666D01*
D16*
X84583428Y-53274280D02*
X84414095Y-52996090D01*
X84293142Y-53274280D02*
X84293142Y-52690080D01*
X84486666Y-52690080D01*
X84535047Y-52717900D01*
X84559238Y-52745719D01*
X84583428Y-52801357D01*
X84583428Y-52884814D01*
X84559238Y-52940452D01*
X84535047Y-52968271D01*
X84486666Y-52996090D01*
X84293142Y-52996090D01*
X85018857Y-52884814D02*
X85018857Y-53274280D01*
X84897904Y-52662261D02*
X84776952Y-53079547D01*
X85091428Y-53079547D01*
X85236571Y-52690080D02*
X85575238Y-52690080D01*
X85357523Y-53274280D01*
D17*
X84255971Y-54491809D02*
X84539000Y-54491809D01*
X84386600Y-54685333D01*
X84451914Y-54685333D01*
X84495457Y-54709523D01*
X84517228Y-54733714D01*
X84539000Y-54782095D01*
X84539000Y-54903047D01*
X84517228Y-54951428D01*
X84495457Y-54975619D01*
X84451914Y-54999809D01*
X84321285Y-54999809D01*
X84277742Y-54975619D01*
X84255971Y-54951428D01*
X84734942Y-54951428D02*
X84756714Y-54975619D01*
X84734942Y-54999809D01*
X84713171Y-54975619D01*
X84734942Y-54951428D01*
X84734942Y-54999809D01*
X84909114Y-54491809D02*
X85192142Y-54491809D01*
X85039742Y-54685333D01*
X85105057Y-54685333D01*
X85148600Y-54709523D01*
X85170371Y-54733714D01*
X85192142Y-54782095D01*
X85192142Y-54903047D01*
X85170371Y-54951428D01*
X85148600Y-54975619D01*
X85105057Y-54999809D01*
X84974428Y-54999809D01*
X84930885Y-54975619D01*
X84909114Y-54951428D01*
X85388085Y-54999809D02*
X85388085Y-54491809D01*
X85431628Y-54806285D02*
X85562257Y-54999809D01*
X85562257Y-54661142D02*
X85388085Y-54854666D01*
D13*
X24212433Y-35544747D02*
X25021957Y-35544747D01*
X25117195Y-35497128D01*
X25164814Y-35449509D01*
X25212433Y-35354271D01*
X25212433Y-35163795D01*
X25164814Y-35068557D01*
X25117195Y-35020938D01*
X25021957Y-34973319D01*
X24212433Y-34973319D01*
X24212433Y-34068557D02*
X24212433Y-34259033D01*
X24260053Y-34354271D01*
X24307672Y-34401890D01*
X24450529Y-34497128D01*
X24641005Y-34544747D01*
X25021957Y-34544747D01*
X25117195Y-34497128D01*
X25164814Y-34449509D01*
X25212433Y-34354271D01*
X25212433Y-34163795D01*
X25164814Y-34068557D01*
X25117195Y-34020938D01*
X25021957Y-33973319D01*
X24783862Y-33973319D01*
X24688624Y-34020938D01*
X24641005Y-34068557D01*
X24593386Y-34163795D01*
X24593386Y-34354271D01*
X24641005Y-34449509D01*
X24688624Y-34497128D01*
X24783862Y-34544747D01*
D16*
X72035333Y-66027442D02*
X72011142Y-66055261D01*
X71938571Y-66083080D01*
X71890190Y-66083080D01*
X71817619Y-66055261D01*
X71769238Y-65999623D01*
X71745047Y-65943985D01*
X71720857Y-65832709D01*
X71720857Y-65749252D01*
X71745047Y-65637976D01*
X71769238Y-65582338D01*
X71817619Y-65526700D01*
X71890190Y-65498880D01*
X71938571Y-65498880D01*
X72011142Y-65526700D01*
X72035333Y-65554519D01*
X72519142Y-66083080D02*
X72228857Y-66083080D01*
X72374000Y-66083080D02*
X72374000Y-65498880D01*
X72325619Y-65582338D01*
X72277238Y-65637976D01*
X72228857Y-65665795D01*
D17*
X72043800Y-64219809D02*
X71782542Y-64219809D01*
X71913171Y-64219809D02*
X71913171Y-63711809D01*
X71869628Y-63784380D01*
X71826085Y-63832761D01*
X71782542Y-63856952D01*
X72435685Y-63881142D02*
X72435685Y-64219809D01*
X72239742Y-63881142D02*
X72239742Y-64147238D01*
X72261514Y-64195619D01*
X72305057Y-64219809D01*
X72370371Y-64219809D01*
X72413914Y-64195619D01*
X72435685Y-64171428D01*
D16*
X72005333Y-62007442D02*
X71981142Y-62035261D01*
X71908571Y-62063080D01*
X71860190Y-62063080D01*
X71787619Y-62035261D01*
X71739238Y-61979623D01*
X71715047Y-61923985D01*
X71690857Y-61812709D01*
X71690857Y-61729252D01*
X71715047Y-61617976D01*
X71739238Y-61562338D01*
X71787619Y-61506700D01*
X71860190Y-61478880D01*
X71908571Y-61478880D01*
X71981142Y-61506700D01*
X72005333Y-61534519D01*
X72198857Y-61534519D02*
X72223047Y-61506700D01*
X72271428Y-61478880D01*
X72392380Y-61478880D01*
X72440761Y-61506700D01*
X72464952Y-61534519D01*
X72489142Y-61590157D01*
X72489142Y-61645795D01*
X72464952Y-61729252D01*
X72174666Y-62063080D01*
X72489142Y-62063080D01*
D17*
X72013800Y-60199809D02*
X71752542Y-60199809D01*
X71883171Y-60199809D02*
X71883171Y-59691809D01*
X71839628Y-59764380D01*
X71796085Y-59812761D01*
X71752542Y-59836952D01*
X72405685Y-59861142D02*
X72405685Y-60199809D01*
X72209742Y-59861142D02*
X72209742Y-60127238D01*
X72231514Y-60175619D01*
X72275057Y-60199809D01*
X72340371Y-60199809D01*
X72383914Y-60175619D01*
X72405685Y-60151428D01*
D16*
X35845333Y-39709842D02*
X35821142Y-39737661D01*
X35748571Y-39765480D01*
X35700190Y-39765480D01*
X35627619Y-39737661D01*
X35579238Y-39682023D01*
X35555047Y-39626385D01*
X35530857Y-39515109D01*
X35530857Y-39431652D01*
X35555047Y-39320376D01*
X35579238Y-39264738D01*
X35627619Y-39209100D01*
X35700190Y-39181280D01*
X35748571Y-39181280D01*
X35821142Y-39209100D01*
X35845333Y-39236919D01*
X36014666Y-39181280D02*
X36329142Y-39181280D01*
X36159809Y-39403833D01*
X36232380Y-39403833D01*
X36280761Y-39431652D01*
X36304952Y-39459471D01*
X36329142Y-39515109D01*
X36329142Y-39654204D01*
X36304952Y-39709842D01*
X36280761Y-39737661D01*
X36232380Y-39765480D01*
X36087238Y-39765480D01*
X36038857Y-39737661D01*
X36014666Y-39709842D01*
D17*
X35853800Y-41559809D02*
X35592542Y-41559809D01*
X35723171Y-41559809D02*
X35723171Y-41051809D01*
X35679628Y-41124380D01*
X35636085Y-41172761D01*
X35592542Y-41196952D01*
X36245685Y-41221142D02*
X36245685Y-41559809D01*
X36049742Y-41221142D02*
X36049742Y-41487238D01*
X36071514Y-41535619D01*
X36115057Y-41559809D01*
X36180371Y-41559809D01*
X36223914Y-41535619D01*
X36245685Y-41511428D01*
D16*
X65587442Y-67044666D02*
X65615261Y-67068857D01*
X65643080Y-67141428D01*
X65643080Y-67189809D01*
X65615261Y-67262380D01*
X65559623Y-67310761D01*
X65503985Y-67334952D01*
X65392709Y-67359142D01*
X65309252Y-67359142D01*
X65197976Y-67334952D01*
X65142338Y-67310761D01*
X65086700Y-67262380D01*
X65058880Y-67189809D01*
X65058880Y-67141428D01*
X65086700Y-67068857D01*
X65114519Y-67044666D01*
X65253614Y-66609238D02*
X65643080Y-66609238D01*
X65031061Y-66730190D02*
X65448347Y-66851142D01*
X65448347Y-66536666D01*
D17*
X63779809Y-67253914D02*
X63779809Y-67515171D01*
X63779809Y-67384542D02*
X63271809Y-67384542D01*
X63344380Y-67428085D01*
X63392761Y-67471628D01*
X63416952Y-67515171D01*
X63271809Y-66970885D02*
X63271809Y-66927342D01*
X63296000Y-66883800D01*
X63320190Y-66862028D01*
X63368571Y-66840257D01*
X63465333Y-66818485D01*
X63586285Y-66818485D01*
X63683047Y-66840257D01*
X63731428Y-66862028D01*
X63755619Y-66883800D01*
X63779809Y-66927342D01*
X63779809Y-66970885D01*
X63755619Y-67014428D01*
X63731428Y-67036200D01*
X63683047Y-67057971D01*
X63586285Y-67079742D01*
X63465333Y-67079742D01*
X63368571Y-67057971D01*
X63320190Y-67036200D01*
X63296000Y-67014428D01*
X63271809Y-66970885D01*
X63441142Y-66426600D02*
X63779809Y-66426600D01*
X63441142Y-66622542D02*
X63707238Y-66622542D01*
X63755619Y-66600771D01*
X63779809Y-66557228D01*
X63779809Y-66491914D01*
X63755619Y-66448371D01*
X63731428Y-66426600D01*
D16*
X65657442Y-74074666D02*
X65685261Y-74098857D01*
X65713080Y-74171428D01*
X65713080Y-74219809D01*
X65685261Y-74292380D01*
X65629623Y-74340761D01*
X65573985Y-74364952D01*
X65462709Y-74389142D01*
X65379252Y-74389142D01*
X65267976Y-74364952D01*
X65212338Y-74340761D01*
X65156700Y-74292380D01*
X65128880Y-74219809D01*
X65128880Y-74171428D01*
X65156700Y-74098857D01*
X65184519Y-74074666D01*
X65128880Y-73615047D02*
X65128880Y-73856952D01*
X65407071Y-73881142D01*
X65379252Y-73856952D01*
X65351433Y-73808571D01*
X65351433Y-73687619D01*
X65379252Y-73639238D01*
X65407071Y-73615047D01*
X65462709Y-73590857D01*
X65601804Y-73590857D01*
X65657442Y-73615047D01*
X65685261Y-73639238D01*
X65713080Y-73687619D01*
X65713080Y-73808571D01*
X65685261Y-73856952D01*
X65657442Y-73881142D01*
D17*
X63849809Y-74283914D02*
X63849809Y-74545171D01*
X63849809Y-74414542D02*
X63341809Y-74414542D01*
X63414380Y-74458085D01*
X63462761Y-74501628D01*
X63486952Y-74545171D01*
X63341809Y-74000885D02*
X63341809Y-73957342D01*
X63366000Y-73913800D01*
X63390190Y-73892028D01*
X63438571Y-73870257D01*
X63535333Y-73848485D01*
X63656285Y-73848485D01*
X63753047Y-73870257D01*
X63801428Y-73892028D01*
X63825619Y-73913800D01*
X63849809Y-73957342D01*
X63849809Y-74000885D01*
X63825619Y-74044428D01*
X63801428Y-74066200D01*
X63753047Y-74087971D01*
X63656285Y-74109742D01*
X63535333Y-74109742D01*
X63438571Y-74087971D01*
X63390190Y-74066200D01*
X63366000Y-74044428D01*
X63341809Y-74000885D01*
X63511142Y-73456600D02*
X63849809Y-73456600D01*
X63511142Y-73652542D02*
X63777238Y-73652542D01*
X63825619Y-73630771D01*
X63849809Y-73587228D01*
X63849809Y-73521914D01*
X63825619Y-73478371D01*
X63801428Y-73456600D01*
D16*
X64205333Y-65817442D02*
X64181142Y-65845261D01*
X64108571Y-65873080D01*
X64060190Y-65873080D01*
X63987619Y-65845261D01*
X63939238Y-65789623D01*
X63915047Y-65733985D01*
X63890857Y-65622709D01*
X63890857Y-65539252D01*
X63915047Y-65427976D01*
X63939238Y-65372338D01*
X63987619Y-65316700D01*
X64060190Y-65288880D01*
X64108571Y-65288880D01*
X64181142Y-65316700D01*
X64205333Y-65344519D01*
X64640761Y-65288880D02*
X64544000Y-65288880D01*
X64495619Y-65316700D01*
X64471428Y-65344519D01*
X64423047Y-65427976D01*
X64398857Y-65539252D01*
X64398857Y-65761804D01*
X64423047Y-65817442D01*
X64447238Y-65845261D01*
X64495619Y-65873080D01*
X64592380Y-65873080D01*
X64640761Y-65845261D01*
X64664952Y-65817442D01*
X64689142Y-65761804D01*
X64689142Y-65622709D01*
X64664952Y-65567071D01*
X64640761Y-65539252D01*
X64592380Y-65511433D01*
X64495619Y-65511433D01*
X64447238Y-65539252D01*
X64423047Y-65567071D01*
X64398857Y-65622709D01*
D17*
X64213800Y-64009809D02*
X63952542Y-64009809D01*
X64083171Y-64009809D02*
X64083171Y-63501809D01*
X64039628Y-63574380D01*
X63996085Y-63622761D01*
X63952542Y-63646952D01*
X64605685Y-63671142D02*
X64605685Y-64009809D01*
X64409742Y-63671142D02*
X64409742Y-63937238D01*
X64431514Y-63985619D01*
X64475057Y-64009809D01*
X64540371Y-64009809D01*
X64583914Y-63985619D01*
X64605685Y-63961428D01*
D16*
X64215333Y-61627442D02*
X64191142Y-61655261D01*
X64118571Y-61683080D01*
X64070190Y-61683080D01*
X63997619Y-61655261D01*
X63949238Y-61599623D01*
X63925047Y-61543985D01*
X63900857Y-61432709D01*
X63900857Y-61349252D01*
X63925047Y-61237976D01*
X63949238Y-61182338D01*
X63997619Y-61126700D01*
X64070190Y-61098880D01*
X64118571Y-61098880D01*
X64191142Y-61126700D01*
X64215333Y-61154519D01*
X64384666Y-61098880D02*
X64723333Y-61098880D01*
X64505619Y-61683080D01*
D17*
X64223800Y-59819809D02*
X63962542Y-59819809D01*
X64093171Y-59819809D02*
X64093171Y-59311809D01*
X64049628Y-59384380D01*
X64006085Y-59432761D01*
X63962542Y-59456952D01*
X64615685Y-59481142D02*
X64615685Y-59819809D01*
X64419742Y-59481142D02*
X64419742Y-59747238D01*
X64441514Y-59795619D01*
X64485057Y-59819809D01*
X64550371Y-59819809D01*
X64593914Y-59795619D01*
X64615685Y-59771428D01*
D16*
X43555333Y-39689842D02*
X43531142Y-39717661D01*
X43458571Y-39745480D01*
X43410190Y-39745480D01*
X43337619Y-39717661D01*
X43289238Y-39662023D01*
X43265047Y-39606385D01*
X43240857Y-39495109D01*
X43240857Y-39411652D01*
X43265047Y-39300376D01*
X43289238Y-39244738D01*
X43337619Y-39189100D01*
X43410190Y-39161280D01*
X43458571Y-39161280D01*
X43531142Y-39189100D01*
X43555333Y-39216919D01*
X43845619Y-39411652D02*
X43797238Y-39383833D01*
X43773047Y-39356014D01*
X43748857Y-39300376D01*
X43748857Y-39272557D01*
X43773047Y-39216919D01*
X43797238Y-39189100D01*
X43845619Y-39161280D01*
X43942380Y-39161280D01*
X43990761Y-39189100D01*
X44014952Y-39216919D01*
X44039142Y-39272557D01*
X44039142Y-39300376D01*
X44014952Y-39356014D01*
X43990761Y-39383833D01*
X43942380Y-39411652D01*
X43845619Y-39411652D01*
X43797238Y-39439471D01*
X43773047Y-39467290D01*
X43748857Y-39522928D01*
X43748857Y-39634204D01*
X43773047Y-39689842D01*
X43797238Y-39717661D01*
X43845619Y-39745480D01*
X43942380Y-39745480D01*
X43990761Y-39717661D01*
X44014952Y-39689842D01*
X44039142Y-39634204D01*
X44039142Y-39522928D01*
X44014952Y-39467290D01*
X43990761Y-39439471D01*
X43942380Y-39411652D01*
D17*
X43563800Y-41539809D02*
X43302542Y-41539809D01*
X43433171Y-41539809D02*
X43433171Y-41031809D01*
X43389628Y-41104380D01*
X43346085Y-41152761D01*
X43302542Y-41176952D01*
X43955685Y-41201142D02*
X43955685Y-41539809D01*
X43759742Y-41201142D02*
X43759742Y-41467238D01*
X43781514Y-41515619D01*
X43825057Y-41539809D01*
X43890371Y-41539809D01*
X43933914Y-41515619D01*
X43955685Y-41491428D01*
D16*
X64608642Y-56006571D02*
X64636461Y-56030761D01*
X64664280Y-56103333D01*
X64664280Y-56151714D01*
X64636461Y-56224285D01*
X64580823Y-56272666D01*
X64525185Y-56296857D01*
X64413909Y-56321047D01*
X64330452Y-56321047D01*
X64219176Y-56296857D01*
X64163538Y-56272666D01*
X64107900Y-56224285D01*
X64080080Y-56151714D01*
X64080080Y-56103333D01*
X64107900Y-56030761D01*
X64135719Y-56006571D01*
X64664280Y-55522761D02*
X64664280Y-55813047D01*
X64664280Y-55667904D02*
X64080080Y-55667904D01*
X64163538Y-55716285D01*
X64219176Y-55764666D01*
X64246995Y-55813047D01*
X64080080Y-55353428D02*
X64080080Y-55038952D01*
X64302633Y-55208285D01*
X64302633Y-55135714D01*
X64330452Y-55087333D01*
X64358271Y-55063142D01*
X64413909Y-55038952D01*
X64553004Y-55038952D01*
X64608642Y-55063142D01*
X64636461Y-55087333D01*
X64664280Y-55135714D01*
X64664280Y-55280857D01*
X64636461Y-55329238D01*
X64608642Y-55353428D01*
D17*
X65039809Y-54186200D02*
X65039809Y-54447457D01*
X65039809Y-54316828D02*
X64531809Y-54316828D01*
X64604380Y-54360371D01*
X64652761Y-54403914D01*
X64676952Y-54447457D01*
X64701142Y-53990257D02*
X65039809Y-53990257D01*
X64749523Y-53990257D02*
X64725333Y-53968485D01*
X64701142Y-53924942D01*
X64701142Y-53859628D01*
X64725333Y-53816085D01*
X64773714Y-53794314D01*
X65039809Y-53794314D01*
D16*
X69597442Y-51016571D02*
X69625261Y-51040761D01*
X69653080Y-51113333D01*
X69653080Y-51161714D01*
X69625261Y-51234285D01*
X69569623Y-51282666D01*
X69513985Y-51306857D01*
X69402709Y-51331047D01*
X69319252Y-51331047D01*
X69207976Y-51306857D01*
X69152338Y-51282666D01*
X69096700Y-51234285D01*
X69068880Y-51161714D01*
X69068880Y-51113333D01*
X69096700Y-51040761D01*
X69124519Y-51016571D01*
X69124519Y-50823047D02*
X69096700Y-50798857D01*
X69068880Y-50750476D01*
X69068880Y-50629523D01*
X69096700Y-50581142D01*
X69124519Y-50556952D01*
X69180157Y-50532761D01*
X69235795Y-50532761D01*
X69319252Y-50556952D01*
X69653080Y-50847238D01*
X69653080Y-50532761D01*
X69068880Y-50218285D02*
X69068880Y-50169904D01*
X69096700Y-50121523D01*
X69124519Y-50097333D01*
X69180157Y-50073142D01*
X69291433Y-50048952D01*
X69430528Y-50048952D01*
X69541804Y-50073142D01*
X69597442Y-50097333D01*
X69625261Y-50121523D01*
X69653080Y-50169904D01*
X69653080Y-50218285D01*
X69625261Y-50266666D01*
X69597442Y-50290857D01*
X69541804Y-50315047D01*
X69430528Y-50339238D01*
X69291433Y-50339238D01*
X69180157Y-50315047D01*
X69124519Y-50290857D01*
X69096700Y-50266666D01*
X69068880Y-50218285D01*
D17*
X67789809Y-50983914D02*
X67789809Y-51245171D01*
X67789809Y-51114542D02*
X67281809Y-51114542D01*
X67354380Y-51158085D01*
X67402761Y-51201628D01*
X67426952Y-51245171D01*
X67281809Y-50700885D02*
X67281809Y-50657342D01*
X67306000Y-50613800D01*
X67330190Y-50592028D01*
X67378571Y-50570257D01*
X67475333Y-50548485D01*
X67596285Y-50548485D01*
X67693047Y-50570257D01*
X67741428Y-50592028D01*
X67765619Y-50613800D01*
X67789809Y-50657342D01*
X67789809Y-50700885D01*
X67765619Y-50744428D01*
X67741428Y-50766200D01*
X67693047Y-50787971D01*
X67596285Y-50809742D01*
X67475333Y-50809742D01*
X67378571Y-50787971D01*
X67330190Y-50766200D01*
X67306000Y-50744428D01*
X67281809Y-50700885D01*
X67451142Y-50352542D02*
X67789809Y-50352542D01*
X67499523Y-50352542D02*
X67475333Y-50330771D01*
X67451142Y-50287228D01*
X67451142Y-50221914D01*
X67475333Y-50178371D01*
X67523714Y-50156600D01*
X67789809Y-50156600D01*
D16*
X66847442Y-52726571D02*
X66875261Y-52750761D01*
X66903080Y-52823333D01*
X66903080Y-52871714D01*
X66875261Y-52944285D01*
X66819623Y-52992666D01*
X66763985Y-53016857D01*
X66652709Y-53041047D01*
X66569252Y-53041047D01*
X66457976Y-53016857D01*
X66402338Y-52992666D01*
X66346700Y-52944285D01*
X66318880Y-52871714D01*
X66318880Y-52823333D01*
X66346700Y-52750761D01*
X66374519Y-52726571D01*
X66374519Y-52533047D02*
X66346700Y-52508857D01*
X66318880Y-52460476D01*
X66318880Y-52339523D01*
X66346700Y-52291142D01*
X66374519Y-52266952D01*
X66430157Y-52242761D01*
X66485795Y-52242761D01*
X66569252Y-52266952D01*
X66903080Y-52557238D01*
X66903080Y-52242761D01*
X66374519Y-52049238D02*
X66346700Y-52025047D01*
X66318880Y-51976666D01*
X66318880Y-51855714D01*
X66346700Y-51807333D01*
X66374519Y-51783142D01*
X66430157Y-51758952D01*
X66485795Y-51758952D01*
X66569252Y-51783142D01*
X66903080Y-52073428D01*
X66903080Y-51758952D01*
D17*
X65039809Y-52476200D02*
X65039809Y-52737457D01*
X65039809Y-52606828D02*
X64531809Y-52606828D01*
X64604380Y-52650371D01*
X64652761Y-52693914D01*
X64676952Y-52737457D01*
X64701142Y-52280257D02*
X65039809Y-52280257D01*
X64749523Y-52280257D02*
X64725333Y-52258485D01*
X64701142Y-52214942D01*
X64701142Y-52149628D01*
X64725333Y-52106085D01*
X64773714Y-52084314D01*
X65039809Y-52084314D01*
D16*
X65698642Y-47526571D02*
X65726461Y-47550761D01*
X65754280Y-47623333D01*
X65754280Y-47671714D01*
X65726461Y-47744285D01*
X65670823Y-47792666D01*
X65615185Y-47816857D01*
X65503909Y-47841047D01*
X65420452Y-47841047D01*
X65309176Y-47816857D01*
X65253538Y-47792666D01*
X65197900Y-47744285D01*
X65170080Y-47671714D01*
X65170080Y-47623333D01*
X65197900Y-47550761D01*
X65225719Y-47526571D01*
X65225719Y-47333047D02*
X65197900Y-47308857D01*
X65170080Y-47260476D01*
X65170080Y-47139523D01*
X65197900Y-47091142D01*
X65225719Y-47066952D01*
X65281357Y-47042761D01*
X65336995Y-47042761D01*
X65420452Y-47066952D01*
X65754280Y-47357238D01*
X65754280Y-47042761D01*
X65170080Y-46873428D02*
X65170080Y-46558952D01*
X65392633Y-46728285D01*
X65392633Y-46655714D01*
X65420452Y-46607333D01*
X65448271Y-46583142D01*
X65503909Y-46558952D01*
X65643004Y-46558952D01*
X65698642Y-46583142D01*
X65726461Y-46607333D01*
X65754280Y-46655714D01*
X65754280Y-46800857D01*
X65726461Y-46849238D01*
X65698642Y-46873428D01*
D17*
X65039809Y-49056200D02*
X65039809Y-49317457D01*
X65039809Y-49186828D02*
X64531809Y-49186828D01*
X64604380Y-49230371D01*
X64652761Y-49273914D01*
X64676952Y-49317457D01*
X64701142Y-48860257D02*
X65039809Y-48860257D01*
X64749523Y-48860257D02*
X64725333Y-48838485D01*
X64701142Y-48794942D01*
X64701142Y-48729628D01*
X64725333Y-48686085D01*
X64773714Y-48664314D01*
X65039809Y-48664314D01*
D16*
X49753428Y-37729842D02*
X49729238Y-37757661D01*
X49656666Y-37785480D01*
X49608285Y-37785480D01*
X49535714Y-37757661D01*
X49487333Y-37702023D01*
X49463142Y-37646385D01*
X49438952Y-37535109D01*
X49438952Y-37451652D01*
X49463142Y-37340376D01*
X49487333Y-37284738D01*
X49535714Y-37229100D01*
X49608285Y-37201280D01*
X49656666Y-37201280D01*
X49729238Y-37229100D01*
X49753428Y-37256919D01*
X49946952Y-37256919D02*
X49971142Y-37229100D01*
X50019523Y-37201280D01*
X50140476Y-37201280D01*
X50188857Y-37229100D01*
X50213047Y-37256919D01*
X50237238Y-37312557D01*
X50237238Y-37368195D01*
X50213047Y-37451652D01*
X49922761Y-37785480D01*
X50237238Y-37785480D01*
X50406571Y-37201280D02*
X50745238Y-37201280D01*
X50527523Y-37785480D01*
D17*
X49764314Y-39071809D02*
X49546600Y-39071809D01*
X49524828Y-39313714D01*
X49546600Y-39289523D01*
X49590142Y-39265333D01*
X49699000Y-39265333D01*
X49742542Y-39289523D01*
X49764314Y-39313714D01*
X49786085Y-39362095D01*
X49786085Y-39483047D01*
X49764314Y-39531428D01*
X49742542Y-39555619D01*
X49699000Y-39579809D01*
X49590142Y-39579809D01*
X49546600Y-39555619D01*
X49524828Y-39531428D01*
X50069114Y-39071809D02*
X50112657Y-39071809D01*
X50156200Y-39096000D01*
X50177971Y-39120190D01*
X50199742Y-39168571D01*
X50221514Y-39265333D01*
X50221514Y-39386285D01*
X50199742Y-39483047D01*
X50177971Y-39531428D01*
X50156200Y-39555619D01*
X50112657Y-39579809D01*
X50069114Y-39579809D01*
X50025571Y-39555619D01*
X50003800Y-39531428D01*
X49982028Y-39483047D01*
X49960257Y-39386285D01*
X49960257Y-39265333D01*
X49982028Y-39168571D01*
X50003800Y-39120190D01*
X50025571Y-39096000D01*
X50069114Y-39071809D01*
X50417457Y-39241142D02*
X50417457Y-39749142D01*
X50417457Y-39265333D02*
X50461000Y-39241142D01*
X50548085Y-39241142D01*
X50591628Y-39265333D01*
X50613400Y-39289523D01*
X50635171Y-39337904D01*
X50635171Y-39483047D01*
X50613400Y-39531428D01*
X50591628Y-39555619D01*
X50548085Y-39579809D01*
X50461000Y-39579809D01*
X50417457Y-39555619D01*
D16*
X56793428Y-38798642D02*
X56769238Y-38826461D01*
X56696666Y-38854280D01*
X56648285Y-38854280D01*
X56575714Y-38826461D01*
X56527333Y-38770823D01*
X56503142Y-38715185D01*
X56478952Y-38603909D01*
X56478952Y-38520452D01*
X56503142Y-38409176D01*
X56527333Y-38353538D01*
X56575714Y-38297900D01*
X56648285Y-38270080D01*
X56696666Y-38270080D01*
X56769238Y-38297900D01*
X56793428Y-38325719D01*
X56962761Y-38270080D02*
X57277238Y-38270080D01*
X57107904Y-38492633D01*
X57180476Y-38492633D01*
X57228857Y-38520452D01*
X57253047Y-38548271D01*
X57277238Y-38603909D01*
X57277238Y-38743004D01*
X57253047Y-38798642D01*
X57228857Y-38826461D01*
X57180476Y-38854280D01*
X57035333Y-38854280D01*
X56986952Y-38826461D01*
X56962761Y-38798642D01*
X57591714Y-38270080D02*
X57640095Y-38270080D01*
X57688476Y-38297900D01*
X57712666Y-38325719D01*
X57736857Y-38381357D01*
X57761047Y-38492633D01*
X57761047Y-38631728D01*
X57736857Y-38743004D01*
X57712666Y-38798642D01*
X57688476Y-38826461D01*
X57640095Y-38854280D01*
X57591714Y-38854280D01*
X57543333Y-38826461D01*
X57519142Y-38798642D01*
X57494952Y-38743004D01*
X57470761Y-38631728D01*
X57470761Y-38492633D01*
X57494952Y-38381357D01*
X57519142Y-38325719D01*
X57543333Y-38297900D01*
X57591714Y-38270080D01*
D17*
X55124314Y-39081809D02*
X54906600Y-39081809D01*
X54884828Y-39323714D01*
X54906600Y-39299523D01*
X54950142Y-39275333D01*
X55059000Y-39275333D01*
X55102542Y-39299523D01*
X55124314Y-39323714D01*
X55146085Y-39372095D01*
X55146085Y-39493047D01*
X55124314Y-39541428D01*
X55102542Y-39565619D01*
X55059000Y-39589809D01*
X54950142Y-39589809D01*
X54906600Y-39565619D01*
X54884828Y-39541428D01*
X55429114Y-39081809D02*
X55472657Y-39081809D01*
X55516200Y-39106000D01*
X55537971Y-39130190D01*
X55559742Y-39178571D01*
X55581514Y-39275333D01*
X55581514Y-39396285D01*
X55559742Y-39493047D01*
X55537971Y-39541428D01*
X55516200Y-39565619D01*
X55472657Y-39589809D01*
X55429114Y-39589809D01*
X55385571Y-39565619D01*
X55363800Y-39541428D01*
X55342028Y-39493047D01*
X55320257Y-39396285D01*
X55320257Y-39275333D01*
X55342028Y-39178571D01*
X55363800Y-39130190D01*
X55385571Y-39106000D01*
X55429114Y-39081809D01*
X55777457Y-39251142D02*
X55777457Y-39759142D01*
X55777457Y-39275333D02*
X55821000Y-39251142D01*
X55908085Y-39251142D01*
X55951628Y-39275333D01*
X55973400Y-39299523D01*
X55995171Y-39347904D01*
X55995171Y-39493047D01*
X55973400Y-39541428D01*
X55951628Y-39565619D01*
X55908085Y-39589809D01*
X55821000Y-39589809D01*
X55777457Y-39565619D01*
D13*
X21566666Y-39662380D02*
X21566666Y-40376666D01*
X21519047Y-40519523D01*
X21423809Y-40614761D01*
X21280952Y-40662380D01*
X21185714Y-40662380D01*
X22566666Y-40662380D02*
X21995238Y-40662380D01*
X22280952Y-40662380D02*
X22280952Y-39662380D01*
X22185714Y-39805238D01*
X22090476Y-39900476D01*
X21995238Y-39948095D01*
D16*
X63244280Y-50714666D02*
X62966090Y-50884000D01*
X63244280Y-51004952D02*
X62660080Y-51004952D01*
X62660080Y-50811428D01*
X62687900Y-50763047D01*
X62715719Y-50738857D01*
X62771357Y-50714666D01*
X62854814Y-50714666D01*
X62910452Y-50738857D01*
X62938271Y-50763047D01*
X62966090Y-50811428D01*
X62966090Y-51004952D01*
X63244280Y-50230857D02*
X63244280Y-50521142D01*
X63244280Y-50376000D02*
X62660080Y-50376000D01*
X62743538Y-50424380D01*
X62799176Y-50472761D01*
X62826995Y-50521142D01*
D17*
X64531809Y-51016571D02*
X64531809Y-51234285D01*
X64773714Y-51256057D01*
X64749523Y-51234285D01*
X64725333Y-51190742D01*
X64725333Y-51081885D01*
X64749523Y-51038342D01*
X64773714Y-51016571D01*
X64822095Y-50994800D01*
X64943047Y-50994800D01*
X64991428Y-51016571D01*
X65015619Y-51038342D01*
X65039809Y-51081885D01*
X65039809Y-51190742D01*
X65015619Y-51234285D01*
X64991428Y-51256057D01*
X64531809Y-50711771D02*
X64531809Y-50668228D01*
X64556000Y-50624685D01*
X64580190Y-50602914D01*
X64628571Y-50581142D01*
X64725333Y-50559371D01*
X64846285Y-50559371D01*
X64943047Y-50581142D01*
X64991428Y-50602914D01*
X65015619Y-50624685D01*
X65039809Y-50668228D01*
X65039809Y-50711771D01*
X65015619Y-50755314D01*
X64991428Y-50777085D01*
X64943047Y-50798857D01*
X64846285Y-50820628D01*
X64725333Y-50820628D01*
X64628571Y-50798857D01*
X64580190Y-50777085D01*
X64556000Y-50755314D01*
X64531809Y-50711771D01*
X64531809Y-50276342D02*
X64531809Y-50232800D01*
X64556000Y-50189257D01*
X64580190Y-50167485D01*
X64628571Y-50145714D01*
X64725333Y-50123942D01*
X64846285Y-50123942D01*
X64943047Y-50145714D01*
X64991428Y-50167485D01*
X65015619Y-50189257D01*
X65039809Y-50232800D01*
X65039809Y-50276342D01*
X65015619Y-50319885D01*
X64991428Y-50341657D01*
X64943047Y-50363428D01*
X64846285Y-50385200D01*
X64725333Y-50385200D01*
X64628571Y-50363428D01*
X64580190Y-50341657D01*
X64556000Y-50319885D01*
X64531809Y-50276342D01*
D16*
X32124280Y-91264666D02*
X31846090Y-91434000D01*
X32124280Y-91554952D02*
X31540080Y-91554952D01*
X31540080Y-91361428D01*
X31567900Y-91313047D01*
X31595719Y-91288857D01*
X31651357Y-91264666D01*
X31734814Y-91264666D01*
X31790452Y-91288857D01*
X31818271Y-91313047D01*
X31846090Y-91361428D01*
X31846090Y-91554952D01*
X31595719Y-91071142D02*
X31567900Y-91046952D01*
X31540080Y-90998571D01*
X31540080Y-90877619D01*
X31567900Y-90829238D01*
X31595719Y-90805047D01*
X31651357Y-90780857D01*
X31706995Y-90780857D01*
X31790452Y-90805047D01*
X32124280Y-91095333D01*
X32124280Y-90780857D01*
D17*
X29700190Y-91528342D02*
X29676000Y-91506571D01*
X29651809Y-91463028D01*
X29651809Y-91354171D01*
X29676000Y-91310628D01*
X29700190Y-91288857D01*
X29748571Y-91267085D01*
X29796952Y-91267085D01*
X29869523Y-91288857D01*
X30159809Y-91550114D01*
X30159809Y-91267085D01*
X29700190Y-91092914D02*
X29676000Y-91071142D01*
X29651809Y-91027600D01*
X29651809Y-90918742D01*
X29676000Y-90875200D01*
X29700190Y-90853428D01*
X29748571Y-90831657D01*
X29796952Y-90831657D01*
X29869523Y-90853428D01*
X30159809Y-91114685D01*
X30159809Y-90831657D01*
D16*
X25414280Y-90234666D02*
X25136090Y-90404000D01*
X25414280Y-90524952D02*
X24830080Y-90524952D01*
X24830080Y-90331428D01*
X24857900Y-90283047D01*
X24885719Y-90258857D01*
X24941357Y-90234666D01*
X25024814Y-90234666D01*
X25080452Y-90258857D01*
X25108271Y-90283047D01*
X25136090Y-90331428D01*
X25136090Y-90524952D01*
X25024814Y-89799238D02*
X25414280Y-89799238D01*
X24802261Y-89920190D02*
X25219547Y-90041142D01*
X25219547Y-89726666D01*
D17*
X26730190Y-90588342D02*
X26706000Y-90566571D01*
X26681809Y-90523028D01*
X26681809Y-90414171D01*
X26706000Y-90370628D01*
X26730190Y-90348857D01*
X26778571Y-90327085D01*
X26826952Y-90327085D01*
X26899523Y-90348857D01*
X27189809Y-90610114D01*
X27189809Y-90327085D01*
X26730190Y-90152914D02*
X26706000Y-90131142D01*
X26681809Y-90087600D01*
X26681809Y-89978742D01*
X26706000Y-89935200D01*
X26730190Y-89913428D01*
X26778571Y-89891657D01*
X26826952Y-89891657D01*
X26899523Y-89913428D01*
X27189809Y-90174685D01*
X27189809Y-89891657D01*
D16*
X25395480Y-88614666D02*
X25117290Y-88784000D01*
X25395480Y-88904952D02*
X24811280Y-88904952D01*
X24811280Y-88711428D01*
X24839100Y-88663047D01*
X24866919Y-88638857D01*
X24922557Y-88614666D01*
X25006014Y-88614666D01*
X25061652Y-88638857D01*
X25089471Y-88663047D01*
X25117290Y-88711428D01*
X25117290Y-88904952D01*
X24811280Y-88155047D02*
X24811280Y-88396952D01*
X25089471Y-88421142D01*
X25061652Y-88396952D01*
X25033833Y-88348571D01*
X25033833Y-88227619D01*
X25061652Y-88179238D01*
X25089471Y-88155047D01*
X25145109Y-88130857D01*
X25284204Y-88130857D01*
X25339842Y-88155047D01*
X25367661Y-88179238D01*
X25395480Y-88227619D01*
X25395480Y-88348571D01*
X25367661Y-88396952D01*
X25339842Y-88421142D01*
D17*
X26730190Y-88878342D02*
X26706000Y-88856571D01*
X26681809Y-88813028D01*
X26681809Y-88704171D01*
X26706000Y-88660628D01*
X26730190Y-88638857D01*
X26778571Y-88617085D01*
X26826952Y-88617085D01*
X26899523Y-88638857D01*
X27189809Y-88900114D01*
X27189809Y-88617085D01*
X26730190Y-88442914D02*
X26706000Y-88421142D01*
X26681809Y-88377600D01*
X26681809Y-88268742D01*
X26706000Y-88225200D01*
X26730190Y-88203428D01*
X26778571Y-88181657D01*
X26826952Y-88181657D01*
X26899523Y-88203428D01*
X27189809Y-88464685D01*
X27189809Y-88181657D01*
D16*
X25395480Y-86904666D02*
X25117290Y-87074000D01*
X25395480Y-87194952D02*
X24811280Y-87194952D01*
X24811280Y-87001428D01*
X24839100Y-86953047D01*
X24866919Y-86928857D01*
X24922557Y-86904666D01*
X25006014Y-86904666D01*
X25061652Y-86928857D01*
X25089471Y-86953047D01*
X25117290Y-87001428D01*
X25117290Y-87194952D01*
X24811280Y-86469238D02*
X24811280Y-86566000D01*
X24839100Y-86614380D01*
X24866919Y-86638571D01*
X24950376Y-86686952D01*
X25061652Y-86711142D01*
X25284204Y-86711142D01*
X25339842Y-86686952D01*
X25367661Y-86662761D01*
X25395480Y-86614380D01*
X25395480Y-86517619D01*
X25367661Y-86469238D01*
X25339842Y-86445047D01*
X25284204Y-86420857D01*
X25145109Y-86420857D01*
X25089471Y-86445047D01*
X25061652Y-86469238D01*
X25033833Y-86517619D01*
X25033833Y-86614380D01*
X25061652Y-86662761D01*
X25089471Y-86686952D01*
X25145109Y-86711142D01*
D17*
X26730190Y-87168342D02*
X26706000Y-87146571D01*
X26681809Y-87103028D01*
X26681809Y-86994171D01*
X26706000Y-86950628D01*
X26730190Y-86928857D01*
X26778571Y-86907085D01*
X26826952Y-86907085D01*
X26899523Y-86928857D01*
X27189809Y-87190114D01*
X27189809Y-86907085D01*
X26730190Y-86732914D02*
X26706000Y-86711142D01*
X26681809Y-86667600D01*
X26681809Y-86558742D01*
X26706000Y-86515200D01*
X26730190Y-86493428D01*
X26778571Y-86471657D01*
X26826952Y-86471657D01*
X26899523Y-86493428D01*
X27189809Y-86754685D01*
X27189809Y-86471657D01*
D16*
X25395480Y-85194666D02*
X25117290Y-85364000D01*
X25395480Y-85484952D02*
X24811280Y-85484952D01*
X24811280Y-85291428D01*
X24839100Y-85243047D01*
X24866919Y-85218857D01*
X24922557Y-85194666D01*
X25006014Y-85194666D01*
X25061652Y-85218857D01*
X25089471Y-85243047D01*
X25117290Y-85291428D01*
X25117290Y-85484952D01*
X24811280Y-85025333D02*
X24811280Y-84686666D01*
X25395480Y-84904380D01*
D17*
X26730190Y-85458342D02*
X26706000Y-85436571D01*
X26681809Y-85393028D01*
X26681809Y-85284171D01*
X26706000Y-85240628D01*
X26730190Y-85218857D01*
X26778571Y-85197085D01*
X26826952Y-85197085D01*
X26899523Y-85218857D01*
X27189809Y-85480114D01*
X27189809Y-85197085D01*
X26730190Y-85022914D02*
X26706000Y-85001142D01*
X26681809Y-84957600D01*
X26681809Y-84848742D01*
X26706000Y-84805200D01*
X26730190Y-84783428D01*
X26778571Y-84761657D01*
X26826952Y-84761657D01*
X26899523Y-84783428D01*
X27189809Y-85044685D01*
X27189809Y-84761657D01*
D16*
X51725333Y-37785480D02*
X51556000Y-37507290D01*
X51435047Y-37785480D02*
X51435047Y-37201280D01*
X51628571Y-37201280D01*
X51676952Y-37229100D01*
X51701142Y-37256919D01*
X51725333Y-37312557D01*
X51725333Y-37396014D01*
X51701142Y-37451652D01*
X51676952Y-37479471D01*
X51628571Y-37507290D01*
X51435047Y-37507290D01*
X52015619Y-37451652D02*
X51967238Y-37423833D01*
X51943047Y-37396014D01*
X51918857Y-37340376D01*
X51918857Y-37312557D01*
X51943047Y-37256919D01*
X51967238Y-37229100D01*
X52015619Y-37201280D01*
X52112380Y-37201280D01*
X52160761Y-37229100D01*
X52184952Y-37256919D01*
X52209142Y-37312557D01*
X52209142Y-37340376D01*
X52184952Y-37396014D01*
X52160761Y-37423833D01*
X52112380Y-37451652D01*
X52015619Y-37451652D01*
X51967238Y-37479471D01*
X51943047Y-37507290D01*
X51918857Y-37562928D01*
X51918857Y-37674204D01*
X51943047Y-37729842D01*
X51967238Y-37757661D01*
X52015619Y-37785480D01*
X52112380Y-37785480D01*
X52160761Y-37757661D01*
X52184952Y-37729842D01*
X52209142Y-37674204D01*
X52209142Y-37562928D01*
X52184952Y-37507290D01*
X52160761Y-37479471D01*
X52112380Y-37451652D01*
D17*
X51755571Y-39579809D02*
X51494314Y-39579809D01*
X51624942Y-39579809D02*
X51624942Y-39071809D01*
X51581400Y-39144380D01*
X51537857Y-39192761D01*
X51494314Y-39216952D01*
X51951514Y-39579809D02*
X51951514Y-39071809D01*
X51995057Y-39386285D02*
X52125685Y-39579809D01*
X52125685Y-39241142D02*
X51951514Y-39434666D01*
D16*
X49854280Y-41714666D02*
X49576090Y-41884000D01*
X49854280Y-42004952D02*
X49270080Y-42004952D01*
X49270080Y-41811428D01*
X49297900Y-41763047D01*
X49325719Y-41738857D01*
X49381357Y-41714666D01*
X49464814Y-41714666D01*
X49520452Y-41738857D01*
X49548271Y-41763047D01*
X49576090Y-41811428D01*
X49576090Y-42004952D01*
X49854280Y-41472761D02*
X49854280Y-41376000D01*
X49826461Y-41327619D01*
X49798642Y-41303428D01*
X49715185Y-41255047D01*
X49603909Y-41230857D01*
X49381357Y-41230857D01*
X49325719Y-41255047D01*
X49297900Y-41279238D01*
X49270080Y-41327619D01*
X49270080Y-41424380D01*
X49297900Y-41472761D01*
X49325719Y-41496952D01*
X49381357Y-41521142D01*
X49520452Y-41521142D01*
X49576090Y-41496952D01*
X49603909Y-41472761D01*
X49631728Y-41424380D01*
X49631728Y-41327619D01*
X49603909Y-41279238D01*
X49576090Y-41255047D01*
X49520452Y-41230857D01*
D17*
X51689809Y-42021000D02*
X51689809Y-42282257D01*
X51689809Y-42151628D02*
X51181809Y-42151628D01*
X51254380Y-42195171D01*
X51302761Y-42238714D01*
X51326952Y-42282257D01*
X51641428Y-41825057D02*
X51665619Y-41803285D01*
X51689809Y-41825057D01*
X51665619Y-41846828D01*
X51641428Y-41825057D01*
X51689809Y-41825057D01*
X51689809Y-41585571D02*
X51689809Y-41498485D01*
X51665619Y-41454942D01*
X51641428Y-41433171D01*
X51568857Y-41389628D01*
X51472095Y-41367857D01*
X51278571Y-41367857D01*
X51230190Y-41389628D01*
X51206000Y-41411400D01*
X51181809Y-41454942D01*
X51181809Y-41542028D01*
X51206000Y-41585571D01*
X51230190Y-41607342D01*
X51278571Y-41629114D01*
X51399523Y-41629114D01*
X51447904Y-41607342D01*
X51472095Y-41585571D01*
X51496285Y-41542028D01*
X51496285Y-41454942D01*
X51472095Y-41411400D01*
X51447904Y-41389628D01*
X51399523Y-41367857D01*
X51689809Y-41171914D02*
X51181809Y-41171914D01*
X51496285Y-41128371D02*
X51689809Y-40997742D01*
X51351142Y-40997742D02*
X51544666Y-41171914D01*
D16*
X32074280Y-84466571D02*
X31796090Y-84635904D01*
X32074280Y-84756857D02*
X31490080Y-84756857D01*
X31490080Y-84563333D01*
X31517900Y-84514952D01*
X31545719Y-84490761D01*
X31601357Y-84466571D01*
X31684814Y-84466571D01*
X31740452Y-84490761D01*
X31768271Y-84514952D01*
X31796090Y-84563333D01*
X31796090Y-84756857D01*
X32074280Y-83982761D02*
X32074280Y-84273047D01*
X32074280Y-84127904D02*
X31490080Y-84127904D01*
X31573538Y-84176285D01*
X31629176Y-84224666D01*
X31656995Y-84273047D01*
X32074280Y-83498952D02*
X32074280Y-83789238D01*
X32074280Y-83644095D02*
X31490080Y-83644095D01*
X31573538Y-83692476D01*
X31629176Y-83740857D01*
X31656995Y-83789238D01*
D17*
X29710190Y-84478342D02*
X29686000Y-84456571D01*
X29661809Y-84413028D01*
X29661809Y-84304171D01*
X29686000Y-84260628D01*
X29710190Y-84238857D01*
X29758571Y-84217085D01*
X29806952Y-84217085D01*
X29879523Y-84238857D01*
X30169809Y-84500114D01*
X30169809Y-84217085D01*
X29710190Y-84042914D02*
X29686000Y-84021142D01*
X29661809Y-83977600D01*
X29661809Y-83868742D01*
X29686000Y-83825200D01*
X29710190Y-83803428D01*
X29758571Y-83781657D01*
X29806952Y-83781657D01*
X29879523Y-83803428D01*
X30169809Y-84064685D01*
X30169809Y-83781657D01*
D16*
X28375480Y-82736571D02*
X28097290Y-82905904D01*
X28375480Y-83026857D02*
X27791280Y-83026857D01*
X27791280Y-82833333D01*
X27819100Y-82784952D01*
X27846919Y-82760761D01*
X27902557Y-82736571D01*
X27986014Y-82736571D01*
X28041652Y-82760761D01*
X28069471Y-82784952D01*
X28097290Y-82833333D01*
X28097290Y-83026857D01*
X28375480Y-82252761D02*
X28375480Y-82543047D01*
X28375480Y-82397904D02*
X27791280Y-82397904D01*
X27874738Y-82446285D01*
X27930376Y-82494666D01*
X27958195Y-82543047D01*
X27846919Y-82059238D02*
X27819100Y-82035047D01*
X27791280Y-81986666D01*
X27791280Y-81865714D01*
X27819100Y-81817333D01*
X27846919Y-81793142D01*
X27902557Y-81768952D01*
X27958195Y-81768952D01*
X28041652Y-81793142D01*
X28375480Y-82083428D01*
X28375480Y-81768952D01*
D17*
X29710190Y-82758342D02*
X29686000Y-82736571D01*
X29661809Y-82693028D01*
X29661809Y-82584171D01*
X29686000Y-82540628D01*
X29710190Y-82518857D01*
X29758571Y-82497085D01*
X29806952Y-82497085D01*
X29879523Y-82518857D01*
X30169809Y-82780114D01*
X30169809Y-82497085D01*
X29710190Y-82322914D02*
X29686000Y-82301142D01*
X29661809Y-82257600D01*
X29661809Y-82148742D01*
X29686000Y-82105200D01*
X29710190Y-82083428D01*
X29758571Y-82061657D01*
X29806952Y-82061657D01*
X29879523Y-82083428D01*
X30169809Y-82344685D01*
X30169809Y-82061657D01*
D16*
X53424280Y-37586571D02*
X53146090Y-37755904D01*
X53424280Y-37876857D02*
X52840080Y-37876857D01*
X52840080Y-37683333D01*
X52867900Y-37634952D01*
X52895719Y-37610761D01*
X52951357Y-37586571D01*
X53034814Y-37586571D01*
X53090452Y-37610761D01*
X53118271Y-37634952D01*
X53146090Y-37683333D01*
X53146090Y-37876857D01*
X53424280Y-37102761D02*
X53424280Y-37393047D01*
X53424280Y-37247904D02*
X52840080Y-37247904D01*
X52923538Y-37296285D01*
X52979176Y-37344666D01*
X53006995Y-37393047D01*
X52840080Y-36933428D02*
X52840080Y-36618952D01*
X53062633Y-36788285D01*
X53062633Y-36715714D01*
X53090452Y-36667333D01*
X53118271Y-36643142D01*
X53173909Y-36618952D01*
X53313004Y-36618952D01*
X53368642Y-36643142D01*
X53396461Y-36667333D01*
X53424280Y-36715714D01*
X53424280Y-36860857D01*
X53396461Y-36909238D01*
X53368642Y-36933428D01*
D17*
X53665571Y-39589809D02*
X53404314Y-39589809D01*
X53534942Y-39589809D02*
X53534942Y-39081809D01*
X53491400Y-39154380D01*
X53447857Y-39202761D01*
X53404314Y-39226952D01*
X53861514Y-39589809D02*
X53861514Y-39081809D01*
X53905057Y-39396285D02*
X54035685Y-39589809D01*
X54035685Y-39251142D02*
X53861514Y-39444666D01*
D16*
X56314280Y-41966571D02*
X56036090Y-42135904D01*
X56314280Y-42256857D02*
X55730080Y-42256857D01*
X55730080Y-42063333D01*
X55757900Y-42014952D01*
X55785719Y-41990761D01*
X55841357Y-41966571D01*
X55924814Y-41966571D01*
X55980452Y-41990761D01*
X56008271Y-42014952D01*
X56036090Y-42063333D01*
X56036090Y-42256857D01*
X56314280Y-41482761D02*
X56314280Y-41773047D01*
X56314280Y-41627904D02*
X55730080Y-41627904D01*
X55813538Y-41676285D01*
X55869176Y-41724666D01*
X55896995Y-41773047D01*
X55924814Y-41047333D02*
X56314280Y-41047333D01*
X55702261Y-41168285D02*
X56119547Y-41289238D01*
X56119547Y-40974761D01*
D17*
X54439809Y-42021000D02*
X54439809Y-42282257D01*
X54439809Y-42151628D02*
X53931809Y-42151628D01*
X54004380Y-42195171D01*
X54052761Y-42238714D01*
X54076952Y-42282257D01*
X54391428Y-41825057D02*
X54415619Y-41803285D01*
X54439809Y-41825057D01*
X54415619Y-41846828D01*
X54391428Y-41825057D01*
X54439809Y-41825057D01*
X54439809Y-41585571D02*
X54439809Y-41498485D01*
X54415619Y-41454942D01*
X54391428Y-41433171D01*
X54318857Y-41389628D01*
X54222095Y-41367857D01*
X54028571Y-41367857D01*
X53980190Y-41389628D01*
X53956000Y-41411400D01*
X53931809Y-41454942D01*
X53931809Y-41542028D01*
X53956000Y-41585571D01*
X53980190Y-41607342D01*
X54028571Y-41629114D01*
X54149523Y-41629114D01*
X54197904Y-41607342D01*
X54222095Y-41585571D01*
X54246285Y-41542028D01*
X54246285Y-41454942D01*
X54222095Y-41411400D01*
X54197904Y-41389628D01*
X54149523Y-41367857D01*
X54439809Y-41171914D02*
X53931809Y-41171914D01*
X54246285Y-41128371D02*
X54439809Y-40997742D01*
X54101142Y-40997742D02*
X54294666Y-41171914D01*
D16*
X28375480Y-81016571D02*
X28097290Y-81185904D01*
X28375480Y-81306857D02*
X27791280Y-81306857D01*
X27791280Y-81113333D01*
X27819100Y-81064952D01*
X27846919Y-81040761D01*
X27902557Y-81016571D01*
X27986014Y-81016571D01*
X28041652Y-81040761D01*
X28069471Y-81064952D01*
X28097290Y-81113333D01*
X28097290Y-81306857D01*
X28375480Y-80532761D02*
X28375480Y-80823047D01*
X28375480Y-80677904D02*
X27791280Y-80677904D01*
X27874738Y-80726285D01*
X27930376Y-80774666D01*
X27958195Y-80823047D01*
X27791280Y-80073142D02*
X27791280Y-80315047D01*
X28069471Y-80339238D01*
X28041652Y-80315047D01*
X28013833Y-80266666D01*
X28013833Y-80145714D01*
X28041652Y-80097333D01*
X28069471Y-80073142D01*
X28125109Y-80048952D01*
X28264204Y-80048952D01*
X28319842Y-80073142D01*
X28347661Y-80097333D01*
X28375480Y-80145714D01*
X28375480Y-80266666D01*
X28347661Y-80315047D01*
X28319842Y-80339238D01*
D17*
X29710190Y-81038342D02*
X29686000Y-81016571D01*
X29661809Y-80973028D01*
X29661809Y-80864171D01*
X29686000Y-80820628D01*
X29710190Y-80798857D01*
X29758571Y-80777085D01*
X29806952Y-80777085D01*
X29879523Y-80798857D01*
X30169809Y-81060114D01*
X30169809Y-80777085D01*
X29710190Y-80602914D02*
X29686000Y-80581142D01*
X29661809Y-80537600D01*
X29661809Y-80428742D01*
X29686000Y-80385200D01*
X29710190Y-80363428D01*
X29758571Y-80341657D01*
X29806952Y-80341657D01*
X29879523Y-80363428D01*
X30169809Y-80624685D01*
X30169809Y-80341657D01*
D16*
X32044280Y-79316571D02*
X31766090Y-79485904D01*
X32044280Y-79606857D02*
X31460080Y-79606857D01*
X31460080Y-79413333D01*
X31487900Y-79364952D01*
X31515719Y-79340761D01*
X31571357Y-79316571D01*
X31654814Y-79316571D01*
X31710452Y-79340761D01*
X31738271Y-79364952D01*
X31766090Y-79413333D01*
X31766090Y-79606857D01*
X32044280Y-78832761D02*
X32044280Y-79123047D01*
X32044280Y-78977904D02*
X31460080Y-78977904D01*
X31543538Y-79026285D01*
X31599176Y-79074666D01*
X31626995Y-79123047D01*
X31460080Y-78397333D02*
X31460080Y-78494095D01*
X31487900Y-78542476D01*
X31515719Y-78566666D01*
X31599176Y-78615047D01*
X31710452Y-78639238D01*
X31933004Y-78639238D01*
X31988642Y-78615047D01*
X32016461Y-78590857D01*
X32044280Y-78542476D01*
X32044280Y-78445714D01*
X32016461Y-78397333D01*
X31988642Y-78373142D01*
X31933004Y-78348952D01*
X31793909Y-78348952D01*
X31738271Y-78373142D01*
X31710452Y-78397333D01*
X31682633Y-78445714D01*
X31682633Y-78542476D01*
X31710452Y-78590857D01*
X31738271Y-78615047D01*
X31793909Y-78639238D01*
D17*
X29710190Y-79328342D02*
X29686000Y-79306571D01*
X29661809Y-79263028D01*
X29661809Y-79154171D01*
X29686000Y-79110628D01*
X29710190Y-79088857D01*
X29758571Y-79067085D01*
X29806952Y-79067085D01*
X29879523Y-79088857D01*
X30169809Y-79350114D01*
X30169809Y-79067085D01*
X29710190Y-78892914D02*
X29686000Y-78871142D01*
X29661809Y-78827600D01*
X29661809Y-78718742D01*
X29686000Y-78675200D01*
X29710190Y-78653428D01*
X29758571Y-78631657D01*
X29806952Y-78631657D01*
X29879523Y-78653428D01*
X30169809Y-78914685D01*
X30169809Y-78631657D01*
D16*
X25405480Y-78426571D02*
X25127290Y-78595904D01*
X25405480Y-78716857D02*
X24821280Y-78716857D01*
X24821280Y-78523333D01*
X24849100Y-78474952D01*
X24876919Y-78450761D01*
X24932557Y-78426571D01*
X25016014Y-78426571D01*
X25071652Y-78450761D01*
X25099471Y-78474952D01*
X25127290Y-78523333D01*
X25127290Y-78716857D01*
X25405480Y-77942761D02*
X25405480Y-78233047D01*
X25405480Y-78087904D02*
X24821280Y-78087904D01*
X24904738Y-78136285D01*
X24960376Y-78184666D01*
X24988195Y-78233047D01*
X24821280Y-77773428D02*
X24821280Y-77434761D01*
X25405480Y-77652476D01*
D17*
X26740190Y-78448342D02*
X26716000Y-78426571D01*
X26691809Y-78383028D01*
X26691809Y-78274171D01*
X26716000Y-78230628D01*
X26740190Y-78208857D01*
X26788571Y-78187085D01*
X26836952Y-78187085D01*
X26909523Y-78208857D01*
X27199809Y-78470114D01*
X27199809Y-78187085D01*
X26740190Y-78012914D02*
X26716000Y-77991142D01*
X26691809Y-77947600D01*
X26691809Y-77838742D01*
X26716000Y-77795200D01*
X26740190Y-77773428D01*
X26788571Y-77751657D01*
X26836952Y-77751657D01*
X26909523Y-77773428D01*
X27199809Y-78034685D01*
X27199809Y-77751657D01*
D16*
X25405480Y-76716571D02*
X25127290Y-76885904D01*
X25405480Y-77006857D02*
X24821280Y-77006857D01*
X24821280Y-76813333D01*
X24849100Y-76764952D01*
X24876919Y-76740761D01*
X24932557Y-76716571D01*
X25016014Y-76716571D01*
X25071652Y-76740761D01*
X25099471Y-76764952D01*
X25127290Y-76813333D01*
X25127290Y-77006857D01*
X25405480Y-76232761D02*
X25405480Y-76523047D01*
X25405480Y-76377904D02*
X24821280Y-76377904D01*
X24904738Y-76426285D01*
X24960376Y-76474666D01*
X24988195Y-76523047D01*
X25071652Y-75942476D02*
X25043833Y-75990857D01*
X25016014Y-76015047D01*
X24960376Y-76039238D01*
X24932557Y-76039238D01*
X24876919Y-76015047D01*
X24849100Y-75990857D01*
X24821280Y-75942476D01*
X24821280Y-75845714D01*
X24849100Y-75797333D01*
X24876919Y-75773142D01*
X24932557Y-75748952D01*
X24960376Y-75748952D01*
X25016014Y-75773142D01*
X25043833Y-75797333D01*
X25071652Y-75845714D01*
X25071652Y-75942476D01*
X25099471Y-75990857D01*
X25127290Y-76015047D01*
X25182928Y-76039238D01*
X25294204Y-76039238D01*
X25349842Y-76015047D01*
X25377661Y-75990857D01*
X25405480Y-75942476D01*
X25405480Y-75845714D01*
X25377661Y-75797333D01*
X25349842Y-75773142D01*
X25294204Y-75748952D01*
X25182928Y-75748952D01*
X25127290Y-75773142D01*
X25099471Y-75797333D01*
X25071652Y-75845714D01*
D17*
X26740190Y-76738342D02*
X26716000Y-76716571D01*
X26691809Y-76673028D01*
X26691809Y-76564171D01*
X26716000Y-76520628D01*
X26740190Y-76498857D01*
X26788571Y-76477085D01*
X26836952Y-76477085D01*
X26909523Y-76498857D01*
X27199809Y-76760114D01*
X27199809Y-76477085D01*
X26740190Y-76302914D02*
X26716000Y-76281142D01*
X26691809Y-76237600D01*
X26691809Y-76128742D01*
X26716000Y-76085200D01*
X26740190Y-76063428D01*
X26788571Y-76041657D01*
X26836952Y-76041657D01*
X26909523Y-76063428D01*
X27199809Y-76324685D01*
X27199809Y-76041657D01*
D16*
X25405480Y-75006571D02*
X25127290Y-75175904D01*
X25405480Y-75296857D02*
X24821280Y-75296857D01*
X24821280Y-75103333D01*
X24849100Y-75054952D01*
X24876919Y-75030761D01*
X24932557Y-75006571D01*
X25016014Y-75006571D01*
X25071652Y-75030761D01*
X25099471Y-75054952D01*
X25127290Y-75103333D01*
X25127290Y-75296857D01*
X25405480Y-74522761D02*
X25405480Y-74813047D01*
X25405480Y-74667904D02*
X24821280Y-74667904D01*
X24904738Y-74716285D01*
X24960376Y-74764666D01*
X24988195Y-74813047D01*
X25405480Y-74280857D02*
X25405480Y-74184095D01*
X25377661Y-74135714D01*
X25349842Y-74111523D01*
X25266385Y-74063142D01*
X25155109Y-74038952D01*
X24932557Y-74038952D01*
X24876919Y-74063142D01*
X24849100Y-74087333D01*
X24821280Y-74135714D01*
X24821280Y-74232476D01*
X24849100Y-74280857D01*
X24876919Y-74305047D01*
X24932557Y-74329238D01*
X25071652Y-74329238D01*
X25127290Y-74305047D01*
X25155109Y-74280857D01*
X25182928Y-74232476D01*
X25182928Y-74135714D01*
X25155109Y-74087333D01*
X25127290Y-74063142D01*
X25071652Y-74038952D01*
D17*
X26740190Y-75028342D02*
X26716000Y-75006571D01*
X26691809Y-74963028D01*
X26691809Y-74854171D01*
X26716000Y-74810628D01*
X26740190Y-74788857D01*
X26788571Y-74767085D01*
X26836952Y-74767085D01*
X26909523Y-74788857D01*
X27199809Y-75050114D01*
X27199809Y-74767085D01*
X26740190Y-74592914D02*
X26716000Y-74571142D01*
X26691809Y-74527600D01*
X26691809Y-74418742D01*
X26716000Y-74375200D01*
X26740190Y-74353428D01*
X26788571Y-74331657D01*
X26836952Y-74331657D01*
X26909523Y-74353428D01*
X27199809Y-74614685D01*
X27199809Y-74331657D01*
D16*
X25405480Y-73296571D02*
X25127290Y-73465904D01*
X25405480Y-73586857D02*
X24821280Y-73586857D01*
X24821280Y-73393333D01*
X24849100Y-73344952D01*
X24876919Y-73320761D01*
X24932557Y-73296571D01*
X25016014Y-73296571D01*
X25071652Y-73320761D01*
X25099471Y-73344952D01*
X25127290Y-73393333D01*
X25127290Y-73586857D01*
X24876919Y-73103047D02*
X24849100Y-73078857D01*
X24821280Y-73030476D01*
X24821280Y-72909523D01*
X24849100Y-72861142D01*
X24876919Y-72836952D01*
X24932557Y-72812761D01*
X24988195Y-72812761D01*
X25071652Y-72836952D01*
X25405480Y-73127238D01*
X25405480Y-72812761D01*
X24821280Y-72498285D02*
X24821280Y-72449904D01*
X24849100Y-72401523D01*
X24876919Y-72377333D01*
X24932557Y-72353142D01*
X25043833Y-72328952D01*
X25182928Y-72328952D01*
X25294204Y-72353142D01*
X25349842Y-72377333D01*
X25377661Y-72401523D01*
X25405480Y-72449904D01*
X25405480Y-72498285D01*
X25377661Y-72546666D01*
X25349842Y-72570857D01*
X25294204Y-72595047D01*
X25182928Y-72619238D01*
X25043833Y-72619238D01*
X24932557Y-72595047D01*
X24876919Y-72570857D01*
X24849100Y-72546666D01*
X24821280Y-72498285D01*
D17*
X26740190Y-73318342D02*
X26716000Y-73296571D01*
X26691809Y-73253028D01*
X26691809Y-73144171D01*
X26716000Y-73100628D01*
X26740190Y-73078857D01*
X26788571Y-73057085D01*
X26836952Y-73057085D01*
X26909523Y-73078857D01*
X27199809Y-73340114D01*
X27199809Y-73057085D01*
X26740190Y-72882914D02*
X26716000Y-72861142D01*
X26691809Y-72817600D01*
X26691809Y-72708742D01*
X26716000Y-72665200D01*
X26740190Y-72643428D01*
X26788571Y-72621657D01*
X26836952Y-72621657D01*
X26909523Y-72643428D01*
X27199809Y-72904685D01*
X27199809Y-72621657D01*
D16*
X25365480Y-52696571D02*
X25087290Y-52865904D01*
X25365480Y-52986857D02*
X24781280Y-52986857D01*
X24781280Y-52793333D01*
X24809100Y-52744952D01*
X24836919Y-52720761D01*
X24892557Y-52696571D01*
X24976014Y-52696571D01*
X25031652Y-52720761D01*
X25059471Y-52744952D01*
X25087290Y-52793333D01*
X25087290Y-52986857D01*
X24836919Y-52503047D02*
X24809100Y-52478857D01*
X24781280Y-52430476D01*
X24781280Y-52309523D01*
X24809100Y-52261142D01*
X24836919Y-52236952D01*
X24892557Y-52212761D01*
X24948195Y-52212761D01*
X25031652Y-52236952D01*
X25365480Y-52527238D01*
X25365480Y-52212761D01*
X25365480Y-51970857D02*
X25365480Y-51874095D01*
X25337661Y-51825714D01*
X25309842Y-51801523D01*
X25226385Y-51753142D01*
X25115109Y-51728952D01*
X24892557Y-51728952D01*
X24836919Y-51753142D01*
X24809100Y-51777333D01*
X24781280Y-51825714D01*
X24781280Y-51922476D01*
X24809100Y-51970857D01*
X24836919Y-51995047D01*
X24892557Y-52019238D01*
X25031652Y-52019238D01*
X25087290Y-51995047D01*
X25115109Y-51970857D01*
X25142928Y-51922476D01*
X25142928Y-51825714D01*
X25115109Y-51777333D01*
X25087290Y-51753142D01*
X25031652Y-51728952D01*
D17*
X26700190Y-52718342D02*
X26676000Y-52696571D01*
X26651809Y-52653028D01*
X26651809Y-52544171D01*
X26676000Y-52500628D01*
X26700190Y-52478857D01*
X26748571Y-52457085D01*
X26796952Y-52457085D01*
X26869523Y-52478857D01*
X27159809Y-52740114D01*
X27159809Y-52457085D01*
X26700190Y-52282914D02*
X26676000Y-52261142D01*
X26651809Y-52217600D01*
X26651809Y-52108742D01*
X26676000Y-52065200D01*
X26700190Y-52043428D01*
X26748571Y-52021657D01*
X26796952Y-52021657D01*
X26869523Y-52043428D01*
X27159809Y-52304685D01*
X27159809Y-52021657D01*
D16*
X25365480Y-49276571D02*
X25087290Y-49445904D01*
X25365480Y-49566857D02*
X24781280Y-49566857D01*
X24781280Y-49373333D01*
X24809100Y-49324952D01*
X24836919Y-49300761D01*
X24892557Y-49276571D01*
X24976014Y-49276571D01*
X25031652Y-49300761D01*
X25059471Y-49324952D01*
X25087290Y-49373333D01*
X25087290Y-49566857D01*
X24781280Y-49107238D02*
X24781280Y-48792761D01*
X25003833Y-48962095D01*
X25003833Y-48889523D01*
X25031652Y-48841142D01*
X25059471Y-48816952D01*
X25115109Y-48792761D01*
X25254204Y-48792761D01*
X25309842Y-48816952D01*
X25337661Y-48841142D01*
X25365480Y-48889523D01*
X25365480Y-49034666D01*
X25337661Y-49083047D01*
X25309842Y-49107238D01*
X24781280Y-48478285D02*
X24781280Y-48429904D01*
X24809100Y-48381523D01*
X24836919Y-48357333D01*
X24892557Y-48333142D01*
X25003833Y-48308952D01*
X25142928Y-48308952D01*
X25254204Y-48333142D01*
X25309842Y-48357333D01*
X25337661Y-48381523D01*
X25365480Y-48429904D01*
X25365480Y-48478285D01*
X25337661Y-48526666D01*
X25309842Y-48550857D01*
X25254204Y-48575047D01*
X25142928Y-48599238D01*
X25003833Y-48599238D01*
X24892557Y-48575047D01*
X24836919Y-48550857D01*
X24809100Y-48526666D01*
X24781280Y-48478285D01*
D17*
X26700190Y-49298342D02*
X26676000Y-49276571D01*
X26651809Y-49233028D01*
X26651809Y-49124171D01*
X26676000Y-49080628D01*
X26700190Y-49058857D01*
X26748571Y-49037085D01*
X26796952Y-49037085D01*
X26869523Y-49058857D01*
X27159809Y-49320114D01*
X27159809Y-49037085D01*
X26700190Y-48862914D02*
X26676000Y-48841142D01*
X26651809Y-48797600D01*
X26651809Y-48688742D01*
X26676000Y-48645200D01*
X26700190Y-48623428D01*
X26748571Y-48601657D01*
X26796952Y-48601657D01*
X26869523Y-48623428D01*
X27159809Y-48884685D01*
X27159809Y-48601657D01*
D16*
X25365480Y-54406571D02*
X25087290Y-54575904D01*
X25365480Y-54696857D02*
X24781280Y-54696857D01*
X24781280Y-54503333D01*
X24809100Y-54454952D01*
X24836919Y-54430761D01*
X24892557Y-54406571D01*
X24976014Y-54406571D01*
X25031652Y-54430761D01*
X25059471Y-54454952D01*
X25087290Y-54503333D01*
X25087290Y-54696857D01*
X24781280Y-54237238D02*
X24781280Y-53922761D01*
X25003833Y-54092095D01*
X25003833Y-54019523D01*
X25031652Y-53971142D01*
X25059471Y-53946952D01*
X25115109Y-53922761D01*
X25254204Y-53922761D01*
X25309842Y-53946952D01*
X25337661Y-53971142D01*
X25365480Y-54019523D01*
X25365480Y-54164666D01*
X25337661Y-54213047D01*
X25309842Y-54237238D01*
X24781280Y-53463142D02*
X24781280Y-53705047D01*
X25059471Y-53729238D01*
X25031652Y-53705047D01*
X25003833Y-53656666D01*
X25003833Y-53535714D01*
X25031652Y-53487333D01*
X25059471Y-53463142D01*
X25115109Y-53438952D01*
X25254204Y-53438952D01*
X25309842Y-53463142D01*
X25337661Y-53487333D01*
X25365480Y-53535714D01*
X25365480Y-53656666D01*
X25337661Y-53705047D01*
X25309842Y-53729238D01*
D17*
X26700190Y-54428342D02*
X26676000Y-54406571D01*
X26651809Y-54363028D01*
X26651809Y-54254171D01*
X26676000Y-54210628D01*
X26700190Y-54188857D01*
X26748571Y-54167085D01*
X26796952Y-54167085D01*
X26869523Y-54188857D01*
X27159809Y-54450114D01*
X27159809Y-54167085D01*
X26700190Y-53992914D02*
X26676000Y-53971142D01*
X26651809Y-53927600D01*
X26651809Y-53818742D01*
X26676000Y-53775200D01*
X26700190Y-53753428D01*
X26748571Y-53731657D01*
X26796952Y-53731657D01*
X26869523Y-53753428D01*
X27159809Y-54014685D01*
X27159809Y-53731657D01*
D16*
X25365480Y-50986571D02*
X25087290Y-51155904D01*
X25365480Y-51276857D02*
X24781280Y-51276857D01*
X24781280Y-51083333D01*
X24809100Y-51034952D01*
X24836919Y-51010761D01*
X24892557Y-50986571D01*
X24976014Y-50986571D01*
X25031652Y-51010761D01*
X25059471Y-51034952D01*
X25087290Y-51083333D01*
X25087290Y-51276857D01*
X24781280Y-50817238D02*
X24781280Y-50502761D01*
X25003833Y-50672095D01*
X25003833Y-50599523D01*
X25031652Y-50551142D01*
X25059471Y-50526952D01*
X25115109Y-50502761D01*
X25254204Y-50502761D01*
X25309842Y-50526952D01*
X25337661Y-50551142D01*
X25365480Y-50599523D01*
X25365480Y-50744666D01*
X25337661Y-50793047D01*
X25309842Y-50817238D01*
X24781280Y-50067333D02*
X24781280Y-50164095D01*
X24809100Y-50212476D01*
X24836919Y-50236666D01*
X24920376Y-50285047D01*
X25031652Y-50309238D01*
X25254204Y-50309238D01*
X25309842Y-50285047D01*
X25337661Y-50260857D01*
X25365480Y-50212476D01*
X25365480Y-50115714D01*
X25337661Y-50067333D01*
X25309842Y-50043142D01*
X25254204Y-50018952D01*
X25115109Y-50018952D01*
X25059471Y-50043142D01*
X25031652Y-50067333D01*
X25003833Y-50115714D01*
X25003833Y-50212476D01*
X25031652Y-50260857D01*
X25059471Y-50285047D01*
X25115109Y-50309238D01*
D17*
X26700190Y-51008342D02*
X26676000Y-50986571D01*
X26651809Y-50943028D01*
X26651809Y-50834171D01*
X26676000Y-50790628D01*
X26700190Y-50768857D01*
X26748571Y-50747085D01*
X26796952Y-50747085D01*
X26869523Y-50768857D01*
X27159809Y-51030114D01*
X27159809Y-50747085D01*
X26700190Y-50572914D02*
X26676000Y-50551142D01*
X26651809Y-50507600D01*
X26651809Y-50398742D01*
X26676000Y-50355200D01*
X26700190Y-50333428D01*
X26748571Y-50311657D01*
X26796952Y-50311657D01*
X26869523Y-50333428D01*
X27159809Y-50594685D01*
X27159809Y-50311657D01*
D16*
X68423428Y-55944280D02*
X68254095Y-55666090D01*
X68133142Y-55944280D02*
X68133142Y-55360080D01*
X68326666Y-55360080D01*
X68375047Y-55387900D01*
X68399238Y-55415719D01*
X68423428Y-55471357D01*
X68423428Y-55554814D01*
X68399238Y-55610452D01*
X68375047Y-55638271D01*
X68326666Y-55666090D01*
X68133142Y-55666090D01*
X68858857Y-55554814D02*
X68858857Y-55944280D01*
X68737904Y-55332261D02*
X68616952Y-55749547D01*
X68931428Y-55749547D01*
X69391047Y-55944280D02*
X69100761Y-55944280D01*
X69245904Y-55944280D02*
X69245904Y-55360080D01*
X69197523Y-55443538D01*
X69149142Y-55499176D01*
X69100761Y-55526995D01*
D17*
X66669885Y-54581809D02*
X66974685Y-54581809D01*
X66778742Y-55089809D01*
X67366571Y-54581809D02*
X67148857Y-54581809D01*
X67127085Y-54823714D01*
X67148857Y-54799523D01*
X67192400Y-54775333D01*
X67301257Y-54775333D01*
X67344800Y-54799523D01*
X67366571Y-54823714D01*
X67388342Y-54872095D01*
X67388342Y-54993047D01*
X67366571Y-55041428D01*
X67344800Y-55065619D01*
X67301257Y-55089809D01*
X67192400Y-55089809D01*
X67148857Y-55065619D01*
X67127085Y-55041428D01*
D16*
X71213428Y-54294280D02*
X71044095Y-54016090D01*
X70923142Y-54294280D02*
X70923142Y-53710080D01*
X71116666Y-53710080D01*
X71165047Y-53737900D01*
X71189238Y-53765719D01*
X71213428Y-53821357D01*
X71213428Y-53904814D01*
X71189238Y-53960452D01*
X71165047Y-53988271D01*
X71116666Y-54016090D01*
X70923142Y-54016090D01*
X71648857Y-53904814D02*
X71648857Y-54294280D01*
X71527904Y-53682261D02*
X71406952Y-54099547D01*
X71721428Y-54099547D01*
X71890761Y-53765719D02*
X71914952Y-53737900D01*
X71963333Y-53710080D01*
X72084285Y-53710080D01*
X72132666Y-53737900D01*
X72156857Y-53765719D01*
X72181047Y-53821357D01*
X72181047Y-53876995D01*
X72156857Y-53960452D01*
X71866571Y-54294280D01*
X72181047Y-54294280D01*
D17*
X69489885Y-52881809D02*
X69794685Y-52881809D01*
X69598742Y-53389809D01*
X70186571Y-52881809D02*
X69968857Y-52881809D01*
X69947085Y-53123714D01*
X69968857Y-53099523D01*
X70012400Y-53075333D01*
X70121257Y-53075333D01*
X70164800Y-53099523D01*
X70186571Y-53123714D01*
X70208342Y-53172095D01*
X70208342Y-53293047D01*
X70186571Y-53341428D01*
X70164800Y-53365619D01*
X70121257Y-53389809D01*
X70012400Y-53389809D01*
X69968857Y-53365619D01*
X69947085Y-53341428D01*
D16*
X73033428Y-52013080D02*
X72864095Y-51734890D01*
X72743142Y-52013080D02*
X72743142Y-51428880D01*
X72936666Y-51428880D01*
X72985047Y-51456700D01*
X73009238Y-51484519D01*
X73033428Y-51540157D01*
X73033428Y-51623614D01*
X73009238Y-51679252D01*
X72985047Y-51707071D01*
X72936666Y-51734890D01*
X72743142Y-51734890D01*
X73468857Y-51623614D02*
X73468857Y-52013080D01*
X73347904Y-51401061D02*
X73226952Y-51818347D01*
X73541428Y-51818347D01*
X73686571Y-51428880D02*
X74001047Y-51428880D01*
X73831714Y-51651433D01*
X73904285Y-51651433D01*
X73952666Y-51679252D01*
X73976857Y-51707071D01*
X74001047Y-51762709D01*
X74001047Y-51901804D01*
X73976857Y-51957442D01*
X73952666Y-51985261D01*
X73904285Y-52013080D01*
X73759142Y-52013080D01*
X73710761Y-51985261D01*
X73686571Y-51957442D01*
D17*
X72989885Y-49641809D02*
X73294685Y-49641809D01*
X73098742Y-50149809D01*
X73686571Y-49641809D02*
X73468857Y-49641809D01*
X73447085Y-49883714D01*
X73468857Y-49859523D01*
X73512400Y-49835333D01*
X73621257Y-49835333D01*
X73664800Y-49859523D01*
X73686571Y-49883714D01*
X73708342Y-49932095D01*
X73708342Y-50053047D01*
X73686571Y-50101428D01*
X73664800Y-50125619D01*
X73621257Y-50149809D01*
X73512400Y-50149809D01*
X73468857Y-50125619D01*
X73447085Y-50101428D01*
D16*
X66943428Y-46674280D02*
X66774095Y-46396090D01*
X66653142Y-46674280D02*
X66653142Y-46090080D01*
X66846666Y-46090080D01*
X66895047Y-46117900D01*
X66919238Y-46145719D01*
X66943428Y-46201357D01*
X66943428Y-46284814D01*
X66919238Y-46340452D01*
X66895047Y-46368271D01*
X66846666Y-46396090D01*
X66653142Y-46396090D01*
X67378857Y-46284814D02*
X67378857Y-46674280D01*
X67257904Y-46062261D02*
X67136952Y-46479547D01*
X67451428Y-46479547D01*
X67862666Y-46284814D02*
X67862666Y-46674280D01*
X67741714Y-46062261D02*
X67620761Y-46479547D01*
X67935238Y-46479547D01*
D17*
X66879885Y-47931809D02*
X67184685Y-47931809D01*
X66988742Y-48439809D01*
X67576571Y-47931809D02*
X67358857Y-47931809D01*
X67337085Y-48173714D01*
X67358857Y-48149523D01*
X67402400Y-48125333D01*
X67511257Y-48125333D01*
X67554800Y-48149523D01*
X67576571Y-48173714D01*
X67598342Y-48222095D01*
X67598342Y-48343047D01*
X67576571Y-48391428D01*
X67554800Y-48415619D01*
X67511257Y-48439809D01*
X67402400Y-48439809D01*
X67358857Y-48415619D01*
X67337085Y-48391428D01*
D13*
X72458740Y-75061304D02*
X73268264Y-75061304D01*
X73363502Y-75013685D01*
X73411121Y-74966066D01*
X73458740Y-74870828D01*
X73458740Y-74680352D01*
X73411121Y-74585114D01*
X73363502Y-74537495D01*
X73268264Y-74489876D01*
X72458740Y-74489876D01*
X73458740Y-73489876D02*
X73458740Y-74061304D01*
X73458740Y-73775590D02*
X72458740Y-73775590D01*
X72601598Y-73870828D01*
X72696836Y-73966066D01*
X72744455Y-74061304D01*
X67558095Y-65822380D02*
X67558095Y-66631904D01*
X67605714Y-66727142D01*
X67653333Y-66774761D01*
X67748571Y-66822380D01*
X67939047Y-66822380D01*
X68034285Y-66774761D01*
X68081904Y-66727142D01*
X68129523Y-66631904D01*
X68129523Y-65822380D01*
X68558095Y-65917619D02*
X68605714Y-65870000D01*
X68700952Y-65822380D01*
X68939047Y-65822380D01*
X69034285Y-65870000D01*
X69081904Y-65917619D01*
X69129523Y-66012857D01*
X69129523Y-66108095D01*
X69081904Y-66250952D01*
X68510476Y-66822380D01*
X69129523Y-66822380D01*
X71368095Y-57412380D02*
X71368095Y-58221904D01*
X71415714Y-58317142D01*
X71463333Y-58364761D01*
X71558571Y-58412380D01*
X71749047Y-58412380D01*
X71844285Y-58364761D01*
X71891904Y-58317142D01*
X71939523Y-58221904D01*
X71939523Y-57412380D01*
X72320476Y-57412380D02*
X72939523Y-57412380D01*
X72606190Y-57793333D01*
X72749047Y-57793333D01*
X72844285Y-57840952D01*
X72891904Y-57888571D01*
X72939523Y-57983809D01*
X72939523Y-58221904D01*
X72891904Y-58317142D01*
X72844285Y-58364761D01*
X72749047Y-58412380D01*
X72463333Y-58412380D01*
X72368095Y-58364761D01*
X72320476Y-58317142D01*
X38968095Y-38412380D02*
X38968095Y-39221904D01*
X39015714Y-39317142D01*
X39063333Y-39364761D01*
X39158571Y-39412380D01*
X39349047Y-39412380D01*
X39444285Y-39364761D01*
X39491904Y-39317142D01*
X39539523Y-39221904D01*
X39539523Y-38412380D01*
X40444285Y-38745714D02*
X40444285Y-39412380D01*
X40206190Y-38364761D02*
X39968095Y-39079047D01*
X40587142Y-39079047D01*
X62358049Y-44484610D02*
X62358049Y-44960800D01*
X62024716Y-43960800D02*
X62358049Y-44484610D01*
X62691382Y-43960800D01*
X63548525Y-44960800D02*
X62977097Y-44960800D01*
X63262811Y-44960800D02*
X63262811Y-43960800D01*
X63167573Y-44103658D01*
X63072335Y-44198896D01*
X62977097Y-44246515D01*
X51068095Y-68417380D02*
X51068095Y-69226904D01*
X51115714Y-69322142D01*
X51163333Y-69369761D01*
X51258571Y-69417380D01*
X51449047Y-69417380D01*
X51544285Y-69369761D01*
X51591904Y-69322142D01*
X51639523Y-69226904D01*
X51639523Y-68417380D01*
X52591904Y-68417380D02*
X52115714Y-68417380D01*
X52068095Y-68893571D01*
X52115714Y-68845952D01*
X52210952Y-68798333D01*
X52449047Y-68798333D01*
X52544285Y-68845952D01*
X52591904Y-68893571D01*
X52639523Y-68988809D01*
X52639523Y-69226904D01*
X52591904Y-69322142D01*
X52544285Y-69369761D01*
X52449047Y-69417380D01*
X52210952Y-69417380D01*
X52115714Y-69369761D01*
X52068095Y-69322142D01*
M02*
