G04 #@! TF.GenerationSoftware,KiCad,Pcbnew,6.0.4+dfsg-1*
G04 #@! TF.CreationDate,2022-04-25T00:20:11+03:00*
G04 #@! TF.ProjectId,isl_board,69736c5f-626f-4617-9264-2e6b69636164,rev?*
G04 #@! TF.SameCoordinates,Original*
G04 #@! TF.FileFunction,Soldermask,Bot*
G04 #@! TF.FilePolarity,Negative*
%FSLAX46Y46*%
G04 Gerber Fmt 4.6, Leading zero omitted, Abs format (unit mm)*
G04 Created by KiCad (PCBNEW 6.0.4+dfsg-1) date 2022-04-25 00:20:11*
%MOMM*%
%LPD*%
G01*
G04 APERTURE LIST*
G04 Aperture macros list*
%AMRoundRect*
0 Rectangle with rounded corners*
0 $1 Rounding radius*
0 $2 $3 $4 $5 $6 $7 $8 $9 X,Y pos of 4 corners*
0 Add a 4 corners polygon primitive as box body*
4,1,4,$2,$3,$4,$5,$6,$7,$8,$9,$2,$3,0*
0 Add four circle primitives for the rounded corners*
1,1,$1+$1,$2,$3*
1,1,$1+$1,$4,$5*
1,1,$1+$1,$6,$7*
1,1,$1+$1,$8,$9*
0 Add four rect primitives between the rounded corners*
20,1,$1+$1,$2,$3,$4,$5,0*
20,1,$1+$1,$4,$5,$6,$7,0*
20,1,$1+$1,$6,$7,$8,$9,0*
20,1,$1+$1,$8,$9,$2,$3,0*%
G04 Aperture macros list end*
%ADD10RoundRect,0.050800X-0.850000X-0.850000X0.850000X-0.850000X0.850000X0.850000X-0.850000X0.850000X0*%
%ADD11O,1.801600X1.801600*%
%ADD12C,2.301600*%
%ADD13C,1.001600*%
%ADD14C,1.801600*%
%ADD15C,1.625600*%
%ADD16C,1.901600*%
%ADD17RoundRect,0.050800X-0.850000X0.850000X-0.850000X-0.850000X0.850000X-0.850000X0.850000X0.850000X0*%
%ADD18C,2.351600*%
%ADD19RoundRect,0.050800X1.250000X-1.250000X1.250000X1.250000X-1.250000X1.250000X-1.250000X-1.250000X0*%
%ADD20RoundRect,0.300000X-0.450800X-0.450800X0.450800X-0.450800X0.450800X0.450800X-0.450800X0.450800X0*%
%ADD21C,1.501600*%
%ADD22RoundRect,0.050800X0.850000X-0.850000X0.850000X0.850000X-0.850000X0.850000X-0.850000X-0.850000X0*%
%ADD23RoundRect,0.050800X0.850000X0.850000X-0.850000X0.850000X-0.850000X-0.850000X0.850000X-0.850000X0*%
%ADD24RoundRect,0.050800X0.317500X0.571500X-0.317500X0.571500X-0.317500X-0.571500X0.317500X-0.571500X0*%
%ADD25RoundRect,0.050800X0.571500X-0.317500X0.571500X0.317500X-0.571500X0.317500X-0.571500X-0.317500X0*%
%ADD26RoundRect,0.050800X-0.571500X0.317500X-0.571500X-0.317500X0.571500X-0.317500X0.571500X0.317500X0*%
%ADD27RoundRect,0.050800X-0.317500X-0.571500X0.317500X-0.571500X0.317500X0.571500X-0.317500X0.571500X0*%
G04 APERTURE END LIST*
D10*
X20630000Y-42600000D03*
D11*
X23170000Y-42600000D03*
X20630000Y-45140000D03*
X23170000Y-45140000D03*
X20630000Y-47680000D03*
X23170000Y-47680000D03*
X20630000Y-50220000D03*
X23170000Y-50220000D03*
X20630000Y-52760000D03*
X23170000Y-52760000D03*
X20630000Y-55300000D03*
X23170000Y-55300000D03*
X20630000Y-57840000D03*
X23170000Y-57840000D03*
X20630000Y-60380000D03*
X23170000Y-60380000D03*
X20630000Y-62920000D03*
X23170000Y-62920000D03*
X20630000Y-65460000D03*
X23170000Y-65460000D03*
X20630000Y-68000000D03*
X23170000Y-68000000D03*
X20630000Y-70540000D03*
X23170000Y-70540000D03*
X20630000Y-73080000D03*
X23170000Y-73080000D03*
X20630000Y-75620000D03*
X23170000Y-75620000D03*
X20630000Y-78160000D03*
X23170000Y-78160000D03*
X20630000Y-80700000D03*
X23170000Y-80700000D03*
X20630000Y-83240000D03*
X23170000Y-83240000D03*
X20630000Y-85780000D03*
X23170000Y-85780000D03*
X20630000Y-88320000D03*
X23170000Y-88320000D03*
X20630000Y-90860000D03*
X23170000Y-90860000D03*
D12*
X56345000Y-35580000D03*
X58250000Y-30500000D03*
X60155000Y-35580000D03*
X62060000Y-30500000D03*
X63965000Y-35580000D03*
X65870000Y-30500000D03*
X67775000Y-35580000D03*
X69680000Y-30500000D03*
X71585000Y-35580000D03*
X73490000Y-30500000D03*
X75395000Y-35580000D03*
X77300000Y-30500000D03*
X79205000Y-35580000D03*
X81110000Y-30500000D03*
X83015000Y-35580000D03*
X84920000Y-30500000D03*
X86825000Y-35580000D03*
X88730000Y-30500000D03*
X90635000Y-35580000D03*
X92540000Y-30500000D03*
X94445000Y-35580000D03*
D13*
X63750000Y-41910000D03*
X62650000Y-41910000D03*
D14*
X96490000Y-41450000D03*
X96490000Y-47050000D03*
D15*
X91390000Y-41710000D03*
X91390000Y-44250000D03*
X91390000Y-46790000D03*
D16*
X93990000Y-46790000D03*
X93990000Y-41710000D03*
D17*
X49900000Y-32510000D03*
D11*
X49900000Y-35050000D03*
X47360000Y-32510000D03*
X47360000Y-35050000D03*
X44820000Y-32510000D03*
X44820000Y-35050000D03*
X42280000Y-32510000D03*
X42280000Y-35050000D03*
D18*
X28090053Y-34782843D03*
D19*
X28090053Y-34782843D03*
D20*
X18910000Y-95930000D03*
D21*
X21450000Y-95930000D03*
X26530000Y-95930000D03*
D22*
X79930000Y-77020000D03*
D11*
X79930000Y-74480000D03*
X82470000Y-77020000D03*
X82470000Y-74480000D03*
X85010000Y-77020000D03*
X85010000Y-74480000D03*
X87550000Y-77020000D03*
X87550000Y-74480000D03*
D17*
X90560000Y-97110000D03*
D11*
X88020000Y-97110000D03*
X85480000Y-97110000D03*
X82940000Y-97110000D03*
X80400000Y-97110000D03*
X77860000Y-97110000D03*
X75320000Y-97110000D03*
X72780000Y-97110000D03*
X70240000Y-97110000D03*
X67700000Y-97110000D03*
X65160000Y-97110000D03*
X62620000Y-97110000D03*
X60080000Y-97110000D03*
X57540000Y-97110000D03*
X55000000Y-97110000D03*
X52460000Y-97110000D03*
X49920000Y-97110000D03*
X47380000Y-97110000D03*
X44840000Y-97110000D03*
X42300000Y-97110000D03*
D23*
X76620000Y-53210000D03*
D11*
X76620000Y-50670000D03*
X76620000Y-48130000D03*
D24*
X60242000Y-52890000D03*
X58718000Y-52890000D03*
X60242000Y-64900000D03*
X58718000Y-64900000D03*
X60242000Y-61470000D03*
X58718000Y-61470000D03*
X60242000Y-56320000D03*
X58718000Y-56320000D03*
X60242000Y-51170000D03*
X58718000Y-51170000D03*
X60232000Y-47720000D03*
X58708000Y-47720000D03*
X60242000Y-63180000D03*
X58718000Y-63180000D03*
X60242000Y-59750000D03*
X58718000Y-59750000D03*
X60242000Y-58030000D03*
X58718000Y-58030000D03*
X60242000Y-54600000D03*
X58718000Y-54600000D03*
X60242000Y-49450000D03*
X58718000Y-49450000D03*
D25*
X64120000Y-40242000D03*
X64120000Y-38718000D03*
X62340000Y-40242000D03*
X62340000Y-38718000D03*
D26*
X57040000Y-44078000D03*
X57040000Y-45602000D03*
X52760000Y-66368000D03*
X52760000Y-67892000D03*
D25*
X49520000Y-67892000D03*
X49520000Y-66368000D03*
X46080000Y-67902000D03*
X46080000Y-66378000D03*
D27*
X43418000Y-52240000D03*
X44942000Y-52240000D03*
X43408000Y-49740000D03*
X44932000Y-49740000D03*
X43418000Y-62750000D03*
X44942000Y-62750000D03*
X43418000Y-59250000D03*
X44942000Y-59250000D03*
X43418000Y-55750000D03*
X44942000Y-55750000D03*
D26*
X23970053Y-36210843D03*
X23970053Y-37734843D03*
X38190000Y-35120000D03*
X38190000Y-36644000D03*
D24*
X39882000Y-46970000D03*
X38358000Y-46970000D03*
X39892000Y-48690000D03*
X38368000Y-48690000D03*
D26*
X52460000Y-32978000D03*
X52460000Y-34502000D03*
D25*
X89020000Y-46742000D03*
X89020000Y-45218000D03*
X24000053Y-32364843D03*
X24000053Y-30840843D03*
X29190053Y-32384843D03*
X29190053Y-30860843D03*
D26*
X23950000Y-95958000D03*
X23950000Y-97482000D03*
M02*
