G04 #@! TF.GenerationSoftware,KiCad,Pcbnew,6.0.4+dfsg-1*
G04 #@! TF.CreationDate,2022-04-25T00:20:11+03:00*
G04 #@! TF.ProjectId,isl_board,69736c5f-626f-4617-9264-2e6b69636164,rev?*
G04 #@! TF.SameCoordinates,Original*
G04 #@! TF.FileFunction,Paste,Bot*
G04 #@! TF.FilePolarity,Positive*
%FSLAX46Y46*%
G04 Gerber Fmt 4.6, Leading zero omitted, Abs format (unit mm)*
G04 Created by KiCad (PCBNEW 6.0.4+dfsg-1) date 2022-04-25 00:20:11*
%MOMM*%
%LPD*%
G01*
G04 APERTURE LIST*
%ADD10R,0.635000X1.143000*%
%ADD11R,1.143000X0.635000*%
G04 APERTURE END LIST*
D10*
X60242000Y-52890000D03*
X58718000Y-52890000D03*
X60242000Y-64900000D03*
X58718000Y-64900000D03*
X60242000Y-61470000D03*
X58718000Y-61470000D03*
X60242000Y-56320000D03*
X58718000Y-56320000D03*
X60242000Y-51170000D03*
X58718000Y-51170000D03*
X60232000Y-47720000D03*
X58708000Y-47720000D03*
X60242000Y-63180000D03*
X58718000Y-63180000D03*
X60242000Y-59750000D03*
X58718000Y-59750000D03*
X60242000Y-58030000D03*
X58718000Y-58030000D03*
X60242000Y-54600000D03*
X58718000Y-54600000D03*
X60242000Y-49450000D03*
X58718000Y-49450000D03*
D11*
X64120000Y-40242000D03*
X64120000Y-38718000D03*
X62340000Y-40242000D03*
X62340000Y-38718000D03*
X57040000Y-44078000D03*
X57040000Y-45602000D03*
X52760000Y-66368000D03*
X52760000Y-67892000D03*
X49520000Y-67892000D03*
X49520000Y-66368000D03*
X46080000Y-67902000D03*
X46080000Y-66378000D03*
D10*
X43418000Y-52240000D03*
X44942000Y-52240000D03*
X43408000Y-49740000D03*
X44932000Y-49740000D03*
X43418000Y-62750000D03*
X44942000Y-62750000D03*
X43418000Y-59250000D03*
X44942000Y-59250000D03*
X43418000Y-55750000D03*
X44942000Y-55750000D03*
D11*
X23970053Y-36210843D03*
X23970053Y-37734843D03*
X38190000Y-35120000D03*
X38190000Y-36644000D03*
D10*
X39882000Y-46970000D03*
X38358000Y-46970000D03*
X39892000Y-48690000D03*
X38368000Y-48690000D03*
D11*
X52460000Y-32978000D03*
X52460000Y-34502000D03*
X89020000Y-46742000D03*
X89020000Y-45218000D03*
X24000053Y-32364843D03*
X24000053Y-30840843D03*
X29190053Y-32384843D03*
X29190053Y-30860843D03*
X23950000Y-95958000D03*
X23950000Y-97482000D03*
M02*
