G04 #@! TF.GenerationSoftware,KiCad,Pcbnew,5.1.5+dfsg1-2*
G04 #@! TF.CreationDate,2020-02-07T00:59:59+02:00*
G04 #@! TF.ProjectId,isl_board,69736c5f-626f-4617-9264-2e6b69636164,rev?*
G04 #@! TF.SameCoordinates,Original*
G04 #@! TF.FileFunction,Legend,Bot*
G04 #@! TF.FilePolarity,Positive*
%FSLAX46Y46*%
G04 Gerber Fmt 4.6, Leading zero omitted, Abs format (unit mm)*
G04 Created by KiCad (PCBNEW 5.1.5+dfsg1-2) date 2020-02-07 00:59:59*
%MOMM*%
%LPD*%
G04 APERTURE LIST*
%ADD10C,0.119380*%
%ADD11C,0.127000*%
%ADD12C,0.114300*%
G04 APERTURE END LIST*
D10*
X33790320Y-31122000D02*
X33790320Y-29598000D01*
X31209680Y-29598000D02*
X31209680Y-31122000D01*
X33782700Y-29575140D02*
X33000380Y-29575140D01*
X31999620Y-29575140D02*
X31217300Y-29575140D01*
X33000380Y-31144860D02*
X33782700Y-31144860D01*
X31999620Y-31144860D02*
X31217300Y-31144860D01*
X88235140Y-45479620D02*
X88235140Y-44697300D01*
X88235140Y-46480380D02*
X88235140Y-47262700D01*
X89804860Y-45479620D02*
X89804860Y-44697300D01*
X89804860Y-47262700D02*
X89804860Y-46480380D01*
X89782000Y-44689680D02*
X88258000Y-44689680D01*
X88258000Y-47270320D02*
X89782000Y-47270320D01*
X53830380Y-62985140D02*
X54612700Y-62985140D01*
X52829620Y-62985140D02*
X52047300Y-62985140D01*
X53830380Y-64554860D02*
X54612700Y-64554860D01*
X52047300Y-64554860D02*
X52829620Y-64554860D01*
X54620320Y-64532000D02*
X54620320Y-63008000D01*
X52039680Y-63008000D02*
X52039680Y-64532000D01*
X58979620Y-53674860D02*
X58197300Y-53674860D01*
X59980380Y-53674860D02*
X60762700Y-53674860D01*
X58979620Y-52105140D02*
X58197300Y-52105140D01*
X60762700Y-52105140D02*
X59980380Y-52105140D01*
X58189680Y-52128000D02*
X58189680Y-53652000D01*
X60770320Y-53652000D02*
X60770320Y-52128000D01*
X58979620Y-65684860D02*
X58197300Y-65684860D01*
X59980380Y-65684860D02*
X60762700Y-65684860D01*
X58979620Y-64115140D02*
X58197300Y-64115140D01*
X60762700Y-64115140D02*
X59980380Y-64115140D01*
X58189680Y-64138000D02*
X58189680Y-65662000D01*
X60770320Y-65662000D02*
X60770320Y-64138000D01*
X58979620Y-62254860D02*
X58197300Y-62254860D01*
X59980380Y-62254860D02*
X60762700Y-62254860D01*
X58979620Y-60685140D02*
X58197300Y-60685140D01*
X60762700Y-60685140D02*
X59980380Y-60685140D01*
X58189680Y-60708000D02*
X58189680Y-62232000D01*
X60770320Y-62232000D02*
X60770320Y-60708000D01*
X58979620Y-57104860D02*
X58197300Y-57104860D01*
X59980380Y-57104860D02*
X60762700Y-57104860D01*
X58979620Y-55535140D02*
X58197300Y-55535140D01*
X60762700Y-55535140D02*
X59980380Y-55535140D01*
X58189680Y-55558000D02*
X58189680Y-57082000D01*
X60770320Y-57082000D02*
X60770320Y-55558000D01*
X58979620Y-51954860D02*
X58197300Y-51954860D01*
X59980380Y-51954860D02*
X60762700Y-51954860D01*
X58979620Y-50385140D02*
X58197300Y-50385140D01*
X60762700Y-50385140D02*
X59980380Y-50385140D01*
X58189680Y-50408000D02*
X58189680Y-51932000D01*
X60770320Y-51932000D02*
X60770320Y-50408000D01*
X58969620Y-48504860D02*
X58187300Y-48504860D01*
X59970380Y-48504860D02*
X60752700Y-48504860D01*
X58969620Y-46935140D02*
X58187300Y-46935140D01*
X60752700Y-46935140D02*
X59970380Y-46935140D01*
X58179680Y-46958000D02*
X58179680Y-48482000D01*
X60760320Y-48482000D02*
X60760320Y-46958000D01*
X58979620Y-63964860D02*
X58197300Y-63964860D01*
X59980380Y-63964860D02*
X60762700Y-63964860D01*
X58979620Y-62395140D02*
X58197300Y-62395140D01*
X60762700Y-62395140D02*
X59980380Y-62395140D01*
X58189680Y-62418000D02*
X58189680Y-63942000D01*
X60770320Y-63942000D02*
X60770320Y-62418000D01*
X58979620Y-60534860D02*
X58197300Y-60534860D01*
X59980380Y-60534860D02*
X60762700Y-60534860D01*
X58979620Y-58965140D02*
X58197300Y-58965140D01*
X60762700Y-58965140D02*
X59980380Y-58965140D01*
X58189680Y-58988000D02*
X58189680Y-60512000D01*
X60770320Y-60512000D02*
X60770320Y-58988000D01*
X58979620Y-58814860D02*
X58197300Y-58814860D01*
X59980380Y-58814860D02*
X60762700Y-58814860D01*
X58979620Y-57245140D02*
X58197300Y-57245140D01*
X60762700Y-57245140D02*
X59980380Y-57245140D01*
X58189680Y-57268000D02*
X58189680Y-58792000D01*
X60770320Y-58792000D02*
X60770320Y-57268000D01*
X58979620Y-55384860D02*
X58197300Y-55384860D01*
X59980380Y-55384860D02*
X60762700Y-55384860D01*
X58979620Y-53815140D02*
X58197300Y-53815140D01*
X60762700Y-53815140D02*
X59980380Y-53815140D01*
X58189680Y-53838000D02*
X58189680Y-55362000D01*
X60770320Y-55362000D02*
X60770320Y-53838000D01*
X58979620Y-50234860D02*
X58197300Y-50234860D01*
X59980380Y-50234860D02*
X60762700Y-50234860D01*
X58979620Y-48665140D02*
X58197300Y-48665140D01*
X60762700Y-48665140D02*
X59980380Y-48665140D01*
X58189680Y-48688000D02*
X58189680Y-50212000D01*
X60770320Y-50212000D02*
X60770320Y-48688000D01*
X63335140Y-38979620D02*
X63335140Y-38197300D01*
X63335140Y-39980380D02*
X63335140Y-40762700D01*
X64904860Y-38979620D02*
X64904860Y-38197300D01*
X64904860Y-40762700D02*
X64904860Y-39980380D01*
X64882000Y-38189680D02*
X63358000Y-38189680D01*
X63358000Y-40770320D02*
X64882000Y-40770320D01*
X61555140Y-38979620D02*
X61555140Y-38197300D01*
X61555140Y-39980380D02*
X61555140Y-40762700D01*
X63124860Y-38979620D02*
X63124860Y-38197300D01*
X63124860Y-40762700D02*
X63124860Y-39980380D01*
X63102000Y-38189680D02*
X61578000Y-38189680D01*
X61578000Y-40770320D02*
X63102000Y-40770320D01*
X57824860Y-45340380D02*
X57824860Y-46122700D01*
X57824860Y-44339620D02*
X57824860Y-43557300D01*
X56255140Y-45340380D02*
X56255140Y-46122700D01*
X56255140Y-43557300D02*
X56255140Y-44339620D01*
X56278000Y-46130320D02*
X57802000Y-46130320D01*
X57802000Y-43549680D02*
X56278000Y-43549680D01*
X53544860Y-67630380D02*
X53544860Y-68412700D01*
X53544860Y-66629620D02*
X53544860Y-65847300D01*
X51975140Y-67630380D02*
X51975140Y-68412700D01*
X51975140Y-65847300D02*
X51975140Y-66629620D01*
X51998000Y-68420320D02*
X53522000Y-68420320D01*
X53522000Y-65839680D02*
X51998000Y-65839680D01*
X48735140Y-66629620D02*
X48735140Y-65847300D01*
X48735140Y-67630380D02*
X48735140Y-68412700D01*
X50304860Y-66629620D02*
X50304860Y-65847300D01*
X50304860Y-68412700D02*
X50304860Y-67630380D01*
X50282000Y-65839680D02*
X48758000Y-65839680D01*
X48758000Y-68420320D02*
X50282000Y-68420320D01*
X45295140Y-66639620D02*
X45295140Y-65857300D01*
X45295140Y-67640380D02*
X45295140Y-68422700D01*
X46864860Y-66639620D02*
X46864860Y-65857300D01*
X46864860Y-68422700D02*
X46864860Y-67640380D01*
X46842000Y-65849680D02*
X45318000Y-65849680D01*
X45318000Y-68430320D02*
X46842000Y-68430320D01*
X44680380Y-51455140D02*
X45462700Y-51455140D01*
X43679620Y-51455140D02*
X42897300Y-51455140D01*
X44680380Y-53024860D02*
X45462700Y-53024860D01*
X42897300Y-53024860D02*
X43679620Y-53024860D01*
X45470320Y-53002000D02*
X45470320Y-51478000D01*
X42889680Y-51478000D02*
X42889680Y-53002000D01*
X44670380Y-48955140D02*
X45452700Y-48955140D01*
X43669620Y-48955140D02*
X42887300Y-48955140D01*
X44670380Y-50524860D02*
X45452700Y-50524860D01*
X42887300Y-50524860D02*
X43669620Y-50524860D01*
X45460320Y-50502000D02*
X45460320Y-48978000D01*
X42879680Y-48978000D02*
X42879680Y-50502000D01*
X44680380Y-61965140D02*
X45462700Y-61965140D01*
X43679620Y-61965140D02*
X42897300Y-61965140D01*
X44680380Y-63534860D02*
X45462700Y-63534860D01*
X42897300Y-63534860D02*
X43679620Y-63534860D01*
X45470320Y-63512000D02*
X45470320Y-61988000D01*
X42889680Y-61988000D02*
X42889680Y-63512000D01*
X44680380Y-58465140D02*
X45462700Y-58465140D01*
X43679620Y-58465140D02*
X42897300Y-58465140D01*
X44680380Y-60034860D02*
X45462700Y-60034860D01*
X42897300Y-60034860D02*
X43679620Y-60034860D01*
X45470320Y-60012000D02*
X45470320Y-58488000D01*
X42889680Y-58488000D02*
X42889680Y-60012000D01*
X44680380Y-54965140D02*
X45462700Y-54965140D01*
X43679620Y-54965140D02*
X42897300Y-54965140D01*
X44680380Y-56534860D02*
X45462700Y-56534860D01*
X42897300Y-56534860D02*
X43679620Y-56534860D01*
X45470320Y-56512000D02*
X45470320Y-54988000D01*
X42889680Y-54988000D02*
X42889680Y-56512000D01*
X24754913Y-37473223D02*
X24754913Y-38255543D01*
X24754913Y-36472463D02*
X24754913Y-35690143D01*
X23185193Y-37473223D02*
X23185193Y-38255543D01*
X23185193Y-35690143D02*
X23185193Y-36472463D01*
X23208053Y-38263163D02*
X24732053Y-38263163D01*
X24732053Y-35682523D02*
X23208053Y-35682523D01*
X23215193Y-31102463D02*
X23215193Y-30320143D01*
X23215193Y-32103223D02*
X23215193Y-32885543D01*
X24784913Y-31102463D02*
X24784913Y-30320143D01*
X24784913Y-32885543D02*
X24784913Y-32103223D01*
X24762053Y-30312523D02*
X23238053Y-30312523D01*
X23238053Y-32893163D02*
X24762053Y-32893163D01*
X28405193Y-31122463D02*
X28405193Y-30340143D01*
X28405193Y-32123223D02*
X28405193Y-32905543D01*
X29974913Y-31122463D02*
X29974913Y-30340143D01*
X29974913Y-32905543D02*
X29974913Y-32123223D01*
X29952053Y-30332523D02*
X28428053Y-30332523D01*
X28428053Y-32913163D02*
X29952053Y-32913163D01*
X38952000Y-34591680D02*
X37428000Y-34591680D01*
X37428000Y-37172320D02*
X38952000Y-37172320D01*
X37405140Y-34599300D02*
X37405140Y-35381620D01*
X37405140Y-36382380D02*
X37405140Y-37164700D01*
X38974860Y-35381620D02*
X38974860Y-34599300D01*
X38974860Y-36382380D02*
X38974860Y-37164700D01*
X38619620Y-47754860D02*
X37837300Y-47754860D01*
X39620380Y-47754860D02*
X40402700Y-47754860D01*
X38619620Y-46185140D02*
X37837300Y-46185140D01*
X40402700Y-46185140D02*
X39620380Y-46185140D01*
X37829680Y-46208000D02*
X37829680Y-47732000D01*
X40410320Y-47732000D02*
X40410320Y-46208000D01*
X38629620Y-49474860D02*
X37847300Y-49474860D01*
X39630380Y-49474860D02*
X40412700Y-49474860D01*
X38629620Y-47905140D02*
X37847300Y-47905140D01*
X40412700Y-47905140D02*
X39630380Y-47905140D01*
X37839680Y-47928000D02*
X37839680Y-49452000D01*
X40420320Y-49452000D02*
X40420320Y-47928000D01*
X53244860Y-34240380D02*
X53244860Y-35022700D01*
X53244860Y-33239620D02*
X53244860Y-32457300D01*
X51675140Y-34240380D02*
X51675140Y-35022700D01*
X51675140Y-32457300D02*
X51675140Y-33239620D01*
X51698000Y-35030320D02*
X53222000Y-35030320D01*
X53222000Y-32449680D02*
X51698000Y-32449680D01*
D11*
X34537442Y-30033428D02*
X34565261Y-30009238D01*
X34593080Y-29936666D01*
X34593080Y-29888285D01*
X34565261Y-29815714D01*
X34509623Y-29767333D01*
X34453985Y-29743142D01*
X34342709Y-29718952D01*
X34259252Y-29718952D01*
X34147976Y-29743142D01*
X34092338Y-29767333D01*
X34036700Y-29815714D01*
X34008880Y-29888285D01*
X34008880Y-29936666D01*
X34036700Y-30009238D01*
X34064519Y-30033428D01*
X34008880Y-30493047D02*
X34008880Y-30251142D01*
X34287071Y-30226952D01*
X34259252Y-30251142D01*
X34231433Y-30299523D01*
X34231433Y-30420476D01*
X34259252Y-30468857D01*
X34287071Y-30493047D01*
X34342709Y-30517238D01*
X34481804Y-30517238D01*
X34537442Y-30493047D01*
X34565261Y-30468857D01*
X34593080Y-30420476D01*
X34593080Y-30299523D01*
X34565261Y-30251142D01*
X34537442Y-30226952D01*
X34008880Y-30686571D02*
X34008880Y-31001047D01*
X34231433Y-30831714D01*
X34231433Y-30904285D01*
X34259252Y-30952666D01*
X34287071Y-30976857D01*
X34342709Y-31001047D01*
X34481804Y-31001047D01*
X34537442Y-30976857D01*
X34565261Y-30952666D01*
X34593080Y-30904285D01*
X34593080Y-30759142D01*
X34565261Y-30710761D01*
X34537442Y-30686571D01*
D12*
X32221809Y-29804828D02*
X32221809Y-29848371D01*
X32246000Y-29891914D01*
X32270190Y-29913685D01*
X32318571Y-29935457D01*
X32415333Y-29957228D01*
X32536285Y-29957228D01*
X32633047Y-29935457D01*
X32681428Y-29913685D01*
X32705619Y-29891914D01*
X32729809Y-29848371D01*
X32729809Y-29804828D01*
X32705619Y-29761285D01*
X32681428Y-29739514D01*
X32633047Y-29717742D01*
X32536285Y-29695971D01*
X32415333Y-29695971D01*
X32318571Y-29717742D01*
X32270190Y-29739514D01*
X32246000Y-29761285D01*
X32221809Y-29804828D01*
X32681428Y-30153171D02*
X32705619Y-30174942D01*
X32729809Y-30153171D01*
X32705619Y-30131400D01*
X32681428Y-30153171D01*
X32729809Y-30153171D01*
X32729809Y-30610371D02*
X32729809Y-30349114D01*
X32729809Y-30479742D02*
X32221809Y-30479742D01*
X32294380Y-30436200D01*
X32342761Y-30392657D01*
X32366952Y-30349114D01*
X32391142Y-31002257D02*
X32729809Y-31002257D01*
X32391142Y-30806314D02*
X32657238Y-30806314D01*
X32705619Y-30828085D01*
X32729809Y-30871628D01*
X32729809Y-30936942D01*
X32705619Y-30980485D01*
X32681428Y-31002257D01*
D11*
X89346571Y-48017442D02*
X89370761Y-48045261D01*
X89443333Y-48073080D01*
X89491714Y-48073080D01*
X89564285Y-48045261D01*
X89612666Y-47989623D01*
X89636857Y-47933985D01*
X89661047Y-47822709D01*
X89661047Y-47739252D01*
X89636857Y-47627976D01*
X89612666Y-47572338D01*
X89564285Y-47516700D01*
X89491714Y-47488880D01*
X89443333Y-47488880D01*
X89370761Y-47516700D01*
X89346571Y-47544519D01*
X88886952Y-47488880D02*
X89128857Y-47488880D01*
X89153047Y-47767071D01*
X89128857Y-47739252D01*
X89080476Y-47711433D01*
X88959523Y-47711433D01*
X88911142Y-47739252D01*
X88886952Y-47767071D01*
X88862761Y-47822709D01*
X88862761Y-47961804D01*
X88886952Y-48017442D01*
X88911142Y-48045261D01*
X88959523Y-48073080D01*
X89080476Y-48073080D01*
X89128857Y-48045261D01*
X89153047Y-48017442D01*
X88669238Y-47544519D02*
X88645047Y-47516700D01*
X88596666Y-47488880D01*
X88475714Y-47488880D01*
X88427333Y-47516700D01*
X88403142Y-47544519D01*
X88378952Y-47600157D01*
X88378952Y-47655795D01*
X88403142Y-47739252D01*
X88693428Y-48073080D01*
X88378952Y-48073080D01*
D12*
X89575171Y-45701809D02*
X89531628Y-45701809D01*
X89488085Y-45726000D01*
X89466314Y-45750190D01*
X89444542Y-45798571D01*
X89422771Y-45895333D01*
X89422771Y-46016285D01*
X89444542Y-46113047D01*
X89466314Y-46161428D01*
X89488085Y-46185619D01*
X89531628Y-46209809D01*
X89575171Y-46209809D01*
X89618714Y-46185619D01*
X89640485Y-46161428D01*
X89662257Y-46113047D01*
X89684028Y-46016285D01*
X89684028Y-45895333D01*
X89662257Y-45798571D01*
X89640485Y-45750190D01*
X89618714Y-45726000D01*
X89575171Y-45701809D01*
X89226828Y-46161428D02*
X89205057Y-46185619D01*
X89226828Y-46209809D01*
X89248600Y-46185619D01*
X89226828Y-46161428D01*
X89226828Y-46209809D01*
X88769628Y-46209809D02*
X89030885Y-46209809D01*
X88900257Y-46209809D02*
X88900257Y-45701809D01*
X88943800Y-45774380D01*
X88987342Y-45822761D01*
X89030885Y-45846952D01*
X88377742Y-45871142D02*
X88377742Y-46209809D01*
X88573685Y-45871142D02*
X88573685Y-46137238D01*
X88551914Y-46185619D01*
X88508371Y-46209809D01*
X88443057Y-46209809D01*
X88399514Y-46185619D01*
X88377742Y-46161428D01*
D11*
X51236919Y-64096571D02*
X51515109Y-64265904D01*
X51236919Y-64386857D02*
X51821119Y-64386857D01*
X51821119Y-64193333D01*
X51793300Y-64144952D01*
X51765480Y-64120761D01*
X51709842Y-64096571D01*
X51626385Y-64096571D01*
X51570747Y-64120761D01*
X51542928Y-64144952D01*
X51515109Y-64193333D01*
X51515109Y-64386857D01*
X51236919Y-63612761D02*
X51236919Y-63903047D01*
X51236919Y-63757904D02*
X51821119Y-63757904D01*
X51737661Y-63806285D01*
X51682023Y-63854666D01*
X51654204Y-63903047D01*
X51821119Y-63298285D02*
X51821119Y-63249904D01*
X51793300Y-63201523D01*
X51765480Y-63177333D01*
X51709842Y-63153142D01*
X51598566Y-63128952D01*
X51459471Y-63128952D01*
X51348195Y-63153142D01*
X51292557Y-63177333D01*
X51264738Y-63201523D01*
X51236919Y-63249904D01*
X51236919Y-63298285D01*
X51264738Y-63346666D01*
X51292557Y-63370857D01*
X51348195Y-63395047D01*
X51459471Y-63419238D01*
X51598566Y-63419238D01*
X51709842Y-63395047D01*
X51765480Y-63370857D01*
X51793300Y-63346666D01*
X51821119Y-63298285D01*
D12*
X53559809Y-64118342D02*
X53584000Y-64096571D01*
X53608190Y-64053028D01*
X53608190Y-63944171D01*
X53584000Y-63900628D01*
X53559809Y-63878857D01*
X53511428Y-63857085D01*
X53463047Y-63857085D01*
X53390476Y-63878857D01*
X53100190Y-64140114D01*
X53100190Y-63857085D01*
X53559809Y-63682914D02*
X53584000Y-63661142D01*
X53608190Y-63617600D01*
X53608190Y-63508742D01*
X53584000Y-63465200D01*
X53559809Y-63443428D01*
X53511428Y-63421657D01*
X53463047Y-63421657D01*
X53390476Y-63443428D01*
X53100190Y-63704685D01*
X53100190Y-63421657D01*
D11*
X61517442Y-52805333D02*
X61545261Y-52781142D01*
X61573080Y-52708571D01*
X61573080Y-52660190D01*
X61545261Y-52587619D01*
X61489623Y-52539238D01*
X61433985Y-52515047D01*
X61322709Y-52490857D01*
X61239252Y-52490857D01*
X61127976Y-52515047D01*
X61072338Y-52539238D01*
X61016700Y-52587619D01*
X60988880Y-52660190D01*
X60988880Y-52708571D01*
X61016700Y-52781142D01*
X61044519Y-52805333D01*
X61573080Y-53047238D02*
X61573080Y-53144000D01*
X61545261Y-53192380D01*
X61517442Y-53216571D01*
X61433985Y-53264952D01*
X61322709Y-53289142D01*
X61100157Y-53289142D01*
X61044519Y-53264952D01*
X61016700Y-53240761D01*
X60988880Y-53192380D01*
X60988880Y-53095619D01*
X61016700Y-53047238D01*
X61044519Y-53023047D01*
X61100157Y-52998857D01*
X61239252Y-52998857D01*
X61294890Y-53023047D01*
X61322709Y-53047238D01*
X61350528Y-53095619D01*
X61350528Y-53192380D01*
X61322709Y-53240761D01*
X61294890Y-53264952D01*
X61239252Y-53289142D01*
D12*
X59201809Y-52334828D02*
X59201809Y-52378371D01*
X59226000Y-52421914D01*
X59250190Y-52443685D01*
X59298571Y-52465457D01*
X59395333Y-52487228D01*
X59516285Y-52487228D01*
X59613047Y-52465457D01*
X59661428Y-52443685D01*
X59685619Y-52421914D01*
X59709809Y-52378371D01*
X59709809Y-52334828D01*
X59685619Y-52291285D01*
X59661428Y-52269514D01*
X59613047Y-52247742D01*
X59516285Y-52225971D01*
X59395333Y-52225971D01*
X59298571Y-52247742D01*
X59250190Y-52269514D01*
X59226000Y-52291285D01*
X59201809Y-52334828D01*
X59661428Y-52683171D02*
X59685619Y-52704942D01*
X59709809Y-52683171D01*
X59685619Y-52661400D01*
X59661428Y-52683171D01*
X59709809Y-52683171D01*
X59709809Y-53140371D02*
X59709809Y-52879114D01*
X59709809Y-53009742D02*
X59201809Y-53009742D01*
X59274380Y-52966200D01*
X59322761Y-52922657D01*
X59346952Y-52879114D01*
X59371142Y-53532257D02*
X59709809Y-53532257D01*
X59371142Y-53336314D02*
X59637238Y-53336314D01*
X59685619Y-53358085D01*
X59709809Y-53401628D01*
X59709809Y-53466942D01*
X59685619Y-53510485D01*
X59661428Y-53532257D01*
D11*
X61517442Y-64573428D02*
X61545261Y-64549238D01*
X61573080Y-64476666D01*
X61573080Y-64428285D01*
X61545261Y-64355714D01*
X61489623Y-64307333D01*
X61433985Y-64283142D01*
X61322709Y-64258952D01*
X61239252Y-64258952D01*
X61127976Y-64283142D01*
X61072338Y-64307333D01*
X61016700Y-64355714D01*
X60988880Y-64428285D01*
X60988880Y-64476666D01*
X61016700Y-64549238D01*
X61044519Y-64573428D01*
X61573080Y-65057238D02*
X61573080Y-64766952D01*
X61573080Y-64912095D02*
X60988880Y-64912095D01*
X61072338Y-64863714D01*
X61127976Y-64815333D01*
X61155795Y-64766952D01*
X60988880Y-65371714D02*
X60988880Y-65420095D01*
X61016700Y-65468476D01*
X61044519Y-65492666D01*
X61100157Y-65516857D01*
X61211433Y-65541047D01*
X61350528Y-65541047D01*
X61461804Y-65516857D01*
X61517442Y-65492666D01*
X61545261Y-65468476D01*
X61573080Y-65420095D01*
X61573080Y-65371714D01*
X61545261Y-65323333D01*
X61517442Y-65299142D01*
X61461804Y-65274952D01*
X61350528Y-65250761D01*
X61211433Y-65250761D01*
X61100157Y-65274952D01*
X61044519Y-65299142D01*
X61016700Y-65323333D01*
X60988880Y-65371714D01*
D12*
X59201809Y-64344828D02*
X59201809Y-64388371D01*
X59226000Y-64431914D01*
X59250190Y-64453685D01*
X59298571Y-64475457D01*
X59395333Y-64497228D01*
X59516285Y-64497228D01*
X59613047Y-64475457D01*
X59661428Y-64453685D01*
X59685619Y-64431914D01*
X59709809Y-64388371D01*
X59709809Y-64344828D01*
X59685619Y-64301285D01*
X59661428Y-64279514D01*
X59613047Y-64257742D01*
X59516285Y-64235971D01*
X59395333Y-64235971D01*
X59298571Y-64257742D01*
X59250190Y-64279514D01*
X59226000Y-64301285D01*
X59201809Y-64344828D01*
X59661428Y-64693171D02*
X59685619Y-64714942D01*
X59709809Y-64693171D01*
X59685619Y-64671400D01*
X59661428Y-64693171D01*
X59709809Y-64693171D01*
X59709809Y-65150371D02*
X59709809Y-64889114D01*
X59709809Y-65019742D02*
X59201809Y-65019742D01*
X59274380Y-64976200D01*
X59322761Y-64932657D01*
X59346952Y-64889114D01*
X59371142Y-65542257D02*
X59709809Y-65542257D01*
X59371142Y-65346314D02*
X59637238Y-65346314D01*
X59685619Y-65368085D01*
X59709809Y-65411628D01*
X59709809Y-65476942D01*
X59685619Y-65520485D01*
X59661428Y-65542257D01*
D11*
X61517442Y-61143428D02*
X61545261Y-61119238D01*
X61573080Y-61046666D01*
X61573080Y-60998285D01*
X61545261Y-60925714D01*
X61489623Y-60877333D01*
X61433985Y-60853142D01*
X61322709Y-60828952D01*
X61239252Y-60828952D01*
X61127976Y-60853142D01*
X61072338Y-60877333D01*
X61016700Y-60925714D01*
X60988880Y-60998285D01*
X60988880Y-61046666D01*
X61016700Y-61119238D01*
X61044519Y-61143428D01*
X61573080Y-61627238D02*
X61573080Y-61336952D01*
X61573080Y-61482095D02*
X60988880Y-61482095D01*
X61072338Y-61433714D01*
X61127976Y-61385333D01*
X61155795Y-61336952D01*
X61573080Y-62111047D02*
X61573080Y-61820761D01*
X61573080Y-61965904D02*
X60988880Y-61965904D01*
X61072338Y-61917523D01*
X61127976Y-61869142D01*
X61155795Y-61820761D01*
D12*
X59201809Y-60914828D02*
X59201809Y-60958371D01*
X59226000Y-61001914D01*
X59250190Y-61023685D01*
X59298571Y-61045457D01*
X59395333Y-61067228D01*
X59516285Y-61067228D01*
X59613047Y-61045457D01*
X59661428Y-61023685D01*
X59685619Y-61001914D01*
X59709809Y-60958371D01*
X59709809Y-60914828D01*
X59685619Y-60871285D01*
X59661428Y-60849514D01*
X59613047Y-60827742D01*
X59516285Y-60805971D01*
X59395333Y-60805971D01*
X59298571Y-60827742D01*
X59250190Y-60849514D01*
X59226000Y-60871285D01*
X59201809Y-60914828D01*
X59661428Y-61263171D02*
X59685619Y-61284942D01*
X59709809Y-61263171D01*
X59685619Y-61241400D01*
X59661428Y-61263171D01*
X59709809Y-61263171D01*
X59709809Y-61720371D02*
X59709809Y-61459114D01*
X59709809Y-61589742D02*
X59201809Y-61589742D01*
X59274380Y-61546200D01*
X59322761Y-61502657D01*
X59346952Y-61459114D01*
X59371142Y-62112257D02*
X59709809Y-62112257D01*
X59371142Y-61916314D02*
X59637238Y-61916314D01*
X59685619Y-61938085D01*
X59709809Y-61981628D01*
X59709809Y-62046942D01*
X59685619Y-62090485D01*
X59661428Y-62112257D01*
D11*
X61517442Y-55993428D02*
X61545261Y-55969238D01*
X61573080Y-55896666D01*
X61573080Y-55848285D01*
X61545261Y-55775714D01*
X61489623Y-55727333D01*
X61433985Y-55703142D01*
X61322709Y-55678952D01*
X61239252Y-55678952D01*
X61127976Y-55703142D01*
X61072338Y-55727333D01*
X61016700Y-55775714D01*
X60988880Y-55848285D01*
X60988880Y-55896666D01*
X61016700Y-55969238D01*
X61044519Y-55993428D01*
X61573080Y-56477238D02*
X61573080Y-56186952D01*
X61573080Y-56332095D02*
X60988880Y-56332095D01*
X61072338Y-56283714D01*
X61127976Y-56235333D01*
X61155795Y-56186952D01*
X61044519Y-56670761D02*
X61016700Y-56694952D01*
X60988880Y-56743333D01*
X60988880Y-56864285D01*
X61016700Y-56912666D01*
X61044519Y-56936857D01*
X61100157Y-56961047D01*
X61155795Y-56961047D01*
X61239252Y-56936857D01*
X61573080Y-56646571D01*
X61573080Y-56961047D01*
D12*
X59201809Y-55764828D02*
X59201809Y-55808371D01*
X59226000Y-55851914D01*
X59250190Y-55873685D01*
X59298571Y-55895457D01*
X59395333Y-55917228D01*
X59516285Y-55917228D01*
X59613047Y-55895457D01*
X59661428Y-55873685D01*
X59685619Y-55851914D01*
X59709809Y-55808371D01*
X59709809Y-55764828D01*
X59685619Y-55721285D01*
X59661428Y-55699514D01*
X59613047Y-55677742D01*
X59516285Y-55655971D01*
X59395333Y-55655971D01*
X59298571Y-55677742D01*
X59250190Y-55699514D01*
X59226000Y-55721285D01*
X59201809Y-55764828D01*
X59661428Y-56113171D02*
X59685619Y-56134942D01*
X59709809Y-56113171D01*
X59685619Y-56091400D01*
X59661428Y-56113171D01*
X59709809Y-56113171D01*
X59709809Y-56570371D02*
X59709809Y-56309114D01*
X59709809Y-56439742D02*
X59201809Y-56439742D01*
X59274380Y-56396200D01*
X59322761Y-56352657D01*
X59346952Y-56309114D01*
X59371142Y-56962257D02*
X59709809Y-56962257D01*
X59371142Y-56766314D02*
X59637238Y-56766314D01*
X59685619Y-56788085D01*
X59709809Y-56831628D01*
X59709809Y-56896942D01*
X59685619Y-56940485D01*
X59661428Y-56962257D01*
D11*
X61517442Y-50843428D02*
X61545261Y-50819238D01*
X61573080Y-50746666D01*
X61573080Y-50698285D01*
X61545261Y-50625714D01*
X61489623Y-50577333D01*
X61433985Y-50553142D01*
X61322709Y-50528952D01*
X61239252Y-50528952D01*
X61127976Y-50553142D01*
X61072338Y-50577333D01*
X61016700Y-50625714D01*
X60988880Y-50698285D01*
X60988880Y-50746666D01*
X61016700Y-50819238D01*
X61044519Y-50843428D01*
X61573080Y-51327238D02*
X61573080Y-51036952D01*
X61573080Y-51182095D02*
X60988880Y-51182095D01*
X61072338Y-51133714D01*
X61127976Y-51085333D01*
X61155795Y-51036952D01*
X61183614Y-51762666D02*
X61573080Y-51762666D01*
X60961061Y-51641714D02*
X61378347Y-51520761D01*
X61378347Y-51835238D01*
D12*
X59201809Y-50614828D02*
X59201809Y-50658371D01*
X59226000Y-50701914D01*
X59250190Y-50723685D01*
X59298571Y-50745457D01*
X59395333Y-50767228D01*
X59516285Y-50767228D01*
X59613047Y-50745457D01*
X59661428Y-50723685D01*
X59685619Y-50701914D01*
X59709809Y-50658371D01*
X59709809Y-50614828D01*
X59685619Y-50571285D01*
X59661428Y-50549514D01*
X59613047Y-50527742D01*
X59516285Y-50505971D01*
X59395333Y-50505971D01*
X59298571Y-50527742D01*
X59250190Y-50549514D01*
X59226000Y-50571285D01*
X59201809Y-50614828D01*
X59661428Y-50963171D02*
X59685619Y-50984942D01*
X59709809Y-50963171D01*
X59685619Y-50941400D01*
X59661428Y-50963171D01*
X59709809Y-50963171D01*
X59709809Y-51420371D02*
X59709809Y-51159114D01*
X59709809Y-51289742D02*
X59201809Y-51289742D01*
X59274380Y-51246200D01*
X59322761Y-51202657D01*
X59346952Y-51159114D01*
X59371142Y-51812257D02*
X59709809Y-51812257D01*
X59371142Y-51616314D02*
X59637238Y-51616314D01*
X59685619Y-51638085D01*
X59709809Y-51681628D01*
X59709809Y-51746942D01*
X59685619Y-51790485D01*
X59661428Y-51812257D01*
D11*
X61507442Y-47393428D02*
X61535261Y-47369238D01*
X61563080Y-47296666D01*
X61563080Y-47248285D01*
X61535261Y-47175714D01*
X61479623Y-47127333D01*
X61423985Y-47103142D01*
X61312709Y-47078952D01*
X61229252Y-47078952D01*
X61117976Y-47103142D01*
X61062338Y-47127333D01*
X61006700Y-47175714D01*
X60978880Y-47248285D01*
X60978880Y-47296666D01*
X61006700Y-47369238D01*
X61034519Y-47393428D01*
X61563080Y-47877238D02*
X61563080Y-47586952D01*
X61563080Y-47732095D02*
X60978880Y-47732095D01*
X61062338Y-47683714D01*
X61117976Y-47635333D01*
X61145795Y-47586952D01*
X60978880Y-48336857D02*
X60978880Y-48094952D01*
X61257071Y-48070761D01*
X61229252Y-48094952D01*
X61201433Y-48143333D01*
X61201433Y-48264285D01*
X61229252Y-48312666D01*
X61257071Y-48336857D01*
X61312709Y-48361047D01*
X61451804Y-48361047D01*
X61507442Y-48336857D01*
X61535261Y-48312666D01*
X61563080Y-48264285D01*
X61563080Y-48143333D01*
X61535261Y-48094952D01*
X61507442Y-48070761D01*
D12*
X59191809Y-47164828D02*
X59191809Y-47208371D01*
X59216000Y-47251914D01*
X59240190Y-47273685D01*
X59288571Y-47295457D01*
X59385333Y-47317228D01*
X59506285Y-47317228D01*
X59603047Y-47295457D01*
X59651428Y-47273685D01*
X59675619Y-47251914D01*
X59699809Y-47208371D01*
X59699809Y-47164828D01*
X59675619Y-47121285D01*
X59651428Y-47099514D01*
X59603047Y-47077742D01*
X59506285Y-47055971D01*
X59385333Y-47055971D01*
X59288571Y-47077742D01*
X59240190Y-47099514D01*
X59216000Y-47121285D01*
X59191809Y-47164828D01*
X59651428Y-47513171D02*
X59675619Y-47534942D01*
X59699809Y-47513171D01*
X59675619Y-47491400D01*
X59651428Y-47513171D01*
X59699809Y-47513171D01*
X59699809Y-47970371D02*
X59699809Y-47709114D01*
X59699809Y-47839742D02*
X59191809Y-47839742D01*
X59264380Y-47796200D01*
X59312761Y-47752657D01*
X59336952Y-47709114D01*
X59361142Y-48362257D02*
X59699809Y-48362257D01*
X59361142Y-48166314D02*
X59627238Y-48166314D01*
X59675619Y-48188085D01*
X59699809Y-48231628D01*
X59699809Y-48296942D01*
X59675619Y-48340485D01*
X59651428Y-48362257D01*
D11*
X61517442Y-62853428D02*
X61545261Y-62829238D01*
X61573080Y-62756666D01*
X61573080Y-62708285D01*
X61545261Y-62635714D01*
X61489623Y-62587333D01*
X61433985Y-62563142D01*
X61322709Y-62538952D01*
X61239252Y-62538952D01*
X61127976Y-62563142D01*
X61072338Y-62587333D01*
X61016700Y-62635714D01*
X60988880Y-62708285D01*
X60988880Y-62756666D01*
X61016700Y-62829238D01*
X61044519Y-62853428D01*
X61573080Y-63337238D02*
X61573080Y-63046952D01*
X61573080Y-63192095D02*
X60988880Y-63192095D01*
X61072338Y-63143714D01*
X61127976Y-63095333D01*
X61155795Y-63046952D01*
X60988880Y-63772666D02*
X60988880Y-63675904D01*
X61016700Y-63627523D01*
X61044519Y-63603333D01*
X61127976Y-63554952D01*
X61239252Y-63530761D01*
X61461804Y-63530761D01*
X61517442Y-63554952D01*
X61545261Y-63579142D01*
X61573080Y-63627523D01*
X61573080Y-63724285D01*
X61545261Y-63772666D01*
X61517442Y-63796857D01*
X61461804Y-63821047D01*
X61322709Y-63821047D01*
X61267071Y-63796857D01*
X61239252Y-63772666D01*
X61211433Y-63724285D01*
X61211433Y-63627523D01*
X61239252Y-63579142D01*
X61267071Y-63554952D01*
X61322709Y-63530761D01*
D12*
X59201809Y-62624828D02*
X59201809Y-62668371D01*
X59226000Y-62711914D01*
X59250190Y-62733685D01*
X59298571Y-62755457D01*
X59395333Y-62777228D01*
X59516285Y-62777228D01*
X59613047Y-62755457D01*
X59661428Y-62733685D01*
X59685619Y-62711914D01*
X59709809Y-62668371D01*
X59709809Y-62624828D01*
X59685619Y-62581285D01*
X59661428Y-62559514D01*
X59613047Y-62537742D01*
X59516285Y-62515971D01*
X59395333Y-62515971D01*
X59298571Y-62537742D01*
X59250190Y-62559514D01*
X59226000Y-62581285D01*
X59201809Y-62624828D01*
X59661428Y-62973171D02*
X59685619Y-62994942D01*
X59709809Y-62973171D01*
X59685619Y-62951400D01*
X59661428Y-62973171D01*
X59709809Y-62973171D01*
X59709809Y-63430371D02*
X59709809Y-63169114D01*
X59709809Y-63299742D02*
X59201809Y-63299742D01*
X59274380Y-63256200D01*
X59322761Y-63212657D01*
X59346952Y-63169114D01*
X59371142Y-63822257D02*
X59709809Y-63822257D01*
X59371142Y-63626314D02*
X59637238Y-63626314D01*
X59685619Y-63648085D01*
X59709809Y-63691628D01*
X59709809Y-63756942D01*
X59685619Y-63800485D01*
X59661428Y-63822257D01*
D11*
X61517442Y-59423428D02*
X61545261Y-59399238D01*
X61573080Y-59326666D01*
X61573080Y-59278285D01*
X61545261Y-59205714D01*
X61489623Y-59157333D01*
X61433985Y-59133142D01*
X61322709Y-59108952D01*
X61239252Y-59108952D01*
X61127976Y-59133142D01*
X61072338Y-59157333D01*
X61016700Y-59205714D01*
X60988880Y-59278285D01*
X60988880Y-59326666D01*
X61016700Y-59399238D01*
X61044519Y-59423428D01*
X61573080Y-59907238D02*
X61573080Y-59616952D01*
X61573080Y-59762095D02*
X60988880Y-59762095D01*
X61072338Y-59713714D01*
X61127976Y-59665333D01*
X61155795Y-59616952D01*
X60988880Y-60076571D02*
X60988880Y-60415238D01*
X61573080Y-60197523D01*
D12*
X59201809Y-59194828D02*
X59201809Y-59238371D01*
X59226000Y-59281914D01*
X59250190Y-59303685D01*
X59298571Y-59325457D01*
X59395333Y-59347228D01*
X59516285Y-59347228D01*
X59613047Y-59325457D01*
X59661428Y-59303685D01*
X59685619Y-59281914D01*
X59709809Y-59238371D01*
X59709809Y-59194828D01*
X59685619Y-59151285D01*
X59661428Y-59129514D01*
X59613047Y-59107742D01*
X59516285Y-59085971D01*
X59395333Y-59085971D01*
X59298571Y-59107742D01*
X59250190Y-59129514D01*
X59226000Y-59151285D01*
X59201809Y-59194828D01*
X59661428Y-59543171D02*
X59685619Y-59564942D01*
X59709809Y-59543171D01*
X59685619Y-59521400D01*
X59661428Y-59543171D01*
X59709809Y-59543171D01*
X59709809Y-60000371D02*
X59709809Y-59739114D01*
X59709809Y-59869742D02*
X59201809Y-59869742D01*
X59274380Y-59826200D01*
X59322761Y-59782657D01*
X59346952Y-59739114D01*
X59371142Y-60392257D02*
X59709809Y-60392257D01*
X59371142Y-60196314D02*
X59637238Y-60196314D01*
X59685619Y-60218085D01*
X59709809Y-60261628D01*
X59709809Y-60326942D01*
X59685619Y-60370485D01*
X59661428Y-60392257D01*
D11*
X61517442Y-57703428D02*
X61545261Y-57679238D01*
X61573080Y-57606666D01*
X61573080Y-57558285D01*
X61545261Y-57485714D01*
X61489623Y-57437333D01*
X61433985Y-57413142D01*
X61322709Y-57388952D01*
X61239252Y-57388952D01*
X61127976Y-57413142D01*
X61072338Y-57437333D01*
X61016700Y-57485714D01*
X60988880Y-57558285D01*
X60988880Y-57606666D01*
X61016700Y-57679238D01*
X61044519Y-57703428D01*
X61573080Y-58187238D02*
X61573080Y-57896952D01*
X61573080Y-58042095D02*
X60988880Y-58042095D01*
X61072338Y-57993714D01*
X61127976Y-57945333D01*
X61155795Y-57896952D01*
X61239252Y-58477523D02*
X61211433Y-58429142D01*
X61183614Y-58404952D01*
X61127976Y-58380761D01*
X61100157Y-58380761D01*
X61044519Y-58404952D01*
X61016700Y-58429142D01*
X60988880Y-58477523D01*
X60988880Y-58574285D01*
X61016700Y-58622666D01*
X61044519Y-58646857D01*
X61100157Y-58671047D01*
X61127976Y-58671047D01*
X61183614Y-58646857D01*
X61211433Y-58622666D01*
X61239252Y-58574285D01*
X61239252Y-58477523D01*
X61267071Y-58429142D01*
X61294890Y-58404952D01*
X61350528Y-58380761D01*
X61461804Y-58380761D01*
X61517442Y-58404952D01*
X61545261Y-58429142D01*
X61573080Y-58477523D01*
X61573080Y-58574285D01*
X61545261Y-58622666D01*
X61517442Y-58646857D01*
X61461804Y-58671047D01*
X61350528Y-58671047D01*
X61294890Y-58646857D01*
X61267071Y-58622666D01*
X61239252Y-58574285D01*
D12*
X59201809Y-57474828D02*
X59201809Y-57518371D01*
X59226000Y-57561914D01*
X59250190Y-57583685D01*
X59298571Y-57605457D01*
X59395333Y-57627228D01*
X59516285Y-57627228D01*
X59613047Y-57605457D01*
X59661428Y-57583685D01*
X59685619Y-57561914D01*
X59709809Y-57518371D01*
X59709809Y-57474828D01*
X59685619Y-57431285D01*
X59661428Y-57409514D01*
X59613047Y-57387742D01*
X59516285Y-57365971D01*
X59395333Y-57365971D01*
X59298571Y-57387742D01*
X59250190Y-57409514D01*
X59226000Y-57431285D01*
X59201809Y-57474828D01*
X59661428Y-57823171D02*
X59685619Y-57844942D01*
X59709809Y-57823171D01*
X59685619Y-57801400D01*
X59661428Y-57823171D01*
X59709809Y-57823171D01*
X59709809Y-58280371D02*
X59709809Y-58019114D01*
X59709809Y-58149742D02*
X59201809Y-58149742D01*
X59274380Y-58106200D01*
X59322761Y-58062657D01*
X59346952Y-58019114D01*
X59371142Y-58672257D02*
X59709809Y-58672257D01*
X59371142Y-58476314D02*
X59637238Y-58476314D01*
X59685619Y-58498085D01*
X59709809Y-58541628D01*
X59709809Y-58606942D01*
X59685619Y-58650485D01*
X59661428Y-58672257D01*
D11*
X61517442Y-54273428D02*
X61545261Y-54249238D01*
X61573080Y-54176666D01*
X61573080Y-54128285D01*
X61545261Y-54055714D01*
X61489623Y-54007333D01*
X61433985Y-53983142D01*
X61322709Y-53958952D01*
X61239252Y-53958952D01*
X61127976Y-53983142D01*
X61072338Y-54007333D01*
X61016700Y-54055714D01*
X60988880Y-54128285D01*
X60988880Y-54176666D01*
X61016700Y-54249238D01*
X61044519Y-54273428D01*
X61573080Y-54757238D02*
X61573080Y-54466952D01*
X61573080Y-54612095D02*
X60988880Y-54612095D01*
X61072338Y-54563714D01*
X61127976Y-54515333D01*
X61155795Y-54466952D01*
X61573080Y-54999142D02*
X61573080Y-55095904D01*
X61545261Y-55144285D01*
X61517442Y-55168476D01*
X61433985Y-55216857D01*
X61322709Y-55241047D01*
X61100157Y-55241047D01*
X61044519Y-55216857D01*
X61016700Y-55192666D01*
X60988880Y-55144285D01*
X60988880Y-55047523D01*
X61016700Y-54999142D01*
X61044519Y-54974952D01*
X61100157Y-54950761D01*
X61239252Y-54950761D01*
X61294890Y-54974952D01*
X61322709Y-54999142D01*
X61350528Y-55047523D01*
X61350528Y-55144285D01*
X61322709Y-55192666D01*
X61294890Y-55216857D01*
X61239252Y-55241047D01*
D12*
X59201809Y-54044828D02*
X59201809Y-54088371D01*
X59226000Y-54131914D01*
X59250190Y-54153685D01*
X59298571Y-54175457D01*
X59395333Y-54197228D01*
X59516285Y-54197228D01*
X59613047Y-54175457D01*
X59661428Y-54153685D01*
X59685619Y-54131914D01*
X59709809Y-54088371D01*
X59709809Y-54044828D01*
X59685619Y-54001285D01*
X59661428Y-53979514D01*
X59613047Y-53957742D01*
X59516285Y-53935971D01*
X59395333Y-53935971D01*
X59298571Y-53957742D01*
X59250190Y-53979514D01*
X59226000Y-54001285D01*
X59201809Y-54044828D01*
X59661428Y-54393171D02*
X59685619Y-54414942D01*
X59709809Y-54393171D01*
X59685619Y-54371400D01*
X59661428Y-54393171D01*
X59709809Y-54393171D01*
X59709809Y-54850371D02*
X59709809Y-54589114D01*
X59709809Y-54719742D02*
X59201809Y-54719742D01*
X59274380Y-54676200D01*
X59322761Y-54632657D01*
X59346952Y-54589114D01*
X59371142Y-55242257D02*
X59709809Y-55242257D01*
X59371142Y-55046314D02*
X59637238Y-55046314D01*
X59685619Y-55068085D01*
X59709809Y-55111628D01*
X59709809Y-55176942D01*
X59685619Y-55220485D01*
X59661428Y-55242257D01*
D11*
X61517442Y-49123428D02*
X61545261Y-49099238D01*
X61573080Y-49026666D01*
X61573080Y-48978285D01*
X61545261Y-48905714D01*
X61489623Y-48857333D01*
X61433985Y-48833142D01*
X61322709Y-48808952D01*
X61239252Y-48808952D01*
X61127976Y-48833142D01*
X61072338Y-48857333D01*
X61016700Y-48905714D01*
X60988880Y-48978285D01*
X60988880Y-49026666D01*
X61016700Y-49099238D01*
X61044519Y-49123428D01*
X61044519Y-49316952D02*
X61016700Y-49341142D01*
X60988880Y-49389523D01*
X60988880Y-49510476D01*
X61016700Y-49558857D01*
X61044519Y-49583047D01*
X61100157Y-49607238D01*
X61155795Y-49607238D01*
X61239252Y-49583047D01*
X61573080Y-49292761D01*
X61573080Y-49607238D01*
X61573080Y-50091047D02*
X61573080Y-49800761D01*
X61573080Y-49945904D02*
X60988880Y-49945904D01*
X61072338Y-49897523D01*
X61127976Y-49849142D01*
X61155795Y-49800761D01*
D12*
X59201809Y-48894828D02*
X59201809Y-48938371D01*
X59226000Y-48981914D01*
X59250190Y-49003685D01*
X59298571Y-49025457D01*
X59395333Y-49047228D01*
X59516285Y-49047228D01*
X59613047Y-49025457D01*
X59661428Y-49003685D01*
X59685619Y-48981914D01*
X59709809Y-48938371D01*
X59709809Y-48894828D01*
X59685619Y-48851285D01*
X59661428Y-48829514D01*
X59613047Y-48807742D01*
X59516285Y-48785971D01*
X59395333Y-48785971D01*
X59298571Y-48807742D01*
X59250190Y-48829514D01*
X59226000Y-48851285D01*
X59201809Y-48894828D01*
X59661428Y-49243171D02*
X59685619Y-49264942D01*
X59709809Y-49243171D01*
X59685619Y-49221400D01*
X59661428Y-49243171D01*
X59709809Y-49243171D01*
X59709809Y-49700371D02*
X59709809Y-49439114D01*
X59709809Y-49569742D02*
X59201809Y-49569742D01*
X59274380Y-49526200D01*
X59322761Y-49482657D01*
X59346952Y-49439114D01*
X59371142Y-50092257D02*
X59709809Y-50092257D01*
X59371142Y-49896314D02*
X59637238Y-49896314D01*
X59685619Y-49918085D01*
X59709809Y-49961628D01*
X59709809Y-50026942D01*
X59685619Y-50070485D01*
X59661428Y-50092257D01*
D11*
X64376571Y-37868642D02*
X64400761Y-37896461D01*
X64473333Y-37924280D01*
X64521714Y-37924280D01*
X64594285Y-37896461D01*
X64642666Y-37840823D01*
X64666857Y-37785185D01*
X64691047Y-37673909D01*
X64691047Y-37590452D01*
X64666857Y-37479176D01*
X64642666Y-37423538D01*
X64594285Y-37367900D01*
X64521714Y-37340080D01*
X64473333Y-37340080D01*
X64400761Y-37367900D01*
X64376571Y-37395719D01*
X64183047Y-37395719D02*
X64158857Y-37367900D01*
X64110476Y-37340080D01*
X63989523Y-37340080D01*
X63941142Y-37367900D01*
X63916952Y-37395719D01*
X63892761Y-37451357D01*
X63892761Y-37506995D01*
X63916952Y-37590452D01*
X64207238Y-37924280D01*
X63892761Y-37924280D01*
X63457333Y-37534814D02*
X63457333Y-37924280D01*
X63578285Y-37312261D02*
X63699238Y-37729547D01*
X63384761Y-37729547D01*
D12*
X64675171Y-39250190D02*
X64653400Y-39226000D01*
X64609857Y-39201809D01*
X64501000Y-39201809D01*
X64457457Y-39226000D01*
X64435685Y-39250190D01*
X64413914Y-39298571D01*
X64413914Y-39346952D01*
X64435685Y-39419523D01*
X64696942Y-39709809D01*
X64413914Y-39709809D01*
X64239742Y-39250190D02*
X64217971Y-39226000D01*
X64174428Y-39201809D01*
X64065571Y-39201809D01*
X64022028Y-39226000D01*
X64000257Y-39250190D01*
X63978485Y-39298571D01*
X63978485Y-39346952D01*
X64000257Y-39419523D01*
X64261514Y-39709809D01*
X63978485Y-39709809D01*
X63782542Y-39371142D02*
X63782542Y-39879142D01*
X63782542Y-39395333D02*
X63739000Y-39371142D01*
X63651914Y-39371142D01*
X63608371Y-39395333D01*
X63586600Y-39419523D01*
X63564828Y-39467904D01*
X63564828Y-39613047D01*
X63586600Y-39661428D01*
X63608371Y-39685619D01*
X63651914Y-39709809D01*
X63739000Y-39709809D01*
X63782542Y-39685619D01*
D11*
X62696571Y-37848642D02*
X62720761Y-37876461D01*
X62793333Y-37904280D01*
X62841714Y-37904280D01*
X62914285Y-37876461D01*
X62962666Y-37820823D01*
X62986857Y-37765185D01*
X63011047Y-37653909D01*
X63011047Y-37570452D01*
X62986857Y-37459176D01*
X62962666Y-37403538D01*
X62914285Y-37347900D01*
X62841714Y-37320080D01*
X62793333Y-37320080D01*
X62720761Y-37347900D01*
X62696571Y-37375719D01*
X62503047Y-37375719D02*
X62478857Y-37347900D01*
X62430476Y-37320080D01*
X62309523Y-37320080D01*
X62261142Y-37347900D01*
X62236952Y-37375719D01*
X62212761Y-37431357D01*
X62212761Y-37486995D01*
X62236952Y-37570452D01*
X62527238Y-37904280D01*
X62212761Y-37904280D01*
X61753142Y-37320080D02*
X61995047Y-37320080D01*
X62019238Y-37598271D01*
X61995047Y-37570452D01*
X61946666Y-37542633D01*
X61825714Y-37542633D01*
X61777333Y-37570452D01*
X61753142Y-37598271D01*
X61728952Y-37653909D01*
X61728952Y-37793004D01*
X61753142Y-37848642D01*
X61777333Y-37876461D01*
X61825714Y-37904280D01*
X61946666Y-37904280D01*
X61995047Y-37876461D01*
X62019238Y-37848642D01*
D12*
X62895171Y-39250190D02*
X62873400Y-39226000D01*
X62829857Y-39201809D01*
X62721000Y-39201809D01*
X62677457Y-39226000D01*
X62655685Y-39250190D01*
X62633914Y-39298571D01*
X62633914Y-39346952D01*
X62655685Y-39419523D01*
X62916942Y-39709809D01*
X62633914Y-39709809D01*
X62459742Y-39250190D02*
X62437971Y-39226000D01*
X62394428Y-39201809D01*
X62285571Y-39201809D01*
X62242028Y-39226000D01*
X62220257Y-39250190D01*
X62198485Y-39298571D01*
X62198485Y-39346952D01*
X62220257Y-39419523D01*
X62481514Y-39709809D01*
X62198485Y-39709809D01*
X62002542Y-39371142D02*
X62002542Y-39879142D01*
X62002542Y-39395333D02*
X61959000Y-39371142D01*
X61871914Y-39371142D01*
X61828371Y-39395333D01*
X61806600Y-39419523D01*
X61784828Y-39467904D01*
X61784828Y-39613047D01*
X61806600Y-39661428D01*
X61828371Y-39685619D01*
X61871914Y-39709809D01*
X61959000Y-39709809D01*
X62002542Y-39685619D01*
D11*
X57366571Y-43219842D02*
X57390761Y-43247661D01*
X57463333Y-43275480D01*
X57511714Y-43275480D01*
X57584285Y-43247661D01*
X57632666Y-43192023D01*
X57656857Y-43136385D01*
X57681047Y-43025109D01*
X57681047Y-42941652D01*
X57656857Y-42830376D01*
X57632666Y-42774738D01*
X57584285Y-42719100D01*
X57511714Y-42691280D01*
X57463333Y-42691280D01*
X57390761Y-42719100D01*
X57366571Y-42746919D01*
X57173047Y-42746919D02*
X57148857Y-42719100D01*
X57100476Y-42691280D01*
X56979523Y-42691280D01*
X56931142Y-42719100D01*
X56906952Y-42746919D01*
X56882761Y-42802557D01*
X56882761Y-42858195D01*
X56906952Y-42941652D01*
X57197238Y-43275480D01*
X56882761Y-43275480D01*
X56447333Y-42691280D02*
X56544095Y-42691280D01*
X56592476Y-42719100D01*
X56616666Y-42746919D01*
X56665047Y-42830376D01*
X56689238Y-42941652D01*
X56689238Y-43164204D01*
X56665047Y-43219842D01*
X56640857Y-43247661D01*
X56592476Y-43275480D01*
X56495714Y-43275480D01*
X56447333Y-43247661D01*
X56423142Y-43219842D01*
X56398952Y-43164204D01*
X56398952Y-43025109D01*
X56423142Y-42969471D01*
X56447333Y-42941652D01*
X56495714Y-42913833D01*
X56592476Y-42913833D01*
X56640857Y-42941652D01*
X56665047Y-42969471D01*
X56689238Y-43025109D01*
D12*
X57595171Y-44561809D02*
X57551628Y-44561809D01*
X57508085Y-44586000D01*
X57486314Y-44610190D01*
X57464542Y-44658571D01*
X57442771Y-44755333D01*
X57442771Y-44876285D01*
X57464542Y-44973047D01*
X57486314Y-45021428D01*
X57508085Y-45045619D01*
X57551628Y-45069809D01*
X57595171Y-45069809D01*
X57638714Y-45045619D01*
X57660485Y-45021428D01*
X57682257Y-44973047D01*
X57704028Y-44876285D01*
X57704028Y-44755333D01*
X57682257Y-44658571D01*
X57660485Y-44610190D01*
X57638714Y-44586000D01*
X57595171Y-44561809D01*
X57246828Y-45021428D02*
X57225057Y-45045619D01*
X57246828Y-45069809D01*
X57268600Y-45045619D01*
X57246828Y-45021428D01*
X57246828Y-45069809D01*
X56789628Y-45069809D02*
X57050885Y-45069809D01*
X56920257Y-45069809D02*
X56920257Y-44561809D01*
X56963800Y-44634380D01*
X57007342Y-44682761D01*
X57050885Y-44706952D01*
X56397742Y-44731142D02*
X56397742Y-45069809D01*
X56593685Y-44731142D02*
X56593685Y-44997238D01*
X56571914Y-45045619D01*
X56528371Y-45069809D01*
X56463057Y-45069809D01*
X56419514Y-45045619D01*
X56397742Y-45021428D01*
D11*
X53086571Y-65509842D02*
X53110761Y-65537661D01*
X53183333Y-65565480D01*
X53231714Y-65565480D01*
X53304285Y-65537661D01*
X53352666Y-65482023D01*
X53376857Y-65426385D01*
X53401047Y-65315109D01*
X53401047Y-65231652D01*
X53376857Y-65120376D01*
X53352666Y-65064738D01*
X53304285Y-65009100D01*
X53231714Y-64981280D01*
X53183333Y-64981280D01*
X53110761Y-65009100D01*
X53086571Y-65036919D01*
X52893047Y-65036919D02*
X52868857Y-65009100D01*
X52820476Y-64981280D01*
X52699523Y-64981280D01*
X52651142Y-65009100D01*
X52626952Y-65036919D01*
X52602761Y-65092557D01*
X52602761Y-65148195D01*
X52626952Y-65231652D01*
X52917238Y-65565480D01*
X52602761Y-65565480D01*
X52312476Y-65231652D02*
X52360857Y-65203833D01*
X52385047Y-65176014D01*
X52409238Y-65120376D01*
X52409238Y-65092557D01*
X52385047Y-65036919D01*
X52360857Y-65009100D01*
X52312476Y-64981280D01*
X52215714Y-64981280D01*
X52167333Y-65009100D01*
X52143142Y-65036919D01*
X52118952Y-65092557D01*
X52118952Y-65120376D01*
X52143142Y-65176014D01*
X52167333Y-65203833D01*
X52215714Y-65231652D01*
X52312476Y-65231652D01*
X52360857Y-65259471D01*
X52385047Y-65287290D01*
X52409238Y-65342928D01*
X52409238Y-65454204D01*
X52385047Y-65509842D01*
X52360857Y-65537661D01*
X52312476Y-65565480D01*
X52215714Y-65565480D01*
X52167333Y-65537661D01*
X52143142Y-65509842D01*
X52118952Y-65454204D01*
X52118952Y-65342928D01*
X52143142Y-65287290D01*
X52167333Y-65259471D01*
X52215714Y-65231652D01*
D12*
X53315171Y-66851809D02*
X53271628Y-66851809D01*
X53228085Y-66876000D01*
X53206314Y-66900190D01*
X53184542Y-66948571D01*
X53162771Y-67045333D01*
X53162771Y-67166285D01*
X53184542Y-67263047D01*
X53206314Y-67311428D01*
X53228085Y-67335619D01*
X53271628Y-67359809D01*
X53315171Y-67359809D01*
X53358714Y-67335619D01*
X53380485Y-67311428D01*
X53402257Y-67263047D01*
X53424028Y-67166285D01*
X53424028Y-67045333D01*
X53402257Y-66948571D01*
X53380485Y-66900190D01*
X53358714Y-66876000D01*
X53315171Y-66851809D01*
X52966828Y-67311428D02*
X52945057Y-67335619D01*
X52966828Y-67359809D01*
X52988600Y-67335619D01*
X52966828Y-67311428D01*
X52966828Y-67359809D01*
X52509628Y-67359809D02*
X52770885Y-67359809D01*
X52640257Y-67359809D02*
X52640257Y-66851809D01*
X52683800Y-66924380D01*
X52727342Y-66972761D01*
X52770885Y-66996952D01*
X52117742Y-67021142D02*
X52117742Y-67359809D01*
X52313685Y-67021142D02*
X52313685Y-67287238D01*
X52291914Y-67335619D01*
X52248371Y-67359809D01*
X52183057Y-67359809D01*
X52139514Y-67335619D01*
X52117742Y-67311428D01*
D11*
X49846571Y-69167442D02*
X49870761Y-69195261D01*
X49943333Y-69223080D01*
X49991714Y-69223080D01*
X50064285Y-69195261D01*
X50112666Y-69139623D01*
X50136857Y-69083985D01*
X50161047Y-68972709D01*
X50161047Y-68889252D01*
X50136857Y-68777976D01*
X50112666Y-68722338D01*
X50064285Y-68666700D01*
X49991714Y-68638880D01*
X49943333Y-68638880D01*
X49870761Y-68666700D01*
X49846571Y-68694519D01*
X49653047Y-68694519D02*
X49628857Y-68666700D01*
X49580476Y-68638880D01*
X49459523Y-68638880D01*
X49411142Y-68666700D01*
X49386952Y-68694519D01*
X49362761Y-68750157D01*
X49362761Y-68805795D01*
X49386952Y-68889252D01*
X49677238Y-69223080D01*
X49362761Y-69223080D01*
X49120857Y-69223080D02*
X49024095Y-69223080D01*
X48975714Y-69195261D01*
X48951523Y-69167442D01*
X48903142Y-69083985D01*
X48878952Y-68972709D01*
X48878952Y-68750157D01*
X48903142Y-68694519D01*
X48927333Y-68666700D01*
X48975714Y-68638880D01*
X49072476Y-68638880D01*
X49120857Y-68666700D01*
X49145047Y-68694519D01*
X49169238Y-68750157D01*
X49169238Y-68889252D01*
X49145047Y-68944890D01*
X49120857Y-68972709D01*
X49072476Y-69000528D01*
X48975714Y-69000528D01*
X48927333Y-68972709D01*
X48903142Y-68944890D01*
X48878952Y-68889252D01*
D12*
X50075171Y-66851809D02*
X50031628Y-66851809D01*
X49988085Y-66876000D01*
X49966314Y-66900190D01*
X49944542Y-66948571D01*
X49922771Y-67045333D01*
X49922771Y-67166285D01*
X49944542Y-67263047D01*
X49966314Y-67311428D01*
X49988085Y-67335619D01*
X50031628Y-67359809D01*
X50075171Y-67359809D01*
X50118714Y-67335619D01*
X50140485Y-67311428D01*
X50162257Y-67263047D01*
X50184028Y-67166285D01*
X50184028Y-67045333D01*
X50162257Y-66948571D01*
X50140485Y-66900190D01*
X50118714Y-66876000D01*
X50075171Y-66851809D01*
X49726828Y-67311428D02*
X49705057Y-67335619D01*
X49726828Y-67359809D01*
X49748600Y-67335619D01*
X49726828Y-67311428D01*
X49726828Y-67359809D01*
X49269628Y-67359809D02*
X49530885Y-67359809D01*
X49400257Y-67359809D02*
X49400257Y-66851809D01*
X49443800Y-66924380D01*
X49487342Y-66972761D01*
X49530885Y-66996952D01*
X48877742Y-67021142D02*
X48877742Y-67359809D01*
X49073685Y-67021142D02*
X49073685Y-67287238D01*
X49051914Y-67335619D01*
X49008371Y-67359809D01*
X48943057Y-67359809D01*
X48899514Y-67335619D01*
X48877742Y-67311428D01*
D11*
X46406571Y-69177442D02*
X46430761Y-69205261D01*
X46503333Y-69233080D01*
X46551714Y-69233080D01*
X46624285Y-69205261D01*
X46672666Y-69149623D01*
X46696857Y-69093985D01*
X46721047Y-68982709D01*
X46721047Y-68899252D01*
X46696857Y-68787976D01*
X46672666Y-68732338D01*
X46624285Y-68676700D01*
X46551714Y-68648880D01*
X46503333Y-68648880D01*
X46430761Y-68676700D01*
X46406571Y-68704519D01*
X46237238Y-68648880D02*
X45922761Y-68648880D01*
X46092095Y-68871433D01*
X46019523Y-68871433D01*
X45971142Y-68899252D01*
X45946952Y-68927071D01*
X45922761Y-68982709D01*
X45922761Y-69121804D01*
X45946952Y-69177442D01*
X45971142Y-69205261D01*
X46019523Y-69233080D01*
X46164666Y-69233080D01*
X46213047Y-69205261D01*
X46237238Y-69177442D01*
X45438952Y-69233080D02*
X45729238Y-69233080D01*
X45584095Y-69233080D02*
X45584095Y-68648880D01*
X45632476Y-68732338D01*
X45680857Y-68787976D01*
X45729238Y-68815795D01*
D12*
X46635171Y-66861809D02*
X46591628Y-66861809D01*
X46548085Y-66886000D01*
X46526314Y-66910190D01*
X46504542Y-66958571D01*
X46482771Y-67055333D01*
X46482771Y-67176285D01*
X46504542Y-67273047D01*
X46526314Y-67321428D01*
X46548085Y-67345619D01*
X46591628Y-67369809D01*
X46635171Y-67369809D01*
X46678714Y-67345619D01*
X46700485Y-67321428D01*
X46722257Y-67273047D01*
X46744028Y-67176285D01*
X46744028Y-67055333D01*
X46722257Y-66958571D01*
X46700485Y-66910190D01*
X46678714Y-66886000D01*
X46635171Y-66861809D01*
X46286828Y-67321428D02*
X46265057Y-67345619D01*
X46286828Y-67369809D01*
X46308600Y-67345619D01*
X46286828Y-67321428D01*
X46286828Y-67369809D01*
X45829628Y-67369809D02*
X46090885Y-67369809D01*
X45960257Y-67369809D02*
X45960257Y-66861809D01*
X46003800Y-66934380D01*
X46047342Y-66982761D01*
X46090885Y-67006952D01*
X45437742Y-67031142D02*
X45437742Y-67369809D01*
X45633685Y-67031142D02*
X45633685Y-67297238D01*
X45611914Y-67345619D01*
X45568371Y-67369809D01*
X45503057Y-67369809D01*
X45459514Y-67345619D01*
X45437742Y-67321428D01*
D11*
X42559842Y-51913428D02*
X42587661Y-51889238D01*
X42615480Y-51816666D01*
X42615480Y-51768285D01*
X42587661Y-51695714D01*
X42532023Y-51647333D01*
X42476385Y-51623142D01*
X42365109Y-51598952D01*
X42281652Y-51598952D01*
X42170376Y-51623142D01*
X42114738Y-51647333D01*
X42059100Y-51695714D01*
X42031280Y-51768285D01*
X42031280Y-51816666D01*
X42059100Y-51889238D01*
X42086919Y-51913428D01*
X42031280Y-52082761D02*
X42031280Y-52397238D01*
X42253833Y-52227904D01*
X42253833Y-52300476D01*
X42281652Y-52348857D01*
X42309471Y-52373047D01*
X42365109Y-52397238D01*
X42504204Y-52397238D01*
X42559842Y-52373047D01*
X42587661Y-52348857D01*
X42615480Y-52300476D01*
X42615480Y-52155333D01*
X42587661Y-52106952D01*
X42559842Y-52082761D01*
X42086919Y-52590761D02*
X42059100Y-52614952D01*
X42031280Y-52663333D01*
X42031280Y-52784285D01*
X42059100Y-52832666D01*
X42086919Y-52856857D01*
X42142557Y-52881047D01*
X42198195Y-52881047D01*
X42281652Y-52856857D01*
X42615480Y-52566571D01*
X42615480Y-52881047D01*
D12*
X43901809Y-51684828D02*
X43901809Y-51728371D01*
X43926000Y-51771914D01*
X43950190Y-51793685D01*
X43998571Y-51815457D01*
X44095333Y-51837228D01*
X44216285Y-51837228D01*
X44313047Y-51815457D01*
X44361428Y-51793685D01*
X44385619Y-51771914D01*
X44409809Y-51728371D01*
X44409809Y-51684828D01*
X44385619Y-51641285D01*
X44361428Y-51619514D01*
X44313047Y-51597742D01*
X44216285Y-51575971D01*
X44095333Y-51575971D01*
X43998571Y-51597742D01*
X43950190Y-51619514D01*
X43926000Y-51641285D01*
X43901809Y-51684828D01*
X44361428Y-52033171D02*
X44385619Y-52054942D01*
X44409809Y-52033171D01*
X44385619Y-52011400D01*
X44361428Y-52033171D01*
X44409809Y-52033171D01*
X44409809Y-52490371D02*
X44409809Y-52229114D01*
X44409809Y-52359742D02*
X43901809Y-52359742D01*
X43974380Y-52316200D01*
X44022761Y-52272657D01*
X44046952Y-52229114D01*
X44071142Y-52882257D02*
X44409809Y-52882257D01*
X44071142Y-52686314D02*
X44337238Y-52686314D01*
X44385619Y-52708085D01*
X44409809Y-52751628D01*
X44409809Y-52816942D01*
X44385619Y-52860485D01*
X44361428Y-52882257D01*
D11*
X42549842Y-49413428D02*
X42577661Y-49389238D01*
X42605480Y-49316666D01*
X42605480Y-49268285D01*
X42577661Y-49195714D01*
X42522023Y-49147333D01*
X42466385Y-49123142D01*
X42355109Y-49098952D01*
X42271652Y-49098952D01*
X42160376Y-49123142D01*
X42104738Y-49147333D01*
X42049100Y-49195714D01*
X42021280Y-49268285D01*
X42021280Y-49316666D01*
X42049100Y-49389238D01*
X42076919Y-49413428D01*
X42021280Y-49582761D02*
X42021280Y-49897238D01*
X42243833Y-49727904D01*
X42243833Y-49800476D01*
X42271652Y-49848857D01*
X42299471Y-49873047D01*
X42355109Y-49897238D01*
X42494204Y-49897238D01*
X42549842Y-49873047D01*
X42577661Y-49848857D01*
X42605480Y-49800476D01*
X42605480Y-49655333D01*
X42577661Y-49606952D01*
X42549842Y-49582761D01*
X42021280Y-50066571D02*
X42021280Y-50381047D01*
X42243833Y-50211714D01*
X42243833Y-50284285D01*
X42271652Y-50332666D01*
X42299471Y-50356857D01*
X42355109Y-50381047D01*
X42494204Y-50381047D01*
X42549842Y-50356857D01*
X42577661Y-50332666D01*
X42605480Y-50284285D01*
X42605480Y-50139142D01*
X42577661Y-50090761D01*
X42549842Y-50066571D01*
D12*
X43891809Y-49184828D02*
X43891809Y-49228371D01*
X43916000Y-49271914D01*
X43940190Y-49293685D01*
X43988571Y-49315457D01*
X44085333Y-49337228D01*
X44206285Y-49337228D01*
X44303047Y-49315457D01*
X44351428Y-49293685D01*
X44375619Y-49271914D01*
X44399809Y-49228371D01*
X44399809Y-49184828D01*
X44375619Y-49141285D01*
X44351428Y-49119514D01*
X44303047Y-49097742D01*
X44206285Y-49075971D01*
X44085333Y-49075971D01*
X43988571Y-49097742D01*
X43940190Y-49119514D01*
X43916000Y-49141285D01*
X43891809Y-49184828D01*
X44351428Y-49533171D02*
X44375619Y-49554942D01*
X44399809Y-49533171D01*
X44375619Y-49511400D01*
X44351428Y-49533171D01*
X44399809Y-49533171D01*
X44399809Y-49990371D02*
X44399809Y-49729114D01*
X44399809Y-49859742D02*
X43891809Y-49859742D01*
X43964380Y-49816200D01*
X44012761Y-49772657D01*
X44036952Y-49729114D01*
X44061142Y-50382257D02*
X44399809Y-50382257D01*
X44061142Y-50186314D02*
X44327238Y-50186314D01*
X44375619Y-50208085D01*
X44399809Y-50251628D01*
X44399809Y-50316942D01*
X44375619Y-50360485D01*
X44351428Y-50382257D01*
D11*
X42559842Y-62423428D02*
X42587661Y-62399238D01*
X42615480Y-62326666D01*
X42615480Y-62278285D01*
X42587661Y-62205714D01*
X42532023Y-62157333D01*
X42476385Y-62133142D01*
X42365109Y-62108952D01*
X42281652Y-62108952D01*
X42170376Y-62133142D01*
X42114738Y-62157333D01*
X42059100Y-62205714D01*
X42031280Y-62278285D01*
X42031280Y-62326666D01*
X42059100Y-62399238D01*
X42086919Y-62423428D01*
X42031280Y-62592761D02*
X42031280Y-62907238D01*
X42253833Y-62737904D01*
X42253833Y-62810476D01*
X42281652Y-62858857D01*
X42309471Y-62883047D01*
X42365109Y-62907238D01*
X42504204Y-62907238D01*
X42559842Y-62883047D01*
X42587661Y-62858857D01*
X42615480Y-62810476D01*
X42615480Y-62665333D01*
X42587661Y-62616952D01*
X42559842Y-62592761D01*
X42226014Y-63342666D02*
X42615480Y-63342666D01*
X42003461Y-63221714D02*
X42420747Y-63100761D01*
X42420747Y-63415238D01*
D12*
X43901809Y-62194828D02*
X43901809Y-62238371D01*
X43926000Y-62281914D01*
X43950190Y-62303685D01*
X43998571Y-62325457D01*
X44095333Y-62347228D01*
X44216285Y-62347228D01*
X44313047Y-62325457D01*
X44361428Y-62303685D01*
X44385619Y-62281914D01*
X44409809Y-62238371D01*
X44409809Y-62194828D01*
X44385619Y-62151285D01*
X44361428Y-62129514D01*
X44313047Y-62107742D01*
X44216285Y-62085971D01*
X44095333Y-62085971D01*
X43998571Y-62107742D01*
X43950190Y-62129514D01*
X43926000Y-62151285D01*
X43901809Y-62194828D01*
X44361428Y-62543171D02*
X44385619Y-62564942D01*
X44409809Y-62543171D01*
X44385619Y-62521400D01*
X44361428Y-62543171D01*
X44409809Y-62543171D01*
X44409809Y-63000371D02*
X44409809Y-62739114D01*
X44409809Y-62869742D02*
X43901809Y-62869742D01*
X43974380Y-62826200D01*
X44022761Y-62782657D01*
X44046952Y-62739114D01*
X44071142Y-63392257D02*
X44409809Y-63392257D01*
X44071142Y-63196314D02*
X44337238Y-63196314D01*
X44385619Y-63218085D01*
X44409809Y-63261628D01*
X44409809Y-63326942D01*
X44385619Y-63370485D01*
X44361428Y-63392257D01*
D11*
X42559842Y-58923428D02*
X42587661Y-58899238D01*
X42615480Y-58826666D01*
X42615480Y-58778285D01*
X42587661Y-58705714D01*
X42532023Y-58657333D01*
X42476385Y-58633142D01*
X42365109Y-58608952D01*
X42281652Y-58608952D01*
X42170376Y-58633142D01*
X42114738Y-58657333D01*
X42059100Y-58705714D01*
X42031280Y-58778285D01*
X42031280Y-58826666D01*
X42059100Y-58899238D01*
X42086919Y-58923428D01*
X42031280Y-59092761D02*
X42031280Y-59407238D01*
X42253833Y-59237904D01*
X42253833Y-59310476D01*
X42281652Y-59358857D01*
X42309471Y-59383047D01*
X42365109Y-59407238D01*
X42504204Y-59407238D01*
X42559842Y-59383047D01*
X42587661Y-59358857D01*
X42615480Y-59310476D01*
X42615480Y-59165333D01*
X42587661Y-59116952D01*
X42559842Y-59092761D01*
X42031280Y-59866857D02*
X42031280Y-59624952D01*
X42309471Y-59600761D01*
X42281652Y-59624952D01*
X42253833Y-59673333D01*
X42253833Y-59794285D01*
X42281652Y-59842666D01*
X42309471Y-59866857D01*
X42365109Y-59891047D01*
X42504204Y-59891047D01*
X42559842Y-59866857D01*
X42587661Y-59842666D01*
X42615480Y-59794285D01*
X42615480Y-59673333D01*
X42587661Y-59624952D01*
X42559842Y-59600761D01*
D12*
X43901809Y-58694828D02*
X43901809Y-58738371D01*
X43926000Y-58781914D01*
X43950190Y-58803685D01*
X43998571Y-58825457D01*
X44095333Y-58847228D01*
X44216285Y-58847228D01*
X44313047Y-58825457D01*
X44361428Y-58803685D01*
X44385619Y-58781914D01*
X44409809Y-58738371D01*
X44409809Y-58694828D01*
X44385619Y-58651285D01*
X44361428Y-58629514D01*
X44313047Y-58607742D01*
X44216285Y-58585971D01*
X44095333Y-58585971D01*
X43998571Y-58607742D01*
X43950190Y-58629514D01*
X43926000Y-58651285D01*
X43901809Y-58694828D01*
X44361428Y-59043171D02*
X44385619Y-59064942D01*
X44409809Y-59043171D01*
X44385619Y-59021400D01*
X44361428Y-59043171D01*
X44409809Y-59043171D01*
X44409809Y-59500371D02*
X44409809Y-59239114D01*
X44409809Y-59369742D02*
X43901809Y-59369742D01*
X43974380Y-59326200D01*
X44022761Y-59282657D01*
X44046952Y-59239114D01*
X44071142Y-59892257D02*
X44409809Y-59892257D01*
X44071142Y-59696314D02*
X44337238Y-59696314D01*
X44385619Y-59718085D01*
X44409809Y-59761628D01*
X44409809Y-59826942D01*
X44385619Y-59870485D01*
X44361428Y-59892257D01*
D11*
X42559842Y-55423428D02*
X42587661Y-55399238D01*
X42615480Y-55326666D01*
X42615480Y-55278285D01*
X42587661Y-55205714D01*
X42532023Y-55157333D01*
X42476385Y-55133142D01*
X42365109Y-55108952D01*
X42281652Y-55108952D01*
X42170376Y-55133142D01*
X42114738Y-55157333D01*
X42059100Y-55205714D01*
X42031280Y-55278285D01*
X42031280Y-55326666D01*
X42059100Y-55399238D01*
X42086919Y-55423428D01*
X42031280Y-55592761D02*
X42031280Y-55907238D01*
X42253833Y-55737904D01*
X42253833Y-55810476D01*
X42281652Y-55858857D01*
X42309471Y-55883047D01*
X42365109Y-55907238D01*
X42504204Y-55907238D01*
X42559842Y-55883047D01*
X42587661Y-55858857D01*
X42615480Y-55810476D01*
X42615480Y-55665333D01*
X42587661Y-55616952D01*
X42559842Y-55592761D01*
X42031280Y-56342666D02*
X42031280Y-56245904D01*
X42059100Y-56197523D01*
X42086919Y-56173333D01*
X42170376Y-56124952D01*
X42281652Y-56100761D01*
X42504204Y-56100761D01*
X42559842Y-56124952D01*
X42587661Y-56149142D01*
X42615480Y-56197523D01*
X42615480Y-56294285D01*
X42587661Y-56342666D01*
X42559842Y-56366857D01*
X42504204Y-56391047D01*
X42365109Y-56391047D01*
X42309471Y-56366857D01*
X42281652Y-56342666D01*
X42253833Y-56294285D01*
X42253833Y-56197523D01*
X42281652Y-56149142D01*
X42309471Y-56124952D01*
X42365109Y-56100761D01*
D12*
X43901809Y-55194828D02*
X43901809Y-55238371D01*
X43926000Y-55281914D01*
X43950190Y-55303685D01*
X43998571Y-55325457D01*
X44095333Y-55347228D01*
X44216285Y-55347228D01*
X44313047Y-55325457D01*
X44361428Y-55303685D01*
X44385619Y-55281914D01*
X44409809Y-55238371D01*
X44409809Y-55194828D01*
X44385619Y-55151285D01*
X44361428Y-55129514D01*
X44313047Y-55107742D01*
X44216285Y-55085971D01*
X44095333Y-55085971D01*
X43998571Y-55107742D01*
X43950190Y-55129514D01*
X43926000Y-55151285D01*
X43901809Y-55194828D01*
X44361428Y-55543171D02*
X44385619Y-55564942D01*
X44409809Y-55543171D01*
X44385619Y-55521400D01*
X44361428Y-55543171D01*
X44409809Y-55543171D01*
X44409809Y-56000371D02*
X44409809Y-55739114D01*
X44409809Y-55869742D02*
X43901809Y-55869742D01*
X43974380Y-55826200D01*
X44022761Y-55782657D01*
X44046952Y-55739114D01*
X44071142Y-56392257D02*
X44409809Y-56392257D01*
X44071142Y-56196314D02*
X44337238Y-56196314D01*
X44385619Y-56218085D01*
X44409809Y-56261628D01*
X44409809Y-56326942D01*
X44385619Y-56370485D01*
X44361428Y-56392257D01*
D11*
X24296624Y-35352685D02*
X24320814Y-35380504D01*
X24393386Y-35408323D01*
X24441767Y-35408323D01*
X24514338Y-35380504D01*
X24562719Y-35324866D01*
X24586910Y-35269228D01*
X24611100Y-35157952D01*
X24611100Y-35074495D01*
X24586910Y-34963219D01*
X24562719Y-34907581D01*
X24514338Y-34851943D01*
X24441767Y-34824123D01*
X24393386Y-34824123D01*
X24320814Y-34851943D01*
X24296624Y-34879762D01*
X24127291Y-34824123D02*
X23812814Y-34824123D01*
X23982148Y-35046676D01*
X23909576Y-35046676D01*
X23861195Y-35074495D01*
X23837005Y-35102314D01*
X23812814Y-35157952D01*
X23812814Y-35297047D01*
X23837005Y-35352685D01*
X23861195Y-35380504D01*
X23909576Y-35408323D01*
X24054719Y-35408323D01*
X24103100Y-35380504D01*
X24127291Y-35352685D01*
X23643481Y-34824123D02*
X23304814Y-34824123D01*
X23522529Y-35408323D01*
D12*
X24525224Y-36694652D02*
X24481681Y-36694652D01*
X24438138Y-36718843D01*
X24416367Y-36743033D01*
X24394595Y-36791414D01*
X24372824Y-36888176D01*
X24372824Y-37009128D01*
X24394595Y-37105890D01*
X24416367Y-37154271D01*
X24438138Y-37178462D01*
X24481681Y-37202652D01*
X24525224Y-37202652D01*
X24568767Y-37178462D01*
X24590538Y-37154271D01*
X24612310Y-37105890D01*
X24634081Y-37009128D01*
X24634081Y-36888176D01*
X24612310Y-36791414D01*
X24590538Y-36743033D01*
X24568767Y-36718843D01*
X24525224Y-36694652D01*
X24176881Y-37154271D02*
X24155110Y-37178462D01*
X24176881Y-37202652D01*
X24198653Y-37178462D01*
X24176881Y-37154271D01*
X24176881Y-37202652D01*
X23719681Y-37202652D02*
X23980938Y-37202652D01*
X23850310Y-37202652D02*
X23850310Y-36694652D01*
X23893853Y-36767223D01*
X23937395Y-36815604D01*
X23980938Y-36839795D01*
X23327795Y-36863985D02*
X23327795Y-37202652D01*
X23523738Y-36863985D02*
X23523738Y-37130081D01*
X23501967Y-37178462D01*
X23458424Y-37202652D01*
X23393110Y-37202652D01*
X23349567Y-37178462D01*
X23327795Y-37154271D01*
D11*
X24326624Y-33640285D02*
X24350814Y-33668104D01*
X24423386Y-33695923D01*
X24471767Y-33695923D01*
X24544338Y-33668104D01*
X24592719Y-33612466D01*
X24616910Y-33556828D01*
X24641100Y-33445552D01*
X24641100Y-33362095D01*
X24616910Y-33250819D01*
X24592719Y-33195181D01*
X24544338Y-33139543D01*
X24471767Y-33111723D01*
X24423386Y-33111723D01*
X24350814Y-33139543D01*
X24326624Y-33167362D01*
X24157291Y-33111723D02*
X23842814Y-33111723D01*
X24012148Y-33334276D01*
X23939576Y-33334276D01*
X23891195Y-33362095D01*
X23867005Y-33389914D01*
X23842814Y-33445552D01*
X23842814Y-33584647D01*
X23867005Y-33640285D01*
X23891195Y-33668104D01*
X23939576Y-33695923D01*
X24084719Y-33695923D01*
X24133100Y-33668104D01*
X24157291Y-33640285D01*
X23552529Y-33362095D02*
X23600910Y-33334276D01*
X23625100Y-33306457D01*
X23649291Y-33250819D01*
X23649291Y-33223000D01*
X23625100Y-33167362D01*
X23600910Y-33139543D01*
X23552529Y-33111723D01*
X23455767Y-33111723D01*
X23407386Y-33139543D01*
X23383195Y-33167362D01*
X23359005Y-33223000D01*
X23359005Y-33250819D01*
X23383195Y-33306457D01*
X23407386Y-33334276D01*
X23455767Y-33362095D01*
X23552529Y-33362095D01*
X23600910Y-33389914D01*
X23625100Y-33417733D01*
X23649291Y-33473371D01*
X23649291Y-33584647D01*
X23625100Y-33640285D01*
X23600910Y-33668104D01*
X23552529Y-33695923D01*
X23455767Y-33695923D01*
X23407386Y-33668104D01*
X23383195Y-33640285D01*
X23359005Y-33584647D01*
X23359005Y-33473371D01*
X23383195Y-33417733D01*
X23407386Y-33389914D01*
X23455767Y-33362095D01*
D12*
X24555224Y-31324652D02*
X24511681Y-31324652D01*
X24468138Y-31348843D01*
X24446367Y-31373033D01*
X24424595Y-31421414D01*
X24402824Y-31518176D01*
X24402824Y-31639128D01*
X24424595Y-31735890D01*
X24446367Y-31784271D01*
X24468138Y-31808462D01*
X24511681Y-31832652D01*
X24555224Y-31832652D01*
X24598767Y-31808462D01*
X24620538Y-31784271D01*
X24642310Y-31735890D01*
X24664081Y-31639128D01*
X24664081Y-31518176D01*
X24642310Y-31421414D01*
X24620538Y-31373033D01*
X24598767Y-31348843D01*
X24555224Y-31324652D01*
X24206881Y-31784271D02*
X24185110Y-31808462D01*
X24206881Y-31832652D01*
X24228653Y-31808462D01*
X24206881Y-31784271D01*
X24206881Y-31832652D01*
X23749681Y-31832652D02*
X24010938Y-31832652D01*
X23880310Y-31832652D02*
X23880310Y-31324652D01*
X23923853Y-31397223D01*
X23967395Y-31445604D01*
X24010938Y-31469795D01*
X23357795Y-31493985D02*
X23357795Y-31832652D01*
X23553738Y-31493985D02*
X23553738Y-31760081D01*
X23531967Y-31808462D01*
X23488424Y-31832652D01*
X23423110Y-31832652D01*
X23379567Y-31808462D01*
X23357795Y-31784271D01*
D11*
X29516624Y-33660285D02*
X29540814Y-33688104D01*
X29613386Y-33715923D01*
X29661767Y-33715923D01*
X29734338Y-33688104D01*
X29782719Y-33632466D01*
X29806910Y-33576828D01*
X29831100Y-33465552D01*
X29831100Y-33382095D01*
X29806910Y-33270819D01*
X29782719Y-33215181D01*
X29734338Y-33159543D01*
X29661767Y-33131723D01*
X29613386Y-33131723D01*
X29540814Y-33159543D01*
X29516624Y-33187362D01*
X29081195Y-33326457D02*
X29081195Y-33715923D01*
X29202148Y-33103904D02*
X29323100Y-33521190D01*
X29008624Y-33521190D01*
X28549005Y-33715923D02*
X28839291Y-33715923D01*
X28694148Y-33715923D02*
X28694148Y-33131723D01*
X28742529Y-33215181D01*
X28790910Y-33270819D01*
X28839291Y-33298638D01*
D12*
X29745224Y-31344652D02*
X29701681Y-31344652D01*
X29658138Y-31368843D01*
X29636367Y-31393033D01*
X29614595Y-31441414D01*
X29592824Y-31538176D01*
X29592824Y-31659128D01*
X29614595Y-31755890D01*
X29636367Y-31804271D01*
X29658138Y-31828462D01*
X29701681Y-31852652D01*
X29745224Y-31852652D01*
X29788767Y-31828462D01*
X29810538Y-31804271D01*
X29832310Y-31755890D01*
X29854081Y-31659128D01*
X29854081Y-31538176D01*
X29832310Y-31441414D01*
X29810538Y-31393033D01*
X29788767Y-31368843D01*
X29745224Y-31344652D01*
X29396881Y-31804271D02*
X29375110Y-31828462D01*
X29396881Y-31852652D01*
X29418653Y-31828462D01*
X29396881Y-31804271D01*
X29396881Y-31852652D01*
X28939681Y-31852652D02*
X29200938Y-31852652D01*
X29070310Y-31852652D02*
X29070310Y-31344652D01*
X29113853Y-31417223D01*
X29157395Y-31465604D01*
X29200938Y-31489795D01*
X28547795Y-31513985D02*
X28547795Y-31852652D01*
X28743738Y-31513985D02*
X28743738Y-31780081D01*
X28721967Y-31828462D01*
X28678424Y-31852652D01*
X28613110Y-31852652D01*
X28569567Y-31828462D01*
X28547795Y-31804271D01*
D11*
X38516571Y-34317480D02*
X38685904Y-34039290D01*
X38806857Y-34317480D02*
X38806857Y-33733280D01*
X38613333Y-33733280D01*
X38564952Y-33761100D01*
X38540761Y-33788919D01*
X38516571Y-33844557D01*
X38516571Y-33928014D01*
X38540761Y-33983652D01*
X38564952Y-34011471D01*
X38613333Y-34039290D01*
X38806857Y-34039290D01*
X38347238Y-33733280D02*
X38032761Y-33733280D01*
X38202095Y-33955833D01*
X38129523Y-33955833D01*
X38081142Y-33983652D01*
X38056952Y-34011471D01*
X38032761Y-34067109D01*
X38032761Y-34206204D01*
X38056952Y-34261842D01*
X38081142Y-34289661D01*
X38129523Y-34317480D01*
X38274666Y-34317480D01*
X38323047Y-34289661D01*
X38347238Y-34261842D01*
X37863428Y-33733280D02*
X37524761Y-33733280D01*
X37742476Y-34317480D01*
D12*
X38832257Y-35652190D02*
X38810485Y-35628000D01*
X38766942Y-35603809D01*
X38658085Y-35603809D01*
X38614542Y-35628000D01*
X38592771Y-35652190D01*
X38571000Y-35700571D01*
X38571000Y-35748952D01*
X38592771Y-35821523D01*
X38854028Y-36111809D01*
X38571000Y-36111809D01*
X38375057Y-36063428D02*
X38353285Y-36087619D01*
X38375057Y-36111809D01*
X38396828Y-36087619D01*
X38375057Y-36063428D01*
X38375057Y-36111809D01*
X38179114Y-35652190D02*
X38157342Y-35628000D01*
X38113800Y-35603809D01*
X38004942Y-35603809D01*
X37961400Y-35628000D01*
X37939628Y-35652190D01*
X37917857Y-35700571D01*
X37917857Y-35748952D01*
X37939628Y-35821523D01*
X38200885Y-36111809D01*
X37917857Y-36111809D01*
X37721914Y-36111809D02*
X37721914Y-35603809D01*
X37678371Y-35918285D02*
X37547742Y-36111809D01*
X37547742Y-35773142D02*
X37721914Y-35966666D01*
D11*
X41213080Y-46643428D02*
X40934890Y-46474095D01*
X41213080Y-46353142D02*
X40628880Y-46353142D01*
X40628880Y-46546666D01*
X40656700Y-46595047D01*
X40684519Y-46619238D01*
X40740157Y-46643428D01*
X40823614Y-46643428D01*
X40879252Y-46619238D01*
X40907071Y-46595047D01*
X40934890Y-46546666D01*
X40934890Y-46353142D01*
X40628880Y-46812761D02*
X40628880Y-47127238D01*
X40851433Y-46957904D01*
X40851433Y-47030476D01*
X40879252Y-47078857D01*
X40907071Y-47103047D01*
X40962709Y-47127238D01*
X41101804Y-47127238D01*
X41157442Y-47103047D01*
X41185261Y-47078857D01*
X41213080Y-47030476D01*
X41213080Y-46885333D01*
X41185261Y-46836952D01*
X41157442Y-46812761D01*
X41213080Y-47369142D02*
X41213080Y-47465904D01*
X41185261Y-47514285D01*
X41157442Y-47538476D01*
X41073985Y-47586857D01*
X40962709Y-47611047D01*
X40740157Y-47611047D01*
X40684519Y-47586857D01*
X40656700Y-47562666D01*
X40628880Y-47514285D01*
X40628880Y-47417523D01*
X40656700Y-47369142D01*
X40684519Y-47344952D01*
X40740157Y-47320761D01*
X40879252Y-47320761D01*
X40934890Y-47344952D01*
X40962709Y-47369142D01*
X40990528Y-47417523D01*
X40990528Y-47514285D01*
X40962709Y-47562666D01*
X40934890Y-47586857D01*
X40879252Y-47611047D01*
D12*
X38890190Y-46327742D02*
X38866000Y-46349514D01*
X38841809Y-46393057D01*
X38841809Y-46501914D01*
X38866000Y-46545457D01*
X38890190Y-46567228D01*
X38938571Y-46589000D01*
X38986952Y-46589000D01*
X39059523Y-46567228D01*
X39349809Y-46305971D01*
X39349809Y-46589000D01*
X39301428Y-46784942D02*
X39325619Y-46806714D01*
X39349809Y-46784942D01*
X39325619Y-46763171D01*
X39301428Y-46784942D01*
X39349809Y-46784942D01*
X38890190Y-46980885D02*
X38866000Y-47002657D01*
X38841809Y-47046200D01*
X38841809Y-47155057D01*
X38866000Y-47198600D01*
X38890190Y-47220371D01*
X38938571Y-47242142D01*
X38986952Y-47242142D01*
X39059523Y-47220371D01*
X39349809Y-46959114D01*
X39349809Y-47242142D01*
X39349809Y-47438085D02*
X38841809Y-47438085D01*
X39156285Y-47481628D02*
X39349809Y-47612257D01*
X39011142Y-47612257D02*
X39204666Y-47438085D01*
D11*
X41223080Y-48363428D02*
X40944890Y-48194095D01*
X41223080Y-48073142D02*
X40638880Y-48073142D01*
X40638880Y-48266666D01*
X40666700Y-48315047D01*
X40694519Y-48339238D01*
X40750157Y-48363428D01*
X40833614Y-48363428D01*
X40889252Y-48339238D01*
X40917071Y-48315047D01*
X40944890Y-48266666D01*
X40944890Y-48073142D01*
X40833614Y-48798857D02*
X41223080Y-48798857D01*
X40611061Y-48677904D02*
X41028347Y-48556952D01*
X41028347Y-48871428D01*
X40638880Y-49161714D02*
X40638880Y-49210095D01*
X40666700Y-49258476D01*
X40694519Y-49282666D01*
X40750157Y-49306857D01*
X40861433Y-49331047D01*
X41000528Y-49331047D01*
X41111804Y-49306857D01*
X41167442Y-49282666D01*
X41195261Y-49258476D01*
X41223080Y-49210095D01*
X41223080Y-49161714D01*
X41195261Y-49113333D01*
X41167442Y-49089142D01*
X41111804Y-49064952D01*
X41000528Y-49040761D01*
X40861433Y-49040761D01*
X40750157Y-49064952D01*
X40694519Y-49089142D01*
X40666700Y-49113333D01*
X40638880Y-49161714D01*
D12*
X38900190Y-48047742D02*
X38876000Y-48069514D01*
X38851809Y-48113057D01*
X38851809Y-48221914D01*
X38876000Y-48265457D01*
X38900190Y-48287228D01*
X38948571Y-48309000D01*
X38996952Y-48309000D01*
X39069523Y-48287228D01*
X39359809Y-48025971D01*
X39359809Y-48309000D01*
X39311428Y-48504942D02*
X39335619Y-48526714D01*
X39359809Y-48504942D01*
X39335619Y-48483171D01*
X39311428Y-48504942D01*
X39359809Y-48504942D01*
X38900190Y-48700885D02*
X38876000Y-48722657D01*
X38851809Y-48766200D01*
X38851809Y-48875057D01*
X38876000Y-48918600D01*
X38900190Y-48940371D01*
X38948571Y-48962142D01*
X38996952Y-48962142D01*
X39069523Y-48940371D01*
X39359809Y-48679114D01*
X39359809Y-48962142D01*
X39359809Y-49158085D02*
X38851809Y-49158085D01*
X39166285Y-49201628D02*
X39359809Y-49332257D01*
X39021142Y-49332257D02*
X39214666Y-49158085D01*
D11*
X52786571Y-32175480D02*
X52955904Y-31897290D01*
X53076857Y-32175480D02*
X53076857Y-31591280D01*
X52883333Y-31591280D01*
X52834952Y-31619100D01*
X52810761Y-31646919D01*
X52786571Y-31702557D01*
X52786571Y-31786014D01*
X52810761Y-31841652D01*
X52834952Y-31869471D01*
X52883333Y-31897290D01*
X53076857Y-31897290D01*
X52351142Y-31786014D02*
X52351142Y-32175480D01*
X52472095Y-31563461D02*
X52593047Y-31980747D01*
X52278571Y-31980747D01*
X51843142Y-31591280D02*
X52085047Y-31591280D01*
X52109238Y-31869471D01*
X52085047Y-31841652D01*
X52036666Y-31813833D01*
X51915714Y-31813833D01*
X51867333Y-31841652D01*
X51843142Y-31869471D01*
X51818952Y-31925109D01*
X51818952Y-32064204D01*
X51843142Y-32119842D01*
X51867333Y-32147661D01*
X51915714Y-32175480D01*
X52036666Y-32175480D01*
X52085047Y-32147661D01*
X52109238Y-32119842D01*
D12*
X52884542Y-33631142D02*
X52884542Y-33969809D01*
X52993400Y-33437619D02*
X53102257Y-33800476D01*
X52819228Y-33800476D01*
X52645057Y-33921428D02*
X52623285Y-33945619D01*
X52645057Y-33969809D01*
X52666828Y-33945619D01*
X52645057Y-33921428D01*
X52645057Y-33969809D01*
X52470885Y-33461809D02*
X52166085Y-33461809D01*
X52362028Y-33969809D01*
X51991914Y-33969809D02*
X51991914Y-33461809D01*
X51948371Y-33776285D02*
X51817742Y-33969809D01*
X51817742Y-33631142D02*
X51991914Y-33824666D01*
M02*
