G04 #@! TF.GenerationSoftware,KiCad,Pcbnew,5.0.1+dfsg1-3*
G04 #@! TF.CreationDate,2018-12-17T22:42:35+02:00*
G04 #@! TF.ProjectId,isl_board,69736C5F626F6172642E6B696361645F,rev?*
G04 #@! TF.SameCoordinates,Original*
G04 #@! TF.FileFunction,Soldermask,Top*
G04 #@! TF.FilePolarity,Negative*
%FSLAX46Y46*%
G04 Gerber Fmt 4.6, Leading zero omitted, Abs format (unit mm)*
G04 Created by KiCad (PCBNEW 5.0.1+dfsg1-3) date 2018-12-17T22:42:35 EET*
%MOMM*%
%LPD*%
G01*
G04 APERTURE LIST*
%ADD10C,2.301600*%
%ADD11R,1.498600X0.990600*%
%ADD12R,0.990600X1.498600*%
%ADD13C,1.625600*%
%ADD14R,1.244600X0.736600*%
%ADD15R,0.736600X1.244600*%
%ADD16R,1.801600X1.801600*%
%ADD17O,1.801600X1.801600*%
%ADD18R,0.457200X1.778000*%
%ADD19C,2.351600*%
%ADD20R,1.101600X0.401600*%
%ADD21R,0.401600X1.101600*%
%ADD22R,2.601600X2.601600*%
%ADD23R,2.501600X1.301600*%
%ADD24R,2.501600X3.401600*%
%ADD25R,1.661600X0.751600*%
%ADD26C,1.001600*%
%ADD27R,0.401600X1.701600*%
%ADD28R,1.701600X0.401600*%
%ADD29R,8.101600X8.101600*%
%ADD30C,1.101600*%
G04 APERTURE END LIST*
D10*
G04 #@! TO.C,J4*
X58250000Y-30500000D03*
X60155000Y-35580000D03*
X62060000Y-30500000D03*
X63965000Y-35580000D03*
X65870000Y-30500000D03*
X67775000Y-35580000D03*
X69680000Y-30500000D03*
X71585000Y-35580000D03*
X73490000Y-30500000D03*
X75395000Y-35580000D03*
X77300000Y-30500000D03*
X79205000Y-35580000D03*
X92540000Y-30500000D03*
X83015000Y-35580000D03*
X81110000Y-30500000D03*
X86825000Y-35580000D03*
X84920000Y-30500000D03*
X90635000Y-35580000D03*
X88730000Y-30500000D03*
X94445000Y-35580000D03*
X56345000Y-35580000D03*
G04 #@! TD*
D11*
G04 #@! TO.C,C50*
X86930000Y-52107500D03*
X86930000Y-54012500D03*
G04 #@! TD*
G04 #@! TO.C,C49*
X81150000Y-53982500D03*
X81150000Y-52077500D03*
G04 #@! TD*
G04 #@! TO.C,C45*
X81090000Y-62847500D03*
X81090000Y-64752500D03*
G04 #@! TD*
D12*
G04 #@! TO.C,C46*
X84512500Y-69320000D03*
X82607500Y-69320000D03*
G04 #@! TD*
D13*
G04 #@! TO.C,J3*
X91390000Y-41710000D03*
X91390000Y-44250000D03*
X91390000Y-46790000D03*
X94015000Y-46790000D03*
X94015000Y-41710000D03*
G04 #@! TD*
D14*
G04 #@! TO.C,R38*
X58960000Y-74702000D03*
X58960000Y-73178000D03*
G04 #@! TD*
D15*
G04 #@! TO.C,R25*
X26208000Y-61000000D03*
X27732000Y-61000000D03*
G04 #@! TD*
G04 #@! TO.C,R21*
X29238000Y-72120000D03*
X30762000Y-72120000D03*
G04 #@! TD*
G04 #@! TO.C,R23*
X29238000Y-66990000D03*
X30762000Y-66990000D03*
G04 #@! TD*
G04 #@! TO.C,R34*
X29208000Y-58360000D03*
X30732000Y-58360000D03*
G04 #@! TD*
G04 #@! TO.C,R27*
X29208000Y-56650000D03*
X30732000Y-56650000D03*
G04 #@! TD*
G04 #@! TO.C,R31*
X29238000Y-70410000D03*
X30762000Y-70410000D03*
G04 #@! TD*
G04 #@! TO.C,R22*
X29238000Y-68700000D03*
X30762000Y-68700000D03*
G04 #@! TD*
G04 #@! TO.C,R32*
X26208000Y-66130000D03*
X27732000Y-66130000D03*
G04 #@! TD*
G04 #@! TO.C,R33*
X26208000Y-62710000D03*
X27732000Y-62710000D03*
G04 #@! TD*
G04 #@! TO.C,R24*
X26208000Y-64420000D03*
X27732000Y-64420000D03*
G04 #@! TD*
G04 #@! TO.C,R28*
X29208000Y-54940000D03*
X30732000Y-54940000D03*
G04 #@! TD*
G04 #@! TO.C,R26*
X29208000Y-60070000D03*
X30732000Y-60070000D03*
G04 #@! TD*
D16*
G04 #@! TO.C,J2*
X85400000Y-79050000D03*
D17*
X85400000Y-76510000D03*
X87940000Y-79050000D03*
X87940000Y-76510000D03*
X90480000Y-79050000D03*
X90480000Y-76510000D03*
X93020000Y-79050000D03*
X93020000Y-76510000D03*
G04 #@! TD*
D14*
G04 #@! TO.C,R48*
X20630000Y-38444000D03*
X20630000Y-36920000D03*
G04 #@! TD*
D17*
G04 #@! TO.C,J5*
X41250000Y-35040000D03*
X41250000Y-32500000D03*
X43790000Y-35040000D03*
X43790000Y-32500000D03*
X46330000Y-35040000D03*
X46330000Y-32500000D03*
X48870000Y-35040000D03*
D16*
X48870000Y-32500000D03*
G04 #@! TD*
D18*
G04 #@! TO.C,U7*
X83589999Y-64259400D03*
X84240000Y-64259400D03*
X84890001Y-64259400D03*
X85540000Y-64259400D03*
X86189999Y-64259400D03*
X86840000Y-64259400D03*
X87489999Y-64259400D03*
X87490001Y-58620600D03*
X86840000Y-58620600D03*
X86190001Y-58620600D03*
X85540000Y-58620600D03*
X84890001Y-58620600D03*
X84240000Y-58620600D03*
X83590001Y-58620600D03*
G04 #@! TD*
D14*
G04 #@! TO.C,C42*
X79140000Y-63328000D03*
X79140000Y-64852000D03*
G04 #@! TD*
D15*
G04 #@! TO.C,C44*
X87432000Y-67130000D03*
X85908000Y-67130000D03*
G04 #@! TD*
G04 #@! TO.C,C43*
X83048000Y-67130000D03*
X84572000Y-67130000D03*
G04 #@! TD*
D14*
G04 #@! TO.C,C51*
X27090000Y-40522000D03*
X27090000Y-38998000D03*
G04 #@! TD*
D15*
G04 #@! TO.C,C48*
X88102000Y-55800000D03*
X86578000Y-55800000D03*
G04 #@! TD*
G04 #@! TO.C,C47*
X81442000Y-55770000D03*
X79918000Y-55770000D03*
G04 #@! TD*
D14*
G04 #@! TO.C,R46*
X83130000Y-54008000D03*
X83130000Y-55532000D03*
G04 #@! TD*
G04 #@! TO.C,R47*
X84920000Y-55532000D03*
X84920000Y-54008000D03*
G04 #@! TD*
D19*
G04 #@! TO.C,U6*
X28090053Y-34782843D03*
D20*
X25975053Y-35782843D03*
X25975053Y-35282843D03*
X25975053Y-34782843D03*
X25975053Y-34282843D03*
X25975053Y-33782843D03*
D21*
X27090053Y-32667843D03*
X27590053Y-32667843D03*
X28090053Y-32667843D03*
X28590053Y-32667843D03*
X29090053Y-32667843D03*
D20*
X30205053Y-33782843D03*
X30205053Y-34282843D03*
X30205053Y-34782843D03*
X30205053Y-35282843D03*
X30205053Y-35782843D03*
D21*
X29090053Y-36897843D03*
X28590053Y-36897843D03*
X28090053Y-36897843D03*
X27590053Y-36897843D03*
X27090053Y-36897843D03*
D22*
X28090053Y-34782843D03*
G04 #@! TD*
D14*
G04 #@! TO.C,C1*
X72120000Y-64752000D03*
X72120000Y-63228000D03*
G04 #@! TD*
G04 #@! TO.C,C2*
X72090000Y-60732000D03*
X72090000Y-59208000D03*
G04 #@! TD*
G04 #@! TO.C,C3*
X35930000Y-40568000D03*
X35930000Y-42092000D03*
G04 #@! TD*
D15*
G04 #@! TO.C,C4*
X64312000Y-66960000D03*
X62788000Y-66960000D03*
G04 #@! TD*
G04 #@! TO.C,C5*
X64382000Y-73990000D03*
X62858000Y-73990000D03*
G04 #@! TD*
D14*
G04 #@! TO.C,C6*
X64290000Y-64542000D03*
X64290000Y-63018000D03*
G04 #@! TD*
G04 #@! TO.C,C7*
X64300000Y-60352000D03*
X64300000Y-58828000D03*
G04 #@! TD*
G04 #@! TO.C,C8*
X43640000Y-40548000D03*
X43640000Y-42072000D03*
G04 #@! TD*
D15*
G04 #@! TO.C,C13*
X64048000Y-54110000D03*
X65572000Y-54110000D03*
G04 #@! TD*
G04 #@! TO.C,C20*
X68322000Y-50690000D03*
X66798000Y-50690000D03*
G04 #@! TD*
G04 #@! TO.C,C22*
X65572000Y-52400000D03*
X64048000Y-52400000D03*
G04 #@! TD*
G04 #@! TO.C,C23*
X65572000Y-48980000D03*
X64048000Y-48980000D03*
G04 #@! TD*
D14*
G04 #@! TO.C,C27*
X50080000Y-38588000D03*
X50080000Y-40112000D03*
G04 #@! TD*
G04 #@! TO.C,C30*
X55440000Y-38598000D03*
X55440000Y-40122000D03*
G04 #@! TD*
D16*
G04 #@! TO.C,J1*
X20630000Y-42600000D03*
D17*
X23170000Y-42600000D03*
X20630000Y-45140000D03*
X23170000Y-45140000D03*
X20630000Y-47680000D03*
X23170000Y-47680000D03*
X20630000Y-50220000D03*
X23170000Y-50220000D03*
X20630000Y-52760000D03*
X23170000Y-52760000D03*
X20630000Y-55300000D03*
X23170000Y-55300000D03*
X20630000Y-57840000D03*
X23170000Y-57840000D03*
X20630000Y-60380000D03*
X23170000Y-60380000D03*
X20630000Y-62920000D03*
X23170000Y-62920000D03*
X20630000Y-65460000D03*
X23170000Y-65460000D03*
X20630000Y-68000000D03*
X23170000Y-68000000D03*
X20630000Y-70540000D03*
X23170000Y-70540000D03*
X20630000Y-73080000D03*
X23170000Y-73080000D03*
X20630000Y-75620000D03*
X23170000Y-75620000D03*
X20630000Y-78160000D03*
X23170000Y-78160000D03*
X20630000Y-80700000D03*
X23170000Y-80700000D03*
X20630000Y-83240000D03*
X23170000Y-83240000D03*
X20630000Y-85780000D03*
X23170000Y-85780000D03*
X20630000Y-88320000D03*
X23170000Y-88320000D03*
X20630000Y-90860000D03*
X23170000Y-90860000D03*
G04 #@! TD*
D15*
G04 #@! TO.C,R1*
X65572000Y-50690000D03*
X64048000Y-50690000D03*
G04 #@! TD*
G04 #@! TO.C,R2*
X29138000Y-92850000D03*
X30662000Y-92850000D03*
G04 #@! TD*
G04 #@! TO.C,R3*
X29138000Y-91140000D03*
X30662000Y-91140000D03*
G04 #@! TD*
G04 #@! TO.C,R4*
X26198000Y-90240000D03*
X27722000Y-90240000D03*
G04 #@! TD*
G04 #@! TO.C,R5*
X26198000Y-88530000D03*
X27722000Y-88530000D03*
G04 #@! TD*
G04 #@! TO.C,R6*
X26198000Y-86820000D03*
X27722000Y-86820000D03*
G04 #@! TD*
G04 #@! TO.C,R7*
X26198000Y-85110000D03*
X27722000Y-85110000D03*
G04 #@! TD*
D14*
G04 #@! TO.C,R8*
X51810000Y-38588000D03*
X51810000Y-40112000D03*
G04 #@! TD*
D15*
G04 #@! TO.C,R9*
X52222000Y-41640000D03*
X50698000Y-41640000D03*
G04 #@! TD*
G04 #@! TO.C,R11*
X29178000Y-84130000D03*
X30702000Y-84130000D03*
G04 #@! TD*
G04 #@! TO.C,R12*
X29178000Y-82410000D03*
X30702000Y-82410000D03*
G04 #@! TD*
D14*
G04 #@! TO.C,R13*
X53720000Y-38598000D03*
X53720000Y-40122000D03*
G04 #@! TD*
D15*
G04 #@! TO.C,R14*
X53448000Y-41640000D03*
X54972000Y-41640000D03*
G04 #@! TD*
G04 #@! TO.C,R15*
X29178000Y-80690000D03*
X30702000Y-80690000D03*
G04 #@! TD*
G04 #@! TO.C,R16*
X29178000Y-78980000D03*
X30702000Y-78980000D03*
G04 #@! TD*
G04 #@! TO.C,R17*
X26208000Y-78100000D03*
X27732000Y-78100000D03*
G04 #@! TD*
G04 #@! TO.C,R18*
X26208000Y-76390000D03*
X27732000Y-76390000D03*
G04 #@! TD*
G04 #@! TO.C,R19*
X26208000Y-74680000D03*
X27732000Y-74680000D03*
G04 #@! TD*
G04 #@! TO.C,R20*
X26208000Y-72970000D03*
X27732000Y-72970000D03*
G04 #@! TD*
G04 #@! TO.C,R29*
X26168000Y-52370000D03*
X27692000Y-52370000D03*
G04 #@! TD*
G04 #@! TO.C,R30*
X26168000Y-48950000D03*
X27692000Y-48950000D03*
G04 #@! TD*
G04 #@! TO.C,R35*
X26168000Y-54080000D03*
X27692000Y-54080000D03*
G04 #@! TD*
G04 #@! TO.C,R36*
X26168000Y-50660000D03*
X27692000Y-50660000D03*
G04 #@! TD*
D14*
G04 #@! TO.C,R41*
X67040000Y-54098000D03*
X67040000Y-55622000D03*
G04 #@! TD*
G04 #@! TO.C,R42*
X69860000Y-52398000D03*
X69860000Y-53922000D03*
G04 #@! TD*
G04 #@! TO.C,R43*
X73360000Y-50682000D03*
X73360000Y-49158000D03*
G04 #@! TD*
G04 #@! TO.C,R44*
X67250000Y-48972000D03*
X67250000Y-47448000D03*
G04 #@! TD*
D23*
G04 #@! TO.C,U1*
X66780000Y-70210000D03*
X66780000Y-67910000D03*
X66780000Y-72510000D03*
D24*
X73980000Y-70210000D03*
G04 #@! TD*
D25*
G04 #@! TO.C,U2*
X69920000Y-64770000D03*
X69920000Y-63820000D03*
X69920000Y-62870000D03*
X66620000Y-62870000D03*
X66620000Y-64770000D03*
G04 #@! TD*
G04 #@! TO.C,U3*
X69920000Y-60530000D03*
X69920000Y-59580000D03*
X69920000Y-58630000D03*
X66620000Y-58630000D03*
X66620000Y-60530000D03*
G04 #@! TD*
G04 #@! TO.C,U4*
X38130000Y-40560000D03*
X38130000Y-41510000D03*
X38130000Y-42460000D03*
X41430000Y-42460000D03*
X41430000Y-40560000D03*
G04 #@! TD*
D26*
G04 #@! TO.C,Y1*
X63750000Y-41910000D03*
X62650000Y-41910000D03*
G04 #@! TD*
D27*
G04 #@! TO.C,U5*
X50580000Y-67290000D03*
X50080000Y-67290000D03*
X49580000Y-67290000D03*
X49080000Y-67290000D03*
X48580000Y-67290000D03*
X48080000Y-67290000D03*
X47580000Y-67290000D03*
X47080000Y-67290000D03*
X46580000Y-67290000D03*
X46080000Y-67290000D03*
X45580000Y-67290000D03*
D28*
X43530000Y-50240000D03*
X43530000Y-49740000D03*
X43530000Y-49240000D03*
X43530000Y-48740000D03*
X43530000Y-48240000D03*
X43530000Y-47740000D03*
X43530000Y-47240000D03*
X43530000Y-46740000D03*
D27*
X57080000Y-44690000D03*
X57580000Y-44690000D03*
X58080000Y-44690000D03*
D28*
X60130000Y-46740000D03*
X60130000Y-47240000D03*
X60130000Y-65240000D03*
X60130000Y-64740000D03*
X60130000Y-64240000D03*
X60130000Y-63740000D03*
X60130000Y-63240000D03*
X60130000Y-62740000D03*
X60130000Y-62240000D03*
X60130000Y-61740000D03*
X60130000Y-61240000D03*
X60130000Y-60740000D03*
X60130000Y-60240000D03*
X60130000Y-59740000D03*
X60130000Y-59240000D03*
X60130000Y-58740000D03*
X60130000Y-58240000D03*
X60130000Y-57740000D03*
X60130000Y-57240000D03*
X60130000Y-56740000D03*
X60130000Y-56240000D03*
X60130000Y-55740000D03*
X60130000Y-55240000D03*
X60130000Y-54740000D03*
X60130000Y-54240000D03*
X60130000Y-53740000D03*
X60130000Y-53240000D03*
X60130000Y-52740000D03*
X60130000Y-52240000D03*
X60130000Y-51740000D03*
X60130000Y-51240000D03*
X60130000Y-50740000D03*
X60130000Y-50240000D03*
X60130000Y-49740000D03*
X60130000Y-49240000D03*
X60130000Y-48740000D03*
X60130000Y-48240000D03*
X60130000Y-47740000D03*
D27*
X56580000Y-44690000D03*
X56080000Y-44690000D03*
X55580000Y-44690000D03*
X55080000Y-44690000D03*
X54580000Y-44690000D03*
X54080000Y-44690000D03*
X53580000Y-44690000D03*
X53080000Y-44690000D03*
X52580000Y-44690000D03*
X52080000Y-44690000D03*
X51580000Y-44690000D03*
X51080000Y-44690000D03*
X50580000Y-44690000D03*
X50080000Y-44690000D03*
X49580000Y-44690000D03*
X49080000Y-44690000D03*
X48580000Y-44690000D03*
X48080000Y-44690000D03*
X47580000Y-44690000D03*
X47080000Y-44690000D03*
X46580000Y-44690000D03*
X46080000Y-44690000D03*
X45580000Y-44690000D03*
D28*
X43530000Y-50740000D03*
X43530000Y-51240000D03*
X43530000Y-51740000D03*
X43530000Y-52240000D03*
X43530000Y-52740000D03*
X43530000Y-53240000D03*
X43530000Y-53740000D03*
X43530000Y-54240000D03*
X43530000Y-54740000D03*
X43530000Y-55240000D03*
X43530000Y-55740000D03*
X43530000Y-56240000D03*
X43530000Y-56740000D03*
X43530000Y-57240000D03*
X43530000Y-57740000D03*
X43530000Y-58240000D03*
X43530000Y-58740000D03*
X43530000Y-59240000D03*
X43530000Y-59740000D03*
X43530000Y-60240000D03*
X43530000Y-60740000D03*
X43530000Y-61240000D03*
X43530000Y-61740000D03*
X43530000Y-62240000D03*
X43530000Y-62740000D03*
X43530000Y-63240000D03*
X43530000Y-63740000D03*
X43530000Y-64240000D03*
X43530000Y-64740000D03*
X43530000Y-65240000D03*
D27*
X51080000Y-67290000D03*
X51580000Y-67290000D03*
X52080000Y-67290000D03*
X52580000Y-67290000D03*
X53080000Y-67290000D03*
X53580000Y-67290000D03*
X54080000Y-67290000D03*
X54580000Y-67290000D03*
X55080000Y-67290000D03*
X55580000Y-67290000D03*
X56080000Y-67290000D03*
X56580000Y-67290000D03*
X57080000Y-67290000D03*
X57580000Y-67290000D03*
X58080000Y-67290000D03*
D29*
X51830000Y-55990000D03*
D30*
X55058340Y-59215800D03*
X53758340Y-59215800D03*
X52458340Y-59215800D03*
X51158340Y-59215800D03*
X49858340Y-59215800D03*
X48558340Y-59215800D03*
X55058340Y-57915800D03*
X53758340Y-57915800D03*
X52458340Y-57915800D03*
X51158340Y-57915800D03*
X49858340Y-57915800D03*
X48558340Y-57915800D03*
X55058340Y-56615800D03*
X53758340Y-56615800D03*
X52458340Y-56615800D03*
X51158340Y-56615800D03*
X49858340Y-56615800D03*
X48558340Y-56615800D03*
X55058340Y-55315800D03*
X53758340Y-55315800D03*
X52458340Y-55315800D03*
X51158340Y-55315800D03*
X49858340Y-55315800D03*
X48558340Y-55315800D03*
X55058340Y-54015800D03*
X53758340Y-54015800D03*
X52458340Y-54015800D03*
X51158340Y-54015800D03*
X49858340Y-54015800D03*
X48558340Y-54015800D03*
X55058340Y-52715800D03*
X53758340Y-52715800D03*
X52458340Y-52715800D03*
X51158340Y-52715800D03*
X49858340Y-52715800D03*
X48558340Y-52715800D03*
G04 #@! TD*
M02*
