M48
INCH,TZ
T1C0.013
T2C0.014
T3C0.020
T4C0.039
T5C0.051
T6C0.067
T7C0.069
%
G90
G05
T1
X10547Y-32677
X11382Y-16732
X11394Y-15941
X11425Y-17425
X11945Y-32886
X11961Y-15988
X11976Y-33685
X11988Y-34394
X12008Y-16717
X12063Y-17413
X12071Y-18020
X12512Y-15571
X12657Y-22154
X12732Y-23811
X12748Y-24476
X12752Y-18031
X12760Y-21531
X12764Y-20382
X12768Y-19063
X12768Y-20992
X12776Y-19744
X12917Y-30913
X12953Y-31583
X12961Y-32898
X12976Y-29898
X12976Y-33701
X13008Y-34386
X13339Y-25634
X13374Y-24476
X13441Y-19087
X13449Y-19744
X13449Y-21528
X13480Y-20386
X13500Y-20996
X13551Y-22138
X13575Y-22760
X13720Y-31571
X13752Y-30929
X13783Y-29906
X13791Y-29197
X14110Y-25638
X14224Y-22752
X14236Y-23815
X14378Y-21453
X14425Y-16929
X14583Y-29193
X14634Y-28496
X14992Y-22020
X15000Y-24055
X15071Y-17898
X15224Y-26287
X15260Y-27913
X15335Y-18248
X15343Y-28512
X15630Y-26669
X15654Y-16709
X15697Y-22583
X15709Y-19138
X15787Y-18264
X15854Y-25654
X15858Y-31559
X16016Y-31035
X16031Y-27094
X16075Y-17988
X16291Y-25961
X16508Y-23240
X16520Y-18457
X16528Y-24606
X16547Y-21843
X16567Y-19248
X16602Y-19909
X16618Y-20394
X16697Y-18075
X16728Y-26409
X16969Y-17346
X17193Y-26811
X17264Y-30650
X17331Y-28520
X17756Y-16508
X17760Y-16118
X17957Y-27039
X18079Y-24693
X18122Y-23327
X18138Y-19598
X18146Y-21949
X18154Y-20555
X18350Y-25764
X18654Y-18366
X18878Y-16303
X19012Y-27736
X19413Y-27154
X19583Y-25768
X19598Y-18346
X19626Y-16343
X19772Y-31094
X20087Y-32587
X20209Y-28567
X20236Y-29181
X20260Y-29728
X20299Y-18339
X20425Y-27169
X20646Y-25752
X21260Y-31886
X21303Y-18366
X21370Y-27402
X21488Y-27862
X21512Y-28413
X21559Y-28854
X21587Y-29764
X21594Y-29295
X21705Y-31756
X22071Y-18382
X22110Y-31886
X22169Y-29854
X22197Y-30366
X22421Y-16972
X22654Y-25543
X22661Y-24878
X22673Y-24185
X22685Y-20827
X22685Y-22173
X22689Y-23524
X22693Y-22843
X22697Y-21504
X22701Y-19469
X22705Y-20134
X22717Y-18791
X23323Y-26500
X23362Y-32465
X23579Y-15622
X23598Y-17094
X23823Y-26512
X24161Y-30764
X24173Y-17079
X24173Y-17988
X24201Y-29217
X24209Y-23402
X24209Y-24736
X24236Y-22752
X24256Y-19205
X24283Y-21559
X24291Y-18732
X24366Y-19909
X24370Y-29744
X24433Y-31543
X24484Y-24354
X24492Y-25232
X24528Y-26980
X24559Y-20917
X24776Y-17862
X24945Y-25520
X25043Y-21972
X25087Y-26969
X25280Y-22787
X25469Y-24433
X26173Y-25976
X28177Y-18512
X28890Y-23504
X28898Y-25122
X28925Y-18965
X29902Y-20457
X30154Y-19469
T2
X26795Y-21295
X27370Y-18457
X28535Y-20614
X29689Y-16004
T3
X19117Y-20754
X19117Y-21266
X19117Y-21778
X19117Y-22290
X19117Y-22801
X19117Y-23313
X19629Y-20754
X19629Y-21266
X19629Y-21778
X19629Y-22290
X19629Y-22801
X19629Y-23313
X20141Y-20754
X20141Y-21266
X20141Y-21778
X20141Y-22290
X20141Y-22801
X20141Y-23313
X20653Y-20754
X20653Y-21266
X20653Y-21778
X20653Y-22290
X20653Y-22801
X20653Y-23313
X21165Y-20754
X21165Y-21266
X21165Y-21778
X21165Y-22290
X21165Y-22801
X21165Y-23313
X21677Y-20754
X21677Y-21266
X21677Y-21778
X21677Y-22290
X21677Y-22801
X21677Y-23313
X24665Y-16500
X25098Y-16500
T4
X8122Y-16772
X8122Y-17772
X8122Y-18772
X8122Y-19772
X8122Y-20772
X8122Y-21772
X8122Y-22772
X8122Y-23772
X8122Y-24772
X8122Y-25772
X8122Y-26772
X8122Y-27772
X8122Y-28772
X8122Y-29772
X8122Y-30772
X8122Y-31772
X8122Y-32772
X8122Y-33772
X8122Y-34772
X8122Y-35772
X9122Y-16772
X9122Y-17772
X9122Y-18772
X9122Y-19772
X9122Y-20772
X9122Y-21772
X9122Y-22772
X9122Y-23772
X9122Y-24772
X9122Y-25772
X9122Y-26772
X9122Y-27772
X9122Y-28772
X9122Y-29772
X9122Y-30772
X9122Y-31772
X9122Y-32772
X9122Y-33772
X9122Y-34772
X9122Y-35772
X19240Y-12850
X19240Y-13850
T5
X22183Y-14008
X22933Y-12008
X23683Y-14008
X24433Y-12008
X25183Y-14008
X25933Y-12008
X26683Y-14008
X27433Y-12008
X28183Y-14008
X28933Y-12008
X29683Y-14008
X30433Y-12008
X31183Y-14008
X31933Y-12008
X32683Y-14008
X33433Y-12008
X34183Y-14008
X34933Y-12008
X35683Y-14008
X36433Y-12008
X37183Y-14008
T6
X19811Y-35630
X19811Y-37630
X20811Y-36630
X21811Y-35630
X21811Y-37630
X23453Y-35630
X23453Y-37630
X24453Y-36630
X25453Y-35630
X25453Y-37630
T7
X22909Y-31189
T0
M30
