G04 #@! TF.FileFunction,Paste,Bot*
%FSLAX46Y46*%
G04 Gerber Fmt 4.6, Leading zero omitted, Abs format (unit mm)*
G04 Created by KiCad (PCBNEW 4.0.6+dfsg1-1) date Fri Sep 29 01:28:00 2017*
%MOMM*%
%LPD*%
G01*
G04 APERTURE LIST*
%ADD10C,0.100000*%
%ADD11R,0.635000X1.143000*%
%ADD12R,1.143000X0.635000*%
G04 APERTURE END LIST*
D10*
D11*
X60242000Y-52890000D03*
X58718000Y-52890000D03*
X60242000Y-64900000D03*
X58718000Y-64900000D03*
X60242000Y-61470000D03*
X58718000Y-61470000D03*
X60242000Y-56320000D03*
X58718000Y-56320000D03*
X60242000Y-51170000D03*
X58718000Y-51170000D03*
X60232000Y-47720000D03*
X58708000Y-47720000D03*
X60242000Y-63180000D03*
X58718000Y-63180000D03*
X60242000Y-59750000D03*
X58718000Y-59750000D03*
X60242000Y-58030000D03*
X58718000Y-58030000D03*
X60242000Y-54600000D03*
X58718000Y-54600000D03*
X60242000Y-49450000D03*
X58718000Y-49450000D03*
D12*
X64120000Y-40242000D03*
X64120000Y-38718000D03*
X62340000Y-40242000D03*
X62340000Y-38718000D03*
X57040000Y-44078000D03*
X57040000Y-45602000D03*
X52760000Y-66368000D03*
X52760000Y-67892000D03*
X49520000Y-67892000D03*
X49520000Y-66368000D03*
X46080000Y-67902000D03*
X46080000Y-66378000D03*
D11*
X43418000Y-52240000D03*
X44942000Y-52240000D03*
X43408000Y-49740000D03*
X44932000Y-49740000D03*
X43418000Y-62750000D03*
X44942000Y-62750000D03*
X43418000Y-59250000D03*
X44942000Y-59250000D03*
X43418000Y-55750000D03*
X44942000Y-55750000D03*
D12*
X62300000Y-78132000D03*
X62300000Y-76608000D03*
X62280000Y-81638000D03*
X62280000Y-83162000D03*
X55370000Y-81618000D03*
X55370000Y-83142000D03*
X60560000Y-81638000D03*
X60560000Y-83162000D03*
X57090000Y-81618000D03*
X57090000Y-83142000D03*
D11*
X39928000Y-47720000D03*
X41452000Y-47720000D03*
X39928000Y-49480000D03*
X41452000Y-49480000D03*
M02*
