G04 #@! TF.GenerationSoftware,KiCad,Pcbnew,5.0.1+dfsg1-3*
G04 #@! TF.CreationDate,2018-12-17T22:42:35+02:00*
G04 #@! TF.ProjectId,isl_board,69736C5F626F6172642E6B696361645F,rev?*
G04 #@! TF.SameCoordinates,Original*
G04 #@! TF.FileFunction,Soldermask,Bot*
G04 #@! TF.FilePolarity,Negative*
%FSLAX46Y46*%
G04 Gerber Fmt 4.6, Leading zero omitted, Abs format (unit mm)*
G04 Created by KiCad (PCBNEW 5.0.1+dfsg1-3) date 2018-12-17T22:42:35 EET*
%MOMM*%
%LPD*%
G01*
G04 APERTURE LIST*
%ADD10C,2.301600*%
%ADD11C,1.625600*%
%ADD12R,1.244600X0.736600*%
%ADD13R,0.736600X1.244600*%
%ADD14R,1.801600X1.801600*%
%ADD15O,1.801600X1.801600*%
%ADD16C,2.351600*%
%ADD17R,2.601600X2.601600*%
%ADD18C,1.001600*%
%ADD19C,1.101600*%
G04 APERTURE END LIST*
D10*
G04 #@! TO.C,J4*
X58250000Y-30500000D03*
X60155000Y-35580000D03*
X62060000Y-30500000D03*
X63965000Y-35580000D03*
X65870000Y-30500000D03*
X67775000Y-35580000D03*
X69680000Y-30500000D03*
X71585000Y-35580000D03*
X73490000Y-30500000D03*
X75395000Y-35580000D03*
X77300000Y-30500000D03*
X79205000Y-35580000D03*
X92540000Y-30500000D03*
X83015000Y-35580000D03*
X81110000Y-30500000D03*
X86825000Y-35580000D03*
X84920000Y-30500000D03*
X90635000Y-35580000D03*
X88730000Y-30500000D03*
X94445000Y-35580000D03*
X56345000Y-35580000D03*
G04 #@! TD*
D11*
G04 #@! TO.C,J3*
X91390000Y-41710000D03*
X91390000Y-44250000D03*
X91390000Y-46790000D03*
X94015000Y-46790000D03*
X94015000Y-41710000D03*
G04 #@! TD*
D12*
G04 #@! TO.C,C52*
X89030000Y-44262000D03*
X89030000Y-42738000D03*
G04 #@! TD*
D13*
G04 #@! TO.C,R10*
X52568000Y-63770000D03*
X54092000Y-63770000D03*
G04 #@! TD*
D14*
G04 #@! TO.C,J2*
X85400000Y-79050000D03*
D15*
X85400000Y-76510000D03*
X87940000Y-79050000D03*
X87940000Y-76510000D03*
X90480000Y-79050000D03*
X90480000Y-76510000D03*
X93020000Y-79050000D03*
X93020000Y-76510000D03*
G04 #@! TD*
G04 #@! TO.C,J5*
X41250000Y-35040000D03*
X41250000Y-32500000D03*
X43790000Y-35040000D03*
X43790000Y-32500000D03*
X46330000Y-35040000D03*
X46330000Y-32500000D03*
X48870000Y-35040000D03*
D14*
X48870000Y-32500000D03*
G04 #@! TD*
D16*
G04 #@! TO.C,U6*
X28090053Y-34782843D03*
D17*
X28090053Y-34782843D03*
G04 #@! TD*
D13*
G04 #@! TO.C,C9*
X60242000Y-52890000D03*
X58718000Y-52890000D03*
G04 #@! TD*
G04 #@! TO.C,C10*
X60242000Y-64900000D03*
X58718000Y-64900000D03*
G04 #@! TD*
G04 #@! TO.C,C11*
X60242000Y-61470000D03*
X58718000Y-61470000D03*
G04 #@! TD*
G04 #@! TO.C,C12*
X60242000Y-56320000D03*
X58718000Y-56320000D03*
G04 #@! TD*
G04 #@! TO.C,C14*
X60242000Y-51170000D03*
X58718000Y-51170000D03*
G04 #@! TD*
G04 #@! TO.C,C15*
X60232000Y-47720000D03*
X58708000Y-47720000D03*
G04 #@! TD*
G04 #@! TO.C,C16*
X60242000Y-63180000D03*
X58718000Y-63180000D03*
G04 #@! TD*
G04 #@! TO.C,C17*
X60242000Y-59750000D03*
X58718000Y-59750000D03*
G04 #@! TD*
G04 #@! TO.C,C18*
X60242000Y-58030000D03*
X58718000Y-58030000D03*
G04 #@! TD*
G04 #@! TO.C,C19*
X60242000Y-54600000D03*
X58718000Y-54600000D03*
G04 #@! TD*
G04 #@! TO.C,C21*
X60242000Y-49450000D03*
X58718000Y-49450000D03*
G04 #@! TD*
D12*
G04 #@! TO.C,C24*
X64120000Y-40242000D03*
X64120000Y-38718000D03*
G04 #@! TD*
G04 #@! TO.C,C25*
X62340000Y-40242000D03*
X62340000Y-38718000D03*
G04 #@! TD*
G04 #@! TO.C,C26*
X57040000Y-44078000D03*
X57040000Y-45602000D03*
G04 #@! TD*
G04 #@! TO.C,C28*
X52760000Y-66368000D03*
X52760000Y-67892000D03*
G04 #@! TD*
G04 #@! TO.C,C29*
X49520000Y-67892000D03*
X49520000Y-66368000D03*
G04 #@! TD*
G04 #@! TO.C,C31*
X46080000Y-67902000D03*
X46080000Y-66378000D03*
G04 #@! TD*
D13*
G04 #@! TO.C,C32*
X43418000Y-52240000D03*
X44942000Y-52240000D03*
G04 #@! TD*
G04 #@! TO.C,C33*
X43408000Y-49740000D03*
X44932000Y-49740000D03*
G04 #@! TD*
G04 #@! TO.C,C34*
X43418000Y-62750000D03*
X44942000Y-62750000D03*
G04 #@! TD*
G04 #@! TO.C,C35*
X43418000Y-59250000D03*
X44942000Y-59250000D03*
G04 #@! TD*
G04 #@! TO.C,C36*
X43418000Y-55750000D03*
X44942000Y-55750000D03*
G04 #@! TD*
D12*
G04 #@! TO.C,C37*
X23970053Y-36210843D03*
X23970053Y-37734843D03*
G04 #@! TD*
G04 #@! TO.C,C38*
X24000053Y-32364843D03*
X24000053Y-30840843D03*
G04 #@! TD*
G04 #@! TO.C,C41*
X29190053Y-32384843D03*
X29190053Y-30860843D03*
G04 #@! TD*
D14*
G04 #@! TO.C,J1*
X20630000Y-42600000D03*
D15*
X23170000Y-42600000D03*
X20630000Y-45140000D03*
X23170000Y-45140000D03*
X20630000Y-47680000D03*
X23170000Y-47680000D03*
X20630000Y-50220000D03*
X23170000Y-50220000D03*
X20630000Y-52760000D03*
X23170000Y-52760000D03*
X20630000Y-55300000D03*
X23170000Y-55300000D03*
X20630000Y-57840000D03*
X23170000Y-57840000D03*
X20630000Y-60380000D03*
X23170000Y-60380000D03*
X20630000Y-62920000D03*
X23170000Y-62920000D03*
X20630000Y-65460000D03*
X23170000Y-65460000D03*
X20630000Y-68000000D03*
X23170000Y-68000000D03*
X20630000Y-70540000D03*
X23170000Y-70540000D03*
X20630000Y-73080000D03*
X23170000Y-73080000D03*
X20630000Y-75620000D03*
X23170000Y-75620000D03*
X20630000Y-78160000D03*
X23170000Y-78160000D03*
X20630000Y-80700000D03*
X23170000Y-80700000D03*
X20630000Y-83240000D03*
X23170000Y-83240000D03*
X20630000Y-85780000D03*
X23170000Y-85780000D03*
X20630000Y-88320000D03*
X23170000Y-88320000D03*
X20630000Y-90860000D03*
X23170000Y-90860000D03*
G04 #@! TD*
D12*
G04 #@! TO.C,R37*
X38190000Y-36644000D03*
X38190000Y-35120000D03*
G04 #@! TD*
D13*
G04 #@! TO.C,R39*
X39882000Y-46970000D03*
X38358000Y-46970000D03*
G04 #@! TD*
G04 #@! TO.C,R40*
X39892000Y-48690000D03*
X38368000Y-48690000D03*
G04 #@! TD*
D12*
G04 #@! TO.C,R45*
X51350000Y-32978000D03*
X51350000Y-34502000D03*
G04 #@! TD*
D18*
G04 #@! TO.C,Y1*
X63750000Y-41910000D03*
X62650000Y-41910000D03*
G04 #@! TD*
D19*
G04 #@! TO.C,U5*
X55058340Y-59215800D03*
X53758340Y-59215800D03*
X52458340Y-59215800D03*
X51158340Y-59215800D03*
X49858340Y-59215800D03*
X48558340Y-59215800D03*
X55058340Y-57915800D03*
X53758340Y-57915800D03*
X52458340Y-57915800D03*
X51158340Y-57915800D03*
X49858340Y-57915800D03*
X48558340Y-57915800D03*
X55058340Y-56615800D03*
X53758340Y-56615800D03*
X52458340Y-56615800D03*
X51158340Y-56615800D03*
X49858340Y-56615800D03*
X48558340Y-56615800D03*
X55058340Y-55315800D03*
X53758340Y-55315800D03*
X52458340Y-55315800D03*
X51158340Y-55315800D03*
X49858340Y-55315800D03*
X48558340Y-55315800D03*
X55058340Y-54015800D03*
X53758340Y-54015800D03*
X52458340Y-54015800D03*
X51158340Y-54015800D03*
X49858340Y-54015800D03*
X48558340Y-54015800D03*
X55058340Y-52715800D03*
X53758340Y-52715800D03*
X52458340Y-52715800D03*
X51158340Y-52715800D03*
X49858340Y-52715800D03*
X48558340Y-52715800D03*
G04 #@! TD*
M02*
